<?xml version="1.0" encoding="UTF-8"?>
<!DOCTYPE svg PUBLIC "-//W3C//DTD SVG 1.1//EN" "http://www.w3.org/Graphics/SVG/1.1/DTD/svg11.dtd">
<!-- Creator: CorelDRAW -->
<svg xmlns="http://www.w3.org/2000/svg" xml:space="preserve" width="5.4186mm" height="5.4187mm" version="1.1" style="shape-rendering:geometricPrecision; text-rendering:geometricPrecision; image-rendering:optimizeQuality; fill-rule:evenodd; clip-rule:evenodd"
viewBox="0 0 549.2 549.21"
 xmlns:xlink="http://www.w3.org/1999/xlink"
 xmlns:xodm="http://www.corel.com/coreldraw/odm/2003">
 <defs>
  <style type="text/css">
   <![CDATA[
    .fil3 {fill:#195390;fill-rule:nonzero}
    .fil1 {fill:#263155;fill-rule:nonzero}
    .fil4 {fill:#A2D6D8;fill-rule:nonzero}
    .fil2 {fill:#E95050;fill-rule:nonzero}
    .fil5 {fill:#FEDA3F;fill-rule:nonzero}
    .fil0 {fill:#FEFEFE;fill-rule:nonzero}
   ]]>
  </style>
 </defs>
 <g id="Layer_x0020_1">
  <metadata id="CorelCorpID_0Corel-Layer"/>
  <g id="_2023560870896">
   <path class="fil0" d="M48.15 196.76l147.46 0 44.33 42.02c5.62,5.32 15.17,1.2 15.17,-6.52l0 -36.54c20.56,-4.82 30.28,-17.62 30.3,-38.26 0,-39.34 0,-62.32 0,-109.32 0,-21.66 -17.63,-39.28 -39.3,-39.28l-197.98 0c-21.67,0 -39.3,17.63 -39.3,39.28l0 109.32c0,21.67 17.63,39.3 39.3,39.3z"/>
   <path class="fil1" d="M48.16 187.89l150.95 0 46.86 44.43c0.06,-0.01 0.12,-0.02 0.17,-0.05l0.12 -0.06 0 -43.51 6.85 -1.6c8.25,-1.94 14.18,-5.29 17.91,-10.04 3.73,-4.74 5.53,-11.28 5.53,-19.58l0 -109.34c0,-8.38 -3.42,-15.98 -8.92,-21.5 -5.51,-5.51 -13.12,-8.92 -21.51,-8.92l-197.97 0c-8.42,0 -16.04,3.41 -21.56,8.92 -5.49,5.48 -8.9,13.09 -8.9,21.5l0 109.34c0,8.4 3.41,16.01 8.9,21.5 5.51,5.51 13.14,8.92 21.56,8.92zm143.95 17.72l-143.95 0c-13.27,0 -25.3,-5.39 -34.01,-14.11 -8.74,-8.74 -14.16,-20.78 -14.16,-34.02l0 -109.34c0,-13.25 5.42,-25.29 14.16,-34.02 8.72,-8.72 20.75,-14.11 34.01,-14.11l197.97 0c13.28,0 25.32,5.39 34.03,14.11 8.71,8.72 14.11,20.76 14.11,34.02l0 109.34c0,12.33 -3.05,22.51 -9.33,30.52 -5.05,6.44 -12.01,11.22 -20.96,14.35l0 29.91c0,4.82 -1.9,8.98 -4.84,12.09 -1.71,1.81 -3.77,3.23 -6.01,4.2 -2.25,0.97 -4.71,1.5 -7.19,1.5 -4.24,0 -8.54,-1.5 -12.08,-4.85l-41.74 -39.58z"/>
   <path class="fil2" d="M255.84 82.44c0,0 0,0 0,0 0,-5.08 -4.11,-9.19 -9.19,-9.19 0,0 -0.01,0 -0.01,0l-147.18 0c-5.08,0 -9.2,4.11 -9.2,9.19 0,5.09 4.13,9.2 9.2,9.2l147.18 0c0,0 0.01,0 0.01,0 5.08,0 9.19,-4.11 9.19,-9.19 0,0 0,-0.01 0,-0.01l0 0z"/>
   <path class="fil3" d="M255.84 119.24c0,0 0,0 0,0 0,-5.09 -4.11,-9.2 -9.19,-9.2 0,0 -0.01,0 -0.01,0l-73.58 0c-5.09,0 -9.2,4.13 -9.2,9.2 0,5.08 4.11,9.19 9.2,9.19l73.58 0c0,0 0.01,0 0.01,0 5.08,0 9.19,-4.11 9.19,-9.19 0,0 0,0 0,0l0 0z"/>
   <g>
    <path class="fil2" d="M110.04 245.98c-80.55,0.25 -112.87,104.15 -47.98,150.14 -32.74,17.43 -53.2,51.55 -53.2,88.65 0,0.12 0,0.25 0,0.38l0 27.6c0,0 0,0.01 0,0.01 0,3.71 2.23,7.05 5.65,8.48 60.97,25.48 130.11,25.48 191.07,0 3.43,-1.43 5.65,-4.77 5.65,-8.48 0,0 0,-0.01 0.01,-0.01l0 -27.6c0,-0.12 0,-0.25 0,-0.38 0,-37.11 -20.47,-71.22 -53.21,-88.65 64.89,-45.98 32.58,-149.88 -47.98,-150.14z"/>
    <path class="fil1" d="M110.04 254.8c-18.97,0.06 -34.94,6.54 -47.07,16.8 -10.9,9.2 -18.76,21.49 -23.01,34.94 -4.27,13.48 -4.9,28.05 -1.32,41.81 3.98,15.3 13.23,29.71 28.54,40.56l11.66 8.25 -12.62 6.73c-14.93,7.96 -27.06,19.71 -35.46,33.71 -8.39,13.98 -13.05,30.21 -13.05,47.17l0 27.96c0,0.1 0.02,0.17 0.05,0.22 0.04,0.05 0.08,0.09 0.12,0.12l0.01 -0.02c29.39,12.27 60.76,18.42 92.15,18.42 31.39,0 62.77,-6.14 92.16,-18.42l0 0.02c0.05,-0.03 0.09,-0.07 0.12,-0.12 0.03,-0.05 0.05,-0.12 0.05,-0.22l0 -27.96c0,-16.96 -4.66,-33.19 -13.05,-47.17 -8.39,-14 -20.53,-25.75 -35.46,-33.71l-12.62 -6.73 11.66 -8.25c15.31,-10.86 24.56,-25.26 28.54,-40.56 3.59,-13.75 2.95,-28.33 -1.31,-41.81 -4.26,-13.45 -12.12,-25.73 -23.01,-34.94 -12.14,-10.27 -28.1,-16.74 -47.08,-16.8zm-58.49 3.3c15.14,-12.79 34.98,-20.88 58.49,-20.95 23.52,0.07 43.36,8.16 58.49,20.95 13.52,11.42 23.25,26.59 28.48,43.12 5.22,16.51 5.96,34.48 1.52,51.56 -4.03,15.48 -12.29,30.16 -25.3,42.31 12.79,8.91 23.39,20.36 31.25,33.45 10.03,16.72 15.61,36.09 15.61,56.24l0 27.96c0,3.62 -1.09,7.07 -3.03,9.98 -1.93,2.89 -4.69,5.23 -8.05,6.65l-0.03 0.03c-31.6,13.2 -65.28,19.79 -98.94,19.79 -33.66,0 -67.34,-6.6 -98.93,-19.79l-0.04 -0.03c-3.35,-1.42 -6.12,-3.76 -8.05,-6.65 -1.93,-2.91 -3.02,-6.37 -3.02,-9.98l0 -27.96c0,-20.15 5.57,-39.52 15.61,-56.24 7.85,-13.08 18.45,-24.54 31.25,-33.45 -13.01,-12.14 -21.27,-26.83 -25.3,-42.31 -4.45,-17.08 -3.71,-35.05 1.52,-51.56 5.22,-16.53 14.96,-31.69 28.47,-43.12z"/>
    <path class="fil0" d="M28.94 327.35c0.05,-44.92 36.45,-81.33 81.37,-81.38 107.81,4.09 107.78,158.68 0,162.75 -44.92,-0.05 -81.32,-36.46 -81.37,-81.38l0 0z"/>
    <path class="fil1" d="M20.11 327.34c0.02,-24.9 10.13,-47.44 26.45,-63.76 16.31,-16.31 38.84,-26.39 63.75,-26.42l0.31 0c41.6,1.58 68.72,23.67 81.31,51.9 5.38,12.08 8.08,25.22 8.08,38.29 0,13.07 -2.7,26.22 -8.08,38.29 -12.59,28.25 -39.71,50.34 -81.31,51.91l-0.31 0c-24.93,-0.03 -47.48,-10.13 -63.78,-26.42 -16.31,-16.31 -26.4,-38.86 -26.42,-63.79zm38.91 -51.23c-13.13,13.12 -21.24,31.23 -21.26,51.23 0.02,20 8.16,38.12 21.3,51.26 13.08,13.08 31.11,21.2 50.99,21.3 33.81,-1.3 55.71,-18.93 65.76,-41.46 4.33,-9.7 6.49,-20.37 6.49,-31.1 0,-10.72 -2.16,-21.4 -6.49,-31.09 -10.03,-22.53 -31.95,-40.17 -65.76,-41.45 -19.92,0.09 -37.95,8.21 -51.03,21.29z"/>
   </g>
   <g>
    <path class="fil4" d="M439.16 8.86c-80.56,0.25 -112.87,104.15 -47.98,150.13 -32.74,17.44 -53.21,51.55 -53.21,88.65 0,0.12 0,0.26 0,0.39l0 27.59c0,0.01 0,0.01 0,0.01 0,3.71 2.23,7.05 5.66,8.48 60.96,25.48 130.1,25.48 191.07,0 3.42,-1.43 5.65,-4.77 5.65,-8.48 0,0 0,0 0,-0.01l0 -27.59c0,-0.12 0,-0.26 0,-0.39 0,-37.11 -20.46,-71.21 -53.2,-88.65 64.89,-45.97 32.57,-149.87 -47.98,-150.13z"/>
    <path class="fil1" d="M439.16 17.68c-18.98,0.06 -34.95,6.55 -47.08,16.8 -10.9,9.21 -18.75,21.5 -23.01,34.96 -4.26,13.47 -4.9,28.04 -1.31,41.8 3.98,15.32 13.22,29.72 28.51,40.55l11.67 8.26 -12.61 6.72c-14.93,7.96 -27.06,19.71 -35.46,33.71 -8.38,13.97 -13.04,30.21 -13.04,47.17l0 27.96c0,0.1 0.02,0.17 0.05,0.22 0.03,0.05 0.07,0.09 0.12,0.11l0 -0.01c29.39,12.28 60.77,18.44 92.17,18.44 31.39,0 62.76,-6.15 92.14,-18.44l0.01 0.01c0.04,-0.02 0.08,-0.06 0.11,-0.11 0.03,-0.05 0.05,-0.12 0.05,-0.22l0 -27.96c0,-16.96 -4.66,-33.2 -13.04,-47.17 -8.4,-14 -20.53,-25.75 -35.46,-33.71l-12.61 -6.72 11.68 -8.26c15.28,-10.83 24.52,-25.23 28.51,-40.55 3.58,-13.75 2.95,-28.33 -1.32,-41.8 -4.25,-13.46 -12.11,-25.74 -23,-34.96 -12.14,-10.26 -28.1,-16.74 -47.08,-16.8zm-58.5 3.31c15.14,-12.8 34.98,-20.89 58.5,-20.96 23.52,0.07 43.36,8.16 58.49,20.96 13.52,11.43 23.25,26.59 28.47,43.12 5.22,16.51 5.97,34.48 1.52,51.56 -4.02,15.46 -12.28,30.13 -25.31,42.28 12.8,8.91 23.4,20.36 31.26,33.46 10.03,16.71 15.61,36.08 15.61,56.24l0 27.96c0,3.62 -1.09,7.07 -3.02,9.97 -1.93,2.9 -4.69,5.24 -8.05,6.65l-0.04 0.04c-31.58,13.21 -65.26,19.81 -98.92,19.81 -33.67,0 -67.35,-6.61 -98.95,-19.81l-0.03 -0.04c-3.35,-1.41 -6.12,-3.75 -8.05,-6.65 -1.94,-2.9 -3.03,-6.35 -3.03,-9.97l0 -27.96c0,-20.16 5.57,-39.53 15.61,-56.24 7.87,-13.09 18.46,-24.55 31.27,-33.46 -13.03,-12.15 -21.29,-26.83 -25.32,-42.28 -4.44,-17.08 -3.7,-35.05 1.52,-51.56 5.23,-16.53 14.95,-31.68 28.47,-43.12z"/>
    <path class="fil0" d="M358.04 90.23c0.05,-44.92 36.46,-81.33 81.38,-81.37 107.81,4.09 107.78,158.67 0,162.74 -44.92,-0.05 -81.33,-36.45 -81.38,-81.37l0 -0.01z"/>
    <path class="fil1" d="M349.22 90.25c0.03,-24.93 10.13,-47.48 26.42,-63.79 16.31,-16.3 38.86,-26.39 63.79,-26.42l0.3 0c41.61,1.58 68.73,23.67 81.32,51.9 5.38,12.07 8.07,25.22 8.07,38.29 0,13.07 -2.69,26.21 -8.07,38.29 -12.6,28.25 -39.72,50.33 -81.32,51.91l-0.3 0c-24.91,-0.03 -47.44,-10.13 -63.75,-26.42 -16.33,-16.32 -26.43,-38.87 -26.46,-63.76zm38.95 -51.26c-13.15,13.15 -21.28,31.27 -21.3,51.26 0.02,20 8.15,38.12 21.27,51.23 13.08,13.08 31.12,21.2 51.02,21.29 33.81,-1.29 55.72,-18.92 65.77,-41.45 4.32,-9.7 6.49,-20.37 6.49,-31.1 0,-10.72 -2.17,-21.4 -6.49,-31.1 -10.04,-22.52 -31.95,-40.16 -65.77,-41.45 -19.89,0.1 -37.91,8.22 -50.99,21.3z"/>
   </g>
   <path class="fil2" d="M462.05 229.63c0,0 0,0 0,0 0,5.08 4.11,9.19 9.19,9.19 0,0 0.01,0 0.01,0l27.6 0c5.08,0 9.19,-4.11 9.19,-9.19 0,-5.08 -4.11,-9.2 -9.19,-9.2l-27.6 0c0,0 -0.01,0 -0.01,0 -5.08,0 -9.19,4.13 -9.19,9.2 0,0 0,0 0,0l0 0z"/>
   <path class="fil0" d="M501.04 352.44l-147.46 0 -44.33 -42.02c-5.62,-5.32 -15.17,-1.2 -15.17,6.52l0 36.54c-20.56,4.82 -30.28,17.62 -30.3,38.26 0,39.34 0,62.33 0,109.32 0,21.66 17.63,39.3 39.3,39.3l197.98 0c21.67,0 39.3,-17.64 39.3,-39.3l0 -109.32c0,-21.67 -17.63,-39.3 -39.3,-39.3z"/>
   <path class="fil1" d="M501.03 361.31l-150.95 0 -46.87 -44.43c-0.05,0.01 -0.11,0.02 -0.17,0.05l-0.11 0.05 0 43.52 -6.85 1.61c-8.25,1.93 -14.18,5.28 -17.91,10.03 -3.73,4.74 -5.53,11.28 -5.53,19.59l0 109.33c0,8.38 3.42,15.99 8.92,21.5 5.51,5.51 13.12,8.93 21.5,8.93l198.01 0c8.38,0 15.98,-3.42 21.5,-8.93 5.51,-5.5 8.92,-13.12 8.92,-21.5l0 -109.33c0,-8.41 -3.4,-16.01 -8.89,-21.51 -5.51,-5.5 -13.14,-8.92 -21.56,-8.92zm-143.95 -17.72l143.95 0c13.27,0 25.3,5.4 34.01,14.11 8.74,8.74 14.15,20.78 14.15,34.03l0 109.33c0,13.27 -5.39,25.31 -14.11,34.02 -8.72,8.72 -20.76,14.12 -34.02,14.12l-198.01 0c-13.27,0 -25.31,-5.4 -34.02,-14.12 -8.71,-8.72 -14.11,-20.76 -14.11,-34.02l0 -109.33c0,-12.34 3.05,-22.51 9.33,-30.53 5.05,-6.44 12.01,-11.22 20.96,-14.35l0 -29.93c0,-4.81 1.89,-8.96 4.83,-12.07 1.71,-1.81 3.78,-3.23 6.01,-4.2 2.26,-0.97 4.71,-1.5 7.2,-1.5 4.24,0 8.53,1.5 12.08,4.85l41.74 39.58z"/>
   <g>
    <path class="fil3" d="M487.01 464.44l-169.9 0c-5.81,0.08 -10.47,4.81 -10.47,10.61 0,5.81 4.66,10.54 10.47,10.62l169.9 0c5.8,-0.08 10.46,-4.81 10.46,-10.62 0,-5.8 -4.66,-10.53 -10.46,-10.61l0 0z"/>
    <path class="fil5" d="M487.01 421.96l-84.96 0c-5.8,0.08 -10.47,4.81 -10.47,10.62 0,5.8 4.67,10.53 10.47,10.61l84.96 0c5.8,-0.08 10.47,-4.81 10.47,-10.61 0,-5.81 -4.67,-10.54 -10.47,-10.62z"/>
   </g>
  </g>
 </g>
</svg>
