<?xml version="1.0" encoding="UTF-8"?>
<!DOCTYPE svg PUBLIC "-//W3C//DTD SVG 1.1//EN" "http://www.w3.org/Graphics/SVG/1.1/DTD/svg11.dtd">
<!-- Creator: CorelDRAW -->
<svg xmlns="http://www.w3.org/2000/svg" xml:space="preserve" width="86.7986mm" height="5.0938mm" version="1.1" style="shape-rendering:geometricPrecision; text-rendering:geometricPrecision; image-rendering:optimizeQuality; fill-rule:evenodd; clip-rule:evenodd"
viewBox="0 0 785.47 46.1"
 xmlns:xlink="http://www.w3.org/1999/xlink"
 xmlns:xodm="http://www.corel.com/coreldraw/odm/2003">
 <defs>
  <style type="text/css">
   <![CDATA[
    .str0 {stroke:#FED942;stroke-width:0.9;stroke-miterlimit:22.9256}
    .fil0 {fill:#FEFEFE}
    .fil2 {fill:#FED942;fill-rule:nonzero}
    .fil1 {fill:#E9E3E7;fill-rule:nonzero;fill-opacity:0.219608}
   ]]>
  </style>
 </defs>
 <g id="Layer_x0020_1">
  <metadata id="CorelCorpID_0Corel-Layer"/>
  <rect class="fil0 str0" x="0.45" y="0.45" width="784.57" height="0.77"/>
  <g id="_1803883910624">
   <path class="fil1" d="M6.52 6.47c-0,0.57 -0.46,1.02 -1.03,1.02 -0.57,-0 -1.02,-0.46 -1.02,-1.03 0,-0.57 0.46,-1.02 1.03,-1.02 0.57,0 1.02,0.46 1.02,1.03z"/>
   <path class="fil1" d="M6.48 16.35c-0,0.57 -0.46,1.02 -1.03,1.02 -0.57,-0 -1.02,-0.46 -1.02,-1.03 0,-0.57 0.46,-1.02 1.03,-1.02 0.57,0 1.02,0.46 1.02,1.03z"/>
   <path class="fil1" d="M6.44 26.24c-0,0.57 -0.46,1.02 -1.03,1.02 -0.57,-0 -1.02,-0.46 -1.02,-1.03 0,-0.57 0.46,-1.02 1.03,-1.02 0.57,0 1.02,0.46 1.02,1.03z"/>
   <path class="fil1" d="M6.39 36.13c-0,0.57 -0.46,1.02 -1.03,1.02 -0.57,-0 -1.02,-0.46 -1.02,-1.03 0,-0.56 0.46,-1.02 1.03,-1.02 0.57,0 1.02,0.46 1.02,1.03z"/>
   <path class="fil1" d="M13.73 6.47c-0,0.57 -0.46,1.02 -1.03,1.02 -0.57,-0 -1.02,-0.46 -1.02,-1.03 0,-0.57 0.46,-1.02 1.03,-1.02 0.57,0 1.02,0.46 1.02,1.03z"/>
   <path class="fil1" d="M13.68 16.35c-0,0.57 -0.46,1.02 -1.03,1.02 -0.57,-0 -1.02,-0.46 -1.02,-1.03 0,-0.57 0.46,-1.02 1.03,-1.02 0.57,0 1.02,0.46 1.02,1.03z"/>
   <path class="fil1" d="M13.64 26.24c-0,0.57 -0.46,1.02 -1.03,1.02 -0.57,-0 -1.02,-0.46 -1.02,-1.03 0,-0.57 0.46,-1.02 1.03,-1.02 0.57,0 1.02,0.46 1.02,1.03z"/>
   <path class="fil1" d="M13.6 36.13c-0,0.57 -0.46,1.02 -1.03,1.02 -0.57,-0 -1.02,-0.46 -1.02,-1.03 0,-0.56 0.46,-1.02 1.03,-1.02 0.57,0 1.02,0.46 1.02,1.03z"/>
   <path class="fil1" d="M20.93 6.47c-0,0.57 -0.46,1.02 -1.03,1.02 -0.57,-0 -1.02,-0.46 -1.02,-1.03 0,-0.57 0.46,-1.02 1.03,-1.02 0.57,0 1.02,0.46 1.02,1.03z"/>
   <path class="fil1" d="M20.89 16.35c-0,0.57 -0.46,1.02 -1.03,1.02 -0.57,-0 -1.02,-0.46 -1.02,-1.03 0,-0.57 0.46,-1.02 1.03,-1.02 0.57,0 1.02,0.46 1.02,1.03z"/>
   <path class="fil1" d="M20.85 26.24c-0,0.57 -0.46,1.02 -1.03,1.02 -0.57,-0 -1.02,-0.46 -1.02,-1.03 0,-0.57 0.46,-1.02 1.03,-1.02 0.57,0 1.02,0.46 1.02,1.03z"/>
   <path class="fil1" d="M20.8 36.13c-0,0.57 -0.46,1.02 -1.03,1.02 -0.57,-0 -1.02,-0.46 -1.02,-1.03 0,-0.56 0.46,-1.02 1.03,-1.02 0.57,0 1.02,0.46 1.02,1.03z"/>
   <path class="fil1" d="M28.14 6.47c-0,0.57 -0.46,1.02 -1.03,1.02 -0.57,-0 -1.02,-0.46 -1.02,-1.03 0,-0.57 0.46,-1.02 1.03,-1.02 0.57,0 1.02,0.46 1.02,1.03z"/>
   <path class="fil1" d="M28.1 16.35c-0,0.57 -0.46,1.02 -1.03,1.02 -0.57,-0 -1.02,-0.46 -1.02,-1.03 0,-0.57 0.46,-1.02 1.03,-1.02 0.57,0 1.02,0.46 1.02,1.03z"/>
   <path class="fil1" d="M28.05 26.24c-0,0.57 -0.46,1.02 -1.03,1.02 -0.57,-0 -1.02,-0.46 -1.02,-1.03 0,-0.57 0.46,-1.02 1.03,-1.02 0.57,0 1.02,0.46 1.02,1.03z"/>
   <path class="fil1" d="M28.01 36.13c-0,0.57 -0.46,1.02 -1.03,1.02 -0.57,-0 -1.02,-0.46 -1.02,-1.03 0,-0.56 0.46,-1.02 1.03,-1.02 0.57,0 1.02,0.46 1.02,1.03z"/>
   <path class="fil1" d="M35.35 6.47c-0,0.57 -0.46,1.02 -1.03,1.02 -0.57,-0 -1.02,-0.46 -1.02,-1.03 0,-0.57 0.46,-1.02 1.03,-1.02 0.57,0 1.02,0.46 1.02,1.03z"/>
   <path class="fil1" d="M35.3 16.35c-0,0.57 -0.46,1.02 -1.03,1.02 -0.57,-0 -1.02,-0.46 -1.02,-1.03 0,-0.57 0.46,-1.02 1.03,-1.02 0.57,0 1.02,0.46 1.02,1.03z"/>
   <path class="fil1" d="M35.26 26.24c-0,0.57 -0.46,1.02 -1.03,1.02 -0.57,-0 -1.02,-0.46 -1.02,-1.03 0,-0.57 0.46,-1.02 1.03,-1.02 0.57,0 1.02,0.46 1.02,1.03z"/>
   <path class="fil1" d="M35.21 36.13c-0,0.57 -0.46,1.02 -1.03,1.02 -0.57,-0 -1.02,-0.46 -1.02,-1.03 0,-0.56 0.46,-1.02 1.03,-1.02 0.57,0 1.02,0.46 1.02,1.03z"/>
   <path class="fil1" d="M42.55 6.47c-0,0.57 -0.46,1.02 -1.03,1.02 -0.57,-0 -1.02,-0.46 -1.02,-1.03 0,-0.57 0.46,-1.02 1.03,-1.02 0.57,0 1.02,0.46 1.02,1.03z"/>
   <path class="fil1" d="M42.51 16.35c-0,0.57 -0.46,1.02 -1.03,1.02 -0.57,-0 -1.02,-0.46 -1.02,-1.03 0,-0.57 0.46,-1.02 1.03,-1.02 0.57,0 1.02,0.46 1.02,1.03z"/>
   <path class="fil1" d="M42.47 26.24c-0,0.57 -0.46,1.02 -1.03,1.02 -0.57,-0 -1.02,-0.46 -1.02,-1.03 0,-0.57 0.46,-1.02 1.03,-1.02 0.57,0 1.02,0.46 1.02,1.03z"/>
   <path class="fil1" d="M42.42 36.13c-0,0.57 -0.46,1.02 -1.03,1.02 -0.57,-0 -1.02,-0.46 -1.02,-1.03 0,-0.56 0.46,-1.02 1.03,-1.02 0.57,0 1.02,0.46 1.02,1.03z"/>
   <path class="fil1" d="M49.76 6.47c-0,0.57 -0.46,1.02 -1.03,1.02 -0.57,-0 -1.02,-0.46 -1.02,-1.03 0,-0.57 0.46,-1.02 1.03,-1.02 0.57,0 1.02,0.46 1.02,1.03z"/>
   <path class="fil1" d="M49.71 16.35c-0,0.57 -0.46,1.02 -1.03,1.02 -0.57,-0 -1.02,-0.46 -1.02,-1.03 0,-0.57 0.46,-1.02 1.03,-1.02 0.57,0 1.02,0.46 1.02,1.03z"/>
   <path class="fil1" d="M49.67 26.24c-0,0.57 -0.46,1.02 -1.03,1.02 -0.57,-0 -1.02,-0.46 -1.02,-1.03 0,-0.57 0.46,-1.02 1.03,-1.02 0.57,0 1.02,0.46 1.02,1.03z"/>
   <path class="fil1" d="M49.63 36.13c-0,0.57 -0.46,1.02 -1.03,1.02 -0.57,-0 -1.02,-0.46 -1.02,-1.03 0,-0.56 0.46,-1.02 1.03,-1.02 0.57,0 1.02,0.46 1.02,1.03z"/>
   <path class="fil1" d="M56.96 6.47c-0,0.57 -0.46,1.02 -1.03,1.02 -0.57,-0 -1.02,-0.46 -1.02,-1.03 0,-0.57 0.46,-1.02 1.03,-1.02 0.57,0 1.02,0.46 1.02,1.03z"/>
   <path class="fil1" d="M56.92 16.35c-0,0.57 -0.46,1.02 -1.03,1.02 -0.57,-0 -1.02,-0.46 -1.02,-1.03 0,-0.57 0.46,-1.02 1.03,-1.02 0.57,0 1.02,0.46 1.02,1.03z"/>
   <path class="fil1" d="M56.88 26.24c-0,0.57 -0.46,1.02 -1.03,1.02 -0.57,-0 -1.02,-0.46 -1.02,-1.03 0,-0.57 0.46,-1.02 1.03,-1.02 0.57,0 1.02,0.46 1.02,1.03z"/>
   <path class="fil1" d="M56.83 36.13c-0,0.57 -0.46,1.02 -1.03,1.02 -0.57,-0 -1.02,-0.46 -1.02,-1.03 0,-0.56 0.46,-1.02 1.03,-1.02 0.57,0 1.02,0.46 1.02,1.03z"/>
   <path class="fil1" d="M64.17 6.47c-0,0.57 -0.46,1.02 -1.03,1.02 -0.57,-0 -1.02,-0.46 -1.02,-1.03 0,-0.57 0.46,-1.02 1.03,-1.02 0.57,0 1.02,0.46 1.02,1.03z"/>
   <path class="fil1" d="M64.13 16.35c-0,0.57 -0.46,1.02 -1.03,1.02 -0.57,-0 -1.02,-0.46 -1.02,-1.03 0,-0.57 0.46,-1.02 1.03,-1.02 0.57,0 1.02,0.46 1.02,1.03z"/>
   <path class="fil1" d="M64.08 26.24c-0,0.57 -0.46,1.02 -1.03,1.02 -0.57,-0 -1.02,-0.46 -1.02,-1.03 0,-0.57 0.46,-1.02 1.03,-1.02 0.57,0 1.02,0.46 1.02,1.03z"/>
   <path class="fil1" d="M64.04 36.13c-0,0.57 -0.46,1.02 -1.03,1.02 -0.57,-0 -1.02,-0.46 -1.02,-1.03 0,-0.56 0.46,-1.02 1.03,-1.02 0.57,0 1.02,0.46 1.02,1.03z"/>
   <path class="fil1" d="M71.38 6.47c-0,0.57 -0.46,1.02 -1.03,1.02 -0.57,-0 -1.02,-0.46 -1.02,-1.03 0,-0.57 0.46,-1.02 1.03,-1.02 0.57,0 1.02,0.46 1.02,1.03z"/>
   <path class="fil1" d="M71.33 16.35c-0,0.57 -0.46,1.02 -1.03,1.02 -0.57,-0 -1.02,-0.46 -1.02,-1.03 0,-0.57 0.46,-1.02 1.03,-1.02 0.57,0 1.02,0.46 1.02,1.03z"/>
   <path class="fil1" d="M71.29 26.24c-0,0.57 -0.46,1.02 -1.03,1.02 -0.57,-0 -1.02,-0.46 -1.02,-1.03 0,-0.57 0.46,-1.02 1.03,-1.02 0.57,0 1.02,0.46 1.02,1.03z"/>
   <path class="fil1" d="M71.24 36.13c-0,0.57 -0.46,1.02 -1.03,1.02 -0.57,-0 -1.02,-0.46 -1.02,-1.03 0,-0.56 0.46,-1.02 1.03,-1.02 0.57,0 1.02,0.46 1.02,1.03z"/>
   <path class="fil1" d="M78.58 6.47c-0,0.57 -0.46,1.02 -1.03,1.02 -0.57,-0 -1.02,-0.46 -1.02,-1.03 0,-0.57 0.46,-1.02 1.03,-1.02 0.57,0 1.02,0.46 1.02,1.03z"/>
   <path class="fil1" d="M78.54 16.35c-0,0.57 -0.46,1.02 -1.03,1.02 -0.57,-0 -1.02,-0.46 -1.02,-1.03 0,-0.57 0.46,-1.02 1.03,-1.02 0.57,0 1.02,0.46 1.02,1.03z"/>
   <path class="fil1" d="M78.5 26.24c-0,0.57 -0.46,1.02 -1.03,1.02 -0.57,-0 -1.02,-0.46 -1.02,-1.03 0,-0.57 0.46,-1.02 1.03,-1.02 0.57,0 1.02,0.46 1.02,1.03z"/>
   <path class="fil1" d="M78.45 36.13c-0,0.57 -0.46,1.02 -1.03,1.02 -0.57,-0 -1.02,-0.46 -1.02,-1.03 0,-0.56 0.46,-1.02 1.03,-1.02 0.57,0 1.02,0.46 1.02,1.03z"/>
   <path class="fil1" d="M85.79 6.47c-0,0.57 -0.46,1.02 -1.03,1.02 -0.57,-0 -1.02,-0.46 -1.02,-1.03 0,-0.57 0.46,-1.02 1.03,-1.02 0.57,0 1.02,0.46 1.02,1.03z"/>
   <path class="fil1" d="M85.74 16.35c-0,0.57 -0.46,1.02 -1.03,1.02 -0.57,-0 -1.02,-0.46 -1.02,-1.03 0,-0.57 0.46,-1.02 1.03,-1.02 0.57,0 1.02,0.46 1.02,1.03z"/>
   <path class="fil1" d="M85.7 26.24c-0,0.57 -0.46,1.02 -1.03,1.02 -0.57,-0 -1.02,-0.46 -1.02,-1.03 0,-0.57 0.46,-1.02 1.03,-1.02 0.57,0 1.02,0.46 1.02,1.03z"/>
   <path class="fil1" d="M85.66 36.13c-0,0.57 -0.46,1.02 -1.03,1.02 -0.57,-0 -1.02,-0.46 -1.02,-1.03 0,-0.56 0.46,-1.02 1.03,-1.02 0.57,0 1.02,0.46 1.02,1.03z"/>
   <path class="fil1" d="M92.99 6.47c-0,0.57 -0.46,1.02 -1.03,1.02 -0.57,-0 -1.02,-0.46 -1.02,-1.03 0,-0.57 0.46,-1.02 1.03,-1.02 0.57,0 1.02,0.46 1.02,1.03z"/>
   <path class="fil1" d="M92.95 16.35c-0,0.57 -0.46,1.02 -1.03,1.02 -0.57,-0 -1.02,-0.46 -1.02,-1.03 0,-0.57 0.46,-1.02 1.03,-1.02 0.57,0 1.02,0.46 1.02,1.03z"/>
   <path class="fil1" d="M92.91 26.24c-0,0.57 -0.46,1.02 -1.03,1.02 -0.57,-0 -1.02,-0.46 -1.02,-1.03 0,-0.57 0.46,-1.02 1.03,-1.02 0.57,0 1.02,0.46 1.02,1.03z"/>
   <path class="fil1" d="M92.86 36.13c-0,0.57 -0.46,1.02 -1.03,1.02 -0.57,-0 -1.02,-0.46 -1.02,-1.03 0,-0.56 0.46,-1.02 1.03,-1.02 0.57,0 1.02,0.46 1.02,1.03z"/>
   <path class="fil1" d="M100.2 6.47c-0,0.57 -0.46,1.02 -1.03,1.02 -0.57,-0 -1.02,-0.46 -1.02,-1.03 0,-0.57 0.46,-1.02 1.03,-1.02 0.57,0 1.02,0.46 1.02,1.03z"/>
   <path class="fil1" d="M100.16 16.35c-0,0.57 -0.46,1.02 -1.03,1.02 -0.57,-0 -1.02,-0.46 -1.02,-1.03 0,-0.57 0.46,-1.02 1.03,-1.02 0.57,0 1.02,0.46 1.02,1.03z"/>
   <path class="fil1" d="M100.11 26.24c-0,0.57 -0.46,1.02 -1.03,1.02 -0.57,-0 -1.02,-0.46 -1.02,-1.03 0,-0.57 0.46,-1.02 1.03,-1.02 0.57,0 1.02,0.46 1.02,1.03z"/>
   <path class="fil1" d="M100.07 36.13c-0,0.57 -0.46,1.02 -1.03,1.02 -0.57,-0 -1.02,-0.46 -1.02,-1.03 0,-0.56 0.46,-1.02 1.03,-1.02 0.57,0 1.02,0.46 1.02,1.03z"/>
   <path class="fil1" d="M107.41 6.47c-0,0.57 -0.46,1.02 -1.03,1.02 -0.57,-0 -1.02,-0.46 -1.02,-1.03 0,-0.57 0.46,-1.02 1.03,-1.02 0.57,0 1.02,0.46 1.02,1.03z"/>
   <path class="fil1" d="M107.36 16.35c-0,0.57 -0.46,1.02 -1.03,1.02 -0.57,-0 -1.02,-0.46 -1.02,-1.03 0,-0.57 0.46,-1.02 1.03,-1.02 0.57,0 1.02,0.46 1.02,1.03z"/>
   <path class="fil1" d="M107.32 26.24c-0,0.57 -0.46,1.02 -1.03,1.02 -0.57,-0 -1.02,-0.46 -1.02,-1.03 0,-0.57 0.46,-1.02 1.03,-1.02 0.57,0 1.02,0.46 1.02,1.03z"/>
   <path class="fil1" d="M107.27 36.13c-0,0.57 -0.46,1.02 -1.03,1.02 -0.57,-0 -1.02,-0.46 -1.02,-1.03 0,-0.56 0.46,-1.02 1.03,-1.02 0.57,0 1.02,0.46 1.02,1.03z"/>
   <path class="fil1" d="M114.61 6.47c-0,0.57 -0.46,1.02 -1.03,1.02 -0.57,-0 -1.02,-0.46 -1.02,-1.03 0,-0.57 0.46,-1.02 1.03,-1.02 0.57,0 1.02,0.46 1.02,1.03z"/>
   <path class="fil1" d="M114.57 16.35c-0,0.57 -0.46,1.02 -1.03,1.02 -0.57,-0 -1.02,-0.46 -1.02,-1.03 0,-0.57 0.46,-1.02 1.03,-1.02 0.57,0 1.02,0.46 1.02,1.03z"/>
   <path class="fil1" d="M114.53 26.24c-0,0.57 -0.46,1.02 -1.03,1.02 -0.57,-0 -1.02,-0.46 -1.02,-1.03 0,-0.57 0.46,-1.02 1.03,-1.02 0.57,0 1.02,0.46 1.02,1.03z"/>
   <path class="fil1" d="M114.48 36.13c-0,0.57 -0.46,1.02 -1.03,1.02 -0.57,-0 -1.02,-0.46 -1.02,-1.03 0,-0.56 0.46,-1.02 1.03,-1.02 0.57,0 1.02,0.46 1.02,1.03z"/>
   <path class="fil1" d="M121.82 6.47c-0,0.57 -0.46,1.02 -1.03,1.02 -0.57,-0 -1.02,-0.46 -1.02,-1.03 0,-0.57 0.46,-1.02 1.03,-1.02 0.57,0 1.02,0.46 1.02,1.03z"/>
   <path class="fil1" d="M121.77 16.35c-0,0.57 -0.46,1.02 -1.03,1.02 -0.57,-0 -1.02,-0.46 -1.02,-1.03 0,-0.57 0.46,-1.02 1.03,-1.02 0.57,0 1.02,0.46 1.02,1.03z"/>
   <path class="fil1" d="M121.73 26.24c-0,0.57 -0.46,1.02 -1.03,1.02 -0.57,-0 -1.02,-0.46 -1.02,-1.03 0,-0.57 0.46,-1.02 1.03,-1.02 0.57,0 1.02,0.46 1.02,1.03z"/>
   <path class="fil1" d="M121.69 36.13c-0,0.57 -0.46,1.02 -1.03,1.02 -0.57,-0 -1.02,-0.46 -1.02,-1.03 0,-0.56 0.46,-1.02 1.03,-1.02 0.57,0 1.02,0.46 1.02,1.03z"/>
   <path class="fil1" d="M129.03 6.47c-0,0.57 -0.46,1.02 -1.03,1.02 -0.57,-0 -1.02,-0.46 -1.02,-1.03 0,-0.57 0.46,-1.02 1.03,-1.02 0.57,0 1.02,0.46 1.02,1.03z"/>
   <path class="fil1" d="M128.98 16.35c-0,0.57 -0.46,1.02 -1.03,1.02 -0.57,-0 -1.02,-0.46 -1.02,-1.03 0,-0.57 0.46,-1.02 1.03,-1.02 0.57,0 1.02,0.46 1.02,1.03z"/>
   <path class="fil1" d="M128.94 26.24c-0,0.57 -0.46,1.02 -1.03,1.02 -0.57,-0 -1.02,-0.46 -1.02,-1.03 0,-0.57 0.46,-1.02 1.03,-1.02 0.57,0 1.02,0.46 1.02,1.03z"/>
   <path class="fil1" d="M128.89 36.13c-0,0.57 -0.46,1.02 -1.03,1.02 -0.57,-0 -1.02,-0.46 -1.02,-1.03 0,-0.56 0.46,-1.02 1.03,-1.02 0.57,0 1.02,0.46 1.02,1.03z"/>
   <path class="fil1" d="M136.23 6.47c-0,0.57 -0.46,1.02 -1.03,1.02 -0.57,-0 -1.02,-0.46 -1.02,-1.03 0,-0.57 0.46,-1.02 1.03,-1.02 0.57,0 1.02,0.46 1.02,1.03z"/>
   <path class="fil1" d="M136.19 16.35c-0,0.57 -0.46,1.02 -1.03,1.02 -0.57,-0 -1.02,-0.46 -1.02,-1.03 0,-0.57 0.46,-1.02 1.03,-1.02 0.57,0 1.02,0.46 1.02,1.03z"/>
   <path class="fil1" d="M136.14 26.24c-0,0.57 -0.46,1.02 -1.03,1.02 -0.57,-0 -1.02,-0.46 -1.02,-1.03 0,-0.57 0.46,-1.02 1.03,-1.02 0.57,0 1.02,0.46 1.02,1.03z"/>
   <path class="fil1" d="M136.1 36.13c-0,0.57 -0.46,1.02 -1.03,1.02 -0.57,-0 -1.02,-0.46 -1.02,-1.03 0,-0.56 0.46,-1.02 1.03,-1.02 0.57,0 1.02,0.46 1.02,1.03z"/>
   <path class="fil1" d="M143.44 6.47c-0,0.57 -0.46,1.02 -1.03,1.02 -0.57,-0 -1.02,-0.46 -1.02,-1.03 0,-0.57 0.46,-1.02 1.03,-1.02 0.57,0 1.02,0.46 1.02,1.03z"/>
   <path class="fil1" d="M143.39 16.35c-0,0.57 -0.46,1.02 -1.03,1.02 -0.57,-0 -1.02,-0.46 -1.02,-1.03 0,-0.57 0.46,-1.02 1.03,-1.02 0.57,0 1.02,0.46 1.02,1.03z"/>
   <path class="fil1" d="M143.35 26.24c-0,0.57 -0.46,1.02 -1.03,1.02 -0.57,-0 -1.02,-0.46 -1.02,-1.03 0,-0.57 0.46,-1.02 1.03,-1.02 0.57,0 1.02,0.46 1.02,1.03z"/>
   <path class="fil1" d="M143.3 36.13c-0,0.57 -0.46,1.02 -1.03,1.02 -0.57,-0 -1.02,-0.46 -1.02,-1.03 0,-0.56 0.46,-1.02 1.03,-1.02 0.57,0 1.02,0.46 1.02,1.03z"/>
   <path class="fil1" d="M150.64 6.47c-0,0.57 -0.46,1.02 -1.03,1.02 -0.57,-0 -1.02,-0.46 -1.02,-1.03 0,-0.57 0.46,-1.02 1.03,-1.02 0.57,0 1.02,0.46 1.02,1.03z"/>
   <path class="fil1" d="M150.6 16.35c-0,0.57 -0.46,1.02 -1.03,1.02 -0.57,-0 -1.02,-0.46 -1.02,-1.03 0,-0.57 0.46,-1.02 1.03,-1.02 0.57,0 1.02,0.46 1.02,1.03z"/>
   <path class="fil1" d="M150.56 26.24c-0,0.57 -0.46,1.02 -1.03,1.02 -0.57,-0 -1.02,-0.46 -1.02,-1.03 0,-0.57 0.46,-1.02 1.03,-1.02 0.57,0 1.02,0.46 1.02,1.03z"/>
   <path class="fil1" d="M150.51 36.13c-0,0.57 -0.46,1.02 -1.03,1.02 -0.57,-0 -1.02,-0.46 -1.02,-1.03 0,-0.56 0.46,-1.02 1.03,-1.02 0.57,0 1.02,0.46 1.02,1.03z"/>
   <path class="fil1" d="M157.85 6.47c-0,0.57 -0.46,1.02 -1.03,1.02 -0.57,-0 -1.02,-0.46 -1.02,-1.03 0,-0.57 0.46,-1.02 1.03,-1.02 0.57,0 1.02,0.46 1.02,1.03z"/>
   <path class="fil1" d="M157.8 16.35c-0,0.57 -0.46,1.02 -1.03,1.02 -0.57,-0 -1.02,-0.46 -1.02,-1.03 0,-0.57 0.46,-1.02 1.03,-1.02 0.57,0 1.02,0.46 1.02,1.03z"/>
   <path class="fil1" d="M157.76 26.24c-0,0.57 -0.46,1.02 -1.03,1.02 -0.57,-0 -1.02,-0.46 -1.02,-1.03 0,-0.57 0.46,-1.02 1.03,-1.02 0.57,0 1.02,0.46 1.02,1.03z"/>
   <path class="fil1" d="M157.72 36.13c-0,0.57 -0.46,1.02 -1.03,1.02 -0.57,-0 -1.02,-0.46 -1.02,-1.03 0,-0.56 0.46,-1.02 1.03,-1.02 0.57,0 1.02,0.46 1.02,1.03z"/>
   <path class="fil1" d="M165.06 6.47c-0,0.57 -0.46,1.02 -1.03,1.02 -0.57,-0 -1.02,-0.46 -1.02,-1.03 0,-0.57 0.46,-1.02 1.03,-1.02 0.57,0 1.02,0.46 1.02,1.03z"/>
   <path class="fil1" d="M165.01 16.35c-0,0.57 -0.46,1.02 -1.03,1.02 -0.57,-0 -1.02,-0.46 -1.02,-1.03 0,-0.57 0.46,-1.02 1.03,-1.02 0.57,0 1.02,0.46 1.02,1.03z"/>
   <path class="fil1" d="M164.97 26.24c-0,0.57 -0.46,1.02 -1.03,1.02 -0.57,-0 -1.02,-0.46 -1.02,-1.03 0,-0.57 0.46,-1.02 1.03,-1.02 0.57,0 1.02,0.46 1.02,1.03z"/>
   <path class="fil1" d="M164.92 36.13c-0,0.57 -0.46,1.02 -1.03,1.02 -0.57,-0 -1.02,-0.46 -1.02,-1.03 0,-0.56 0.46,-1.02 1.03,-1.02 0.57,0 1.02,0.46 1.02,1.03z"/>
   <path class="fil1" d="M172.26 6.47c-0,0.57 -0.46,1.02 -1.03,1.02 -0.57,-0 -1.02,-0.46 -1.02,-1.03 0,-0.57 0.46,-1.02 1.03,-1.02 0.57,0 1.02,0.46 1.02,1.03z"/>
   <path class="fil1" d="M172.22 16.35c-0,0.57 -0.46,1.02 -1.03,1.02 -0.57,-0 -1.02,-0.46 -1.02,-1.03 0,-0.57 0.46,-1.02 1.03,-1.02 0.57,0 1.02,0.46 1.02,1.03z"/>
   <path class="fil1" d="M172.17 26.24c-0,0.57 -0.46,1.02 -1.03,1.02 -0.57,-0 -1.02,-0.46 -1.02,-1.03 0,-0.57 0.46,-1.02 1.03,-1.02 0.57,0 1.02,0.46 1.02,1.03z"/>
   <path class="fil1" d="M172.13 36.13c-0,0.57 -0.46,1.02 -1.03,1.02 -0.57,-0 -1.02,-0.46 -1.02,-1.03 0,-0.56 0.46,-1.02 1.03,-1.02 0.57,0 1.02,0.46 1.02,1.03z"/>
   <path class="fil1" d="M179.47 6.47c-0,0.57 -0.46,1.02 -1.03,1.02 -0.57,-0 -1.02,-0.46 -1.02,-1.03 0,-0.57 0.46,-1.02 1.03,-1.02 0.57,0 1.02,0.46 1.02,1.03z"/>
   <path class="fil1" d="M179.42 16.35c-0,0.57 -0.46,1.02 -1.03,1.02 -0.57,-0 -1.02,-0.46 -1.02,-1.03 0,-0.57 0.46,-1.02 1.03,-1.02 0.57,0 1.02,0.46 1.02,1.03z"/>
   <path class="fil1" d="M179.38 26.24c-0,0.57 -0.46,1.02 -1.03,1.02 -0.57,-0 -1.02,-0.46 -1.02,-1.03 0,-0.57 0.46,-1.02 1.03,-1.02 0.57,0 1.02,0.46 1.02,1.03z"/>
   <path class="fil1" d="M179.33 36.13c-0,0.57 -0.46,1.02 -1.03,1.02 -0.57,-0 -1.02,-0.46 -1.02,-1.03 0,-0.56 0.46,-1.02 1.03,-1.02 0.57,0 1.02,0.46 1.02,1.03z"/>
   <path class="fil1" d="M186.67 6.47c-0,0.57 -0.46,1.02 -1.03,1.02 -0.57,-0 -1.02,-0.46 -1.02,-1.03 0,-0.57 0.46,-1.02 1.03,-1.02 0.57,0 1.02,0.46 1.02,1.03z"/>
   <path class="fil1" d="M186.63 16.35c-0,0.57 -0.46,1.02 -1.03,1.02 -0.57,-0 -1.02,-0.46 -1.02,-1.03 0,-0.57 0.46,-1.02 1.03,-1.02 0.57,0 1.02,0.46 1.02,1.03z"/>
   <path class="fil1" d="M186.59 26.24c-0,0.57 -0.46,1.02 -1.03,1.02 -0.57,-0 -1.02,-0.46 -1.02,-1.03 0,-0.57 0.46,-1.02 1.03,-1.02 0.57,0 1.02,0.46 1.02,1.03z"/>
   <path class="fil1" d="M186.54 36.13c-0,0.57 -0.46,1.02 -1.03,1.02 -0.57,-0 -1.02,-0.46 -1.02,-1.03 0,-0.56 0.46,-1.02 1.03,-1.02 0.57,0 1.02,0.46 1.02,1.03z"/>
   <path class="fil1" d="M193.88 6.47c-0,0.57 -0.46,1.02 -1.03,1.02 -0.57,-0 -1.02,-0.46 -1.02,-1.03 0,-0.57 0.46,-1.02 1.03,-1.02 0.57,0 1.02,0.46 1.02,1.03z"/>
   <path class="fil1" d="M193.83 16.35c-0,0.57 -0.46,1.02 -1.03,1.02 -0.57,-0 -1.02,-0.46 -1.02,-1.03 0,-0.57 0.46,-1.02 1.03,-1.02 0.57,0 1.02,0.46 1.02,1.03z"/>
   <path class="fil1" d="M193.79 26.24c-0,0.57 -0.46,1.02 -1.03,1.02 -0.57,-0 -1.02,-0.46 -1.02,-1.03 0,-0.57 0.46,-1.02 1.03,-1.02 0.57,0 1.02,0.46 1.02,1.03z"/>
   <path class="fil1" d="M193.75 36.13c-0,0.57 -0.46,1.02 -1.03,1.02 -0.57,-0 -1.02,-0.46 -1.02,-1.03 0,-0.56 0.46,-1.02 1.03,-1.02 0.57,0 1.02,0.46 1.02,1.03z"/>
   <path class="fil1" d="M201.09 6.47c-0,0.57 -0.46,1.02 -1.03,1.02 -0.57,-0 -1.02,-0.46 -1.02,-1.03 0,-0.57 0.46,-1.02 1.03,-1.02 0.57,0 1.02,0.46 1.02,1.03z"/>
   <path class="fil1" d="M201.04 16.35c-0,0.57 -0.46,1.02 -1.03,1.02 -0.57,-0 -1.02,-0.46 -1.02,-1.03 0,-0.57 0.46,-1.02 1.03,-1.02 0.57,0 1.02,0.46 1.02,1.03z"/>
   <path class="fil1" d="M201 26.24c-0,0.57 -0.46,1.02 -1.03,1.02 -0.57,-0 -1.02,-0.46 -1.02,-1.03 0,-0.57 0.46,-1.02 1.03,-1.02 0.57,0 1.02,0.46 1.02,1.03z"/>
   <path class="fil1" d="M200.95 36.13c-0,0.57 -0.46,1.02 -1.03,1.02 -0.57,-0 -1.02,-0.46 -1.02,-1.03 0,-0.56 0.46,-1.02 1.03,-1.02 0.57,0 1.02,0.46 1.02,1.03z"/>
   <path class="fil1" d="M208.29 6.47c-0,0.57 -0.46,1.02 -1.03,1.02 -0.57,-0 -1.02,-0.46 -1.02,-1.03 0,-0.57 0.46,-1.02 1.03,-1.02 0.57,0 1.02,0.46 1.02,1.03z"/>
   <path class="fil1" d="M208.25 16.35c-0,0.57 -0.46,1.02 -1.03,1.02 -0.57,-0 -1.02,-0.46 -1.02,-1.03 0,-0.57 0.46,-1.02 1.03,-1.02 0.57,0 1.02,0.46 1.02,1.03z"/>
   <path class="fil1" d="M208.2 26.24c-0,0.57 -0.46,1.02 -1.03,1.02 -0.57,-0 -1.02,-0.46 -1.02,-1.03 0,-0.57 0.46,-1.02 1.03,-1.02 0.57,0 1.02,0.46 1.02,1.03z"/>
   <path class="fil1" d="M208.16 36.13c-0,0.57 -0.46,1.02 -1.03,1.02 -0.57,-0 -1.02,-0.46 -1.02,-1.03 0,-0.56 0.46,-1.02 1.03,-1.02 0.57,0 1.02,0.46 1.02,1.03z"/>
   <path class="fil1" d="M215.5 6.47c-0,0.57 -0.46,1.02 -1.03,1.02 -0.57,-0 -1.02,-0.46 -1.02,-1.03 0,-0.57 0.46,-1.02 1.03,-1.02 0.57,0 1.02,0.46 1.02,1.03z"/>
   <path class="fil1" d="M215.45 16.35c-0,0.57 -0.46,1.02 -1.03,1.02 -0.57,-0 -1.02,-0.46 -1.02,-1.03 0,-0.57 0.46,-1.02 1.03,-1.02 0.57,0 1.02,0.46 1.02,1.03z"/>
   <path class="fil1" d="M215.41 26.24c-0,0.57 -0.46,1.02 -1.03,1.02 -0.57,-0 -1.02,-0.46 -1.02,-1.03 0,-0.57 0.46,-1.02 1.03,-1.02 0.57,0 1.02,0.46 1.02,1.03z"/>
   <path class="fil1" d="M215.36 36.13c-0,0.57 -0.46,1.02 -1.03,1.02 -0.57,-0 -1.02,-0.46 -1.02,-1.03 0,-0.56 0.46,-1.02 1.03,-1.02 0.57,0 1.02,0.46 1.02,1.03z"/>
   <path class="fil1" d="M222.7 6.47c-0,0.57 -0.46,1.02 -1.03,1.02 -0.57,-0 -1.02,-0.46 -1.02,-1.03 0,-0.57 0.46,-1.02 1.03,-1.02 0.57,0 1.02,0.46 1.02,1.03z"/>
   <path class="fil1" d="M222.66 16.35c-0,0.57 -0.46,1.02 -1.03,1.02 -0.57,-0 -1.02,-0.46 -1.02,-1.03 0,-0.57 0.46,-1.02 1.03,-1.02 0.57,0 1.02,0.46 1.02,1.03z"/>
   <path class="fil1" d="M222.62 26.24c-0,0.57 -0.46,1.02 -1.03,1.02 -0.57,-0 -1.02,-0.46 -1.02,-1.03 0,-0.57 0.46,-1.02 1.03,-1.02 0.57,0 1.02,0.46 1.02,1.03z"/>
   <path class="fil1" d="M222.57 36.13c-0,0.57 -0.46,1.02 -1.03,1.02 -0.57,-0 -1.02,-0.46 -1.02,-1.03 0,-0.56 0.46,-1.02 1.03,-1.02 0.57,0 1.02,0.46 1.02,1.03z"/>
   <path class="fil1" d="M229.91 6.47c-0,0.57 -0.46,1.02 -1.03,1.02 -0.57,-0 -1.02,-0.46 -1.02,-1.03 0,-0.57 0.46,-1.02 1.03,-1.02 0.57,0 1.02,0.46 1.02,1.03z"/>
   <path class="fil1" d="M229.86 16.35c-0,0.57 -0.46,1.02 -1.03,1.02 -0.57,-0 -1.02,-0.46 -1.02,-1.03 0,-0.57 0.46,-1.02 1.03,-1.02 0.57,0 1.02,0.46 1.02,1.03z"/>
   <path class="fil1" d="M229.82 26.24c-0,0.57 -0.46,1.02 -1.03,1.02 -0.57,-0 -1.02,-0.46 -1.02,-1.03 0,-0.57 0.46,-1.02 1.03,-1.02 0.57,0 1.02,0.46 1.02,1.03z"/>
   <path class="fil1" d="M229.78 36.13c-0,0.57 -0.46,1.02 -1.03,1.02 -0.57,-0 -1.02,-0.46 -1.02,-1.03 0,-0.56 0.46,-1.02 1.03,-1.02 0.57,0 1.02,0.46 1.02,1.03z"/>
   <path class="fil1" d="M237.12 6.47c-0,0.57 -0.46,1.02 -1.03,1.02 -0.57,-0 -1.02,-0.46 -1.02,-1.03 0,-0.57 0.46,-1.02 1.03,-1.02 0.57,0 1.02,0.46 1.02,1.03z"/>
   <path class="fil1" d="M237.07 16.35c-0,0.57 -0.46,1.02 -1.03,1.02 -0.57,-0 -1.02,-0.46 -1.02,-1.03 0,-0.57 0.46,-1.02 1.03,-1.02 0.57,0 1.02,0.46 1.02,1.03z"/>
   <path class="fil1" d="M237.03 26.24c-0,0.57 -0.46,1.02 -1.03,1.02 -0.57,-0 -1.02,-0.46 -1.02,-1.03 0,-0.57 0.46,-1.02 1.03,-1.02 0.57,0 1.02,0.46 1.02,1.03z"/>
   <path class="fil1" d="M236.98 36.13c-0,0.57 -0.46,1.02 -1.03,1.02 -0.57,-0 -1.02,-0.46 -1.02,-1.03 0,-0.56 0.46,-1.02 1.03,-1.02 0.57,0 1.02,0.46 1.02,1.03z"/>
   <path class="fil1" d="M244.32 6.47c-0,0.57 -0.46,1.02 -1.03,1.02 -0.57,-0 -1.02,-0.46 -1.02,-1.03 0,-0.57 0.46,-1.02 1.03,-1.02 0.57,0 1.02,0.46 1.02,1.03z"/>
   <path class="fil1" d="M244.28 16.35c-0,0.57 -0.46,1.02 -1.03,1.02 -0.57,-0 -1.02,-0.46 -1.02,-1.03 0,-0.57 0.46,-1.02 1.03,-1.02 0.57,0 1.02,0.46 1.02,1.03z"/>
   <path class="fil1" d="M244.23 26.24c-0,0.57 -0.46,1.02 -1.03,1.02 -0.57,-0 -1.02,-0.46 -1.02,-1.03 0,-0.57 0.46,-1.02 1.03,-1.02 0.57,0 1.02,0.46 1.02,1.03z"/>
   <path class="fil1" d="M244.19 36.13c-0,0.57 -0.46,1.02 -1.03,1.02 -0.57,-0 -1.02,-0.46 -1.02,-1.03 0,-0.56 0.46,-1.02 1.03,-1.02 0.57,0 1.02,0.46 1.02,1.03z"/>
   <path class="fil1" d="M251.53 6.47c-0,0.57 -0.46,1.02 -1.03,1.02 -0.57,-0 -1.02,-0.46 -1.02,-1.03 0,-0.57 0.46,-1.02 1.03,-1.02 0.57,0 1.02,0.46 1.02,1.03z"/>
   <path class="fil1" d="M251.48 16.35c-0,0.57 -0.46,1.02 -1.03,1.02 -0.57,-0 -1.02,-0.46 -1.02,-1.03 0,-0.57 0.46,-1.02 1.03,-1.02 0.57,0 1.02,0.46 1.02,1.03z"/>
   <path class="fil1" d="M251.44 26.24c-0,0.57 -0.46,1.02 -1.03,1.02 -0.57,-0 -1.02,-0.46 -1.02,-1.03 0,-0.57 0.46,-1.02 1.03,-1.02 0.57,0 1.02,0.46 1.02,1.03z"/>
   <path class="fil1" d="M251.39 36.13c-0,0.57 -0.46,1.02 -1.03,1.02 -0.57,-0 -1.02,-0.46 -1.02,-1.03 0,-0.56 0.46,-1.02 1.03,-1.02 0.57,0 1.02,0.46 1.02,1.03z"/>
   <path class="fil1" d="M258.73 6.47c-0,0.57 -0.46,1.02 -1.03,1.02 -0.57,-0 -1.02,-0.46 -1.02,-1.03 0,-0.57 0.46,-1.02 1.03,-1.02 0.57,0 1.02,0.46 1.02,1.03z"/>
   <path class="fil1" d="M258.69 16.35c-0,0.57 -0.46,1.02 -1.03,1.02 -0.57,-0 -1.02,-0.46 -1.02,-1.03 0,-0.57 0.46,-1.02 1.03,-1.02 0.57,0 1.02,0.46 1.02,1.03z"/>
   <path class="fil1" d="M258.65 26.24c-0,0.57 -0.46,1.02 -1.03,1.02 -0.57,-0 -1.02,-0.46 -1.02,-1.03 0,-0.57 0.46,-1.02 1.03,-1.02 0.57,0 1.02,0.46 1.02,1.03z"/>
   <path class="fil1" d="M258.6 36.13c-0,0.57 -0.46,1.02 -1.03,1.02 -0.57,-0 -1.02,-0.46 -1.02,-1.03 0,-0.56 0.46,-1.02 1.03,-1.02 0.57,0 1.02,0.46 1.02,1.03z"/>
   <path class="fil1" d="M265.94 6.47c-0,0.57 -0.46,1.02 -1.03,1.02 -0.57,-0 -1.02,-0.46 -1.02,-1.03 0,-0.57 0.46,-1.02 1.03,-1.02 0.57,0 1.02,0.46 1.02,1.03z"/>
   <path class="fil1" d="M265.89 16.35c-0,0.57 -0.46,1.02 -1.03,1.02 -0.57,-0 -1.02,-0.46 -1.02,-1.03 0,-0.57 0.46,-1.02 1.03,-1.02 0.57,0 1.02,0.46 1.02,1.03z"/>
   <path class="fil1" d="M265.85 26.24c-0,0.57 -0.46,1.02 -1.03,1.02 -0.57,-0 -1.02,-0.46 -1.02,-1.03 0,-0.57 0.46,-1.02 1.03,-1.02 0.57,0 1.02,0.46 1.02,1.03z"/>
   <path class="fil1" d="M265.81 36.13c-0,0.57 -0.46,1.02 -1.03,1.02 -0.57,-0 -1.02,-0.46 -1.02,-1.03 0,-0.56 0.46,-1.02 1.03,-1.02 0.57,0 1.02,0.46 1.02,1.03z"/>
   <path class="fil1" d="M273.15 6.47c-0,0.57 -0.46,1.02 -1.03,1.02 -0.57,-0 -1.02,-0.46 -1.02,-1.03 0,-0.57 0.46,-1.02 1.03,-1.02 0.57,0 1.02,0.46 1.02,1.03z"/>
   <path class="fil1" d="M273.1 16.35c-0,0.57 -0.46,1.02 -1.03,1.02 -0.57,-0 -1.02,-0.46 -1.02,-1.03 0,-0.57 0.46,-1.02 1.03,-1.02 0.57,0 1.02,0.46 1.02,1.03z"/>
   <path class="fil1" d="M273.06 26.24c-0,0.57 -0.46,1.02 -1.03,1.02 -0.57,-0 -1.02,-0.46 -1.02,-1.03 0,-0.57 0.46,-1.02 1.03,-1.02 0.57,0 1.02,0.46 1.02,1.03z"/>
   <path class="fil1" d="M273.01 36.13c-0,0.57 -0.46,1.02 -1.03,1.02 -0.57,-0 -1.02,-0.46 -1.02,-1.03 0,-0.56 0.46,-1.02 1.03,-1.02 0.57,0 1.02,0.46 1.02,1.03z"/>
   <path class="fil1" d="M280.35 6.47c-0,0.57 -0.46,1.02 -1.03,1.02 -0.57,-0 -1.02,-0.46 -1.02,-1.03 0,-0.57 0.46,-1.02 1.03,-1.02 0.57,0 1.02,0.46 1.02,1.03z"/>
   <path class="fil1" d="M280.31 16.35c-0,0.57 -0.46,1.02 -1.03,1.02 -0.57,-0 -1.02,-0.46 -1.02,-1.03 0,-0.57 0.46,-1.02 1.03,-1.02 0.57,0 1.02,0.46 1.02,1.03z"/>
   <path class="fil1" d="M280.26 26.24c-0,0.57 -0.46,1.02 -1.03,1.02 -0.57,-0 -1.02,-0.46 -1.02,-1.03 0,-0.57 0.46,-1.02 1.03,-1.02 0.57,0 1.02,0.46 1.02,1.03z"/>
   <path class="fil1" d="M280.22 36.13c-0,0.57 -0.46,1.02 -1.03,1.02 -0.57,-0 -1.02,-0.46 -1.02,-1.03 0,-0.56 0.46,-1.02 1.03,-1.02 0.57,0 1.02,0.46 1.02,1.03z"/>
   <path class="fil1" d="M287.56 6.47c-0,0.57 -0.46,1.02 -1.03,1.02 -0.57,-0 -1.02,-0.46 -1.02,-1.03 0,-0.57 0.46,-1.02 1.03,-1.02 0.57,0 1.02,0.46 1.02,1.03z"/>
   <path class="fil1" d="M287.51 16.35c-0,0.57 -0.46,1.02 -1.03,1.02 -0.57,-0 -1.02,-0.46 -1.02,-1.03 0,-0.57 0.46,-1.02 1.03,-1.02 0.57,0 1.02,0.46 1.02,1.03z"/>
   <path class="fil1" d="M287.47 26.24c-0,0.57 -0.46,1.02 -1.03,1.02 -0.57,-0 -1.02,-0.46 -1.02,-1.03 0,-0.57 0.46,-1.02 1.03,-1.02 0.57,0 1.02,0.46 1.02,1.03z"/>
   <path class="fil1" d="M287.42 36.13c-0,0.57 -0.46,1.02 -1.03,1.02 -0.57,-0 -1.02,-0.46 -1.02,-1.03 0,-0.56 0.46,-1.02 1.03,-1.02 0.57,0 1.02,0.46 1.02,1.03z"/>
   <path class="fil1" d="M294.76 6.47c-0,0.57 -0.46,1.02 -1.03,1.02 -0.57,-0 -1.02,-0.46 -1.02,-1.03 0,-0.57 0.46,-1.02 1.03,-1.02 0.57,0 1.02,0.46 1.02,1.03z"/>
   <path class="fil1" d="M294.72 16.35c-0,0.57 -0.46,1.02 -1.03,1.02 -0.57,-0 -1.02,-0.46 -1.02,-1.03 0,-0.57 0.46,-1.02 1.03,-1.02 0.57,0 1.02,0.46 1.02,1.03z"/>
   <path class="fil1" d="M294.68 26.24c-0,0.57 -0.46,1.02 -1.03,1.02 -0.57,-0 -1.02,-0.46 -1.02,-1.03 0,-0.57 0.46,-1.02 1.03,-1.02 0.57,0 1.02,0.46 1.02,1.03z"/>
   <path class="fil1" d="M294.63 36.13c-0,0.57 -0.46,1.02 -1.03,1.02 -0.57,-0 -1.02,-0.46 -1.02,-1.03 0,-0.56 0.46,-1.02 1.03,-1.02 0.57,0 1.02,0.46 1.02,1.03z"/>
   <path class="fil1" d="M301.97 6.47c-0,0.57 -0.46,1.02 -1.03,1.02 -0.57,-0 -1.02,-0.46 -1.02,-1.03 0,-0.57 0.46,-1.02 1.03,-1.02 0.57,0 1.02,0.46 1.02,1.03z"/>
   <path class="fil1" d="M301.93 16.35c-0,0.57 -0.46,1.02 -1.03,1.02 -0.57,-0 -1.02,-0.46 -1.02,-1.03 0,-0.57 0.46,-1.02 1.03,-1.02 0.57,0 1.02,0.46 1.02,1.03z"/>
   <path class="fil1" d="M301.88 26.24c-0,0.57 -0.46,1.02 -1.03,1.02 -0.57,-0 -1.02,-0.46 -1.02,-1.03 0,-0.57 0.46,-1.02 1.03,-1.02 0.57,0 1.02,0.46 1.02,1.03z"/>
   <path class="fil1" d="M301.84 36.13c-0,0.57 -0.46,1.02 -1.03,1.02 -0.57,-0 -1.02,-0.46 -1.02,-1.03 0,-0.56 0.46,-1.02 1.03,-1.02 0.57,0 1.02,0.46 1.02,1.03z"/>
   <path class="fil1" d="M309.18 6.47c-0,0.57 -0.46,1.02 -1.03,1.02 -0.57,-0 -1.02,-0.46 -1.02,-1.03 0,-0.57 0.46,-1.02 1.03,-1.02 0.57,0 1.02,0.46 1.02,1.03z"/>
   <path class="fil1" d="M309.13 16.35c-0,0.57 -0.46,1.02 -1.03,1.02 -0.57,-0 -1.02,-0.46 -1.02,-1.03 0,-0.57 0.46,-1.02 1.03,-1.02 0.57,0 1.02,0.46 1.02,1.03z"/>
   <path class="fil1" d="M309.09 26.24c-0,0.57 -0.46,1.02 -1.03,1.02 -0.57,-0 -1.02,-0.46 -1.02,-1.03 0,-0.57 0.46,-1.02 1.03,-1.02 0.57,0 1.02,0.46 1.02,1.03z"/>
   <path class="fil1" d="M309.04 36.13c-0,0.57 -0.46,1.02 -1.03,1.02 -0.57,-0 -1.02,-0.46 -1.02,-1.03 0,-0.56 0.46,-1.02 1.03,-1.02 0.57,0 1.02,0.46 1.02,1.03z"/>
   <path class="fil1" d="M316.38 6.47c-0,0.57 -0.46,1.02 -1.03,1.02 -0.57,-0 -1.02,-0.46 -1.02,-1.03 0,-0.57 0.46,-1.02 1.03,-1.02 0.57,0 1.02,0.46 1.02,1.03z"/>
   <path class="fil1" d="M316.34 16.35c-0,0.57 -0.46,1.02 -1.03,1.02 -0.57,-0 -1.02,-0.46 -1.02,-1.03 0,-0.57 0.46,-1.02 1.03,-1.02 0.57,0 1.02,0.46 1.02,1.03z"/>
   <path class="fil1" d="M316.29 26.24c-0,0.57 -0.46,1.02 -1.03,1.02 -0.57,-0 -1.02,-0.46 -1.02,-1.03 0,-0.57 0.46,-1.02 1.03,-1.02 0.57,0 1.02,0.46 1.02,1.03z"/>
   <path class="fil1" d="M316.25 36.13c-0,0.57 -0.46,1.02 -1.03,1.02 -0.57,-0 -1.02,-0.46 -1.02,-1.03 0,-0.56 0.46,-1.02 1.03,-1.02 0.57,0 1.02,0.46 1.02,1.03z"/>
   <path class="fil1" d="M323.59 6.47c-0,0.57 -0.46,1.02 -1.03,1.02 -0.57,-0 -1.02,-0.46 -1.02,-1.03 0,-0.57 0.46,-1.02 1.03,-1.02 0.57,0 1.02,0.46 1.02,1.03z"/>
   <path class="fil1" d="M323.54 16.35c-0,0.57 -0.46,1.02 -1.03,1.02 -0.57,-0 -1.02,-0.46 -1.02,-1.03 0,-0.57 0.46,-1.02 1.03,-1.02 0.57,0 1.02,0.46 1.02,1.03z"/>
   <path class="fil1" d="M323.5 26.24c-0,0.57 -0.46,1.02 -1.03,1.02 -0.57,-0 -1.02,-0.46 -1.02,-1.03 0,-0.57 0.46,-1.02 1.03,-1.02 0.57,0 1.02,0.46 1.02,1.03z"/>
   <path class="fil1" d="M323.45 36.13c-0,0.57 -0.46,1.02 -1.03,1.02 -0.57,-0 -1.02,-0.46 -1.02,-1.03 0,-0.56 0.46,-1.02 1.03,-1.02 0.57,0 1.02,0.46 1.02,1.03z"/>
   <path class="fil1" d="M330.79 6.47c-0,0.57 -0.46,1.02 -1.03,1.02 -0.57,-0 -1.02,-0.46 -1.02,-1.03 0,-0.57 0.46,-1.02 1.03,-1.02 0.57,0 1.02,0.46 1.02,1.03z"/>
   <path class="fil1" d="M330.75 16.35c-0,0.57 -0.46,1.02 -1.03,1.02 -0.57,-0 -1.02,-0.46 -1.02,-1.03 0,-0.57 0.46,-1.02 1.03,-1.02 0.57,0 1.02,0.46 1.02,1.03z"/>
   <path class="fil1" d="M330.71 26.24c-0,0.57 -0.46,1.02 -1.03,1.02 -0.57,-0 -1.02,-0.46 -1.02,-1.03 0,-0.57 0.46,-1.02 1.03,-1.02 0.57,0 1.02,0.46 1.02,1.03z"/>
   <path class="fil1" d="M330.66 36.13c-0,0.57 -0.46,1.02 -1.03,1.02 -0.57,-0 -1.02,-0.46 -1.02,-1.03 0,-0.56 0.46,-1.02 1.03,-1.02 0.57,0 1.02,0.46 1.02,1.03z"/>
   <path class="fil1" d="M338 6.47c-0,0.57 -0.46,1.02 -1.03,1.02 -0.57,-0 -1.02,-0.46 -1.02,-1.03 0,-0.57 0.46,-1.02 1.03,-1.02 0.57,0 1.02,0.46 1.02,1.03z"/>
   <path class="fil1" d="M337.96 16.35c-0,0.57 -0.46,1.02 -1.03,1.02 -0.57,-0 -1.02,-0.46 -1.02,-1.03 0,-0.57 0.46,-1.02 1.03,-1.02 0.57,0 1.02,0.46 1.02,1.03z"/>
   <path class="fil1" d="M337.91 26.24c-0,0.57 -0.46,1.02 -1.03,1.02 -0.57,-0 -1.02,-0.46 -1.02,-1.03 0,-0.57 0.46,-1.02 1.03,-1.02 0.57,0 1.02,0.46 1.02,1.03z"/>
   <path class="fil1" d="M337.87 36.13c-0,0.57 -0.46,1.02 -1.03,1.02 -0.57,-0 -1.02,-0.46 -1.02,-1.03 0,-0.56 0.46,-1.02 1.03,-1.02 0.57,0 1.02,0.46 1.02,1.03z"/>
   <path class="fil1" d="M345.21 6.47c-0,0.57 -0.46,1.02 -1.03,1.02 -0.57,-0 -1.02,-0.46 -1.02,-1.03 0,-0.57 0.46,-1.02 1.03,-1.02 0.57,0 1.02,0.46 1.02,1.03z"/>
   <path class="fil1" d="M345.16 16.35c-0,0.57 -0.46,1.02 -1.03,1.02 -0.57,-0 -1.02,-0.46 -1.02,-1.03 0,-0.57 0.46,-1.02 1.03,-1.02 0.57,0 1.02,0.46 1.02,1.03z"/>
   <path class="fil1" d="M345.12 26.24c-0,0.57 -0.46,1.02 -1.03,1.02 -0.57,-0 -1.02,-0.46 -1.02,-1.03 0,-0.57 0.46,-1.02 1.03,-1.02 0.57,0 1.02,0.46 1.02,1.03z"/>
   <path class="fil1" d="M345.07 36.13c-0,0.57 -0.46,1.02 -1.03,1.02 -0.57,-0 -1.02,-0.46 -1.02,-1.03 0,-0.56 0.46,-1.02 1.03,-1.02 0.57,0 1.02,0.46 1.02,1.03z"/>
   <path class="fil1" d="M352.41 6.47c-0,0.57 -0.46,1.02 -1.03,1.02 -0.57,-0 -1.02,-0.46 -1.02,-1.03 0,-0.57 0.46,-1.02 1.03,-1.02 0.57,0 1.02,0.46 1.02,1.03z"/>
   <path class="fil1" d="M352.37 16.35c-0,0.57 -0.46,1.02 -1.03,1.02 -0.57,-0 -1.02,-0.46 -1.02,-1.03 0,-0.57 0.46,-1.02 1.03,-1.02 0.57,0 1.02,0.46 1.02,1.03z"/>
   <path class="fil1" d="M352.32 26.24c-0,0.57 -0.46,1.02 -1.03,1.02 -0.57,-0 -1.02,-0.46 -1.02,-1.03 0,-0.57 0.46,-1.02 1.03,-1.02 0.57,0 1.02,0.46 1.02,1.03z"/>
   <path class="fil1" d="M352.28 36.13c-0,0.57 -0.46,1.02 -1.03,1.02 -0.57,-0 -1.02,-0.46 -1.02,-1.03 0,-0.56 0.46,-1.02 1.03,-1.02 0.57,0 1.02,0.46 1.02,1.03z"/>
   <path class="fil1" d="M359.62 6.47c-0,0.57 -0.46,1.02 -1.03,1.02 -0.57,-0 -1.02,-0.46 -1.02,-1.03 0,-0.57 0.46,-1.02 1.03,-1.02 0.57,0 1.02,0.46 1.02,1.03z"/>
   <path class="fil1" d="M359.57 16.35c-0,0.57 -0.46,1.02 -1.03,1.02 -0.57,-0 -1.02,-0.46 -1.02,-1.03 0,-0.57 0.46,-1.02 1.03,-1.02 0.57,0 1.02,0.46 1.02,1.03z"/>
   <path class="fil1" d="M359.53 26.24c-0,0.57 -0.46,1.02 -1.03,1.02 -0.57,-0 -1.02,-0.46 -1.02,-1.03 0,-0.57 0.46,-1.02 1.03,-1.02 0.57,0 1.02,0.46 1.02,1.03z"/>
   <path class="fil1" d="M359.48 36.13c-0,0.57 -0.46,1.02 -1.03,1.02 -0.57,-0 -1.02,-0.46 -1.02,-1.03 0,-0.56 0.46,-1.02 1.03,-1.02 0.57,0 1.02,0.46 1.02,1.03z"/>
   <path class="fil1" d="M366.82 6.47c-0,0.57 -0.46,1.02 -1.03,1.02 -0.57,-0 -1.02,-0.46 -1.02,-1.03 0,-0.57 0.46,-1.02 1.03,-1.02 0.57,0 1.02,0.46 1.02,1.03z"/>
   <path class="fil1" d="M366.78 16.35c-0,0.57 -0.46,1.02 -1.03,1.02 -0.57,-0 -1.02,-0.46 -1.02,-1.03 0,-0.57 0.46,-1.02 1.03,-1.02 0.57,0 1.02,0.46 1.02,1.03z"/>
   <path class="fil1" d="M366.74 26.24c-0,0.57 -0.46,1.02 -1.03,1.02 -0.57,-0 -1.02,-0.46 -1.02,-1.03 0,-0.57 0.46,-1.02 1.03,-1.02 0.57,0 1.02,0.46 1.02,1.03z"/>
   <path class="fil1" d="M366.69 36.13c-0,0.57 -0.46,1.02 -1.03,1.02 -0.57,-0 -1.02,-0.46 -1.02,-1.03 0,-0.56 0.46,-1.02 1.03,-1.02 0.57,0 1.02,0.46 1.02,1.03z"/>
   <path class="fil1" d="M374.03 6.47c-0,0.57 -0.46,1.02 -1.03,1.02 -0.57,-0 -1.02,-0.46 -1.02,-1.03 0,-0.57 0.46,-1.02 1.03,-1.02 0.57,0 1.02,0.46 1.02,1.03z"/>
   <path class="fil1" d="M373.99 16.35c-0,0.57 -0.46,1.02 -1.03,1.02 -0.57,-0 -1.02,-0.46 -1.02,-1.03 0,-0.57 0.46,-1.02 1.03,-1.02 0.57,0 1.02,0.46 1.02,1.03z"/>
   <path class="fil1" d="M373.94 26.24c-0,0.57 -0.46,1.02 -1.03,1.02 -0.57,-0 -1.02,-0.46 -1.02,-1.03 0,-0.57 0.46,-1.02 1.03,-1.02 0.57,0 1.02,0.46 1.02,1.03z"/>
   <path class="fil1" d="M373.9 36.13c-0,0.57 -0.46,1.02 -1.03,1.02 -0.57,-0 -1.02,-0.46 -1.02,-1.03 0,-0.56 0.46,-1.02 1.03,-1.02 0.57,0 1.02,0.46 1.02,1.03z"/>
   <path class="fil1" d="M381.24 6.47c-0,0.57 -0.46,1.02 -1.03,1.02 -0.57,-0 -1.02,-0.46 -1.02,-1.03 0,-0.57 0.46,-1.02 1.03,-1.02 0.57,0 1.02,0.46 1.02,1.03z"/>
   <path class="fil1" d="M381.19 16.35c-0,0.57 -0.46,1.02 -1.03,1.02 -0.57,-0 -1.02,-0.46 -1.02,-1.03 0,-0.57 0.46,-1.02 1.03,-1.02 0.57,0 1.02,0.46 1.02,1.03z"/>
   <path class="fil1" d="M381.15 26.24c-0,0.57 -0.46,1.02 -1.03,1.02 -0.57,-0 -1.02,-0.46 -1.02,-1.03 0,-0.57 0.46,-1.02 1.03,-1.02 0.57,0 1.02,0.46 1.02,1.03z"/>
   <path class="fil1" d="M381.1 36.13c-0,0.57 -0.46,1.02 -1.03,1.02 -0.57,-0 -1.02,-0.46 -1.02,-1.03 0,-0.56 0.46,-1.02 1.03,-1.02 0.57,0 1.02,0.46 1.02,1.03z"/>
   <path class="fil1" d="M388.44 6.47c-0,0.57 -0.46,1.02 -1.03,1.02 -0.57,-0 -1.02,-0.46 -1.02,-1.03 0,-0.57 0.46,-1.02 1.03,-1.02 0.57,0 1.02,0.46 1.02,1.03z"/>
   <path class="fil1" d="M388.4 16.35c-0,0.57 -0.46,1.02 -1.03,1.02 -0.57,-0 -1.02,-0.46 -1.02,-1.03 0,-0.57 0.46,-1.02 1.03,-1.02 0.57,0 1.02,0.46 1.02,1.03z"/>
   <path class="fil1" d="M388.35 26.24c-0,0.57 -0.46,1.02 -1.03,1.02 -0.57,-0 -1.02,-0.46 -1.02,-1.03 0,-0.57 0.46,-1.02 1.03,-1.02 0.57,0 1.02,0.46 1.02,1.03z"/>
   <path class="fil1" d="M388.31 36.13c-0,0.57 -0.46,1.02 -1.03,1.02 -0.57,-0 -1.02,-0.46 -1.02,-1.03 0,-0.56 0.46,-1.02 1.03,-1.02 0.57,0 1.02,0.46 1.02,1.03z"/>
   <path class="fil1" d="M395.65 6.47c-0,0.57 -0.46,1.02 -1.03,1.02 -0.57,-0 -1.02,-0.46 -1.02,-1.03 0,-0.57 0.46,-1.02 1.03,-1.02 0.57,0 1.02,0.46 1.02,1.03z"/>
   <path class="fil1" d="M395.6 16.35c-0,0.57 -0.46,1.02 -1.03,1.02 -0.57,-0 -1.02,-0.46 -1.02,-1.03 0,-0.57 0.46,-1.02 1.03,-1.02 0.57,0 1.02,0.46 1.02,1.03z"/>
   <path class="fil1" d="M395.56 26.24c-0,0.57 -0.46,1.02 -1.03,1.02 -0.57,-0 -1.02,-0.46 -1.02,-1.03 0,-0.57 0.46,-1.02 1.03,-1.02 0.57,0 1.02,0.46 1.02,1.03z"/>
   <path class="fil1" d="M395.51 36.13c-0,0.57 -0.46,1.02 -1.03,1.02 -0.57,-0 -1.02,-0.46 -1.02,-1.03 0,-0.56 0.46,-1.02 1.03,-1.02 0.57,0 1.02,0.46 1.02,1.03z"/>
   <path class="fil1" d="M402.85 6.47c-0,0.57 -0.46,1.02 -1.03,1.02 -0.57,-0 -1.02,-0.46 -1.02,-1.03 0,-0.57 0.46,-1.02 1.03,-1.02 0.57,0 1.02,0.46 1.02,1.03z"/>
   <path class="fil1" d="M402.81 16.35c-0,0.57 -0.46,1.02 -1.03,1.02 -0.57,-0 -1.02,-0.46 -1.02,-1.03 0,-0.57 0.46,-1.02 1.03,-1.02 0.57,0 1.02,0.46 1.02,1.03z"/>
   <path class="fil1" d="M402.77 26.24c-0,0.57 -0.46,1.02 -1.03,1.02 -0.57,-0 -1.02,-0.46 -1.02,-1.03 0,-0.57 0.46,-1.02 1.03,-1.02 0.57,0 1.02,0.46 1.02,1.03z"/>
   <path class="fil1" d="M402.72 36.13c-0,0.57 -0.46,1.02 -1.03,1.02 -0.57,-0 -1.02,-0.46 -1.02,-1.03 0,-0.56 0.46,-1.02 1.03,-1.02 0.57,0 1.02,0.46 1.02,1.03z"/>
   <path class="fil1" d="M410.06 6.47c-0,0.57 -0.46,1.02 -1.03,1.02 -0.57,-0 -1.02,-0.46 -1.02,-1.03 0,-0.57 0.46,-1.02 1.03,-1.02 0.57,0 1.02,0.46 1.02,1.03z"/>
   <path class="fil1" d="M410.02 16.35c-0,0.57 -0.46,1.02 -1.03,1.02 -0.57,-0 -1.02,-0.46 -1.02,-1.03 0,-0.57 0.46,-1.02 1.03,-1.02 0.57,0 1.02,0.46 1.02,1.03z"/>
   <path class="fil1" d="M409.97 26.24c-0,0.57 -0.46,1.02 -1.03,1.02 -0.57,-0 -1.02,-0.46 -1.02,-1.03 0,-0.57 0.46,-1.02 1.03,-1.02 0.57,0 1.02,0.46 1.02,1.03z"/>
   <path class="fil1" d="M409.93 36.13c-0,0.57 -0.46,1.02 -1.03,1.02 -0.57,-0 -1.02,-0.46 -1.02,-1.03 0,-0.56 0.46,-1.02 1.03,-1.02 0.57,0 1.02,0.46 1.02,1.03z"/>
   <path class="fil1" d="M417.27 6.47c-0,0.57 -0.46,1.02 -1.03,1.02 -0.57,-0 -1.02,-0.46 -1.02,-1.03 0,-0.57 0.46,-1.02 1.03,-1.02 0.57,0 1.02,0.46 1.02,1.03z"/>
   <path class="fil1" d="M417.22 16.35c-0,0.57 -0.46,1.02 -1.03,1.02 -0.57,-0 -1.02,-0.46 -1.02,-1.03 0,-0.57 0.46,-1.02 1.03,-1.02 0.57,0 1.02,0.46 1.02,1.03z"/>
   <path class="fil1" d="M417.18 26.24c-0,0.57 -0.46,1.02 -1.03,1.02 -0.57,-0 -1.02,-0.46 -1.02,-1.03 0,-0.57 0.46,-1.02 1.03,-1.02 0.57,0 1.02,0.46 1.02,1.03z"/>
   <path class="fil1" d="M417.13 36.13c-0,0.57 -0.46,1.02 -1.03,1.02 -0.57,-0 -1.02,-0.46 -1.02,-1.03 0,-0.56 0.46,-1.02 1.03,-1.02 0.57,0 1.02,0.46 1.02,1.03z"/>
   <path class="fil1" d="M424.47 6.47c-0,0.57 -0.46,1.02 -1.03,1.02 -0.57,-0 -1.02,-0.46 -1.02,-1.03 0,-0.57 0.46,-1.02 1.03,-1.02 0.57,0 1.02,0.46 1.02,1.03z"/>
   <path class="fil1" d="M424.43 16.35c-0,0.57 -0.46,1.02 -1.03,1.02 -0.57,-0 -1.02,-0.46 -1.02,-1.03 0,-0.57 0.46,-1.02 1.03,-1.02 0.57,0 1.02,0.46 1.02,1.03z"/>
   <path class="fil1" d="M424.38 26.24c-0,0.57 -0.46,1.02 -1.03,1.02 -0.57,-0 -1.02,-0.46 -1.02,-1.03 0,-0.57 0.46,-1.02 1.03,-1.02 0.57,0 1.02,0.46 1.02,1.03z"/>
   <path class="fil1" d="M424.34 36.13c-0,0.57 -0.46,1.02 -1.03,1.02 -0.57,-0 -1.02,-0.46 -1.02,-1.03 0,-0.56 0.46,-1.02 1.03,-1.02 0.57,0 1.02,0.46 1.02,1.03z"/>
   <path class="fil1" d="M431.68 6.47c-0,0.57 -0.46,1.02 -1.03,1.02 -0.57,-0 -1.02,-0.46 -1.02,-1.03 0,-0.57 0.46,-1.02 1.03,-1.02 0.57,0 1.02,0.46 1.02,1.03z"/>
   <path class="fil1" d="M431.63 16.35c-0,0.57 -0.46,1.02 -1.03,1.02 -0.57,-0 -1.02,-0.46 -1.02,-1.03 0,-0.57 0.46,-1.02 1.03,-1.02 0.57,0 1.02,0.46 1.02,1.03z"/>
   <path class="fil1" d="M431.59 26.24c-0,0.57 -0.46,1.02 -1.03,1.02 -0.57,-0 -1.02,-0.46 -1.02,-1.03 0,-0.57 0.46,-1.02 1.03,-1.02 0.57,0 1.02,0.46 1.02,1.03z"/>
   <path class="fil1" d="M431.54 36.13c-0,0.57 -0.46,1.02 -1.03,1.02 -0.57,-0 -1.02,-0.46 -1.02,-1.03 0,-0.56 0.46,-1.02 1.03,-1.02 0.57,0 1.02,0.46 1.02,1.03z"/>
   <path class="fil1" d="M438.88 6.47c-0,0.57 -0.46,1.02 -1.03,1.02 -0.57,-0 -1.02,-0.46 -1.02,-1.03 0,-0.57 0.46,-1.02 1.03,-1.02 0.57,0 1.02,0.46 1.02,1.03z"/>
   <path class="fil1" d="M438.84 16.35c-0,0.57 -0.46,1.02 -1.03,1.02 -0.57,-0 -1.02,-0.46 -1.02,-1.03 0,-0.57 0.46,-1.02 1.03,-1.02 0.57,0 1.02,0.46 1.02,1.03z"/>
   <path class="fil1" d="M438.8 26.24c-0,0.57 -0.46,1.02 -1.03,1.02 -0.57,-0 -1.02,-0.46 -1.02,-1.03 0,-0.57 0.46,-1.02 1.03,-1.02 0.57,0 1.02,0.46 1.02,1.03z"/>
   <path class="fil1" d="M438.75 36.13c-0,0.57 -0.46,1.02 -1.03,1.02 -0.57,-0 -1.02,-0.46 -1.02,-1.03 0,-0.56 0.46,-1.02 1.03,-1.02 0.57,0 1.02,0.46 1.02,1.03z"/>
   <path class="fil1" d="M446.09 6.47c-0,0.57 -0.46,1.02 -1.03,1.02 -0.57,-0 -1.02,-0.46 -1.02,-1.03 0,-0.57 0.46,-1.02 1.03,-1.02 0.57,0 1.02,0.46 1.02,1.03z"/>
   <path class="fil1" d="M446.05 16.35c-0,0.57 -0.46,1.02 -1.03,1.02 -0.57,-0 -1.02,-0.46 -1.02,-1.03 0,-0.57 0.46,-1.02 1.03,-1.02 0.57,0 1.02,0.46 1.02,1.03z"/>
   <path class="fil1" d="M446 26.24c-0,0.57 -0.46,1.02 -1.03,1.02 -0.57,-0 -1.02,-0.46 -1.02,-1.03 0,-0.57 0.46,-1.02 1.03,-1.02 0.57,0 1.02,0.46 1.02,1.03z"/>
   <path class="fil1" d="M445.96 36.13c-0,0.57 -0.46,1.02 -1.03,1.02 -0.57,-0 -1.02,-0.46 -1.02,-1.03 0,-0.56 0.46,-1.02 1.03,-1.02 0.57,0 1.02,0.46 1.02,1.03z"/>
   <path class="fil1" d="M453.3 6.47c-0,0.57 -0.46,1.02 -1.03,1.02 -0.57,-0 -1.02,-0.46 -1.02,-1.03 0,-0.57 0.46,-1.02 1.03,-1.02 0.57,0 1.02,0.46 1.02,1.03z"/>
   <path class="fil1" d="M453.25 16.35c-0,0.57 -0.46,1.02 -1.03,1.02 -0.57,-0 -1.02,-0.46 -1.02,-1.03 0,-0.57 0.46,-1.02 1.03,-1.02 0.57,0 1.02,0.46 1.02,1.03z"/>
   <path class="fil1" d="M453.21 26.24c-0,0.57 -0.46,1.02 -1.03,1.02 -0.57,-0 -1.02,-0.46 -1.02,-1.03 0,-0.57 0.46,-1.02 1.03,-1.02 0.57,0 1.02,0.46 1.02,1.03z"/>
   <path class="fil1" d="M453.16 36.13c-0,0.57 -0.46,1.02 -1.03,1.02 -0.57,-0 -1.02,-0.46 -1.02,-1.03 0,-0.56 0.46,-1.02 1.03,-1.02 0.57,0 1.02,0.46 1.02,1.03z"/>
   <path class="fil1" d="M460.5 6.47c-0,0.57 -0.46,1.02 -1.03,1.02 -0.57,-0 -1.02,-0.46 -1.02,-1.03 0,-0.57 0.46,-1.02 1.03,-1.02 0.57,0 1.02,0.46 1.02,1.03z"/>
   <path class="fil1" d="M460.46 16.35c-0,0.57 -0.46,1.02 -1.03,1.02 -0.57,-0 -1.02,-0.46 -1.02,-1.03 0,-0.57 0.46,-1.02 1.03,-1.02 0.57,0 1.02,0.46 1.02,1.03z"/>
   <path class="fil1" d="M460.41 26.24c-0,0.57 -0.46,1.02 -1.03,1.02 -0.57,-0 -1.02,-0.46 -1.02,-1.03 0,-0.57 0.46,-1.02 1.03,-1.02 0.57,0 1.02,0.46 1.02,1.03z"/>
   <path class="fil1" d="M460.37 36.13c-0,0.57 -0.46,1.02 -1.03,1.02 -0.57,-0 -1.02,-0.46 -1.02,-1.03 0,-0.56 0.46,-1.02 1.03,-1.02 0.57,0 1.02,0.46 1.02,1.03z"/>
   <path class="fil1" d="M467.71 6.47c-0,0.57 -0.46,1.02 -1.03,1.02 -0.57,-0 -1.02,-0.46 -1.02,-1.03 0,-0.57 0.46,-1.02 1.03,-1.02 0.57,0 1.02,0.46 1.02,1.03z"/>
   <path class="fil1" d="M467.66 16.35c-0,0.57 -0.46,1.02 -1.03,1.02 -0.57,-0 -1.02,-0.46 -1.02,-1.03 0,-0.57 0.46,-1.02 1.03,-1.02 0.57,0 1.02,0.46 1.02,1.03z"/>
   <path class="fil1" d="M467.62 26.24c-0,0.57 -0.46,1.02 -1.03,1.02 -0.57,-0 -1.02,-0.46 -1.02,-1.03 0,-0.57 0.46,-1.02 1.03,-1.02 0.57,0 1.02,0.46 1.02,1.03z"/>
   <path class="fil1" d="M467.57 36.13c-0,0.57 -0.46,1.02 -1.03,1.02 -0.57,-0 -1.02,-0.46 -1.02,-1.03 0,-0.56 0.46,-1.02 1.03,-1.02 0.57,0 1.02,0.46 1.02,1.03z"/>
   <path class="fil1" d="M474.91 6.47c-0,0.57 -0.46,1.02 -1.03,1.02 -0.57,-0 -1.02,-0.46 -1.02,-1.03 0,-0.57 0.46,-1.02 1.03,-1.02 0.57,0 1.02,0.46 1.02,1.03z"/>
   <path class="fil1" d="M474.87 16.35c-0,0.57 -0.46,1.02 -1.03,1.02 -0.57,-0 -1.02,-0.46 -1.02,-1.03 0,-0.57 0.46,-1.02 1.03,-1.02 0.57,0 1.02,0.46 1.02,1.03z"/>
   <path class="fil1" d="M474.83 26.24c-0,0.57 -0.46,1.02 -1.03,1.02 -0.57,-0 -1.02,-0.46 -1.02,-1.03 0,-0.57 0.46,-1.02 1.03,-1.02 0.57,0 1.02,0.46 1.02,1.03z"/>
   <path class="fil1" d="M474.78 36.13c-0,0.57 -0.46,1.02 -1.03,1.02 -0.57,-0 -1.02,-0.46 -1.02,-1.03 0,-0.56 0.46,-1.02 1.03,-1.02 0.57,0 1.02,0.46 1.02,1.03z"/>
   <path class="fil1" d="M482.12 6.47c-0,0.57 -0.46,1.02 -1.03,1.02 -0.57,-0 -1.02,-0.46 -1.02,-1.03 0,-0.57 0.46,-1.02 1.03,-1.02 0.57,0 1.02,0.46 1.02,1.03z"/>
   <path class="fil1" d="M482.08 16.35c-0,0.57 -0.46,1.02 -1.03,1.02 -0.57,-0 -1.02,-0.46 -1.02,-1.03 0,-0.57 0.46,-1.02 1.03,-1.02 0.57,0 1.02,0.46 1.02,1.03z"/>
   <path class="fil1" d="M482.03 26.24c-0,0.57 -0.46,1.02 -1.03,1.02 -0.57,-0 -1.02,-0.46 -1.02,-1.03 0,-0.57 0.46,-1.02 1.03,-1.02 0.57,0 1.02,0.46 1.02,1.03z"/>
   <path class="fil1" d="M481.99 36.13c-0,0.57 -0.46,1.02 -1.03,1.02 -0.57,-0 -1.02,-0.46 -1.02,-1.03 0,-0.56 0.46,-1.02 1.03,-1.02 0.57,0 1.02,0.46 1.02,1.03z"/>
   <path class="fil1" d="M489.33 6.47c-0,0.57 -0.46,1.02 -1.03,1.02 -0.57,-0 -1.02,-0.46 -1.02,-1.03 0,-0.57 0.46,-1.02 1.03,-1.02 0.57,0 1.02,0.46 1.02,1.03z"/>
   <path class="fil1" d="M489.28 16.35c-0,0.57 -0.46,1.02 -1.03,1.02 -0.57,-0 -1.02,-0.46 -1.02,-1.03 0,-0.57 0.46,-1.02 1.03,-1.02 0.57,0 1.02,0.46 1.02,1.03z"/>
   <path class="fil1" d="M489.24 26.24c-0,0.57 -0.46,1.02 -1.03,1.02 -0.57,-0 -1.02,-0.46 -1.02,-1.03 0,-0.57 0.46,-1.02 1.03,-1.02 0.57,0 1.02,0.46 1.02,1.03z"/>
   <path class="fil1" d="M489.19 36.13c-0,0.57 -0.46,1.02 -1.03,1.02 -0.57,-0 -1.02,-0.46 -1.02,-1.03 0,-0.56 0.46,-1.02 1.03,-1.02 0.57,0 1.02,0.46 1.02,1.03z"/>
   <path class="fil1" d="M496.53 6.47c-0,0.57 -0.46,1.02 -1.03,1.02 -0.57,-0 -1.02,-0.46 -1.02,-1.03 0,-0.57 0.46,-1.02 1.03,-1.02 0.57,0 1.02,0.46 1.02,1.03z"/>
   <path class="fil1" d="M496.49 16.35c-0,0.57 -0.46,1.02 -1.03,1.02 -0.57,-0 -1.02,-0.46 -1.02,-1.03 0,-0.57 0.46,-1.02 1.03,-1.02 0.57,0 1.02,0.46 1.02,1.03z"/>
   <path class="fil1" d="M496.44 26.24c-0,0.57 -0.46,1.02 -1.03,1.02 -0.57,-0 -1.02,-0.46 -1.02,-1.03 0,-0.57 0.46,-1.02 1.03,-1.02 0.57,0 1.02,0.46 1.02,1.03z"/>
   <path class="fil1" d="M496.4 36.13c-0,0.57 -0.46,1.02 -1.03,1.02 -0.57,-0 -1.02,-0.46 -1.02,-1.03 0,-0.56 0.46,-1.02 1.03,-1.02 0.57,0 1.02,0.46 1.02,1.03z"/>
   <path class="fil1" d="M503.74 6.47c-0,0.57 -0.46,1.02 -1.03,1.02 -0.57,-0 -1.02,-0.46 -1.02,-1.03 0,-0.57 0.46,-1.02 1.03,-1.02 0.57,0 1.02,0.46 1.02,1.03z"/>
   <path class="fil1" d="M503.69 16.35c-0,0.57 -0.46,1.02 -1.03,1.02 -0.57,-0 -1.02,-0.46 -1.02,-1.03 0,-0.57 0.46,-1.02 1.03,-1.02 0.57,0 1.02,0.46 1.02,1.03z"/>
   <path class="fil1" d="M503.65 26.24c-0,0.57 -0.46,1.02 -1.03,1.02 -0.57,-0 -1.02,-0.46 -1.02,-1.03 0,-0.57 0.46,-1.02 1.03,-1.02 0.57,0 1.02,0.46 1.02,1.03z"/>
   <path class="fil1" d="M503.6 36.13c-0,0.57 -0.46,1.02 -1.03,1.02 -0.57,-0 -1.02,-0.46 -1.02,-1.03 0,-0.56 0.46,-1.02 1.03,-1.02 0.57,0 1.02,0.46 1.02,1.03z"/>
   <path class="fil1" d="M510.94 6.47c-0,0.57 -0.46,1.02 -1.03,1.02 -0.57,-0 -1.02,-0.46 -1.02,-1.03 0,-0.57 0.46,-1.02 1.03,-1.02 0.57,0 1.02,0.46 1.02,1.03z"/>
   <path class="fil1" d="M510.9 16.35c-0,0.57 -0.46,1.02 -1.03,1.02 -0.57,-0 -1.02,-0.46 -1.02,-1.03 0,-0.57 0.46,-1.02 1.03,-1.02 0.57,0 1.02,0.46 1.02,1.03z"/>
   <path class="fil1" d="M510.86 26.24c-0,0.57 -0.46,1.02 -1.03,1.02 -0.57,-0 -1.02,-0.46 -1.02,-1.03 0,-0.57 0.46,-1.02 1.03,-1.02 0.57,0 1.02,0.46 1.02,1.03z"/>
   <path class="fil1" d="M510.81 36.13c-0,0.57 -0.46,1.02 -1.03,1.02 -0.57,-0 -1.02,-0.46 -1.02,-1.03 0,-0.56 0.46,-1.02 1.03,-1.02 0.57,0 1.02,0.46 1.02,1.03z"/>
   <path class="fil1" d="M518.15 6.47c-0,0.57 -0.46,1.02 -1.03,1.02 -0.57,-0 -1.02,-0.46 -1.02,-1.03 0,-0.57 0.46,-1.02 1.03,-1.02 0.57,0 1.02,0.46 1.02,1.03z"/>
   <path class="fil1" d="M518.11 16.35c-0,0.57 -0.46,1.02 -1.03,1.02 -0.57,-0 -1.02,-0.46 -1.02,-1.03 0,-0.57 0.46,-1.02 1.03,-1.02 0.57,0 1.02,0.46 1.02,1.03z"/>
   <path class="fil1" d="M518.06 26.24c-0,0.57 -0.46,1.02 -1.03,1.02 -0.57,-0 -1.02,-0.46 -1.02,-1.03 0,-0.57 0.46,-1.02 1.03,-1.02 0.57,0 1.02,0.46 1.02,1.03z"/>
   <path class="fil1" d="M518.02 36.13c-0,0.57 -0.46,1.02 -1.03,1.02 -0.57,-0 -1.02,-0.46 -1.02,-1.03 0,-0.56 0.46,-1.02 1.03,-1.02 0.57,0 1.02,0.46 1.02,1.03z"/>
   <path class="fil1" d="M525.36 6.47c-0,0.57 -0.46,1.02 -1.03,1.02 -0.57,-0 -1.02,-0.46 -1.02,-1.03 0,-0.57 0.46,-1.02 1.03,-1.02 0.57,0 1.02,0.46 1.02,1.03z"/>
   <path class="fil1" d="M525.31 16.35c-0,0.57 -0.46,1.02 -1.03,1.02 -0.57,-0 -1.02,-0.46 -1.02,-1.03 0,-0.57 0.46,-1.02 1.03,-1.02 0.57,0 1.02,0.46 1.02,1.03z"/>
   <path class="fil1" d="M525.27 26.24c-0,0.57 -0.46,1.02 -1.03,1.02 -0.57,-0 -1.02,-0.46 -1.02,-1.03 0,-0.57 0.46,-1.02 1.03,-1.02 0.57,0 1.02,0.46 1.02,1.03z"/>
   <path class="fil1" d="M525.22 36.13c-0,0.57 -0.46,1.02 -1.03,1.02 -0.57,-0 -1.02,-0.46 -1.02,-1.03 0,-0.56 0.46,-1.02 1.03,-1.02 0.57,0 1.02,0.46 1.02,1.03z"/>
   <path class="fil1" d="M532.56 6.47c-0,0.57 -0.46,1.02 -1.03,1.02 -0.57,-0 -1.02,-0.46 -1.02,-1.03 0,-0.57 0.46,-1.02 1.03,-1.02 0.57,0 1.02,0.46 1.02,1.03z"/>
   <path class="fil1" d="M532.52 16.35c-0,0.57 -0.46,1.02 -1.03,1.02 -0.57,-0 -1.02,-0.46 -1.02,-1.03 0,-0.57 0.46,-1.02 1.03,-1.02 0.57,0 1.02,0.46 1.02,1.03z"/>
   <path class="fil1" d="M532.47 26.24c-0,0.57 -0.46,1.02 -1.03,1.02 -0.57,-0 -1.02,-0.46 -1.02,-1.03 0,-0.57 0.46,-1.02 1.03,-1.02 0.57,0 1.02,0.46 1.02,1.03z"/>
   <path class="fil1" d="M532.43 36.13c-0,0.57 -0.46,1.02 -1.03,1.02 -0.57,-0 -1.02,-0.46 -1.02,-1.03 0,-0.56 0.46,-1.02 1.03,-1.02 0.57,0 1.02,0.46 1.02,1.03z"/>
   <path class="fil1" d="M539.77 6.47c-0,0.57 -0.46,1.02 -1.03,1.02 -0.57,-0 -1.02,-0.46 -1.02,-1.03 0,-0.57 0.46,-1.02 1.03,-1.02 0.57,0 1.02,0.46 1.02,1.03z"/>
   <path class="fil1" d="M539.72 16.35c-0,0.57 -0.46,1.02 -1.03,1.02 -0.57,-0 -1.02,-0.46 -1.02,-1.03 0,-0.57 0.46,-1.02 1.03,-1.02 0.57,0 1.02,0.46 1.02,1.03z"/>
   <path class="fil1" d="M539.68 26.24c-0,0.57 -0.46,1.02 -1.03,1.02 -0.57,-0 -1.02,-0.46 -1.02,-1.03 0,-0.57 0.46,-1.02 1.03,-1.02 0.57,0 1.02,0.46 1.02,1.03z"/>
   <path class="fil1" d="M539.63 36.13c-0,0.57 -0.46,1.02 -1.03,1.02 -0.57,-0 -1.02,-0.46 -1.02,-1.03 0,-0.56 0.46,-1.02 1.03,-1.02 0.57,0 1.02,0.46 1.02,1.03z"/>
   <path class="fil1" d="M546.97 6.47c-0,0.57 -0.46,1.02 -1.03,1.02 -0.57,-0 -1.02,-0.46 -1.02,-1.03 0,-0.57 0.46,-1.02 1.03,-1.02 0.57,0 1.02,0.46 1.02,1.03z"/>
   <path class="fil1" d="M546.93 16.35c-0,0.57 -0.46,1.02 -1.03,1.02 -0.57,-0 -1.02,-0.46 -1.02,-1.03 0,-0.57 0.46,-1.02 1.03,-1.02 0.57,0 1.02,0.46 1.02,1.03z"/>
   <path class="fil1" d="M546.89 26.24c-0,0.57 -0.46,1.02 -1.03,1.02 -0.57,-0 -1.02,-0.46 -1.02,-1.03 0,-0.57 0.46,-1.02 1.03,-1.02 0.57,0 1.02,0.46 1.02,1.03z"/>
   <path class="fil1" d="M546.84 36.13c-0,0.57 -0.46,1.02 -1.03,1.02 -0.57,-0 -1.02,-0.46 -1.02,-1.03 0,-0.56 0.46,-1.02 1.03,-1.02 0.57,0 1.02,0.46 1.02,1.03z"/>
   <path class="fil1" d="M554.18 6.47c-0,0.57 -0.46,1.02 -1.03,1.02 -0.57,-0 -1.02,-0.46 -1.02,-1.03 0,-0.57 0.46,-1.02 1.03,-1.02 0.57,0 1.02,0.46 1.02,1.03z"/>
   <path class="fil1" d="M554.14 16.35c-0,0.57 -0.46,1.02 -1.03,1.02 -0.57,-0 -1.02,-0.46 -1.02,-1.03 0,-0.57 0.46,-1.02 1.03,-1.02 0.57,0 1.02,0.46 1.02,1.03z"/>
   <path class="fil1" d="M554.09 26.24c-0,0.57 -0.46,1.02 -1.03,1.02 -0.57,-0 -1.02,-0.46 -1.02,-1.03 0,-0.57 0.46,-1.02 1.03,-1.02 0.57,0 1.02,0.46 1.02,1.03z"/>
   <path class="fil1" d="M554.05 36.13c-0,0.57 -0.46,1.02 -1.03,1.02 -0.57,-0 -1.02,-0.46 -1.02,-1.03 0,-0.56 0.46,-1.02 1.03,-1.02 0.57,0 1.02,0.46 1.02,1.03z"/>
   <path class="fil1" d="M561.39 6.47c-0,0.57 -0.46,1.02 -1.03,1.02 -0.57,-0 -1.02,-0.46 -1.02,-1.03 0,-0.57 0.46,-1.02 1.03,-1.02 0.57,0 1.02,0.46 1.02,1.03z"/>
   <path class="fil1" d="M561.34 16.35c-0,0.57 -0.46,1.02 -1.03,1.02 -0.57,-0 -1.02,-0.46 -1.02,-1.03 0,-0.57 0.46,-1.02 1.03,-1.02 0.57,0 1.02,0.46 1.02,1.03z"/>
   <path class="fil1" d="M561.3 26.24c-0,0.57 -0.46,1.02 -1.03,1.02 -0.57,-0 -1.02,-0.46 -1.02,-1.03 0,-0.57 0.46,-1.02 1.03,-1.02 0.57,0 1.02,0.46 1.02,1.03z"/>
   <path class="fil1" d="M561.25 36.13c-0,0.57 -0.46,1.02 -1.03,1.02 -0.57,-0 -1.02,-0.46 -1.02,-1.03 0,-0.56 0.46,-1.02 1.03,-1.02 0.57,0 1.02,0.46 1.02,1.03z"/>
   <path class="fil1" d="M568.59 6.47c-0,0.57 -0.46,1.02 -1.03,1.02 -0.57,-0 -1.02,-0.46 -1.02,-1.03 0,-0.57 0.46,-1.02 1.03,-1.02 0.57,0 1.02,0.46 1.02,1.03z"/>
   <path class="fil1" d="M568.55 16.35c-0,0.57 -0.46,1.02 -1.03,1.02 -0.57,-0 -1.02,-0.46 -1.02,-1.03 0,-0.57 0.46,-1.02 1.03,-1.02 0.57,0 1.02,0.46 1.02,1.03z"/>
   <path class="fil1" d="M568.5 26.24c-0,0.57 -0.46,1.02 -1.03,1.02 -0.57,-0 -1.02,-0.46 -1.02,-1.03 0,-0.57 0.46,-1.02 1.03,-1.02 0.57,0 1.02,0.46 1.02,1.03z"/>
   <path class="fil1" d="M568.46 36.13c-0,0.57 -0.46,1.02 -1.03,1.02 -0.57,-0 -1.02,-0.46 -1.02,-1.03 0,-0.56 0.46,-1.02 1.03,-1.02 0.57,0 1.02,0.46 1.02,1.03z"/>
   <path class="fil1" d="M575.8 6.47c-0,0.57 -0.46,1.02 -1.03,1.02 -0.57,-0 -1.02,-0.46 -1.02,-1.03 0,-0.57 0.46,-1.02 1.03,-1.02 0.57,0 1.02,0.46 1.02,1.03z"/>
   <path class="fil1" d="M575.75 16.35c-0,0.57 -0.46,1.02 -1.03,1.02 -0.57,-0 -1.02,-0.46 -1.02,-1.03 0,-0.57 0.46,-1.02 1.03,-1.02 0.57,0 1.02,0.46 1.02,1.03z"/>
   <path class="fil1" d="M575.71 26.24c-0,0.57 -0.46,1.02 -1.03,1.02 -0.57,-0 -1.02,-0.46 -1.02,-1.03 0,-0.57 0.46,-1.02 1.03,-1.02 0.57,0 1.02,0.46 1.02,1.03z"/>
   <path class="fil1" d="M575.66 36.13c-0,0.57 -0.46,1.02 -1.03,1.02 -0.57,-0 -1.02,-0.46 -1.02,-1.03 0,-0.56 0.46,-1.02 1.03,-1.02 0.57,0 1.02,0.46 1.02,1.03z"/>
   <path class="fil1" d="M583 6.47c-0,0.57 -0.46,1.02 -1.03,1.02 -0.57,-0 -1.02,-0.46 -1.02,-1.03 0,-0.57 0.46,-1.02 1.03,-1.02 0.57,0 1.02,0.46 1.02,1.03z"/>
   <path class="fil1" d="M582.96 16.35c-0,0.57 -0.46,1.02 -1.03,1.02 -0.57,-0 -1.02,-0.46 -1.02,-1.03 0,-0.57 0.46,-1.02 1.03,-1.02 0.57,0 1.02,0.46 1.02,1.03z"/>
   <path class="fil1" d="M582.92 26.24c-0,0.57 -0.46,1.02 -1.03,1.02 -0.57,-0 -1.02,-0.46 -1.02,-1.03 0,-0.57 0.46,-1.02 1.03,-1.02 0.57,0 1.02,0.46 1.02,1.03z"/>
   <path class="fil1" d="M582.87 36.13c-0,0.57 -0.46,1.02 -1.03,1.02 -0.57,-0 -1.02,-0.46 -1.02,-1.03 0,-0.56 0.46,-1.02 1.03,-1.02 0.57,0 1.02,0.46 1.02,1.03z"/>
   <path class="fil1" d="M590.21 6.47c-0,0.57 -0.46,1.02 -1.03,1.02 -0.57,-0 -1.02,-0.46 -1.02,-1.03 0,-0.57 0.46,-1.02 1.03,-1.02 0.57,0 1.02,0.46 1.02,1.03z"/>
   <path class="fil1" d="M590.17 16.35c-0,0.57 -0.46,1.02 -1.03,1.02 -0.57,-0 -1.02,-0.46 -1.02,-1.03 0,-0.57 0.46,-1.02 1.03,-1.02 0.57,0 1.02,0.46 1.02,1.03z"/>
   <path class="fil1" d="M590.12 26.24c-0,0.57 -0.46,1.02 -1.03,1.02 -0.57,-0 -1.02,-0.46 -1.02,-1.03 0,-0.57 0.46,-1.02 1.03,-1.02 0.57,0 1.02,0.46 1.02,1.03z"/>
   <path class="fil1" d="M590.08 36.13c-0,0.57 -0.46,1.02 -1.03,1.02 -0.57,-0 -1.02,-0.46 -1.02,-1.03 0,-0.56 0.46,-1.02 1.03,-1.02 0.57,0 1.02,0.46 1.02,1.03z"/>
   <path class="fil1" d="M597.42 6.47c-0,0.57 -0.46,1.02 -1.03,1.02 -0.57,-0 -1.02,-0.46 -1.02,-1.03 0,-0.57 0.46,-1.02 1.03,-1.02 0.57,0 1.02,0.46 1.02,1.03z"/>
   <path class="fil1" d="M597.37 16.35c-0,0.57 -0.46,1.02 -1.03,1.02 -0.57,-0 -1.02,-0.46 -1.02,-1.03 0,-0.57 0.46,-1.02 1.03,-1.02 0.57,0 1.02,0.46 1.02,1.03z"/>
   <path class="fil1" d="M597.33 26.24c-0,0.57 -0.46,1.02 -1.03,1.02 -0.57,-0 -1.02,-0.46 -1.02,-1.03 0,-0.57 0.46,-1.02 1.03,-1.02 0.57,0 1.02,0.46 1.02,1.03z"/>
   <path class="fil1" d="M597.28 36.13c-0,0.57 -0.46,1.02 -1.03,1.02 -0.57,-0 -1.02,-0.46 -1.02,-1.03 0,-0.56 0.46,-1.02 1.03,-1.02 0.57,0 1.02,0.46 1.02,1.03z"/>
   <path class="fil1" d="M604.62 6.47c-0,0.57 -0.46,1.02 -1.03,1.02 -0.57,-0 -1.02,-0.46 -1.02,-1.03 0,-0.57 0.46,-1.02 1.03,-1.02 0.57,0 1.02,0.46 1.02,1.03z"/>
   <path class="fil1" d="M604.58 16.35c-0,0.57 -0.46,1.02 -1.03,1.02 -0.57,-0 -1.02,-0.46 -1.02,-1.03 0,-0.57 0.46,-1.02 1.03,-1.02 0.57,0 1.02,0.46 1.02,1.03z"/>
   <path class="fil1" d="M604.53 26.24c-0,0.57 -0.46,1.02 -1.03,1.02 -0.57,-0 -1.02,-0.46 -1.02,-1.03 0,-0.57 0.46,-1.02 1.03,-1.02 0.57,0 1.02,0.46 1.02,1.03z"/>
   <path class="fil1" d="M604.49 36.13c-0,0.57 -0.46,1.02 -1.03,1.02 -0.57,-0 -1.02,-0.46 -1.02,-1.03 0,-0.56 0.46,-1.02 1.03,-1.02 0.57,0 1.02,0.46 1.02,1.03z"/>
   <path class="fil1" d="M611.83 6.47c-0,0.57 -0.46,1.02 -1.03,1.02 -0.57,-0 -1.02,-0.46 -1.02,-1.03 0,-0.57 0.46,-1.02 1.03,-1.02 0.57,0 1.02,0.46 1.02,1.03z"/>
   <path class="fil1" d="M611.78 16.35c-0,0.57 -0.46,1.02 -1.03,1.02 -0.57,-0 -1.02,-0.46 -1.02,-1.03 0,-0.57 0.46,-1.02 1.03,-1.02 0.57,0 1.02,0.46 1.02,1.03z"/>
   <path class="fil1" d="M611.74 26.24c-0,0.57 -0.46,1.02 -1.03,1.02 -0.57,-0 -1.02,-0.46 -1.02,-1.03 0,-0.57 0.46,-1.02 1.03,-1.02 0.57,0 1.02,0.46 1.02,1.03z"/>
   <path class="fil1" d="M611.69 36.13c-0,0.57 -0.46,1.02 -1.03,1.02 -0.57,-0 -1.02,-0.46 -1.02,-1.03 0,-0.56 0.46,-1.02 1.03,-1.02 0.57,0 1.02,0.46 1.02,1.03z"/>
   <path class="fil1" d="M619.03 6.47c-0,0.57 -0.46,1.02 -1.03,1.02 -0.57,-0 -1.02,-0.46 -1.02,-1.03 0,-0.57 0.46,-1.02 1.03,-1.02 0.57,0 1.02,0.46 1.02,1.03z"/>
   <path class="fil1" d="M618.99 16.35c-0,0.57 -0.46,1.02 -1.03,1.02 -0.57,-0 -1.02,-0.46 -1.02,-1.03 0,-0.57 0.46,-1.02 1.03,-1.02 0.57,0 1.02,0.46 1.02,1.03z"/>
   <path class="fil1" d="M618.95 26.24c-0,0.57 -0.46,1.02 -1.03,1.02 -0.57,-0 -1.02,-0.46 -1.02,-1.03 0,-0.57 0.46,-1.02 1.03,-1.02 0.57,0 1.02,0.46 1.02,1.03z"/>
   <path class="fil1" d="M618.9 36.13c-0,0.57 -0.46,1.02 -1.03,1.02 -0.57,-0 -1.02,-0.46 -1.02,-1.03 0,-0.56 0.46,-1.02 1.03,-1.02 0.57,0 1.02,0.46 1.02,1.03z"/>
   <path class="fil1" d="M626.24 6.47c-0,0.57 -0.46,1.02 -1.03,1.02 -0.57,-0 -1.02,-0.46 -1.02,-1.03 0,-0.57 0.46,-1.02 1.03,-1.02 0.57,0 1.02,0.46 1.02,1.03z"/>
   <path class="fil1" d="M626.2 16.35c-0,0.57 -0.46,1.02 -1.03,1.02 -0.57,-0 -1.02,-0.46 -1.02,-1.03 0,-0.57 0.46,-1.02 1.03,-1.02 0.57,0 1.02,0.46 1.02,1.03z"/>
   <path class="fil1" d="M626.15 26.24c-0,0.57 -0.46,1.02 -1.03,1.02 -0.57,-0 -1.02,-0.46 -1.02,-1.03 0,-0.57 0.46,-1.02 1.03,-1.02 0.57,0 1.02,0.46 1.02,1.03z"/>
   <path class="fil1" d="M626.11 36.13c-0,0.57 -0.46,1.02 -1.03,1.02 -0.57,-0 -1.02,-0.46 -1.02,-1.03 0,-0.56 0.46,-1.02 1.03,-1.02 0.57,0 1.02,0.46 1.02,1.03z"/>
   <path class="fil1" d="M633.45 6.47c-0,0.57 -0.46,1.02 -1.03,1.02 -0.57,-0 -1.02,-0.46 -1.02,-1.03 0,-0.57 0.46,-1.02 1.03,-1.02 0.57,0 1.02,0.46 1.02,1.03z"/>
   <path class="fil1" d="M633.4 16.35c-0,0.57 -0.46,1.02 -1.03,1.02 -0.57,-0 -1.02,-0.46 -1.02,-1.03 0,-0.57 0.46,-1.02 1.03,-1.02 0.57,0 1.02,0.46 1.02,1.03z"/>
   <path class="fil1" d="M633.36 26.24c-0,0.57 -0.46,1.02 -1.03,1.02 -0.57,-0 -1.02,-0.46 -1.02,-1.03 0,-0.57 0.46,-1.02 1.03,-1.02 0.57,0 1.02,0.46 1.02,1.03z"/>
   <path class="fil1" d="M633.31 36.13c-0,0.57 -0.46,1.02 -1.03,1.02 -0.57,-0 -1.02,-0.46 -1.02,-1.03 0,-0.56 0.46,-1.02 1.03,-1.02 0.57,0 1.02,0.46 1.02,1.03z"/>
   <path class="fil1" d="M640.65 6.47c-0,0.57 -0.46,1.02 -1.03,1.02 -0.57,-0 -1.02,-0.46 -1.02,-1.03 0,-0.57 0.46,-1.02 1.03,-1.02 0.57,0 1.02,0.46 1.02,1.03z"/>
   <path class="fil1" d="M640.61 16.35c-0,0.57 -0.46,1.02 -1.03,1.02 -0.57,-0 -1.02,-0.46 -1.02,-1.03 0,-0.57 0.46,-1.02 1.03,-1.02 0.57,0 1.02,0.46 1.02,1.03z"/>
   <path class="fil1" d="M640.56 26.24c-0,0.57 -0.46,1.02 -1.03,1.02 -0.57,-0 -1.02,-0.46 -1.02,-1.03 0,-0.57 0.46,-1.02 1.03,-1.02 0.57,0 1.02,0.46 1.02,1.03z"/>
   <path class="fil1" d="M640.52 36.13c-0,0.57 -0.46,1.02 -1.03,1.02 -0.57,-0 -1.02,-0.46 -1.02,-1.03 0,-0.56 0.46,-1.02 1.03,-1.02 0.57,0 1.02,0.46 1.02,1.03z"/>
   <path class="fil1" d="M647.86 6.47c-0,0.57 -0.46,1.02 -1.03,1.02 -0.57,-0 -1.02,-0.46 -1.02,-1.03 0,-0.57 0.46,-1.02 1.03,-1.02 0.57,0 1.02,0.46 1.02,1.03z"/>
   <path class="fil1" d="M647.81 16.35c-0,0.57 -0.46,1.02 -1.03,1.02 -0.57,-0 -1.02,-0.46 -1.02,-1.03 0,-0.57 0.46,-1.02 1.03,-1.02 0.57,0 1.02,0.46 1.02,1.03z"/>
   <path class="fil1" d="M647.77 26.24c-0,0.57 -0.46,1.02 -1.03,1.02 -0.57,-0 -1.02,-0.46 -1.02,-1.03 0,-0.57 0.46,-1.02 1.03,-1.02 0.57,0 1.02,0.46 1.02,1.03z"/>
   <path class="fil1" d="M647.73 36.13c-0,0.57 -0.46,1.02 -1.03,1.02 -0.57,-0 -1.02,-0.46 -1.02,-1.03 0,-0.56 0.46,-1.02 1.03,-1.02 0.57,0 1.02,0.46 1.02,1.03z"/>
   <path class="fil1" d="M655.06 6.47c-0,0.57 -0.46,1.02 -1.03,1.02 -0.57,-0 -1.02,-0.46 -1.02,-1.03 0,-0.57 0.46,-1.02 1.03,-1.02 0.57,0 1.02,0.46 1.02,1.03z"/>
   <path class="fil1" d="M655.02 16.35c-0,0.57 -0.46,1.02 -1.03,1.02 -0.57,-0 -1.02,-0.46 -1.02,-1.03 0,-0.57 0.46,-1.02 1.03,-1.02 0.57,0 1.02,0.46 1.02,1.03z"/>
   <path class="fil1" d="M654.98 26.24c-0,0.57 -0.46,1.02 -1.03,1.02 -0.57,-0 -1.02,-0.46 -1.02,-1.03 0,-0.57 0.46,-1.02 1.03,-1.02 0.57,0 1.02,0.46 1.02,1.03z"/>
   <path class="fil1" d="M654.93 36.13c-0,0.57 -0.46,1.02 -1.03,1.02 -0.57,-0 -1.02,-0.46 -1.02,-1.03 0,-0.56 0.46,-1.02 1.03,-1.02 0.57,0 1.02,0.46 1.02,1.03z"/>
   <path class="fil1" d="M662.27 6.47c-0,0.57 -0.46,1.02 -1.03,1.02 -0.57,-0 -1.02,-0.46 -1.02,-1.03 0,-0.57 0.46,-1.02 1.03,-1.02 0.57,0 1.02,0.46 1.02,1.03z"/>
   <path class="fil1" d="M662.23 16.35c-0,0.57 -0.46,1.02 -1.03,1.02 -0.57,-0 -1.02,-0.46 -1.02,-1.03 0,-0.57 0.46,-1.02 1.03,-1.02 0.57,0 1.02,0.46 1.02,1.03z"/>
   <path class="fil1" d="M662.18 26.24c-0,0.57 -0.46,1.02 -1.03,1.02 -0.57,-0 -1.02,-0.46 -1.02,-1.03 0,-0.57 0.46,-1.02 1.03,-1.02 0.57,0 1.02,0.46 1.02,1.03z"/>
   <path class="fil1" d="M662.14 36.13c-0,0.57 -0.46,1.02 -1.03,1.02 -0.57,-0 -1.02,-0.46 -1.02,-1.03 0,-0.56 0.46,-1.02 1.03,-1.02 0.57,0 1.02,0.46 1.02,1.03z"/>
   <path class="fil1" d="M669.48 6.47c-0,0.57 -0.46,1.02 -1.03,1.02 -0.57,-0 -1.02,-0.46 -1.02,-1.03 0,-0.57 0.46,-1.02 1.03,-1.02 0.57,0 1.02,0.46 1.02,1.03z"/>
   <path class="fil1" d="M669.43 16.35c-0,0.57 -0.46,1.02 -1.03,1.02 -0.57,-0 -1.02,-0.46 -1.02,-1.03 0,-0.57 0.46,-1.02 1.03,-1.02 0.57,0 1.02,0.46 1.02,1.03z"/>
   <path class="fil1" d="M669.39 26.24c-0,0.57 -0.46,1.02 -1.03,1.02 -0.57,-0 -1.02,-0.46 -1.02,-1.03 0,-0.57 0.46,-1.02 1.03,-1.02 0.57,0 1.02,0.46 1.02,1.03z"/>
   <path class="fil1" d="M669.34 36.13c-0,0.57 -0.46,1.02 -1.03,1.02 -0.57,-0 -1.02,-0.46 -1.02,-1.03 0,-0.56 0.46,-1.02 1.03,-1.02 0.57,0 1.02,0.46 1.02,1.03z"/>
   <path class="fil1" d="M676.68 6.47c-0,0.57 -0.46,1.02 -1.03,1.02 -0.57,-0 -1.02,-0.46 -1.02,-1.03 0,-0.57 0.46,-1.02 1.03,-1.02 0.57,0 1.02,0.46 1.02,1.03z"/>
   <path class="fil1" d="M676.64 16.35c-0,0.57 -0.46,1.02 -1.03,1.02 -0.57,-0 -1.02,-0.46 -1.02,-1.03 0,-0.57 0.46,-1.02 1.03,-1.02 0.57,0 1.02,0.46 1.02,1.03z"/>
   <path class="fil1" d="M676.59 26.24c-0,0.57 -0.46,1.02 -1.03,1.02 -0.57,-0 -1.02,-0.46 -1.02,-1.03 0,-0.57 0.46,-1.02 1.03,-1.02 0.57,0 1.02,0.46 1.02,1.03z"/>
   <path class="fil1" d="M676.55 36.13c-0,0.57 -0.46,1.02 -1.03,1.02 -0.57,-0 -1.02,-0.46 -1.02,-1.03 0,-0.56 0.46,-1.02 1.03,-1.02 0.57,0 1.02,0.46 1.02,1.03z"/>
   <path class="fil1" d="M683.89 6.47c-0,0.57 -0.46,1.02 -1.03,1.02 -0.57,-0 -1.02,-0.46 -1.02,-1.03 0,-0.57 0.46,-1.02 1.03,-1.02 0.57,0 1.02,0.46 1.02,1.03z"/>
   <path class="fil1" d="M683.84 16.35c-0,0.57 -0.46,1.02 -1.03,1.02 -0.57,-0 -1.02,-0.46 -1.02,-1.03 0,-0.57 0.46,-1.02 1.03,-1.02 0.57,0 1.02,0.46 1.02,1.03z"/>
   <path class="fil1" d="M683.8 26.24c-0,0.57 -0.46,1.02 -1.03,1.02 -0.57,-0 -1.02,-0.46 -1.02,-1.03 0,-0.57 0.46,-1.02 1.03,-1.02 0.57,0 1.02,0.46 1.02,1.03z"/>
   <path class="fil1" d="M683.76 36.13c-0,0.57 -0.46,1.02 -1.03,1.02 -0.57,-0 -1.02,-0.46 -1.02,-1.03 0,-0.56 0.46,-1.02 1.03,-1.02 0.57,0 1.02,0.46 1.02,1.03z"/>
   <path class="fil1" d="M691.09 6.47c-0,0.57 -0.46,1.02 -1.03,1.02 -0.57,-0 -1.02,-0.46 -1.02,-1.03 0,-0.57 0.46,-1.02 1.03,-1.02 0.57,0 1.02,0.46 1.02,1.03z"/>
   <path class="fil1" d="M691.05 16.35c-0,0.57 -0.46,1.02 -1.03,1.02 -0.57,-0 -1.02,-0.46 -1.02,-1.03 0,-0.57 0.46,-1.02 1.03,-1.02 0.57,0 1.02,0.46 1.02,1.03z"/>
   <path class="fil1" d="M691.01 26.24c-0,0.57 -0.46,1.02 -1.03,1.02 -0.57,-0 -1.02,-0.46 -1.02,-1.03 0,-0.57 0.46,-1.02 1.03,-1.02 0.57,0 1.02,0.46 1.02,1.03z"/>
   <path class="fil1" d="M690.96 36.13c-0,0.57 -0.46,1.02 -1.03,1.02 -0.57,-0 -1.02,-0.46 -1.02,-1.03 0,-0.56 0.46,-1.02 1.03,-1.02 0.57,0 1.02,0.46 1.02,1.03z"/>
   <path class="fil1" d="M698.3 6.47c-0,0.57 -0.46,1.02 -1.03,1.02 -0.57,-0 -1.02,-0.46 -1.02,-1.03 0,-0.57 0.46,-1.02 1.03,-1.02 0.57,0 1.02,0.46 1.02,1.03z"/>
   <path class="fil1" d="M698.26 16.35c-0,0.57 -0.46,1.02 -1.03,1.02 -0.57,-0 -1.02,-0.46 -1.02,-1.03 0,-0.57 0.46,-1.02 1.03,-1.02 0.57,0 1.02,0.46 1.02,1.03z"/>
   <path class="fil1" d="M698.21 26.24c-0,0.57 -0.46,1.02 -1.03,1.02 -0.57,-0 -1.02,-0.46 -1.02,-1.03 0,-0.57 0.46,-1.02 1.03,-1.02 0.57,0 1.02,0.46 1.02,1.03z"/>
   <path class="fil1" d="M698.17 36.13c-0,0.57 -0.46,1.02 -1.03,1.02 -0.57,-0 -1.02,-0.46 -1.02,-1.03 0,-0.56 0.46,-1.02 1.03,-1.02 0.57,0 1.02,0.46 1.02,1.03z"/>
   <path class="fil1" d="M705.51 6.47c-0,0.57 -0.46,1.02 -1.03,1.02 -0.57,-0 -1.02,-0.46 -1.02,-1.03 0,-0.57 0.46,-1.02 1.03,-1.02 0.57,0 1.02,0.46 1.02,1.03z"/>
   <path class="fil1" d="M705.46 16.35c-0,0.57 -0.46,1.02 -1.03,1.02 -0.57,-0 -1.02,-0.46 -1.02,-1.03 0,-0.57 0.46,-1.02 1.03,-1.02 0.57,0 1.02,0.46 1.02,1.03z"/>
   <path class="fil1" d="M705.42 26.24c-0,0.57 -0.46,1.02 -1.03,1.02 -0.57,-0 -1.02,-0.46 -1.02,-1.03 0,-0.57 0.46,-1.02 1.03,-1.02 0.57,0 1.02,0.46 1.02,1.03z"/>
   <path class="fil1" d="M705.37 36.13c-0,0.57 -0.46,1.02 -1.03,1.02 -0.57,-0 -1.02,-0.46 -1.02,-1.03 0,-0.56 0.46,-1.02 1.03,-1.02 0.57,0 1.02,0.46 1.02,1.03z"/>
   <path class="fil1" d="M712.71 6.47c-0,0.57 -0.46,1.02 -1.03,1.02 -0.57,-0 -1.02,-0.46 -1.02,-1.03 0,-0.57 0.46,-1.02 1.03,-1.02 0.57,0 1.02,0.46 1.02,1.03z"/>
   <path class="fil1" d="M712.67 16.35c-0,0.57 -0.46,1.02 -1.03,1.02 -0.57,-0 -1.02,-0.46 -1.02,-1.03 0,-0.57 0.46,-1.02 1.03,-1.02 0.57,0 1.02,0.46 1.02,1.03z"/>
   <path class="fil1" d="M712.62 26.24c-0,0.57 -0.46,1.02 -1.03,1.02 -0.57,-0 -1.02,-0.46 -1.02,-1.03 0,-0.57 0.46,-1.02 1.03,-1.02 0.57,0 1.02,0.46 1.02,1.03z"/>
   <path class="fil1" d="M712.58 36.13c-0,0.57 -0.46,1.02 -1.03,1.02 -0.57,-0 -1.02,-0.46 -1.02,-1.03 0,-0.56 0.46,-1.02 1.03,-1.02 0.57,0 1.02,0.46 1.02,1.03z"/>
   <path class="fil1" d="M719.92 6.47c-0,0.57 -0.46,1.02 -1.03,1.02 -0.57,-0 -1.02,-0.46 -1.02,-1.03 0,-0.57 0.46,-1.02 1.03,-1.02 0.57,0 1.02,0.46 1.02,1.03z"/>
   <path class="fil1" d="M719.87 16.35c-0,0.57 -0.46,1.02 -1.03,1.02 -0.57,-0 -1.02,-0.46 -1.02,-1.03 0,-0.57 0.46,-1.02 1.03,-1.02 0.57,0 1.02,0.46 1.02,1.03z"/>
   <path class="fil1" d="M719.83 26.24c-0,0.57 -0.46,1.02 -1.03,1.02 -0.57,-0 -1.02,-0.46 -1.02,-1.03 0,-0.57 0.46,-1.02 1.03,-1.02 0.57,0 1.02,0.46 1.02,1.03z"/>
   <path class="fil1" d="M719.79 36.13c-0,0.57 -0.46,1.02 -1.03,1.02 -0.57,-0 -1.02,-0.46 -1.02,-1.03 0,-0.56 0.46,-1.02 1.03,-1.02 0.57,0 1.02,0.46 1.02,1.03z"/>
   <path class="fil1" d="M727.12 6.47c-0,0.57 -0.46,1.02 -1.03,1.02 -0.57,-0 -1.02,-0.46 -1.02,-1.03 0,-0.57 0.46,-1.02 1.03,-1.02 0.57,0 1.02,0.46 1.02,1.03z"/>
   <path class="fil1" d="M727.08 16.35c-0,0.57 -0.46,1.02 -1.03,1.02 -0.57,-0 -1.02,-0.46 -1.02,-1.03 0,-0.57 0.46,-1.02 1.03,-1.02 0.57,0 1.02,0.46 1.02,1.03z"/>
   <path class="fil1" d="M727.04 26.24c-0,0.57 -0.46,1.02 -1.03,1.02 -0.57,-0 -1.02,-0.46 -1.02,-1.03 0,-0.57 0.46,-1.02 1.03,-1.02 0.57,0 1.02,0.46 1.02,1.03z"/>
   <path class="fil1" d="M726.99 36.13c-0,0.57 -0.46,1.02 -1.03,1.02 -0.57,-0 -1.02,-0.46 -1.02,-1.03 0,-0.56 0.46,-1.02 1.03,-1.02 0.57,0 1.02,0.46 1.02,1.03z"/>
   <path class="fil1" d="M734.33 6.47c-0,0.57 -0.46,1.02 -1.03,1.02 -0.57,-0 -1.02,-0.46 -1.02,-1.03 0,-0.57 0.46,-1.02 1.03,-1.02 0.57,0 1.02,0.46 1.02,1.03z"/>
   <path class="fil1" d="M734.29 16.35c-0,0.57 -0.46,1.02 -1.03,1.02 -0.57,-0 -1.02,-0.46 -1.02,-1.03 0,-0.57 0.46,-1.02 1.03,-1.02 0.57,0 1.02,0.46 1.02,1.03z"/>
   <path class="fil1" d="M734.24 26.24c-0,0.57 -0.46,1.02 -1.03,1.02 -0.57,-0 -1.02,-0.46 -1.02,-1.03 0,-0.57 0.46,-1.02 1.03,-1.02 0.57,0 1.02,0.46 1.02,1.03z"/>
   <path class="fil1" d="M734.2 36.13c-0,0.57 -0.46,1.02 -1.03,1.02 -0.57,-0 -1.02,-0.46 -1.02,-1.03 0,-0.56 0.46,-1.02 1.03,-1.02 0.57,0 1.02,0.46 1.02,1.03z"/>
   <path class="fil1" d="M741.54 6.47c-0,0.57 -0.46,1.02 -1.03,1.02 -0.57,-0 -1.02,-0.46 -1.02,-1.03 0,-0.57 0.46,-1.02 1.03,-1.02 0.57,0 1.02,0.46 1.02,1.03z"/>
   <path class="fil1" d="M741.49 16.35c-0,0.57 -0.46,1.02 -1.03,1.02 -0.57,-0 -1.02,-0.46 -1.02,-1.03 0,-0.57 0.46,-1.02 1.03,-1.02 0.57,0 1.02,0.46 1.02,1.03z"/>
   <path class="fil1" d="M741.45 26.24c-0,0.57 -0.46,1.02 -1.03,1.02 -0.57,-0 -1.02,-0.46 -1.02,-1.03 0,-0.57 0.46,-1.02 1.03,-1.02 0.57,0 1.02,0.46 1.02,1.03z"/>
   <path class="fil1" d="M741.4 36.13c-0,0.57 -0.46,1.02 -1.03,1.02 -0.57,-0 -1.02,-0.46 -1.02,-1.03 0,-0.56 0.46,-1.02 1.03,-1.02 0.57,0 1.02,0.46 1.02,1.03z"/>
   <path class="fil1" d="M748.74 6.47c-0,0.57 -0.46,1.02 -1.03,1.02 -0.57,-0 -1.02,-0.46 -1.02,-1.03 0,-0.57 0.46,-1.02 1.03,-1.02 0.57,0 1.02,0.46 1.02,1.03z"/>
   <path class="fil1" d="M748.7 16.35c-0,0.57 -0.46,1.02 -1.03,1.02 -0.57,-0 -1.02,-0.46 -1.02,-1.03 0,-0.57 0.46,-1.02 1.03,-1.02 0.57,0 1.02,0.46 1.02,1.03z"/>
   <path class="fil1" d="M748.65 26.24c-0,0.57 -0.46,1.02 -1.03,1.02 -0.57,-0 -1.02,-0.46 -1.02,-1.03 0,-0.57 0.46,-1.02 1.03,-1.02 0.57,0 1.02,0.46 1.02,1.03z"/>
   <path class="fil1" d="M748.61 36.13c-0,0.57 -0.46,1.02 -1.03,1.02 -0.57,-0 -1.02,-0.46 -1.02,-1.03 0,-0.56 0.46,-1.02 1.03,-1.02 0.57,0 1.02,0.46 1.02,1.03z"/>
   <path class="fil1" d="M755.95 6.47c-0,0.57 -0.46,1.02 -1.03,1.02 -0.57,-0 -1.02,-0.46 -1.02,-1.03 0,-0.57 0.46,-1.02 1.03,-1.02 0.57,0 1.02,0.46 1.02,1.03z"/>
   <path class="fil1" d="M755.9 16.35c-0,0.57 -0.46,1.02 -1.03,1.02 -0.57,-0 -1.02,-0.46 -1.02,-1.03 0,-0.57 0.46,-1.02 1.03,-1.02 0.57,0 1.02,0.46 1.02,1.03z"/>
   <path class="fil1" d="M755.86 26.24c-0,0.57 -0.46,1.02 -1.03,1.02 -0.57,-0 -1.02,-0.46 -1.02,-1.03 0,-0.57 0.46,-1.02 1.03,-1.02 0.57,0 1.02,0.46 1.02,1.03z"/>
   <path class="fil1" d="M755.82 36.13c-0,0.57 -0.46,1.02 -1.03,1.02 -0.57,-0 -1.02,-0.46 -1.02,-1.03 0,-0.56 0.46,-1.02 1.03,-1.02 0.57,0 1.02,0.46 1.02,1.03z"/>
   <path class="fil1" d="M763.15 6.47c-0,0.57 -0.46,1.02 -1.03,1.02 -0.57,-0 -1.02,-0.46 -1.02,-1.03 0,-0.57 0.46,-1.02 1.03,-1.02 0.57,0 1.02,0.46 1.02,1.03z"/>
   <path class="fil1" d="M763.11 16.35c-0,0.57 -0.46,1.02 -1.03,1.02 -0.57,-0 -1.02,-0.46 -1.02,-1.03 0,-0.57 0.46,-1.02 1.03,-1.02 0.57,0 1.02,0.46 1.02,1.03z"/>
   <path class="fil1" d="M763.07 26.24c-0,0.57 -0.46,1.02 -1.03,1.02 -0.57,-0 -1.02,-0.46 -1.02,-1.03 0,-0.57 0.46,-1.02 1.03,-1.02 0.57,0 1.02,0.46 1.02,1.03z"/>
   <path class="fil1" d="M763.02 36.13c-0,0.57 -0.46,1.02 -1.03,1.02 -0.57,-0 -1.02,-0.46 -1.02,-1.03 0,-0.56 0.46,-1.02 1.03,-1.02 0.57,0 1.02,0.46 1.02,1.03z"/>
   <path class="fil1" d="M770.36 6.47c-0,0.57 -0.46,1.02 -1.03,1.02 -0.57,-0 -1.02,-0.46 -1.02,-1.03 0,-0.57 0.46,-1.02 1.03,-1.02 0.57,0 1.02,0.46 1.02,1.03z"/>
   <path class="fil1" d="M770.32 16.35c-0,0.57 -0.46,1.02 -1.03,1.02 -0.57,-0 -1.02,-0.46 -1.02,-1.03 0,-0.57 0.46,-1.02 1.03,-1.02 0.57,0 1.02,0.46 1.02,1.03z"/>
   <path class="fil1" d="M770.27 26.24c-0,0.57 -0.46,1.02 -1.03,1.02 -0.57,-0 -1.02,-0.46 -1.02,-1.03 0,-0.57 0.46,-1.02 1.03,-1.02 0.57,0 1.02,0.46 1.02,1.03z"/>
   <path class="fil1" d="M770.23 36.13c-0,0.57 -0.46,1.02 -1.03,1.02 -0.57,-0 -1.02,-0.46 -1.02,-1.03 0,-0.56 0.46,-1.02 1.03,-1.02 0.57,0 1.02,0.46 1.02,1.03z"/>
   <path class="fil1" d="M777.57 6.47c-0,0.57 -0.46,1.02 -1.03,1.02 -0.57,-0 -1.02,-0.46 -1.02,-1.03 0,-0.57 0.46,-1.02 1.03,-1.02 0.57,0 1.02,0.46 1.02,1.03z"/>
   <path class="fil1" d="M777.52 16.35c-0,0.57 -0.46,1.02 -1.03,1.02 -0.57,-0 -1.02,-0.46 -1.02,-1.03 0,-0.57 0.46,-1.02 1.03,-1.02 0.57,0 1.02,0.46 1.02,1.03z"/>
   <path class="fil1" d="M777.48 26.24c-0,0.57 -0.46,1.02 -1.03,1.02 -0.57,-0 -1.02,-0.46 -1.02,-1.03 0,-0.57 0.46,-1.02 1.03,-1.02 0.57,0 1.02,0.46 1.02,1.03z"/>
   <path class="fil1" d="M777.43 36.13c-0,0.57 -0.46,1.02 -1.03,1.02 -0.57,-0 -1.02,-0.46 -1.02,-1.03 0,-0.56 0.46,-1.02 1.03,-1.02 0.57,0 1.02,0.46 1.02,1.03z"/>
  </g>
  <path class="fil2" d="M341.53 38.09c-0.01,-3.74 -3.26,-6.76 -7.25,-6.75l-60.45 0.15c-1.54,0 -2.79,-1.16 -2.8,-2.6 -0,-1.44 1.24,-2.61 2.78,-2.62l147.42 -0.31c3.72,-0.01 6.73,-2.83 6.72,-6.32 -0.01,-3.48 -3.04,-6.3 -6.76,-6.29l-106.38 0.23c-3.66,0.01 -6.63,-2.76 -6.64,-6.18 -0.01,-3.42 -2.98,-6.19 -6.64,-6.18l-301.08 0.14 0 44.74 333.99 0c3.97,-0.04 7.1,-4.29 7.09,-8z"/>
 </g>
</svg>
