<?xml version="1.0" encoding="UTF-8"?>
<!DOCTYPE svg PUBLIC "-//W3C//DTD SVG 1.1//EN" "http://www.w3.org/Graphics/SVG/1.1/DTD/svg11.dtd">
<!-- Creator: CorelDRAW -->
<svg xmlns="http://www.w3.org/2000/svg" xml:space="preserve" width="14.7461mm" height="2.43mm" version="1.1" style="shape-rendering:geometricPrecision; text-rendering:geometricPrecision; image-rendering:optimizeQuality; fill-rule:evenodd; clip-rule:evenodd"
viewBox="0 0 284.7 46.92"
 xmlns:xlink="http://www.w3.org/1999/xlink"
 xmlns:xodm="http://www.corel.com/coreldraw/odm/2003">
 <defs>
  <style type="text/css">
   <![CDATA[
    .fil1 {fill:#273155}
    .fil6 {fill:#149497;fill-rule:nonzero}
    .fil2 {fill:#1D538F;fill-rule:nonzero}
    .fil0 {fill:#273155;fill-rule:nonzero}
    .fil3 {fill:#9BDCDE;fill-rule:nonzero}
    .fil5 {fill:#FA5456;fill-rule:nonzero}
    .fil4 {fill:#FA8825;fill-rule:nonzero}
    .fil7 {fill:#FED942;fill-rule:nonzero}
   ]]>
  </style>
 </defs>
 <g id="Layer_x0020_1">
  <metadata id="CorelCorpID_0Corel-Layer"/>
  <g id="_1987935657872">
   <g>
    <path class="fil0" d="M104.26 1.73l0 3.61c-2.52,-1.23 -4.85,-1.84 -6.97,-1.84 -2.72,0 -5.01,0.88 -6.87,2.63 -1.86,1.76 -2.79,3.91 -2.79,6.46 0,2.6 0.95,4.77 2.86,6.52 1.9,1.74 4.29,2.61 7.16,2.61 2.08,0 4.29,-0.65 6.61,-1.96l0 3.65c-2.12,1.13 -4.41,1.69 -6.89,1.69 -3.63,0 -6.73,-1.22 -9.3,-3.67 -2.58,-2.45 -3.86,-5.41 -3.86,-8.88 0,-3.4 1.27,-6.31 3.79,-8.73 2.53,-2.42 5.58,-3.63 9.15,-3.63 2.29,0 4.66,0.52 7.11,1.54z"/>
    <polygon class="fil0" points="108.62,0.94 111.82,0.94 111.82,21.15 119.42,21.15 119.42,24.34 108.62,24.34 "/>
    <polygon class="fil0" points="123.78,0.94 136.76,0.94 136.76,4.14 126.98,4.14 126.98,9.93 136.76,9.93 136.76,13.13 126.98,13.13 126.98,21.15 136.76,21.15 136.76,24.34 123.78,24.34 "/>
    <polygon class="fil0" points="152.09,0.03 163.14,24.34 159.81,24.34 152.09,7.39 144.45,24.34 141.13,24.34 "/>
    <polygon class="fil0" points="167.5,0 184.81,17.77 184.81,0.94 188,0.94 188,25.43 170.7,7.72 170.7,24.34 167.5,24.34 "/>
   </g>
   <g>
    <path class="fil0" d="M215.42 1.62l0 5.87c-2.61,-1.56 -4.89,-2.33 -6.85,-2.33 -1.96,0 -3.53,0.67 -4.7,2.02 -1.17,1.35 -1.76,3.16 -1.76,5.44 0,2.15 0.62,3.87 1.86,5.17 1.24,1.29 2.89,1.94 4.96,1.94 1.81,0 3.98,-0.74 6.5,-2.22l0 5.87c-2.83,0.95 -5.19,1.43 -7.07,1.43 -3.24,0 -6,-1.19 -8.27,-3.57 -2.26,-2.38 -3.4,-5.29 -3.4,-8.72 0,-3.49 1.15,-6.45 3.46,-8.87 2.31,-2.42 5.12,-3.63 8.42,-3.63 2.13,0 4.42,0.54 6.85,1.62z"/>
    <path class="fil0" d="M218.55 12.39c0,-3.57 1.18,-6.51 3.54,-8.84 2.36,-2.32 5.15,-3.48 8.38,-3.48 3.58,0 6.54,1.17 8.87,3.5 2.34,2.34 3.51,5.29 3.51,8.85 0,3.54 -1.16,6.49 -3.47,8.83 -2.31,2.34 -5.23,3.51 -8.74,3.51 -3.52,0 -6.41,-1.17 -8.69,-3.49 -2.27,-2.33 -3.4,-5.29 -3.4,-8.87zm12.18 -7.5c-2.03,-0.04 -3.65,0.66 -4.9,2.09 -1.24,1.44 -1.86,3.29 -1.86,5.55 0,2.14 0.63,3.92 1.9,5.33 1.26,1.41 2.86,2.11 4.79,2.11 2.03,0 3.66,-0.7 4.91,-2.09 1.25,-1.39 1.87,-3.22 1.87,-5.5 0,-2.25 -0.61,-4.04 -1.83,-5.41 -1.22,-1.36 -2.85,-2.06 -4.88,-2.09z"/>
    <path class="fil0" d="M247.08 0.34l8.23 0c3.52,0 6.35,1.11 8.49,3.32 2.14,2.22 3.22,5.14 3.22,8.76 0,3.64 -1.1,6.55 -3.32,8.75 -2.21,2.19 -5.15,3.29 -8.83,3.29l-7.79 0 0 -24.12zm5.19 4.55l0 14.9 2.06 0c2.14,0 3.9,-0.58 5.28,-1.74 1.37,-1.17 2.06,-3.1 2.06,-5.83 0,-1.58 -0.33,-2.98 -1,-4.2 -0.67,-1.22 -1.63,-2.05 -2.88,-2.48 -1.26,-0.43 -2.47,-0.65 -3.61,-0.65l-1.92 0z"/>
    <path class="fil1" d="M271.11 0.34l13.58 0 0 4.78c-4.53,0 -9.06,0 -13.58,0l0 -4.78zm13.58 9.63l0 4.7 -8.39 0 0 5 8.39 0 0 4.78 -13.58 0 0 -14.48c4.53,-0 9.05,-0.01 13.58,-0.01z"/>
   </g>
   <path class="fil2" d="M129.28 36.28l-1.26 1.01c-0.33,-0.34 -0.63,-0.6 -0.9,-0.77 -0.27,-0.17 -0.66,-0.25 -1.17,-0.25 -0.56,0 -1.01,0.13 -1.35,0.38 -0.35,0.25 -0.52,0.58 -0.52,0.97 0,0.34 0.15,0.64 0.45,0.91 0.3,0.26 0.82,0.55 1.55,0.87 0.73,0.31 1.3,0.61 1.7,0.87 0.41,0.27 0.74,0.57 1,0.89 0.26,0.33 0.45,0.67 0.58,1.03 0.13,0.36 0.19,0.74 0.19,1.15 0,0.94 -0.34,1.75 -1.03,2.41 -0.69,0.67 -1.52,1 -2.5,1 -0.95,0 -1.79,-0.26 -2.52,-0.78 -0.73,-0.52 -1.29,-1.3 -1.68,-2.34l1.55 -0.44c0.56,1.28 1.42,1.92 2.59,1.92 0.56,0 1.03,-0.17 1.4,-0.5 0.37,-0.34 0.56,-0.76 0.56,-1.27 0,-0.31 -0.1,-0.61 -0.29,-0.92 -0.19,-0.31 -0.44,-0.57 -0.73,-0.76 -0.29,-0.2 -0.75,-0.44 -1.38,-0.7 -0.63,-0.27 -1.12,-0.51 -1.47,-0.73 -0.34,-0.22 -0.64,-0.47 -0.89,-0.77 -0.25,-0.3 -0.43,-0.6 -0.55,-0.9 -0.12,-0.3 -0.17,-0.62 -0.17,-0.95 0,-0.81 0.33,-1.51 0.98,-2.08 0.65,-0.57 1.45,-0.86 2.38,-0.86 0.62,0 1.25,0.13 1.88,0.4 0.63,0.27 1.16,0.67 1.59,1.22z"/>
   <path class="fil2" d="M136.08 40.63c0,-1.64 0.62,-3.04 1.85,-4.21 1.24,-1.17 2.73,-1.75 4.46,-1.75 1.7,0 3.15,0.59 4.38,1.77 1.22,1.18 1.84,2.58 1.84,4.2 0,1.71 -0.61,3.16 -1.81,4.35 -1.21,1.18 -2.69,1.78 -4.45,1.78 -1.74,0 -3.21,-0.6 -4.43,-1.79 -1.22,-1.19 -1.83,-2.64 -1.83,-4.34zm10.89 0.09c0,-1.25 -0.45,-2.31 -1.36,-3.16 -0.9,-0.86 -2.02,-1.29 -3.34,-1.29 -1.25,0 -2.33,0.44 -3.22,1.31 -0.9,0.87 -1.34,1.92 -1.34,3.14 0,1.24 0.46,2.29 1.38,3.15 0.92,0.86 2.04,1.28 3.38,1.28 1.23,0 2.28,-0.44 3.17,-1.31 0.89,-0.87 1.33,-1.92 1.33,-3.12z"/>
   <polygon class="fil2" points="155.13,35.02 156.68,35.02 156.68,44.83 160.37,44.83 160.37,46.39 155.13,46.39 "/>
   <path class="fil2" d="M166.9 35.02l1.55 0 0 6.98c0,1.03 0.25,1.83 0.75,2.4 0.5,0.56 1.2,0.85 2.11,0.85 0.9,0 1.6,-0.26 2.11,-0.78 0.5,-0.52 0.75,-1.25 0.75,-2.2l0 -7.25 1.55 0 0 7.14c0,1.39 -0.4,2.5 -1.19,3.34 -0.8,0.83 -1.85,1.25 -3.17,1.25 -1.35,0 -2.43,-0.42 -3.24,-1.27 -0.81,-0.84 -1.22,-2.09 -1.22,-3.74l0 -6.72z"/>
   <polygon class="fil2" points="182.24,35.02 189.22,35.02 189.22,36.58 186.5,36.58 186.5,46.39 184.94,46.39 184.94,36.58 182.24,36.58 "/>
   <polygon class="fil2" points="195.74,35.02 197.3,35.02 197.3,46.39 195.74,46.39 "/>
   <path class="fil2" d="M203.82 40.63c0,-1.64 0.62,-3.04 1.85,-4.21 1.24,-1.17 2.72,-1.75 4.46,-1.75 1.7,0 3.15,0.59 4.38,1.77 1.22,1.18 1.84,2.58 1.84,4.2 0,1.71 -0.61,3.16 -1.81,4.35 -1.21,1.18 -2.7,1.78 -4.45,1.78 -1.74,0 -3.21,-0.6 -4.43,-1.79 -1.22,-1.19 -1.83,-2.64 -1.83,-4.34zm10.89 0.09c0,-1.25 -0.45,-2.31 -1.35,-3.16 -0.91,-0.86 -2.02,-1.29 -3.34,-1.29 -1.25,0 -2.33,0.44 -3.22,1.31 -0.89,0.87 -1.34,1.92 -1.34,3.14 0,1.24 0.46,2.29 1.38,3.15 0.92,0.86 2.04,1.28 3.38,1.28 1.23,0 2.28,-0.44 3.17,-1.31 0.89,-0.87 1.33,-1.92 1.33,-3.12z"/>
   <polygon class="fil2" points="222.87,34.57 231.28,43.19 231.28,35.02 232.83,35.02 232.83,46.92 224.43,38.32 224.43,46.39 222.87,46.39 "/>
   <path class="fil2" d="M246.81 36.28l-1.26 1.01c-0.33,-0.34 -0.63,-0.6 -0.9,-0.77 -0.27,-0.17 -0.66,-0.25 -1.17,-0.25 -0.56,0 -1.01,0.13 -1.36,0.38 -0.35,0.25 -0.52,0.58 -0.52,0.97 0,0.34 0.15,0.64 0.45,0.91 0.31,0.26 0.82,0.55 1.55,0.87 0.73,0.31 1.3,0.61 1.7,0.87 0.41,0.27 0.74,0.57 1,0.89 0.26,0.33 0.45,0.67 0.58,1.03 0.13,0.36 0.19,0.74 0.19,1.15 0,0.94 -0.34,1.75 -1.03,2.41 -0.69,0.67 -1.52,1 -2.5,1 -0.95,0 -1.79,-0.26 -2.52,-0.78 -0.73,-0.52 -1.29,-1.3 -1.68,-2.34l1.55 -0.44c0.56,1.28 1.42,1.92 2.58,1.92 0.56,0 1.03,-0.17 1.4,-0.5 0.37,-0.34 0.56,-0.76 0.56,-1.27 0,-0.31 -0.1,-0.61 -0.29,-0.92 -0.19,-0.31 -0.43,-0.57 -0.72,-0.76 -0.29,-0.2 -0.75,-0.44 -1.38,-0.7 -0.63,-0.27 -1.12,-0.51 -1.47,-0.73 -0.34,-0.22 -0.64,-0.47 -0.89,-0.77 -0.25,-0.3 -0.43,-0.6 -0.55,-0.9 -0.12,-0.3 -0.17,-0.62 -0.17,-0.95 0,-0.81 0.33,-1.51 0.98,-2.08 0.65,-0.57 1.45,-0.86 2.38,-0.86 0.62,0 1.25,0.13 1.88,0.4 0.63,0.27 1.16,0.67 1.59,1.22z"/>
  </g>
  <g id="_1987935645680">
   <g>
    <path class="fil3" d="M52.33 5.21c0,-2.88 -2.34,-5.21 -5.21,-5.21 -2.88,0 -5.21,2.33 -5.21,5.21 0,2.88 2.33,5.21 5.21,5.21 2.88,0 5.21,-2.33 5.21,-5.21z"/>
    <path class="fil2" d="M33.11 0l-30.46 0c-1.47,0 -2.65,1.19 -2.65,2.65l0 5.13c0,1.46 1.19,2.65 2.65,2.65l30.46 0c2.13,0 3.86,-1.73 3.86,-3.86l0 -2.71c0,-2.13 -1.73,-3.86 -3.86,-3.86z"/>
   </g>
   <path class="fil4" d="M49.37 36.48l-28.14 0c-2.13,0 -3.86,1.73 -3.86,3.86l0 2.71c0,2.13 1.73,3.86 3.86,3.86l28.14 0c1.43,0 2.6,-1.16 2.6,-2.6l0 -5.24c0,-1.43 -1.16,-2.6 -2.6,-2.6z"/>
   <g>
    <path class="fil5" d="M24.89 12.77l-22.41 0c-1.37,0 -2.48,1.11 -2.48,2.48l0 4.66c0,1.37 1.11,2.48 2.48,2.48l22.41 0c2.01,0 3.65,-1.63 3.65,-3.65l0 -2.33c0,-2.02 -1.63,-3.65 -3.65,-3.65z"/>
    <path class="fil6" d="M49.33 12.77l-11.45 0c-2.3,0 -4.16,1.87 -4.16,4.16l0 1.3c0,2.3 1.86,4.16 4.16,4.16l11.45 0c1.66,0 3,-1.34 3,-3l0 -3.63c0,-1.65 -1.34,-3 -3,-3z"/>
   </g>
   <path class="fil7" d="M3.38 24.74l45.58 0 1.04 0c1.29,0 2.33,1.04 2.33,2.33l0 4.74c0,1.29 -1.04,2.33 -2.33,2.33l-1.04 0 -45.58 0 -1.04 0c-1.29,0 -2.33,-1.04 -2.33,-2.33l0 -4.74c0,-1.29 1.04,-2.33 2.33,-2.33l1.04 0z"/>
   <path class="fil3" d="M10.43 41.69c0,-2.88 -2.34,-5.21 -5.21,-5.21 -2.88,0 -5.21,2.33 -5.21,5.21 0,2.88 2.33,5.21 5.21,5.21 2.88,0 5.21,-2.33 5.21,-5.21z"/>
  </g>
 </g>
</svg>
