<?xml version="1.0" encoding="UTF-8"?>
<!DOCTYPE svg PUBLIC "-//W3C//DTD SVG 1.1//EN" "http://www.w3.org/Graphics/SVG/1.1/DTD/svg11.dtd">
<!-- Creator: CorelDRAW (Evaluation Version) -->
<svg xmlns="http://www.w3.org/2000/svg" xml:space="preserve" width="18.241mm" height="12.12mm" version="1.1" style="shape-rendering:geometricPrecision; text-rendering:geometricPrecision; image-rendering:optimizeQuality; fill-rule:evenodd; clip-rule:evenodd"
viewBox="0 0 115.07 76.46"
 xmlns:xlink="http://www.w3.org/1999/xlink"
 xmlns:xodm="http://www.corel.com/coreldraw/odm/2003">
 <defs>
  <style type="text/css">
   <![CDATA[
    .fil0 {fill:#FEFEFE;fill-rule:nonzero}
    .fil6 {fill:#2B2A29;fill-rule:nonzero}
    .fil9 {fill:#FECE37;fill-rule:nonzero}
    .fil4 {fill:#ABA4D1;fill-rule:nonzero}
    .fil3 {fill:#6461A7;fill-rule:nonzero}
    .fil2 {fill:#149497;fill-rule:nonzero}
    .fil1 {fill:#1A1945;fill-rule:nonzero}
    .fil5 {fill:#FA5456;fill-rule:nonzero}
    .fil8 {fill:#FA8825;fill-rule:nonzero}
    .fil7 {fill:#FFDA4B;fill-rule:nonzero}
   ]]>
  </style>
 </defs>
 <g id="Layer_x0020_1">
  <metadata id="CorelCorpID_0Corel-Layer"/>
  <g id="_1732588913744">
   <path class="fil0" d="M39.32 53.21l1.96 14.21c0.5,3.62 3.43,6.42 7.07,6.76 2.43,0.22 4.82,-0.69 6.48,-2.47l4.23 -7.38 -7.58 -5.73 -2.51 5.99 -0.06 -12.04 -9.58 0.66z"/>
   <path class="fil1" d="M39.55 53.39l1.93 14c0.49,3.55 3.33,6.26 6.9,6.59 2.34,0.22 4.7,-0.68 6.3,-2.4l4.13 -7.21 -7.25 -5.47 -2.41 5.76c-0.04,0.09 -0.13,0.13 -0.22,0.12 -0.09,-0.02 -0.16,-0.1 -0.16,-0.19l-0.06 -11.83 -9.17 0.63zm9.52 21.01c-0.24,0 -0.48,-0.01 -0.73,-0.03 -3.75,-0.35 -6.73,-3.2 -7.25,-6.93l-1.96 -14.21c-0.01,-0.05 0.01,-0.11 0.04,-0.15 0.03,-0.04 0.08,-0.07 0.14,-0.07l9.58 -0.66c0.05,-0 0.11,0.02 0.15,0.05 0.04,0.04 0.06,0.09 0.06,0.14l0.05 11.08 2.14 -5.1c0.02,-0.06 0.07,-0.1 0.13,-0.11 0.06,-0.02 0.12,-0 0.17,0.03l7.58 5.73c0.08,0.06 0.1,0.17 0.05,0.25l-4.23 7.38c-0.01,0.01 -0.02,0.03 -0.03,0.04 -1.52,1.64 -3.69,2.57 -5.91,2.57z"/>
   <path class="fil2" d="M37.69 55.62l0.43 -15.15 6.42 1.39c2.05,0.49 3.68,2.03 4.3,4.04l1.95 9.25 -13.1 0.48z"/>
   <path class="fil1" d="M37.69 55.81c-0.05,0 -0.1,-0.02 -0.14,-0.06 -0.04,-0.04 -0.06,-0.09 -0.06,-0.14l0.28 -9.72c0,-0.11 0.09,-0.19 0.2,-0.19 0.11,0 0.19,0.09 0.19,0.2l-0.27 9.52 12.66 -0.46 -1.9 -9.02c-0.02,-0.11 0.05,-0.21 0.15,-0.23 0.11,-0.02 0.21,0.05 0.23,0.15l1.95 9.25c0.01,0.06 -0,0.11 -0.04,0.16 -0.04,0.05 -0.09,0.07 -0.15,0.07l-13.1 0.48 -0.01 0z"/>
   <path class="fil2" d="M31.04 39.41c-3.11,-0.12 -10.75,0.63 -10.75,0.63 -1.47,0.19 -3.71,1.62 -3.76,3.1l-0.95 31.07 26.86 0 0.91 -30.13c0.04,-1.46 -0.96,-2.74 -2.39,-3.04 0,0 -7.03,-1.51 -9.92,-1.63z"/>
   <path class="fil3" d="M25.03 66.56c-0.56,0 -1.02,-0.46 -1.02,-1.02 0,-0.56 0.46,-1.02 1.02,-1.02 0.56,0 1.02,0.46 1.02,1.02 0,0.56 -0.46,1.02 -1.02,1.02z"/>
   <path class="fil4" d="M25.03 66.95c-0.78,0 -1.41,-0.63 -1.41,-1.41 0,-0.78 0.63,-1.41 1.41,-1.41 0.78,0 1.41,0.63 1.41,1.41 0,0.78 -0.63,1.41 -1.41,1.41zm0 -2.42c-0.56,0 -1.02,0.46 -1.02,1.02 0,0.56 0.46,1.02 1.02,1.02 0.56,0 1.02,-0.46 1.02,-1.02 0,-0.56 -0.46,-1.02 -1.02,-1.02z"/>
   <path class="fil3" d="M36.47 69.82c-1.25,0 -2.27,-1.02 -2.27,-2.27 0,-1.25 1.02,-2.27 2.27,-2.27 1.25,0 2.27,1.02 2.27,2.27 0,1.25 -1.02,2.27 -2.27,2.27z"/>
   <path class="fil4" d="M36.47 70.21c-1.47,0 -2.67,-1.2 -2.67,-2.67 0,-1.47 1.2,-2.66 2.67,-2.66 1.47,0 2.67,1.2 2.67,2.66 0,1.47 -1.2,2.67 -2.67,2.67zm0 -4.94c-1.25,0 -2.27,1.02 -2.27,2.27 0,1.25 1.02,2.27 2.27,2.27 1.25,0 2.27,-1.02 2.27,-2.27 0,-1.25 -1.02,-2.27 -2.27,-2.27z"/>
   <path class="fil3" d="M28.27 71.6c-0.26,0 -0.48,-0.21 -0.48,-0.48 0,-0.26 0.21,-0.48 0.48,-0.48 0.26,0 0.48,0.21 0.48,0.48 0,0.26 -0.21,0.48 -0.48,0.48z"/>
   <path class="fil4" d="M28.27 71.99c-0.48,0 -0.87,-0.39 -0.87,-0.87 0,-0.48 0.39,-0.87 0.87,-0.87 0.48,0 0.87,0.39 0.87,0.87 0,0.48 -0.39,0.87 -0.87,0.87zm0 -1.35c-0.26,0 -0.48,0.21 -0.48,0.48 0,0.26 0.21,0.48 0.48,0.48 0.26,0 0.48,-0.21 0.48,-0.48 0,-0.26 -0.21,-0.48 -0.48,-0.48z"/>
   <path class="fil3" d="M46.49 52.86c-0.36,0 -0.64,-0.29 -0.64,-0.64 0,-0.36 0.29,-0.64 0.64,-0.64 0.36,0 0.64,0.29 0.64,0.64 0,0.36 -0.29,0.64 -0.64,0.64z"/>
   <path class="fil4" d="M46.49 53.25c-0.57,0 -1.04,-0.46 -1.04,-1.04 0,-0.57 0.46,-1.04 1.04,-1.04 0.57,0 1.04,0.46 1.04,1.04 0,0.57 -0.46,1.04 -1.04,1.04zm0 -1.68c-0.36,0 -0.64,0.29 -0.64,0.64 0,0.36 0.29,0.64 0.64,0.64 0.36,0 0.64,-0.29 0.64,-0.64 0,-0.36 -0.29,-0.64 -0.64,-0.64z"/>
   <path class="fil1" d="M42.44 73.54l-0.01 0c-0.11,-0 -0.19,-0.09 -0.19,-0.2l0.8 -27.07c0,-0.11 0.09,-0.19 0.2,-0.19 0.11,0 0.19,0.09 0.19,0.2l-0.8 27.07c-0,0.11 -0.09,0.19 -0.19,0.19z"/>
   <path class="fil5" d="M39.37 68.57l17.87 0c0.83,0 1.57,-0.69 1.74,-1.64l2.48 -13.4c0.22,-1.19 -0.53,-2.27 -1.58,-2.27l-17.87 0c-0.83,0 -1.57,0.69 -1.74,1.64l-2.48 13.4c-0.22,1.19 0.53,2.27 1.58,2.27z"/>
   <path class="fil1" d="M39.37 68.38l17.87 0c0.74,0 1.39,-0.62 1.55,-1.48l2.48 -13.4c0.1,-0.57 -0.03,-1.15 -0.37,-1.55 -0.27,-0.32 -0.63,-0.5 -1.02,-0.5l-17.87 0c-0.74,0 -1.39,0.62 -1.55,1.48l-2.48 13.4c-0.1,0.57 0.03,1.14 0.37,1.55 0.27,0.32 0.63,0.5 1.02,0.5zm17.87 0.39l-17.87 0c-0.51,0 -0.98,-0.23 -1.32,-0.64 -0.41,-0.49 -0.58,-1.19 -0.45,-1.87l2.48 -13.4c0.19,-1.04 1.01,-1.8 1.94,-1.8l17.87 0c0.51,0 0.98,0.23 1.32,0.64 0.41,0.49 0.58,1.19 0.45,1.87l-2.48 13.4c-0.19,1.04 -1.01,1.8 -1.94,1.8z"/>
   <path class="fil0" d="M49.28 59.47c-0.13,1.09 0.66,1.97 1.76,1.97 1.1,0 2.09,-0.88 2.22,-1.97 0.13,-1.09 -0.66,-1.97 -1.76,-1.97 -1.1,0 -2.09,0.88 -2.22,1.97z"/>
   <path class="fil0" d="M10.48 74.25c1.42,1.31 3.27,2.02 5.16,2.02 0.71,0 1.42,-0.1 2.12,-0.3l19.23 -5.95c0,0 1.91,-0.46 5.39,-2.08 3.57,-1.66 4.6,-4.1 5.64,-6.17 1.03,-2.07 -0.67,-2.56 -0.67,-2.56 0.99,-2.13 -0.58,-2.38 -0.58,-2.38 0.01,-0.02 0.01,-0.03 0.01,-0.05 0.3,-1.03 -1.01,-1.75 -1.73,-0.96l-0.84 0.92 0.43 -1.17c0.04,-0.1 0.05,-0.21 0.05,-0.32 0,-0.26 -0.11,-0.51 -0.3,-0.69 -0.4,-0.37 -1.04,-0.31 -1.36,0.13l-4.11 4.97 0.42 -2.54 -2.09 0.19c-0.96,0.05 -1.85,0.5 -2.45,1.25l-1.24 1.54 -13.99 3.39 1.06 -7.36 -11.4 -0.82 -1.19 13c-0.09,2.24 0.8,4.4 2.45,5.92z"/>
   <path class="fil1" d="M9.41 55.54l-1.18 12.81c-0.09,2.17 0.78,4.27 2.38,5.75l0 0c1.37,1.27 3.16,1.97 5.03,1.97 0.7,0 1.39,-0.1 2.07,-0.3l19.23 -5.95c0.03,-0.01 1.95,-0.48 5.37,-2.07 3.3,-1.54 4.4,-3.75 5.36,-5.71l0.18 -0.37c0.32,-0.65 0.4,-1.19 0.21,-1.61 -0.22,-0.51 -0.76,-0.68 -0.77,-0.68 -0.05,-0.02 -0.1,-0.05 -0.12,-0.11 -0.02,-0.05 -0.02,-0.11 0,-0.16 0.32,-0.7 0.39,-1.27 0.2,-1.65 -0.2,-0.38 -0.63,-0.46 -0.63,-0.46 -0.06,-0.01 -0.11,-0.04 -0.14,-0.1 -0.03,-0.05 -0.03,-0.11 -0.01,-0.17 0,-0.01 0.01,-0.02 0.01,-0.03 0.13,-0.46 -0.12,-0.79 -0.38,-0.94 -0.27,-0.15 -0.69,-0.2 -1.02,0.16l-0.84 0.92c-0.06,0.07 -0.17,0.08 -0.25,0.04 -0.08,-0.05 -0.11,-0.15 -0.08,-0.23l0.43 -1.17c0.03,-0.08 0.04,-0.16 0.04,-0.25 0,-0.21 -0.09,-0.41 -0.24,-0.54 -0.15,-0.14 -0.35,-0.2 -0.56,-0.19 -0.21,0.02 -0.39,0.12 -0.52,0.29l-4.11 4.98c-0.06,0.07 -0.15,0.09 -0.23,0.05 -0.08,-0.04 -0.13,-0.12 -0.11,-0.21l0.38 -2.29 -1.84 0.17c-0.91,0.04 -1.75,0.47 -2.31,1.17l-1.24 1.54c-0.03,0.03 -0.06,0.06 -0.11,0.07l-13.99 3.39c-0.06,0.02 -0.13,-0 -0.18,-0.04 -0.05,-0.04 -0.07,-0.11 -0.06,-0.17l1.03 -7.15 -11 -0.79zm6.23 20.92c-1.97,0 -3.85,-0.73 -5.29,-2.07l0 0c-1.69,-1.56 -2.61,-3.77 -2.51,-6.07l1.19 -13.01c0.01,-0.11 0.1,-0.18 0.21,-0.18l11.4 0.81c0.05,0 0.1,0.03 0.14,0.07 0.03,0.04 0.05,0.1 0.04,0.15l-1.02 7.07 13.64 -3.31 1.19 -1.49c0.63,-0.79 1.58,-1.27 2.59,-1.32l2.08 -0.19c0.06,-0.01 0.12,0.02 0.16,0.06 0.04,0.04 0.06,0.1 0.05,0.16l-0.3 1.82 3.65 -4.41c0.18,-0.24 0.47,-0.4 0.79,-0.43 0.31,-0.03 0.63,0.08 0.86,0.29 0.23,0.21 0.37,0.52 0.37,0.83 0,0.13 -0.02,0.26 -0.07,0.38l-0.09 0.24 0.17 -0.19c0.45,-0.49 1.08,-0.47 1.5,-0.24 0.38,0.22 0.7,0.67 0.6,1.24 0.21,0.08 0.52,0.24 0.71,0.6 0.24,0.45 0.21,1.06 -0.1,1.81 0.23,0.11 0.61,0.36 0.81,0.81 0.23,0.53 0.16,1.18 -0.22,1.94l-0.18 0.37c-0.99,2.01 -2.12,4.29 -5.55,5.89 -3.46,1.61 -5.35,2.07 -5.43,2.09l-19.22 5.94c-0.71,0.21 -1.45,0.31 -2.18,0.31z"/>
   <path class="fil0" d="M44.24 56.61c0,0 -0.98,2.77 -2.21,3.77l2.21 -3.77z"/>
   <path class="fil1" d="M42.03 60.58c-0.06,0 -0.11,-0.02 -0.15,-0.07 -0.07,-0.08 -0.05,-0.21 0.03,-0.28 1.18,-0.95 2.14,-3.66 2.15,-3.69 0.04,-0.1 0.15,-0.16 0.25,-0.12 0.1,0.04 0.16,0.15 0.12,0.25 -0.04,0.11 -1.01,2.84 -2.27,3.86 -0.04,0.03 -0.08,0.04 -0.12,0.04z"/>
   <path class="fil0" d="M46.73 56.84c0,0 -0.52,2.72 -3.19,4.92l3.19 -4.92z"/>
   <path class="fil1" d="M43.55 61.95c-0.06,0 -0.11,-0.02 -0.15,-0.07 -0.07,-0.08 -0.06,-0.21 0.03,-0.28 2.58,-2.13 3.12,-4.78 3.12,-4.8 0.02,-0.11 0.12,-0.18 0.23,-0.16 0.11,0.02 0.17,0.12 0.15,0.23 -0.02,0.11 -0.56,2.81 -3.26,5.03 -0.04,0.03 -0.08,0.04 -0.12,0.04z"/>
   <path class="fil0" d="M47.28 59.29c0,0 -0.39,2.35 -2.56,3.85l2.56 -3.85z"/>
   <path class="fil1" d="M44.72 63.34c-0.06,0 -0.12,-0.03 -0.16,-0.08 -0.06,-0.09 -0.04,-0.21 0.05,-0.27 2.08,-1.44 2.47,-3.7 2.48,-3.72 0.02,-0.11 0.12,-0.18 0.22,-0.16 0.11,0.02 0.18,0.12 0.16,0.22 -0.02,0.1 -0.43,2.45 -2.64,3.98 -0.03,0.02 -0.07,0.03 -0.11,0.03z"/>
   <path class="fil2" d="M20.29 40.04l-4.51 0.71c-2.43,0.39 -4.41,2.17 -5.04,4.55l-2.71 10.24 13.38 1.63 0.61 -7.75c0.17,-1.37 0.07,-2.75 -0.29,-4.08l-1.44 -5.3z"/>
   <path class="fil1" d="M21.41 57.37c-0.01,0 -0.02,-0 -0.02,-0l-13.38 -1.63c-0.06,-0.01 -0.11,-0.04 -0.14,-0.09 -0.03,-0.05 -0.04,-0.1 -0.03,-0.16l2.71 -10.24c0.03,-0.1 0.14,-0.17 0.24,-0.14 0.1,0.03 0.17,0.13 0.14,0.24l-2.66 10.02 12.96 1.58 0.59 -7.55c0.01,-0.11 0.1,-0.19 0.21,-0.18 0.11,0.01 0.19,0.1 0.18,0.21l-0.61 7.75c-0,0.05 -0.03,0.1 -0.07,0.14 -0.04,0.03 -0.08,0.04 -0.12,0.04z"/>
   <polygon class="fil0" points="19.72,63.48 16.82,64.33 "/>
   <path class="fil1" d="M16.82 64.53c-0.08,0 -0.16,-0.05 -0.19,-0.14 -0.03,-0.1 0.03,-0.21 0.13,-0.24l2.89 -0.85c0.1,-0.03 0.21,0.03 0.24,0.13 0.03,0.1 -0.03,0.21 -0.13,0.24l-2.89 0.85c-0.02,0.01 -0.04,0.01 -0.06,0.01z"/>
   <path class="fil0" d="M26.39 39.32l-0.33 -9.11 8.53 0.96c0,0 0.23,8.59 0.22,8.6 -1.6,4.09 -4.99,3.89 -8.42,-0.44z"/>
   <path class="fil1" d="M26.59 39.25c1.85,2.32 3.72,3.46 5.27,3.23 1.16,-0.17 2.11,-1.12 2.76,-2.75 -0.01,-0.47 -0.14,-5.54 -0.22,-8.38l-8.14 -0.91 0.32 8.82zm4.88 3.65c-1.6,0 -3.44,-1.21 -5.22,-3.46 -0.03,-0.03 -0.04,-0.07 -0.04,-0.11l-0.33 -9.11c-0,-0.06 0.02,-0.11 0.06,-0.15 0.04,-0.04 0.1,-0.06 0.15,-0.05l8.53 0.96c0.1,0.01 0.17,0.09 0.17,0.19 0.2,7.25 0.23,8.44 0.2,8.67l0.01 0.01c-0.7,1.79 -1.77,2.83 -3.08,3.03 -0.15,0.02 -0.3,0.03 -0.45,0.03z"/>
   <path class="fil0" d="M26.06 30.21c-1.84,-3.83 -2.3,-8.71 -2.3,-8.71l9.31 -4.95c0.22,0.16 6.51,2.18 7.22,9.32 0.63,6.36 -1.18,10.65 -10.01,8.74l-4.22 -4.4z"/>
   <path class="fil1" d="M34.07 35.27c-1.12,0 -2.4,-0.16 -3.83,-0.47 -0.11,-0.02 -0.17,-0.13 -0.15,-0.23 0.02,-0.1 0.13,-0.17 0.23,-0.15 3.82,0.83 6.45,0.54 8.04,-0.88 1.54,-1.38 2.11,-3.88 1.73,-7.64 -0.41,-4.12 -2.86,-7.34 -6.91,-9.07 -0.05,-0.02 -0.09,-0.04 -0.12,-0.05l-9.1 4.84c0.09,0.8 0.63,5.1 2.27,8.51 0.05,0.1 0.01,0.21 -0.09,0.26 -0.1,0.05 -0.21,0.01 -0.26,-0.09 -1.83,-3.82 -2.31,-8.72 -2.32,-8.77 -0.01,-0.08 0.03,-0.15 0.1,-0.19l9.31 -4.95c0.07,-0.04 0.15,-0.03 0.21,0.01 0.02,0.01 0.07,0.03 0.16,0.07 4.18,1.79 6.72,5.12 7.14,9.39 0.39,3.9 -0.22,6.51 -1.86,7.97 -1.08,0.96 -2.58,1.44 -4.55,1.44z"/>
   <path class="fil6" d="M40.52 15.75c0.04,1.25 -0.4,2.51 -1.2,3.47 -0.8,0.96 -1.96,1.61 -3.2,1.8 -0.99,0.15 -2,0.01 -3,0.11 -1.69,0.17 -3.26,1.12 -4.28,2.46 -0.26,0.35 -0.49,0.72 -0.67,1.11 -0.15,0.33 1.21,2.72 0.58,3.25 -0.3,0.26 -1.5,-0.65 -1.45,-0.65 -0.12,0.02 -3.2,0.28 -3.2,0.28 0,0 -4.37,-4.1 -3.02,-6.9 1.35,-2.8 3.83,-2.3 3.83,-2.3 0,0 -1.53,-2.7 -0.04,-3.77 1.49,-1.06 4.44,0.23 4.44,0.23l-0.02 0.24c0.29,-1.49 1.73,-2.54 3.21,-2.84 1.49,-0.31 3.02,-0.02 4.51,0.26 1.02,0.19 2.12,0.43 2.81,1.22 0.47,0.55 0.66,1.3 0.69,2.03z"/>
   <path class="fil1" d="M37.16 25.19c0.17,0.4 0.53,0.63 0.79,0.51 0.27,-0.11 0.34,-0.53 0.17,-0.93 -0.17,-0.4 -0.52,-0.62 -0.79,-0.51 -0.27,0.11 -0.34,0.53 -0.17,0.93z"/>
   <path class="fil0" d="M37.59 23.36c-0.56,-0.03 -1.09,0.3 -1.36,0.85l1.36 -0.85z"/>
   <path class="fil1" d="M36.23 24.41c-0.03,0 -0.06,-0.01 -0.09,-0.02 -0.1,-0.05 -0.14,-0.16 -0.09,-0.26 0.3,-0.63 0.91,-1 1.55,-0.96 0.11,0.01 0.19,0.1 0.18,0.21 -0.01,0.11 -0.1,0.19 -0.21,0.18 -0.48,-0.03 -0.94,0.26 -1.17,0.75 -0.03,0.07 -0.1,0.11 -0.18,0.11z"/>
   <path class="fil1" d="M32.97 26.99c0.17,0.4 0.52,0.63 0.79,0.51 0.27,-0.11 0.34,-0.53 0.17,-0.93 -0.17,-0.4 -0.52,-0.62 -0.79,-0.51 -0.27,0.11 -0.34,0.53 -0.17,0.93z"/>
   <path class="fil0" d="M33.4 25.16c-0.56,-0.04 -1.09,0.3 -1.36,0.85l1.36 -0.85z"/>
   <path class="fil1" d="M32.04 26.21c-0.03,0 -0.06,-0.01 -0.09,-0.02 -0.1,-0.05 -0.14,-0.16 -0.09,-0.26 0.3,-0.63 0.91,-1 1.55,-0.96 0.11,0.01 0.19,0.1 0.18,0.21 -0.01,0.11 -0.1,0.19 -0.21,0.18 -0.47,-0.03 -0.94,0.26 -1.17,0.75 -0.03,0.07 -0.1,0.11 -0.18,0.11z"/>
   <path class="fil0" d="M27.28 27.21c0,0 -2.75,-2 -4.01,-1.31 -1.26,0.68 -0.01,5.29 1.64,5.48 1.65,0.19 2.82,-0.64 2.82,-0.64l-0.46 -3.53z"/>
   <path class="fil1" d="M25.41 31.6c-0.17,0 -0.34,-0.01 -0.51,-0.03 -1.06,-0.12 -1.92,-1.75 -2.22,-3.29 -0.25,-1.29 -0.06,-2.25 0.5,-2.56 1.35,-0.73 4.1,1.24 4.22,1.33 0.09,0.06 0.11,0.19 0.04,0.27 -0.06,0.09 -0.19,0.11 -0.27,0.04 -0.74,-0.53 -2.86,-1.81 -3.8,-1.3 -0.4,0.22 -0.52,1.06 -0.31,2.14 0.27,1.39 1.05,2.88 1.88,2.98 1.55,0.18 2.68,-0.6 2.69,-0.61 0.09,-0.06 0.21,-0.04 0.27,0.05 0.06,0.09 0.04,0.21 -0.05,0.27 -0.05,0.03 -1.02,0.7 -2.44,0.7z"/>
   <path class="fil1" d="M24.76 29.33c-0.06,0 -0.12,-0.03 -0.16,-0.09 -0.19,-0.29 -0.33,-0.62 -0.39,-0.96 -0.05,-0.29 -0.01,-0.51 0.12,-0.67 0.11,-0.13 0.29,-0.21 0.49,-0.2 0.14,0 0.29,0.05 0.44,0.13 0.2,0.11 0.37,0.26 0.51,0.44 0.07,0.09 0.05,0.21 -0.03,0.27 -0.09,0.07 -0.21,0.05 -0.27,-0.03 -0.1,-0.14 -0.24,-0.25 -0.39,-0.33 -0.1,-0.05 -0.19,-0.08 -0.27,-0.08 -0.08,-0 -0.14,0.02 -0.18,0.07 -0.05,0.06 -0.06,0.18 -0.03,0.34 0.05,0.29 0.17,0.57 0.33,0.81 0.06,0.09 0.04,0.21 -0.05,0.27 -0.03,0.02 -0.07,0.03 -0.11,0.03z"/>
   <path class="fil0" d="M35.6 25.75c0.24,0.57 0.94,2.12 1.18,2.7 0.15,0.35 0.3,0.71 0.25,1.07 -0.04,0.36 -0.34,0.73 -0.78,0.78l-0.66 -4.55z"/>
   <path class="fil1" d="M36.25 30.49c-0.1,0 -0.18,-0.07 -0.19,-0.17 -0.01,-0.11 0.06,-0.2 0.17,-0.22 0.35,-0.04 0.58,-0.34 0.61,-0.61 0.04,-0.32 -0.11,-0.66 -0.24,-0.97 -0.12,-0.29 -0.36,-0.82 -0.59,-1.34 -0.24,-0.53 -0.47,-1.06 -0.59,-1.35 -0.04,-0.1 0.01,-0.21 0.1,-0.26 0.1,-0.04 0.21,0.01 0.26,0.1 0.12,0.29 0.36,0.82 0.59,1.34 0.24,0.53 0.47,1.06 0.59,1.35 0.15,0.35 0.32,0.75 0.26,1.17 -0.05,0.42 -0.4,0.89 -0.95,0.95 -0.01,0 -0.02,0 -0.02,0z"/>
   <path class="fil1" d="M34.32 32.5c-0.41,0 -0.81,-0.11 -1.16,-0.31 -0.52,-0.3 -0.9,-0.81 -1.05,-1.39 -0.03,-0.1 0.04,-0.21 0.14,-0.24 0.1,-0.03 0.21,0.03 0.24,0.14 0.13,0.48 0.44,0.9 0.87,1.15 0.43,0.25 0.95,0.32 1.43,0.2 0.1,-0.03 0.21,0.04 0.24,0.14 0.03,0.1 -0.04,0.21 -0.14,0.24 -0.18,0.05 -0.37,0.07 -0.56,0.07z"/>
   <path class="fil2" d="M87.55 19.17c0,3.66 -2.96,6.62 -6.62,6.62 -3.66,0 -6.62,-2.96 -6.62,-6.62 0,-3.66 2.96,-6.62 6.62,-6.62 3.66,0 6.62,2.96 6.62,6.62z"/>
   <path class="fil2" d="M86.39 54.49c0,3.66 -2.97,6.62 -6.62,6.62 -3.66,0 -6.62,-2.97 -6.62,-6.62 0,-3.66 2.97,-6.62 6.62,-6.62 3.66,0 6.62,2.97 6.62,6.62z"/>
   <polygon class="fil7" points="88.45,36.83 80.35,44.93 72.25,36.83 80.35,28.73 "/>
   <path class="fil1" d="M69.72 56.9c-0.01,0 -0.03,-0 -0.04,-0 -3.04,-0.6 -5.73,-2.75 -7.01,-5.6 -1.27,-2.8 -1.13,-6.25 0.34,-8.99 1.48,-2.73 4.2,-4.71 7.28,-5.31 0.11,-0.02 0.21,0.05 0.23,0.15 0.02,0.11 -0.05,0.21 -0.16,0.23 -2.97,0.57 -5.59,2.48 -7.01,5.11 -1.42,2.63 -1.55,5.94 -0.33,8.64 1.24,2.74 3.82,4.8 6.73,5.38 0.11,0.02 0.17,0.12 0.15,0.23 -0.02,0.09 -0.1,0.16 -0.19,0.16z"/>
   <path class="fil1" d="M67.75 57.38l0.8 -2.63c0.15,-0.49 0.79,-0.61 1.11,-0.2l1.44 1.88c0.26,0.34 0.11,0.85 -0.3,0.98l-2.24 0.76c-0.49,0.16 -0.96,-0.29 -0.81,-0.78z"/>
   <path class="fil1" d="M67.75 57.38l0.8 -2.63c0.15,-0.49 0.79,-0.61 1.11,-0.2l1.44 1.88c0.26,0.34 0.11,0.85 -0.3,0.98l-2.24 0.76c-0.49,0.16 -0.96,-0.29 -0.81,-0.78z"/>
   <path class="fil1" d="M92.4 37.05c-0.09,0 -0.17,-0.06 -0.19,-0.16 -0.02,-0.11 0.05,-0.21 0.15,-0.23 2.92,-0.58 5.5,-2.64 6.73,-5.38 1.22,-2.7 1.09,-6.01 -0.33,-8.64 -1.42,-2.63 -4.04,-4.54 -7.01,-5.11 -0.11,-0.02 -0.18,-0.12 -0.16,-0.23 0.02,-0.11 0.12,-0.18 0.23,-0.16 3.08,0.59 5.81,2.58 7.28,5.31 1.48,2.74 1.61,6.18 0.34,8.99 -1.29,2.85 -3.97,5 -7.01,5.6 -0.01,0 -0.03,0 -0.04,0z"/>
   <path class="fil1" d="M94.37 37.52l-0.8 -2.63c-0.15,-0.49 -0.79,-0.61 -1.11,-0.2l-1.44 1.88c-0.26,0.34 -0.11,0.85 0.3,0.98l2.24 0.76c0.49,0.16 0.96,-0.29 0.81,-0.78z"/>
   <path class="fil1" d="M69.93 22.56c0,1.47 -0.6,2.8 -1.56,3.77 -0.96,0.96 -2.3,1.56 -3.76,1.56l-13.53 0c-2.94,0 -5.33,-2.38 -5.33,-5.33 0,-1.47 0.6,-2.8 1.56,-3.76 0.96,-0.96 2.3,-1.56 3.77,-1.56l13.53 0c2.94,0 5.32,2.38 5.32,5.32z"/>
   <path class="fil0" d="M48.57 22.42c0,1.76 1.43,3.19 3.19,3.19 1.76,0 3.19,-1.43 3.19,-3.19 0,-1.76 -1.43,-3.19 -3.19,-3.19 -1.76,0 -3.19,1.43 -3.19,3.19z"/>
   <polygon class="fil0" points="50.18,22.73 51.12,23.67 53.34,21.45 "/>
   <polygon class="fil1" points="51.12,24.22 49.91,23.01 50.46,22.46 51.12,23.12 53.07,21.17 53.62,21.72 "/>
   <polygon class="fil0" points="59.92,21.66 56.41,21.66 56.41,20 59.92,20 "/>
   <polygon class="fil0" points="66.97,23.36 56.41,23.36 56.41,22.67 66.97,22.67 "/>
   <polygon class="fil0" points="60.61,24.13 56.41,24.13 56.41,24.83 60.61,24.83 "/>
   <path class="fil1" d="M115.07 49.7c0,1.47 -0.6,2.8 -1.56,3.77 -0.96,0.96 -2.3,1.56 -3.77,1.56l-13.53 0c-2.94,0 -5.33,-2.39 -5.33,-5.33 0,-1.47 0.6,-2.8 1.56,-3.76 0.96,-0.96 2.3,-1.56 3.77,-1.56l13.53 0c2.94,0 5.33,2.38 5.33,5.33z"/>
   <path class="fil0" d="M93.71 49.56c0,1.76 1.43,3.19 3.19,3.19 1.76,0 3.19,-1.43 3.19,-3.19 0,-1.76 -1.43,-3.19 -3.19,-3.19 -1.76,0 -3.19,1.43 -3.19,3.19z"/>
   <polygon class="fil0" points="95.32,49.88 96.25,50.81 98.48,48.59 "/>
   <polygon class="fil1" points="96.25,51.37 95.04,50.15 95.59,49.6 96.25,50.26 98.2,48.31 98.75,48.86 "/>
   <polygon class="fil0" points="105.05,48.8 101.55,48.8 101.55,47.14 105.05,47.14 "/>
   <polygon class="fil0" points="112.11,50.5 101.55,50.5 101.55,49.81 112.11,49.81 "/>
   <polygon class="fil0" points="105.75,51.27 101.55,51.27 101.55,51.97 105.75,51.97 "/>
   <path class="fil8" d="M93.36 10.65c-2.94,0 -5.33,-2.39 -5.33,-5.33 0,-1.47 0.6,-2.8 1.56,-3.76 0.96,-0.96 2.3,-1.56 3.77,-1.56l13.53 0c2.94,0 5.33,2.38 5.33,5.32 0,1.47 -0.6,2.8 -1.56,3.77 -0.96,0.96 -2.3,1.56 -3.77,1.56l-13.53 0z"/>
   <path class="fil0" d="M90.85 5.18c0,1.76 1.43,3.19 3.19,3.19 1.76,0 3.19,-1.43 3.19,-3.19 0,-1.76 -1.43,-3.19 -3.19,-3.19 -1.76,0 -3.19,1.43 -3.19,3.19z"/>
   <polygon class="fil0" points="92.46,5.5 93.4,6.44 95.62,4.21 "/>
   <polygon class="fil1" points="93.4,6.99 92.18,5.78 92.74,5.22 93.4,5.88 95.34,3.94 95.9,4.49 "/>
   <polygon class="fil0" points="102.19,4.42 98.69,4.42 98.69,2.77 102.19,2.77 "/>
   <polygon class="fil0" points="109.25,6.13 98.69,6.13 98.69,5.43 109.25,5.43 "/>
   <polygon class="fil0" points="102.89,6.9 98.69,6.9 98.69,7.59 102.89,7.59 "/>
   <path class="fil1" d="M17.7 29.62c0.52,0.87 0.24,2 -0.62,2.52 -0.87,0.52 -2,0.24 -2.52,-0.62 -0.52,-0.87 -0.24,-2 0.62,-2.52 0.87,-0.52 2,-0.24 2.52,0.63z"/>
   <path class="fil7" d="M16.95 23.06c-0.56,1.24 -0.47,2.68 0.23,3.84l0.09 0.15 -4.78 2.88 -0.09 -0.15c-0.71,-1.18 -1.97,-1.91 -3.35,-2.01 -2.52,-0.18 -4.91,-1.54 -6.31,-3.87 -2.39,-3.96 -0.96,-9.16 3.22,-11.31 3.62,-1.86 8.14,-0.67 10.37,2.73 1.58,2.4 1.71,5.32 0.62,7.73z"/>
   <path class="fil0" d="M13.11 18.18c-0.04,0 -0.09,0 -0.13,0.01 -0.25,0.04 -0.47,0.19 -0.59,0.41 -0.45,0.78 -0.5,1.73 -0.13,2.54 0.21,-0.19 0.42,-0.39 0.61,-0.6l0.86 -0.94c0.15,-0.17 0.23,-0.38 0.22,-0.61 -0.01,-0.23 -0.11,-0.43 -0.28,-0.58 -0.16,-0.14 -0.35,-0.21 -0.56,-0.21zm-5.69 3.47c-0.04,0 -0.07,0 -0.11,0 -0.25,0.01 -0.49,0.13 -0.64,0.33 -0.15,0.2 -0.2,0.46 -0.14,0.71 0.05,0.22 0.19,0.41 0.39,0.52 0.19,0.12 0.42,0.15 0.64,0.09l1.23 -0.32c0.28,-0.07 0.55,-0.16 0.82,-0.26 -0.52,-0.67 -1.33,-1.07 -2.19,-1.07zm6.17 7.14c-0.06,0 -0.13,-0.03 -0.17,-0.09l-3.58 -5.65c-0.31,0.12 -0.63,0.22 -0.95,0.31l-1.23 0.32c-0.32,0.08 -0.66,0.04 -0.94,-0.13 -0.29,-0.17 -0.49,-0.44 -0.57,-0.76 -0.09,-0.36 -0.01,-0.74 0.21,-1.03 0.22,-0.3 0.56,-0.48 0.93,-0.49 1.06,-0.04 2.08,0.45 2.69,1.31 0.7,-0.3 1.36,-0.7 1.95,-1.18 -0.47,-0.95 -0.43,-2.08 0.1,-2.99 0.19,-0.32 0.5,-0.54 0.87,-0.6 0.37,-0.06 0.74,0.05 1.01,0.3 0.25,0.22 0.39,0.53 0.41,0.86 0.02,0.33 -0.1,0.65 -0.32,0.9l-0.86 0.94c-0.23,0.25 -0.46,0.48 -0.71,0.7l3.32 5.81c0.05,0.09 0.02,0.21 -0.07,0.27 -0.09,0.05 -0.21,0.02 -0.27,-0.07l-3.28 -5.75c-0.59,0.47 -1.24,0.86 -1.93,1.16l3.55 5.59c0.06,0.09 0.03,0.21 -0.06,0.27 -0.03,0.02 -0.07,0.03 -0.1,0.03z"/>
   <path class="fil1" d="M18.43 28.97l-4.77 2.87c-0.38,0.23 -0.87,0.11 -1.1,-0.27l-0.73 -1.2c-0.23,-0.38 -0.11,-0.87 0.27,-1.1l4.77 -2.87c0.38,-0.23 0.87,-0.11 1.1,0.27l0.73 1.2c0.23,0.38 0.11,0.87 -0.27,1.1z"/>
   <polygon class="fil9" points="4.99,11.62 4.43,11.96 3.73,10.8 4.29,10.46 "/>
   <polygon class="fil9" points="1.51,14.99 1.19,15.57 -0,14.91 0.32,14.33 "/>
   <polygon class="fil9" points="9.69,10.44 9.03,10.46 9.01,9.1 9.67,9.08 "/>
   <path class="fil7" d="M46.79 8.16l-1.23 0.77c-0.58,0.36 -1.33,0.19 -1.69,-0.39l-0.77 -1.23c-0.36,-0.57 -0.19,-1.33 0.38,-1.69l1.23 -0.78c0.57,-0.36 1.33,-0.19 1.69,0.38l0.77 1.23c0.36,0.57 0.19,1.33 -0.38,1.69z"/>
   <path class="fil7" d="M10.26 38.57l-0.77 0.48c-0.36,0.22 -0.83,0.12 -1.06,-0.24l-0.48 -0.77c-0.22,-0.36 -0.12,-0.83 0.24,-1.05l0.77 -0.49c0.36,-0.22 0.83,-0.12 1.06,0.24l0.48 0.77c0.22,0.36 0.12,0.83 -0.24,1.05z"/>
   <path class="fil7" d="M25.14 6.57l-0.77 0.48c-0.36,0.22 -0.83,0.12 -1.06,-0.24l-0.48 -0.77c-0.22,-0.36 -0.12,-0.83 0.24,-1.05l0.77 -0.49c0.36,-0.22 0.83,-0.12 1.06,0.24l0.48 0.77c0.23,0.36 0.12,0.83 -0.24,1.05z"/>
   <path class="fil7" d="M51.83 35.86l-0.77 0.48c-0.36,0.22 -0.83,0.12 -1.06,-0.24l-0.48 -0.77c-0.23,-0.36 -0.12,-0.83 0.24,-1.05l0.77 -0.49c0.36,-0.22 0.83,-0.12 1.06,0.24l0.48 0.77c0.23,0.36 0.12,0.83 -0.24,1.05z"/>
  </g>
 </g>
</svg>
