<?xml version="1.0" encoding="UTF-8"?>
<!DOCTYPE svg PUBLIC "-//W3C//DTD SVG 1.1//EN" "http://www.w3.org/Graphics/SVG/1.1/DTD/svg11.dtd">
<!-- Creator: CorelDRAW -->
<svg xmlns="http://www.w3.org/2000/svg" xml:space="preserve" width="62mm" height="62mm" version="1.1" style="shape-rendering:geometricPrecision; text-rendering:geometricPrecision; image-rendering:optimizeQuality; fill-rule:evenodd; clip-rule:evenodd"
viewBox="0 0 77.98 77.98"
 xmlns:xlink="http://www.w3.org/1999/xlink"
 xmlns:xodm="http://www.corel.com/coreldraw/odm/2003">
 <defs>
  <style type="text/css">
   <![CDATA[
    .str0 {stroke:#263155;stroke-width:0.25;stroke-miterlimit:22.9256}
    .fil8 {fill:none}
    .fil6 {fill:#263155}
    .fil1 {fill:#FEFEFE;fill-rule:nonzero}
    .fil2 {fill:#FEDA3F;fill-rule:nonzero}
    .fil3 {fill:#A2D6D8;fill-rule:nonzero}
    .fil7 {fill:#129598;fill-rule:nonzero}
    .fil0 {fill:#263155;fill-rule:nonzero}
    .fil5 {fill:black;fill-rule:nonzero}
    .fil4 {fill:white;fill-rule:nonzero}
   ]]>
  </style>
 </defs>
 <g id="Layer_x0020_1">
  <metadata id="CorelCorpID_0Corel-Layer"/>
  <g id="_1821253182832">
   <g>
    <path class="fil0" d="M12.8 32.04c1.04,-6.25 5.02,-11.53 10.7,-14.23l-1.1 -0.24c-0.54,-0.12 -0.89,-0.66 -0.77,-1.2 0.12,-0.54 0.66,-0.89 1.2,-0.77l4.45 0.98c0.33,0.07 0.6,0.3 0.72,0.61 0.12,0.31 0.08,0.66 -0.11,0.94l-2.58 3.76c-0.2,0.29 -0.51,0.44 -0.83,0.44 -0.2,0 -0.4,-0.06 -0.57,-0.18 -0.46,-0.32 -0.58,-0.94 -0.26,-1.4l0.8 -1.17c-5.14,2.4 -8.74,7.15 -9.68,12.78 -0.08,0.49 -0.51,0.84 -0.99,0.84 -0.05,0 -0.11,-0 -0.17,-0.01 -0.55,-0.09 -0.92,-0.61 -0.83,-1.16l0 0z"/>
    <path class="fil0" d="M49.81 74.2c0.2,0.52 -0.07,1.1 -0.59,1.3 -2.19,0.82 -4.48,1.22 -6.76,1.22 -3.86,0 -7.69,-1.16 -10.92,-3.38l0.34 1.07c0.17,0.53 -0.13,1.1 -0.66,1.27 -0.1,0.03 -0.2,0.05 -0.3,0.05 -0.43,0 -0.83,-0.28 -0.96,-0.71l-1.38 -4.35c-0.1,-0.32 -0.04,-0.67 0.17,-0.93 0.21,-0.26 0.53,-0.41 0.87,-0.38l4.55 0.35c0.56,0.04 0.97,0.53 0.93,1.08 -0.04,0.56 -0.53,0.97 -1.08,0.93l-1.41 -0.11c4.61,3.21 10.58,3.99 15.91,1.99 0.52,-0.2 1.1,0.07 1.3,0.59l0 0z"/>
    <path class="fil0" d="M76.46 40.49l-3.08 3.37c-0.19,0.21 -0.46,0.33 -0.74,0.33 -0.05,0 -0.1,-0 -0.15,-0.01 -0.33,-0.05 -0.62,-0.26 -0.76,-0.56l-1.97 -4.11c-0.24,-0.5 -0.03,-1.11 0.47,-1.35 0.5,-0.24 1.11,-0.03 1.35,0.47l0.61 1.28c0.47,-5.59 -1.87,-11.18 -6.23,-14.77 -0.43,-0.35 -0.49,-0.99 -0.14,-1.42 0.35,-0.43 0.99,-0.49 1.42,-0.14 4.85,3.99 7.46,10.18 6.97,16.39l0.76 -0.83c0.38,-0.41 1.01,-0.44 1.43,-0.06 0.41,0.38 0.44,1.02 0.06,1.43l0 -0z"/>
    <path class="fil0" d="M73.22 49.17l-14.1 -8.14c-0.31,-0.18 -0.7,-0.18 -1.01,0l-14.1 8.14c-0.31,0.18 -0.5,0.51 -0.5,0.87l0 14.36c0,0.36 0.19,0.69 0.5,0.87l14.1 8.14c0.16,0.09 0.33,0.14 0.5,0.14 0.17,0 0.35,-0.05 0.5,-0.14l14.1 -8.14c0.31,-0.18 0.5,-0.51 0.5,-0.87l0 -14.36c0,-0.36 -0.19,-0.69 -0.5,-0.87l0 0z"/>
    <g>
     <path class="fil1" d="M17.49 67.78l-2.86 0c-0.96,0 -1.73,-0.78 -1.73,-1.73l0 -1.82c-0.89,-0.25 -1.75,-0.61 -2.56,-1.06l-1.29 1.29c-0.33,0.33 -0.76,0.51 -1.23,0.51 -0,0 -0,0 -0,0 -0.46,-0 -0.9,-0.18 -1.23,-0.51l-2.02 -2.02c-0.68,-0.68 -0.68,-1.78 0,-2.45l1.29 -1.29c-0.45,-0.81 -0.81,-1.66 -1.06,-2.55l-1.82 0c-0.46,0 -0.9,-0.18 -1.23,-0.51 -0.33,-0.33 -0.51,-0.76 -0.51,-1.23l0 -2.86c0,-0.96 0.78,-1.73 1.73,-1.73l1.82 0c0.25,-0.89 0.6,-1.74 1.06,-2.55l-1.29 -1.29c-0.33,-0.33 -0.51,-0.76 -0.51,-1.23 0,-0.46 0.18,-0.9 0.51,-1.23l2.02 -2.02c0.68,-0.68 1.78,-0.68 2.45,0l1.29 1.29c0.81,-0.45 1.66,-0.81 2.55,-1.06l0 -1.82c0,-0.96 0.78,-1.73 1.73,-1.73l2.86 0c0.96,0 1.73,0.78 1.73,1.73l0 1.82c0.89,0.25 1.74,0.6 2.55,1.06l1.29 -1.29c0.68,-0.68 1.78,-0.68 2.45,-0l2.02 2.02c0.33,0.33 0.51,0.76 0.51,1.23 0,0.46 -0.18,0.9 -0.51,1.23l-1.29 1.29c0.45,0.81 0.81,1.66 1.06,2.55l1.82 0c0.96,0 1.73,0.78 1.73,1.73l0 2.86c0,0.46 -0.18,0.9 -0.51,1.23 -0.33,0.33 -0.76,0.51 -1.23,0.51l-1.82 0c-0.25,0.89 -0.6,1.75 -1.06,2.55l1.29 1.29c0.68,0.68 0.68,1.78 0,2.45l-2.02 2.02c-0.33,0.33 -0.76,0.51 -1.23,0.51 -0,0 -0,0 -0,0 -0.46,0 -0.9,-0.18 -1.23,-0.51l-1.29 -1.29c-0.81,0.46 -1.67,0.81 -2.56,1.06l0 1.82c-0,0.96 -0.78,1.73 -1.73,1.73z"/>
     <path class="fil0" d="M17.49 69.03l-2.86 0c-0.82,0 -1.57,-0.34 -2.11,-0.88 -0.54,-0.54 -0.88,-1.29 -0.88,-2.11l0 -0.91c-0.18,-0.07 -0.36,-0.13 -0.53,-0.21 -0.18,-0.07 -0.35,-0.15 -0.52,-0.23l-0.64 0.64c-0.28,0.28 -0.61,0.49 -0.97,0.65 -0.36,0.15 -0.75,0.23 -1.14,0.23l-0 -0c-0.4,-0 -0.79,-0.08 -1.14,-0.22l-0 0c-0.36,-0.15 -0.69,-0.37 -0.97,-0.65l-2.02 -2.02c-0.58,-0.58 -0.88,-1.35 -0.88,-2.11l0 0c0,-0.77 0.29,-1.53 0.87,-2.11l0.64 -0.64c-0.08,-0.17 -0.16,-0.35 -0.23,-0.53 -0.07,-0.17 -0.14,-0.35 -0.2,-0.53l-0.91 0c-0.39,0 -0.78,-0.08 -1.14,-0.23 -0.36,-0.15 -0.69,-0.37 -0.97,-0.65l-0 0c-0.28,-0.28 -0.5,-0.61 -0.65,-0.98 -0.15,-0.36 -0.22,-0.74 -0.22,-1.14l0 -2.86c0,-0.82 0.34,-1.57 0.88,-2.11 0.54,-0.54 1.29,-0.88 2.11,-0.88l0.91 0c0.06,-0.18 0.13,-0.35 0.21,-0.53 0.07,-0.18 0.15,-0.35 0.23,-0.52l-0.64 -0.64c-0.28,-0.28 -0.49,-0.61 -0.65,-0.97l-0 0c-0.15,-0.36 -0.23,-0.75 -0.23,-1.15 0,-0.39 0.08,-0.78 0.23,-1.14l0 -0c0.15,-0.36 0.37,-0.69 0.65,-0.97l0 0 2.02 -2.02c0.58,-0.58 1.35,-0.87 2.11,-0.87l0 -0c0.77,0 1.53,0.29 2.11,0.88l0.64 0.64c0.17,-0.08 0.34,-0.16 0.52,-0.23 0.17,-0.07 0.35,-0.14 0.52,-0.2l0 -0.91c0,-0.83 0.34,-1.57 0.88,-2.11 0.54,-0.54 1.29,-0.88 2.11,-0.88l2.86 0c0.83,0 1.57,0.34 2.11,0.88 0.54,0.54 0.88,1.29 0.88,2.11l0 0.91c0.18,0.06 0.35,0.13 0.52,0.2 0.18,0.07 0.35,0.15 0.52,0.23l0.64 -0.64c0.58,-0.58 1.35,-0.87 2.11,-0.87l0 -0c0.76,0 1.53,0.29 2.11,0.88l2.02 2.02c0.28,0.28 0.5,0.61 0.65,0.97l0 -0c0.15,0.36 0.22,0.74 0.22,1.15l0 0c0,0.39 -0.08,0.78 -0.23,1.15l-0 -0c-0.15,0.37 -0.37,0.69 -0.65,0.97l-0.64 0.64c0.08,0.17 0.16,0.34 0.23,0.52 0.07,0.17 0.14,0.35 0.21,0.53l0.91 0c0.82,0 1.57,0.34 2.11,0.88 0.54,0.54 0.88,1.29 0.88,2.11l0 2.86c0,0.4 -0.08,0.78 -0.22,1.14 -0.15,0.36 -0.37,0.69 -0.65,0.97 -0.28,0.28 -0.61,0.5 -0.97,0.65 -0.36,0.15 -0.75,0.23 -1.14,0.23l-0.91 0c-0.06,0.18 -0.13,0.35 -0.21,0.53 -0.07,0.18 -0.15,0.35 -0.23,0.53l0.64 0.64c0.58,0.58 0.87,1.35 0.87,2.11l0 0c0,0.76 -0.29,1.53 -0.88,2.11l-2.02 2.02c-0.28,0.28 -0.61,0.5 -0.97,0.65l-0 0c-0.36,0.15 -0.75,0.23 -1.14,0.23 -0.39,0 -0.78,-0.08 -1.14,-0.23 -0.37,-0.15 -0.7,-0.37 -0.97,-0.65l-0.64 -0.64c-0.17,0.08 -0.35,0.16 -0.52,0.23 -0.18,0.07 -0.35,0.14 -0.53,0.21l0 0.91 -0 0c-0,0.82 -0.33,1.57 -0.87,2.11l0 0c-0.54,0.54 -1.29,0.88 -2.11,0.88zm-2.86 -2.52l2.86 0c0.13,0 0.25,-0.05 0.34,-0.14l0 0c0.09,-0.09 0.14,-0.21 0.14,-0.34l-0 0 0 -2.77 0.92 -0.26c0.4,-0.11 0.79,-0.25 1.17,-0.4 0.38,-0.16 0.75,-0.34 1.11,-0.54l0.83 -0.47 1.96 1.96c0.05,0.05 0.1,0.09 0.15,0.11 0.05,0.02 0.12,0.03 0.19,0.03 0.07,0 0.13,-0.01 0.18,-0.03l-0 -0c0.06,-0.02 0.11,-0.06 0.15,-0.1l2.02 -2.02c0.09,-0.09 0.14,-0.22 0.14,-0.34l0 0c0,-0.12 -0.05,-0.24 -0.14,-0.34l-1.96 -1.96 0.47 -0.83c0.21,-0.37 0.39,-0.74 0.54,-1.11 0.15,-0.37 0.29,-0.77 0.4,-1.17l0.26 -0.92 2.77 0c0.07,0 0.14,-0.01 0.19,-0.03 0.05,-0.02 0.1,-0.06 0.15,-0.1 0.05,-0.05 0.08,-0.1 0.11,-0.15 0.02,-0.06 0.04,-0.12 0.04,-0.19l-0 -2.86c0,-0.13 -0.05,-0.25 -0.14,-0.34 -0.09,-0.09 -0.21,-0.14 -0.34,-0.14l-2.77 0 -0.26 -0.92c-0.11,-0.39 -0.25,-0.78 -0.4,-1.16 -0.16,-0.38 -0.34,-0.75 -0.54,-1.11l-0.47 -0.83 1.96 -1.96c0.05,-0.05 0.09,-0.1 0.11,-0.15l0 -0c0.02,-0.05 0.03,-0.11 0.03,-0.18l0 0c0,-0.06 -0.01,-0.12 -0.04,-0.18l0 -0c-0.02,-0.05 -0.06,-0.1 -0.1,-0.15l-2.02 -2.02c-0.09,-0.09 -0.22,-0.14 -0.34,-0.14l0 -0c-0.12,0 -0.24,0.05 -0.34,0.14l-1.96 1.96 -0.83 -0.47c-0.37,-0.21 -0.74,-0.39 -1.11,-0.54 -0.37,-0.15 -0.76,-0.29 -1.17,-0.4l-0.92 -0.26 0 -2.77c0,-0.13 -0.05,-0.25 -0.14,-0.34 -0.09,-0.09 -0.21,-0.14 -0.34,-0.14l-2.86 0c-0.13,0 -0.25,0.05 -0.34,0.14 -0.09,0.09 -0.14,0.21 -0.14,0.34l0 2.77 -0.92 0.26c-0.4,0.11 -0.79,0.25 -1.17,0.4 -0.36,0.15 -0.73,0.33 -1.11,0.54l-0.83 0.47 -1.96 -1.96c-0.09,-0.09 -0.21,-0.14 -0.34,-0.14l0 -0c-0.12,0 -0.25,0.05 -0.34,0.14l-2.02 2.02 0 0c-0.05,0.05 -0.08,0.1 -0.11,0.15l-0 -0c-0.02,0.05 -0.03,0.11 -0.03,0.18 0,0.07 0.01,0.13 0.03,0.18l0 0c0.02,0.05 0.06,0.1 0.11,0.15l1.96 1.96 -0.47 0.83c-0.2,0.36 -0.39,0.73 -0.54,1.11 -0.16,0.38 -0.29,0.77 -0.4,1.16l-0.26 0.92 -2.77 0c-0.13,0 -0.25,0.05 -0.34,0.14 -0.09,0.09 -0.14,0.21 -0.14,0.34l-0 2.86c0,0.06 0.01,0.13 0.04,0.19 0.02,0.05 0.06,0.1 0.11,0.15l0 0c0.05,0.05 0.1,0.08 0.15,0.1 0.05,0.02 0.12,0.03 0.19,0.03l2.77 0 0.26 0.92c0.11,0.4 0.25,0.79 0.4,1.17 0.15,0.37 0.33,0.74 0.54,1.11l0.47 0.83 -1.96 1.96c-0.1,0.1 -0.14,0.22 -0.14,0.34l0 0c0,0.13 0.05,0.25 0.14,0.34l2.02 2.02c0.04,0.04 0.1,0.08 0.15,0.1l-0 0c0.06,0.02 0.12,0.04 0.18,0.04l0 -0c0.07,0 0.14,-0.01 0.19,-0.03 0.05,-0.02 0.1,-0.06 0.15,-0.11l1.96 -1.96 0.83 0.47c0.36,0.21 0.74,0.39 1.11,0.54 0.38,0.16 0.77,0.29 1.17,0.4l0.92 0.26 0 2.77c0,0.13 0.05,0.25 0.14,0.34 0.09,0.09 0.21,0.14 0.34,0.14z"/>
     <path class="fil2" d="M26.86 55.55l2.27 0c0.64,0 1.16,-0.52 1.16,-1.16l-0 -2.86c-0,-0.64 -0.52,-1.16 -1.16,-1.16l-2.27 0c-0.28,-1.15 -0.73,-2.24 -1.34,-3.22l1.6 -1.6c0.45,-0.45 0.45,-1.18 -0,-1.63l-2.02 -2.02c-0.45,-0.45 -1.18,-0.45 -1.63,0l-1.6 1.6c-0.98,-0.6 -2.07,-1.06 -3.22,-1.33l-0 -2.27c0,-0.64 -0.52,-1.16 -1.16,-1.16l-2.86 0c-0.64,0 -1.16,0.52 -1.16,1.16l0 2.27c-1.15,0.27 -2.24,0.73 -3.22,1.33l-1.6 -1.6c-0.45,-0.45 -1.18,-0.45 -1.63,-0l-2.02 2.02c-0.45,0.45 -0.45,1.18 -0,1.63l1.6 1.6c-0.6,0.98 -1.06,2.07 -1.34,3.22l-2.27 0c-0.64,0 -1.16,0.52 -1.16,1.16l-0 2.86c-0,0.64 0.52,1.16 1.16,1.16l2.27 0c0.27,1.16 0.73,2.24 1.33,3.23l-1.6 1.6c-0.45,0.45 -0.45,1.18 -0,1.63l2.02 2.02c0.45,0.45 1.18,0.45 1.63,0l1.6 -1.6c0.98,0.61 2.07,1.06 3.23,1.34l0 2.27c0,0.64 0.52,1.16 1.16,1.16l2.86 0c0.64,0 1.16,-0.52 1.16,-1.16l0 -2.27c1.16,-0.28 2.24,-0.73 3.23,-1.34l1.6 1.6c0.45,0.45 1.18,0.45 1.63,-0l2.02 -2.02c0.45,-0.45 0.45,-1.18 -0,-1.63l-1.6 -1.6c0.6,-0.98 1.06,-2.07 1.33,-3.23z"/>
     <g>
      <circle class="fil3" cx="16.06" cy="52.97" r="7.17"/>
      <circle class="fil4" cx="16.06" cy="52.97" r="4.62"/>
      <path class="fil0" d="M16.06 60.72c-2.07,0 -4.01,-0.81 -5.48,-2.27 -1.46,-1.46 -2.27,-3.41 -2.27,-5.48 0,-2.07 0.81,-4.01 2.27,-5.48 2.32,-2.32 5.86,-2.92 8.81,-1.52 0.29,0.14 0.41,0.48 0.27,0.77 -0.14,0.29 -0.48,0.41 -0.77,0.27 -2.51,-1.2 -5.53,-0.68 -7.5,1.29 -1.24,1.24 -1.93,2.9 -1.93,4.66 0,1.76 0.69,3.41 1.93,4.66 1.24,1.24 2.9,1.93 4.66,1.93 1.76,0 3.41,-0.69 4.66,-1.93 2.05,-2.05 2.52,-5.14 1.19,-7.7 -0.15,-0.28 -0.04,-0.63 0.25,-0.78 0.28,-0.15 0.63,-0.04 0.78,0.25 0.76,1.45 1.03,3.08 0.79,4.7 -0.24,1.66 -1,3.16 -2.19,4.35 -1.46,1.46 -3.41,2.27 -5.48,2.27z"/>
      <path class="fil5" d="M21.15 48.51c-0.15,0 -0.3,-0.06 -0.41,-0.17l-0.02 -0.02c-0.23,-0.23 -0.23,-0.59 0,-0.82 0.23,-0.23 0.59,-0.23 0.82,0l0.03 0.03c0.22,0.23 0.22,0.59 -0,0.82 -0.11,0.11 -0.26,0.17 -0.41,0.17z"/>
      <path class="fil0" d="M16.07 58.18c-0.56,0 -1.12,-0.09 -1.67,-0.27 -0.3,-0.1 -0.47,-0.43 -0.36,-0.73 0.1,-0.3 0.43,-0.47 0.73,-0.36 1.47,0.49 3.06,0.12 4.15,-0.97 0.76,-0.76 1.18,-1.78 1.18,-2.86 0,-1.08 -0.42,-2.1 -1.18,-2.86 -0.76,-0.76 -1.78,-1.18 -2.86,-1.18 -1.08,0 -2.1,0.42 -2.86,1.18 -1.08,1.08 -1.46,2.66 -0.98,4.12 0.1,0.3 -0.07,0.63 -0.37,0.73 -0.3,0.1 -0.63,-0.07 -0.73,-0.37 -0.61,-1.87 -0.13,-3.9 1.27,-5.3 0.98,-0.98 2.29,-1.52 3.68,-1.52 1.39,0 2.7,0.54 3.68,1.52 0.98,0.98 1.52,2.29 1.52,3.68 0,1.39 -0.54,2.7 -1.52,3.68 -1,1 -2.31,1.53 -3.67,1.53z"/>
      <path class="fil5" d="M12.81 56.84c-0.15,0 -0.29,-0.06 -0.41,-0.17l-0.02 -0.02c-0.23,-0.23 -0.23,-0.59 0,-0.82 0.23,-0.23 0.59,-0.23 0.82,0l0.02 0.02c0.23,0.22 0.23,0.59 0,0.82 -0.11,0.11 -0.26,0.17 -0.41,0.17z"/>
     </g>
    </g>
    <g>
     <path class="fil6 str0" d="M53.86 12.41c-3.18,-4.2 -9.36,-4.3 -12.67,-0.21 -2.38,2.94 -2.49,7.17 -0.24,10.23l2.94 4.01c0.15,0.21 0.39,0.33 0.64,0.33l3.31 0.02 2.96 0.02c0.26,0 0.51,-0.13 0.66,-0.35l3.01 -4.43c1.88,-2.77 1.79,-6.46 -0.23,-9.12l-0.37 -0.49zm-13.91 -1.25c3.97,-4.9 11.36,-4.77 15.17,0.25l0.37 0.49c2.45,3.23 2.56,7.7 0.28,11.05l-3.01 4.43c-0.45,0.66 -1.19,1.06 -1.99,1.05l-2.96 -0.02 -3.31 -0.02c-0.75,-0 -1.46,-0.37 -1.91,-0.98l-2.94 -4.01c-2.68,-3.66 -2.56,-8.72 0.29,-12.25l-0 0z"/>
     <path class="fil6 str0" d="M43.99 33.19c0,-0.46 0.35,-0.84 0.78,-0.84l5.87 0c0.43,0 0.78,0.38 0.78,0.84 0,0.46 -0.35,0.84 -0.78,0.84l-5.87 0c-0.43,0 -0.78,-0.38 -0.78,-0.84z"/>
     <path class="fil6 str0" d="M43.3 26.97c0.43,0 0.78,0.38 0.78,0.84l0 0.84c0,0.46 0.35,0.84 0.78,0.84l5.46 0c0.43,0 0.78,-0.38 0.78,-0.84l0 -0.84c0,-0.46 0.35,-0.84 0.78,-0.84 0.43,0 0.78,0.38 0.78,0.84l0 0.84c0,1.39 -1.05,2.52 -2.34,2.52l-5.46 0c-1.29,0 -2.34,-1.13 -2.34,-2.52l0 -0.84c0,-0.46 0.35,-0.84 0.78,-0.84l0 0z"/>
     <path class="fil6 str0" d="M58.6 17.65c0,-0.46 0.35,-0.84 0.78,-0.84l3.12 0c0.43,0 0.78,0.38 0.78,0.84 0,0.46 -0.35,0.84 -0.78,0.84l-3.12 -0c-0.43,0 -0.78,-0.38 -0.78,-0.84l0 0z"/>
     <path class="fil6 str0" d="M57.14 27.06c0.22,-0.4 0.7,-0.54 1.08,-0.31l2.7 1.64c0.38,0.23 0.5,0.74 0.28,1.13 -0.22,0.4 -0.7,0.54 -1.08,0.31l-2.7 -1.64c-0.38,-0.23 -0.5,-0.74 -0.28,-1.13z"/>
     <path class="fil6 str0" d="M32.1 17.65c0,-0.46 0.35,-0.84 0.78,-0.84l3.12 0c0.43,0 0.78,0.38 0.78,0.84 0,0.46 -0.35,0.84 -0.78,0.84l-3.12 -0c-0.43,0 -0.78,-0.38 -0.78,-0.84l0 0z"/>
     <path class="fil6 str0" d="M34.87 5.3c0.3,-0.33 0.8,-0.34 1.12,-0.03l2.25 2.26c0.31,0.32 0.33,0.84 0.02,1.17 -0.3,0.33 -0.8,0.34 -1.12,0.03l-2.25 -2.26c-0.31,-0.32 -0.33,-0.84 -0.02,-1.17z"/>
     <path class="fil6 str0" d="M60.65 5.62c-0.3,-0.33 -0.8,-0.34 -1.12,-0.03l-2.25 2.26c-0.31,0.32 -0.33,0.84 -0.02,1.17 0.3,0.33 0.8,0.34 1.12,0.03l2.25 -2.26c0.31,-0.32 0.33,-0.84 0.02,-1.17l0 0z"/>
     <path class="fil6 str0" d="M34.54 29.53c-0.22,-0.4 -0.09,-0.91 0.28,-1.13l2.7 -1.64c0.38,-0.23 0.86,-0.09 1.08,0.31 0.22,0.4 0.09,0.91 -0.28,1.13l-2.7 1.64c-0.38,0.23 -0.86,0.09 -1.08,-0.31z"/>
     <path class="fil6 str0" d="M47.69 1.26c0.43,0 0.78,0.38 0.78,0.84l0 3.27c0,0.46 -0.35,0.84 -0.78,0.84 -0.43,0 -0.78,-0.38 -0.78,-0.84l0 -3.27c0,-0.46 0.35,-0.84 0.78,-0.84z"/>
     <path class="fil6 str0" d="M48.27 11.19c0.14,-0.44 0.58,-0.68 0.99,-0.53 0.4,0.14 0.81,0.34 1.21,0.6 0.37,0.24 0.49,0.75 0.28,1.15 -0.22,0.4 -0.7,0.53 -1.07,0.3 -0.31,-0.2 -0.62,-0.35 -0.91,-0.45 -0.41,-0.15 -0.63,-0.62 -0.49,-1.06l0 0zm3.32 2.18c0.31,-0.32 0.81,-0.3 1.1,0.03 0.8,0.91 1.34,1.93 1.51,3.21 0.17,1.25 -0.03,2.66 -0.56,4.36 -0.14,0.44 -0.58,0.68 -0.99,0.53 -0.41,-0.15 -0.63,-0.62 -0.49,-1.06 0.48,-1.57 0.61,-2.7 0.49,-3.59 -0.11,-0.86 -0.47,-1.58 -1.1,-2.29 -0.3,-0.34 -0.28,-0.87 0.03,-1.19l0 -0z"/>
     <path class="fil6 str0" d="M44.91 35.69c0,-0.46 0.35,-0.84 0.78,-0.84l4.03 0c0.43,0 0.78,0.38 0.78,0.84 0,0.46 -0.35,0.84 -0.78,0.84l-4.03 0c-0.43,0 -0.78,-0.38 -0.78,-0.84z"/>
    </g>
    <path class="fil7" d="M59.63 70.8l0 -12.03 5.03 -2.9 0 3.82c0,0.56 0.45,1.01 1.01,1.01 0.56,0 1.01,-0.45 1.01,-1.01l0 -4.98 5.03 -2.9 0 12.03 -12.08 6.97z"/>
    <polygon class="fil3" points="58.62,43.07 70.7,50.05 65.67,52.95 53.59,45.98 "/>
    <polygon class="fil3" points="46.55,50.05 51.58,47.14 63.65,54.11 58.62,57.02 "/>
    <polygon class="fil3" points="45.54,51.79 57.61,58.77 57.61,70.8 45.54,63.83 "/>
   </g>
   <rect class="fil8" width="77.98" height="77.98"/>
  </g>
 </g>
</svg>
