<?xml version="1.0" encoding="UTF-8"?>
<!DOCTYPE svg PUBLIC "-//W3C//DTD SVG 1.1//EN" "http://www.w3.org/Graphics/SVG/1.1/DTD/svg11.dtd">
<!-- Creator: CorelDRAW -->
<svg xmlns="http://www.w3.org/2000/svg" xml:space="preserve" width="62mm" height="62.0003mm" version="1.1" style="shape-rendering:geometricPrecision; text-rendering:geometricPrecision; image-rendering:optimizeQuality; fill-rule:evenodd; clip-rule:evenodd"
viewBox="0 0 55.51 55.51"
 xmlns:xlink="http://www.w3.org/1999/xlink"
 xmlns:xodm="http://www.corel.com/coreldraw/odm/2003">
 <defs>
  <style type="text/css">
   <![CDATA[
    .fil15 {fill:none}
    .fil0 {fill:#FEFEFE}
    .fil5 {fill:#E95050}
    .fil2 {fill:#FEDA3F}
    .fil3 {fill:#A2D6D8}
    .fil4 {fill:#129598}
    .fil12 {fill:#263155}
    .fil6 {fill:#FEFEFE;fill-rule:nonzero}
    .fil8 {fill:#FEDA3F;fill-rule:nonzero}
    .fil9 {fill:#A2D6D8;fill-rule:nonzero}
    .fil13 {fill:#129598;fill-rule:nonzero}
    .fil14 {fill:#195390;fill-rule:nonzero}
    .fil7 {fill:#263155;fill-rule:nonzero}
    .fil1 {fill:#263155;fill-rule:nonzero}
    .fil11 {fill:black;fill-rule:nonzero}
    .fil10 {fill:white;fill-rule:nonzero}
   ]]>
  </style>
 </defs>
 <g id="Layer_x0020_1">
  <metadata id="CorelCorpID_0Corel-Layer"/>
  <g id="_1820645926640">
   <path class="fil0" d="M3.11 3.76l36.45 0c1.22,0 2.22,1 2.22,2.22l0 46.42c0,1.22 -1,2.22 -2.22,2.22l-36.45 0c-1.22,0 -2.22,-1 -2.22,-2.22l0 -46.42c0,-1.22 1,-2.22 2.22,-2.22z"/>
   <path class="fil1" d="M3.11 2.86l36.45 0c0.85,0 1.63,0.35 2.2,0.91l0 0c0.56,0.56 0.91,1.34 0.91,2.2l0 46.42c0,0.86 -0.35,1.64 -0.91,2.2l-0 0c-0.56,0.56 -1.34,0.91 -2.2,0.91l-36.45 0c-0.85,0 -1.63,-0.35 -2.2,-0.91l-0 -0c-0.56,-0.56 -0.91,-1.34 -0.91,-2.2l0 -46.42c0,-0.85 0.35,-1.63 0.92,-2.2 0.56,-0.56 1.34,-0.91 2.2,-0.91zm36.45 1.79l-36.45 0c-0.37,0 -0.7,0.15 -0.94,0.39 -0.24,0.24 -0.39,0.57 -0.39,0.93l0 46.42c0,0.36 0.15,0.7 0.39,0.94 0.24,0.24 0.57,0.39 0.94,0.39l36.45 0c0.36,0 0.7,-0.15 0.94,-0.39l-0 -0c0.24,-0.24 0.39,-0.57 0.39,-0.93l0 -46.42c0,-0.36 -0.15,-0.7 -0.39,-0.94 -0.24,-0.24 -0.57,-0.39 -0.94,-0.39z"/>
   <path class="fil2" d="M13.88 0.9l14.92 0c0.39,0 0.71,0.32 0.71,0.71l0 4.3c0,0.39 -0.32,0.71 -0.71,0.71l-14.92 0c-0.39,0 -0.71,-0.32 -0.71,-0.71l0 -4.3c0,-0.39 0.32,-0.71 0.71,-0.71l0 0z"/>
   <path class="fil1" d="M14.77 0l14.03 0c0.44,0 0.84,0.18 1.13,0.47l0 0c0.29,0.29 0.47,0.69 0.47,1.13l0 4.3c0,0.44 -0.18,0.84 -0.47,1.13l0 0c-0.29,0.29 -0.69,0.47 -1.13,0.47l-14.92 0c-0.44,0 -0.84,-0.18 -1.13,-0.47 -0.29,-0.29 -0.47,-0.69 -0.47,-1.13l0 -4.3c0,-0.44 0.18,-0.84 0.47,-1.13l0 0c0.29,-0.29 0.69,-0.47 1.13,-0.47l0.9 0zm13.84 1.79l-14.55 0 0 3.93 14.55 0 0 -3.93z"/>
   <polygon class="fil2" points="14.53,17.07 21.34,17.07 21.34,22.37 14.53,22.37 "/>
   <path class="fil1" d="M14.53 16.17l6.81 0c0.49,0 0.9,0.4 0.9,0.9l0 5.31c0,0.49 -0.4,0.9 -0.9,0.9l-6.81 0c-0.49,0 -0.9,-0.4 -0.9,-0.9l0 -5.31c0,-0.49 0.4,-0.9 0.9,-0.9zm5.91 1.79l-5.02 0 0 3.51 5.02 0 0 -3.51z"/>
   <polygon class="fil3" points="21.34,13.89 28.15,13.89 28.15,22.37 21.34,22.37 "/>
   <path class="fil1" d="M21.34 12.99l6.81 0c0.49,0 0.9,0.4 0.9,0.9l0 8.48c0,0.49 -0.4,0.9 -0.9,0.9l-6.81 0c-0.49,0 -0.9,-0.4 -0.9,-0.9l0 -8.48c0,-0.49 0.4,-0.9 0.9,-0.9zm5.91 1.79l-5.02 0 0 6.69 5.02 0 0 -6.69z"/>
   <polygon class="fil4" points="28.15,10.57 34.96,10.57 34.96,22.37 28.15,22.37 "/>
   <path class="fil1" d="M28.15 9.68l6.81 0c0.49,0 0.9,0.4 0.9,0.9l0 11.8c0,0.49 -0.4,0.9 -0.9,0.9l-6.81 0c-0.49,0 -0.9,-0.4 -0.9,-0.9l0 -11.8c0,-0.49 0.4,-0.9 0.9,-0.9zm5.91 1.79l-5.02 0 0 10.01 5.02 0 0 -10.01z"/>
   <polygon class="fil5" points="7.72,19.2 14.53,19.2 14.53,22.37 7.72,22.37 "/>
   <path class="fil1" d="M7.72 18.3l6.81 0c0.49,0 0.9,0.4 0.9,0.9l0 3.17c0,0.49 -0.4,0.9 -0.9,0.9l-6.81 0c-0.49,0 -0.9,-0.4 -0.9,-0.9l0 -3.17c0,-0.49 0.4,-0.9 0.9,-0.9zm5.91 1.79l-5.02 0 0 1.38 5.02 0 0 -1.38z"/>
   <g>
    <path class="fil6" d="M43.28 51.01l-2.42 0c-0.81,0 -1.47,-0.66 -1.47,-1.47l0 -1.54c-0.76,-0.21 -1.48,-0.51 -2.17,-0.9l-1.09 1.09c-0.28,0.28 -0.65,0.43 -1.04,0.43 -0,0 -0,0 -0,0 -0.39,0 -0.76,-0.15 -1.04,-0.43l-1.71 -1.71c-0.57,-0.57 -0.57,-1.51 0,-2.08l1.09 -1.09c-0.38,-0.68 -0.69,-1.41 -0.9,-2.17l-1.54 0c-0.39,0 -0.76,-0.15 -1.04,-0.43 -0.28,-0.28 -0.43,-0.65 -0.43,-1.04l0 -2.42c0,-0.81 0.66,-1.47 1.47,-1.47l1.55 0c0.21,-0.75 0.51,-1.48 0.9,-2.16l-1.09 -1.09c-0.28,-0.28 -0.43,-0.65 -0.43,-1.04 0,-0.39 0.15,-0.76 0.43,-1.04l1.71 -1.71c0.57,-0.57 1.51,-0.57 2.08,0l1.09 1.09c0.68,-0.38 1.41,-0.68 2.16,-0.89l0 -1.54c0,-0.81 0.66,-1.47 1.47,-1.47l2.42 0c0.81,0 1.47,0.66 1.47,1.47l0 1.54c0.75,0.21 1.48,0.51 2.16,0.89l1.09 -1.09c0.57,-0.57 1.51,-0.57 2.08,-0l1.71 1.71c0.28,0.28 0.43,0.65 0.43,1.04 0,0.39 -0.15,0.76 -0.43,1.04l-1.09 1.09c0.38,0.68 0.69,1.41 0.9,2.16l1.55 0c0.81,0 1.47,0.66 1.47,1.47l0 2.42c0,0.39 -0.15,0.76 -0.43,1.04 -0.28,0.28 -0.65,0.43 -1.04,0.43l-1.54 0c-0.21,0.76 -0.51,1.48 -0.9,2.17l1.09 1.09c0.57,0.57 0.57,1.51 0,2.08l-1.71 1.71c-0.28,0.28 -0.65,0.43 -1.04,0.43 -0,0 -0,0 -0,0 -0.39,0 -0.76,-0.15 -1.04,-0.43l-1.09 -1.09c-0.69,0.39 -1.41,0.69 -2.17,0.9l0 1.54c-0,0.81 -0.66,1.47 -1.47,1.47z"/>
    <path class="fil7" d="M43.28 51.91l-2.42 0c-0.65,0 -1.24,-0.27 -1.67,-0.69 -0.43,-0.43 -0.69,-1.02 -0.69,-1.67l0 -0.89c-0.19,-0.07 -0.37,-0.14 -0.56,-0.21 -0.18,-0.08 -0.37,-0.16 -0.54,-0.24l-0.63 0.63c-0.22,0.22 -0.48,0.39 -0.77,0.51 -0.29,0.12 -0.59,0.18 -0.9,0.18 -0.31,0 -0.62,-0.06 -0.9,-0.18l-0 0c-0.29,-0.12 -0.55,-0.29 -0.77,-0.51l0 -0 -1.71 -1.71c-0.46,-0.46 -0.69,-1.07 -0.69,-1.67l0 0c0,-0.61 0.23,-1.21 0.69,-1.67l0.63 -0.63c-0.09,-0.18 -0.17,-0.36 -0.24,-0.55 -0.08,-0.18 -0.15,-0.37 -0.21,-0.56l-0.89 0 0 0c-0.31,0 -0.62,-0.06 -0.9,-0.18 -0.29,-0.12 -0.55,-0.29 -0.77,-0.52 -0.22,-0.22 -0.39,-0.48 -0.51,-0.77 -0.12,-0.28 -0.18,-0.59 -0.18,-0.9l0 -2.42c0,-0.65 0.27,-1.24 0.69,-1.67 0.43,-0.43 1.02,-0.69 1.67,-0.69l0.89 0c0.07,-0.19 0.14,-0.37 0.21,-0.55 0.08,-0.18 0.16,-0.36 0.24,-0.54l-0.63 -0.63c-0.22,-0.22 -0.39,-0.48 -0.51,-0.77 -0.12,-0.29 -0.18,-0.59 -0.18,-0.9l0 0c0,-0.32 0.06,-0.62 0.18,-0.9l0 -0c0.12,-0.28 0.29,-0.54 0.52,-0.77l1.71 -1.71c0.46,-0.46 1.06,-0.69 1.67,-0.69 0.61,0 1.21,0.23 1.67,0.69l0.63 0.63c0.18,-0.08 0.36,-0.17 0.54,-0.24 0.18,-0.08 0.37,-0.15 0.55,-0.21l0 -0.89c0,-0.65 0.27,-1.24 0.69,-1.67 0.43,-0.43 1.02,-0.69 1.67,-0.69l2.42 0c0.65,0 1.24,0.27 1.67,0.69 0.43,0.43 0.69,1.02 0.69,1.67l0 0.89c0.18,0.06 0.37,0.14 0.55,0.21 0.19,0.08 0.37,0.16 0.54,0.24l0.63 -0.63c0.46,-0.46 1.07,-0.69 1.67,-0.69l0 0c0.61,-0 1.21,0.23 1.67,0.69l1.71 1.71c0.22,0.22 0.4,0.48 0.52,0.77l0 0c0.12,0.28 0.18,0.59 0.18,0.9l0 0c0,0.31 -0.06,0.62 -0.18,0.9 -0.12,0.28 -0.29,0.55 -0.51,0.77l0 0 -0.63 0.63c0.09,0.18 0.17,0.36 0.24,0.54 0.08,0.18 0.15,0.37 0.21,0.55l0.89 0c0.65,0 1.24,0.27 1.67,0.69 0.43,0.43 0.69,1.02 0.69,1.67l0 2.42c0,0.32 -0.06,0.62 -0.18,0.9 -0.12,0.29 -0.29,0.55 -0.51,0.77 -0.22,0.22 -0.48,0.4 -0.77,0.51l0 0c-0.29,0.12 -0.59,0.18 -0.91,0.18l-0.89 0c-0.07,0.19 -0.14,0.37 -0.21,0.55 -0.08,0.19 -0.16,0.37 -0.24,0.55l0.63 0.63c0.46,0.46 0.69,1.06 0.69,1.67l0 0c0,0.6 -0.23,1.21 -0.69,1.67l-1.71 1.71c-0.22,0.22 -0.49,0.4 -0.77,0.52l-0 0c-0.28,0.12 -0.59,0.18 -0.9,0.18l0 0c-0.31,0 -0.62,-0.06 -0.9,-0.18l-0 0c-0.29,-0.12 -0.55,-0.29 -0.77,-0.51l-0.63 -0.63c-0.18,0.09 -0.36,0.17 -0.54,0.24 -0.18,0.08 -0.37,0.15 -0.56,0.21l0 0.89 -0 0c-0,0.65 -0.26,1.25 -0.69,1.67 -0.43,0.43 -1.02,0.69 -1.67,0.69zm-2.42 -1.79l2.42 0c0.16,0 0.3,-0.06 0.41,-0.17 0.11,-0.11 0.17,-0.25 0.17,-0.41l-0 0 0 -2.22 0.65 -0.18c0.34,-0.1 0.68,-0.21 1.01,-0.35 0.33,-0.14 0.65,-0.29 0.96,-0.47l0.59 -0.33 1.57 1.57c0.06,0.06 0.12,0.1 0.19,0.13l-0 0c0.06,0.03 0.14,0.04 0.22,0.04l0 0c0.08,0 0.15,-0.02 0.22,-0.04l-0 -0c0.07,-0.03 0.13,-0.07 0.19,-0.12l1.71 -1.71c0.11,-0.11 0.17,-0.26 0.17,-0.41l0 0c0,-0.15 -0.06,-0.29 -0.17,-0.41l-1.57 -1.57 0.33 -0.59c0.18,-0.32 0.34,-0.64 0.47,-0.96 0.13,-0.32 0.25,-0.66 0.35,-1.01l0.18 -0.65 2.22 0c0.08,0 0.15,-0.01 0.22,-0.04l0 0c0.07,-0.03 0.13,-0.07 0.18,-0.12 0.06,-0.06 0.1,-0.12 0.13,-0.19 0.03,-0.07 0.04,-0.15 0.04,-0.22l-0 -2.42c0,-0.16 -0.06,-0.3 -0.17,-0.41 -0.1,-0.1 -0.25,-0.17 -0.41,-0.17l-2.22 0 -0.18 -0.65c-0.1,-0.34 -0.21,-0.68 -0.35,-1.01 -0.14,-0.33 -0.29,-0.65 -0.47,-0.96l-0.33 -0.59 1.57 -1.57 0 0c0.05,-0.05 0.1,-0.12 0.12,-0.18 0.03,-0.07 0.04,-0.14 0.04,-0.22l0 0c0,-0.08 -0.02,-0.15 -0.04,-0.22l-0 0c-0.03,-0.07 -0.07,-0.13 -0.12,-0.19l-1.71 -1.71c-0.11,-0.11 -0.26,-0.17 -0.41,-0.17l0 0c-0.15,0 -0.29,0.06 -0.41,0.17l-1.57 1.57 -0.59 -0.33c-0.32,-0.18 -0.64,-0.34 -0.96,-0.47 -0.32,-0.13 -0.66,-0.25 -1.01,-0.35l-0.65 -0.18 0 -2.22c0,-0.16 -0.06,-0.3 -0.17,-0.41 -0.1,-0.1 -0.25,-0.17 -0.41,-0.17l-2.42 0c-0.16,0 -0.3,0.06 -0.41,0.17 -0.1,0.1 -0.17,0.25 -0.17,0.41l0 2.22 -0.65 0.18c-0.35,0.1 -0.69,0.21 -1.01,0.35 -0.32,0.13 -0.64,0.29 -0.96,0.47l-0.59 0.33 -1.57 -1.57c-0.11,-0.11 -0.26,-0.17 -0.41,-0.17 -0.15,0 -0.3,0.06 -0.41,0.17l-1.71 1.71c-0.05,0.05 -0.09,0.12 -0.12,0.19l-0 -0c-0.03,0.07 -0.04,0.14 -0.04,0.22l0 0c0,0.08 0.01,0.16 0.04,0.22 0.03,0.06 0.07,0.12 0.13,0.18l1.57 1.57 -0.33 0.59c-0.18,0.31 -0.33,0.63 -0.47,0.96 -0.14,0.33 -0.25,0.66 -0.35,1.01l-0.18 0.65 -2.22 0c-0.16,0 -0.31,0.06 -0.41,0.17 -0.1,0.1 -0.17,0.25 -0.17,0.41l-0 2.42c0,0.08 0.02,0.15 0.04,0.22 0.03,0.07 0.07,0.13 0.13,0.19 0.05,0.05 0.12,0.1 0.18,0.12 0.07,0.03 0.14,0.04 0.22,0.04l0 0 2.22 -0 0.18 0.65c0.1,0.35 0.21,0.69 0.35,1.01 0.13,0.32 0.29,0.64 0.47,0.96l0.33 0.59 -1.57 1.57c-0.11,0.11 -0.17,0.26 -0.17,0.41l0 0c0,0.15 0.06,0.3 0.17,0.41l1.71 1.71 0 -0c0.06,0.06 0.12,0.1 0.19,0.13l-0 0c0.06,0.03 0.14,0.04 0.22,0.04 0.08,0 0.16,-0.01 0.22,-0.04 0.06,-0.03 0.12,-0.07 0.18,-0.13l1.57 -1.57 0.59 0.33c0.31,0.18 0.64,0.33 0.96,0.47 0.33,0.14 0.67,0.25 1.01,0.35l0.65 0.18 0 2.22c0,0.16 0.06,0.3 0.17,0.41 0.1,0.1 0.25,0.17 0.41,0.17z"/>
    <path class="fil8" d="M51.22 40.65l1.92 0c0.54,0 0.98,-0.44 0.98,-0.98l-0 -2.42c-0,-0.54 -0.44,-0.98 -0.98,-0.98l-1.92 0c-0.23,-0.98 -0.62,-1.9 -1.13,-2.73l1.36 -1.36c0.38,-0.38 0.38,-1 -0,-1.39l-1.71 -1.71c-0.38,-0.38 -1,-0.38 -1.39,0l-1.36 1.36c-0.83,-0.51 -1.75,-0.9 -2.73,-1.13l0 -1.92c0,-0.54 -0.44,-0.98 -0.98,-0.98l-2.42 0c-0.54,0 -0.98,0.44 -0.98,0.98l0 1.92c-0.98,0.23 -1.9,0.62 -2.73,1.13l-1.36 -1.36c-0.38,-0.38 -1,-0.38 -1.39,-0l-1.71 1.71c-0.38,0.38 -0.38,1 -0,1.39l1.36 1.36c-0.51,0.83 -0.9,1.75 -1.13,2.73l-1.92 0c-0.54,0 -0.98,0.44 -0.98,0.98l-0 2.42c-0,0.54 0.44,0.98 0.98,0.98l1.92 0c0.23,0.98 0.62,1.9 1.13,2.73l-1.36 1.36c-0.38,0.38 -0.38,1 -0,1.39l1.71 1.71c0.38,0.38 1,0.38 1.39,0l1.36 -1.36c0.83,0.51 1.76,0.9 2.74,1.13l0 1.92c0,0.54 0.44,0.98 0.98,0.98l2.42 0c0.54,0 0.98,-0.44 0.98,-0.98l0 -1.92c0.98,-0.23 1.9,-0.62 2.74,-1.13l1.36 1.36c0.38,0.38 1,0.38 1.39,-0l1.71 -1.71c0.38,-0.38 0.38,-1 -0,-1.39l-1.36 -1.36c0.51,-0.83 0.9,-1.75 1.13,-2.73z"/>
    <g>
     <circle class="fil9" cx="42.07" cy="38.46" r="6.08"/>
     <circle class="fil10" cx="42.07" cy="38.46" r="3.92"/>
     <path class="fil7" d="M42.07 45.03c-1.75,0 -3.4,-0.68 -4.64,-1.92 -1.24,-1.24 -1.92,-2.89 -1.92,-4.64 0,-1.75 0.68,-3.4 1.92,-4.64 1.96,-1.96 4.97,-2.48 7.47,-1.29 0.24,0.12 0.35,0.41 0.23,0.65 -0.12,0.24 -0.41,0.35 -0.65,0.23 -2.13,-1.02 -4.69,-0.58 -6.36,1.09 -1.06,1.06 -1.64,2.46 -1.64,3.95 0,1.49 0.58,2.89 1.64,3.95 1.06,1.06 2.46,1.64 3.95,1.64 1.49,0 2.89,-0.58 3.95,-1.64 1.73,-1.73 2.14,-4.36 1.01,-6.53 -0.13,-0.24 -0.03,-0.54 0.21,-0.66 0.24,-0.13 0.54,-0.03 0.66,0.21 0.64,1.23 0.87,2.61 0.67,3.99 -0.21,1.41 -0.85,2.68 -1.85,3.69 -1.24,1.24 -2.89,1.92 -4.64,1.92z"/>
     <path class="fil11" d="M46.38 34.68c-0.13,0 -0.25,-0.05 -0.35,-0.15l-0.02 -0.02c-0.19,-0.19 -0.19,-0.5 0,-0.69 0.19,-0.19 0.5,-0.19 0.69,0l0.02 0.02c0.19,0.19 0.19,0.5 -0,0.69 -0.1,0.09 -0.22,0.14 -0.34,0.14z"/>
     <path class="fil7" d="M42.07 42.88c-0.47,0 -0.95,-0.08 -1.42,-0.23 -0.26,-0.09 -0.39,-0.36 -0.31,-0.62 0.09,-0.26 0.36,-0.39 0.62,-0.31 1.24,0.42 2.59,0.1 3.52,-0.83 0.65,-0.65 1,-1.51 1,-2.43 0,-0.92 -0.36,-1.78 -1,-2.43 -0.65,-0.65 -1.51,-1 -2.43,-1 -0.92,0 -1.78,0.36 -2.43,1 -0.92,0.92 -1.24,2.26 -0.84,3.49 0.08,0.26 -0.06,0.53 -0.31,0.62 -0.26,0.08 -0.53,-0.06 -0.62,-0.31 -0.52,-1.59 -0.11,-3.31 1.07,-4.49 0.83,-0.83 1.94,-1.29 3.12,-1.29 1.18,0 2.29,0.46 3.12,1.29 0.83,0.83 1.29,1.94 1.29,3.12 0,1.18 -0.46,2.29 -1.29,3.12 -0.84,0.84 -1.96,1.29 -3.11,1.29z"/>
     <path class="fil11" d="M39.31 41.74c-0.12,0 -0.25,-0.05 -0.34,-0.14l-0.02 -0.02c-0.19,-0.19 -0.19,-0.5 0,-0.69 0.19,-0.19 0.5,-0.19 0.69,0l0.01 0.01c0.19,0.19 0.19,0.5 0,0.69 -0.1,0.1 -0.22,0.15 -0.35,0.15z"/>
    </g>
   </g>
   <g>
    <path class="fil9" d="M14.97 28.18l-6.69 0c-0.51,0 -0.93,0.42 -0.93,0.93l0 6.69c0,0.51 0.42,0.93 0.93,0.93l6.69 0c0.51,0 0.93,-0.42 0.93,-0.93l0 -6.69c0,-0.51 -0.42,-0.93 -0.93,-0.93z"/>
    <path class="fil1" d="M14.97 29.08l-6.69 0c-0.01,0 -0.02,0 -0.02,0.01 -0.01,0.01 -0.01,0.01 -0.01,0.02l0 6.69c0,0.01 0,0.02 0.01,0.02 0.01,0.01 0.01,0.01 0.02,0.01l6.69 0c0.01,0 0.02,-0 0.02,-0.01 0.01,-0.01 0.01,-0.01 0.01,-0.02l0 -6.69c0,-0.01 -0,-0.02 -0.01,-0.02 -0.01,-0.01 -0.01,-0.01 -0.02,-0.01zm-6.69 -1.79l6.69 0c0.5,0 0.96,0.2 1.29,0.53 0.33,0.33 0.53,0.79 0.53,1.29l0 6.69c0,0.5 -0.2,0.96 -0.53,1.29 -0.33,0.33 -0.79,0.53 -1.29,0.53l-6.69 0c-0.5,0 -0.96,-0.2 -1.29,-0.53 -0.33,-0.33 -0.53,-0.79 -0.53,-1.29l0 -6.69c0,-0.5 0.2,-0.96 0.53,-1.29 0.33,-0.33 0.79,-0.53 1.29,-0.53z"/>
    <path class="fil12" d="M16.65 29.01c-1.47,1.47 -2.94,2.94 -4.41,4.41l-1.22 -1.21c-0.31,-0.31 -0.81,-0.31 -1.12,0 -0.31,0.31 -0.31,0.81 0,1.12l1.77 1.77c0.15,0.15 0.36,0.23 0.56,0.23 0.2,0 0.4,-0.08 0.56,-0.23 1.63,-1.63 3.25,-3.25 4.87,-4.88 0.31,-0.31 0.31,-0.81 0,-1.12 -0.28,-0.28 -0.71,-0.31 -1.02,-0.08l-0 -0.01z"/>
   </g>
   <g>
    <path class="fil13" d="M14.97 40.64l-6.69 0c-0.51,0 -0.93,0.42 -0.93,0.93l0 6.69c0,0.51 0.42,0.93 0.93,0.93l6.69 0c0.51,0 0.93,-0.42 0.93,-0.93l0 -6.69c0,-0.51 -0.42,-0.93 -0.93,-0.93z"/>
    <path class="fil1" d="M14.97 41.54l-6.69 0c-0.01,0 -0.02,0 -0.02,0.01 -0.01,0.01 -0.01,0.01 -0.01,0.02l0 6.69c0,0.01 0,0.02 0.01,0.02 0.01,0.01 0.01,0.01 0.02,0.01l6.69 0c0.01,0 0.02,-0 0.02,-0.01 0.01,-0.01 0.01,-0.01 0.01,-0.02l0 -6.69c0,-0.01 -0,-0.02 -0.01,-0.02 -0.01,-0.01 -0.01,-0.01 -0.02,-0.01zm-6.69 -1.79l6.69 0c0.5,0 0.96,0.2 1.29,0.53 0.33,0.33 0.53,0.79 0.53,1.29l0 6.69c0,0.5 -0.2,0.96 -0.53,1.29 -0.33,0.33 -0.79,0.53 -1.29,0.53l-6.69 0c-0.5,0 -0.96,-0.2 -1.29,-0.53 -0.33,-0.33 -0.53,-0.79 -0.53,-1.29l0 -6.69c0,-0.5 0.2,-0.96 0.53,-1.29 0.33,-0.33 0.79,-0.53 1.29,-0.53z"/>
    <path class="fil12" d="M16.65 41.48c-1.47,1.47 -2.94,2.94 -4.41,4.41l-1.22 -1.21c-0.31,-0.31 -0.81,-0.31 -1.12,0 -0.31,0.31 -0.31,0.81 0,1.12l1.77 1.77c0.15,0.15 0.36,0.23 0.56,0.23 0.2,0 0.4,-0.08 0.56,-0.23 1.63,-1.63 3.25,-3.25 4.87,-4.88 0.31,-0.31 0.31,-0.81 0,-1.12 -0.28,-0.28 -0.71,-0.31 -1.02,-0.08l-0 -0.01z"/>
   </g>
   <path class="fil14" d="M20.39 32.02l7.58 0c0.59,0 1.07,-0.48 1.07,-1.07 0,-0.59 -0.48,-1.07 -1.07,-1.07l-7.58 0c-0.59,0 -1.07,0.48 -1.07,1.07 0,0.59 0.48,1.07 1.07,1.07l0 -0z"/>
   <path class="fil9" d="M20.39 35.73l4.66 0c0.59,0 1.07,-0.48 1.07,-1.07 0,-0.59 -0.48,-1.07 -1.07,-1.07l-4.66 0c-0.59,0 -1.07,0.48 -1.07,1.07 0,0.59 0.48,1.07 1.07,1.07l0 -0z"/>
   <path class="fil14" d="M20.39 43.74l7.58 0c0.59,0 1.07,-0.48 1.07,-1.07 0,-0.59 -0.48,-1.07 -1.07,-1.07l-7.58 0c-0.59,0 -1.07,0.48 -1.07,1.07 0,0.59 0.48,1.07 1.07,1.07l0 -0z"/>
   <path class="fil13" d="M20.39 47.46l6.5 0c0.59,0 1.07,-0.48 1.07,-1.07 0,-0.59 -0.48,-1.07 -1.07,-1.07l-6.5 0c-0.59,0 -1.07,0.48 -1.07,1.07 0,0.59 0.48,1.07 1.07,1.07l0 -0z"/>
  </g>
  <rect class="fil15" y="0" width="55.51" height="55.51"/>
 </g>
</svg>
