<?xml version="1.0" encoding="UTF-8"?>
<!DOCTYPE svg PUBLIC "-//W3C//DTD SVG 1.1//EN" "http://www.w3.org/Graphics/SVG/1.1/DTD/svg11.dtd">
<!-- Creator: CorelDRAW -->
<svg xmlns="http://www.w3.org/2000/svg" xml:space="preserve" width="62mm" height="62.0002mm" version="1.1" style="shape-rendering:geometricPrecision; text-rendering:geometricPrecision; image-rendering:optimizeQuality; fill-rule:evenodd; clip-rule:evenodd"
viewBox="0 0 55.51 55.51"
 xmlns:xlink="http://www.w3.org/1999/xlink"
 xmlns:xodm="http://www.corel.com/coreldraw/odm/2003">
 <defs>
  <style type="text/css">
   <![CDATA[
    .fil9 {fill:none}
    .fil3 {fill:#E95050}
    .fil5 {fill:#FEDA3F}
    .fil6 {fill:#A2D6D8}
    .fil8 {fill:#129598}
    .fil0 {fill:#FEFEFE;fill-rule:nonzero}
    .fil2 {fill:#195390;fill-rule:nonzero}
    .fil1 {fill:#263155;fill-rule:nonzero}
    .fil4 {fill:#263155;fill-rule:nonzero}
    .fil7 {fill:white;fill-rule:nonzero}
   ]]>
  </style>
 </defs>
 <g id="Layer_x0020_1">
  <metadata id="CorelCorpID_0Corel-Layer"/>
  <g id="_1820644559504">
   <path class="fil0" d="M46.46 0.9l-42.66 0c-1.61,0 -2.91,1.3 -2.91,2.91l0 41.96c0,1.61 1.3,2.91 2.91,2.91l42.66 0c1.61,0 2.91,-1.3 2.91,-2.91l0 -41.96c0,-1.61 -1.3,-2.91 -2.91,-2.91z"/>
   <path class="fil1" d="M46.46 1.79l-42.66 0c-0.56,0 -1.06,0.23 -1.42,0.59 -0.36,0.36 -0.59,0.87 -0.59,1.42l0 41.96c0,0.56 0.23,1.06 0.59,1.42 0.36,0.36 0.87,0.59 1.42,0.59l42.66 0c0.56,0 1.06,-0.23 1.42,-0.59 0.36,-0.36 0.59,-0.87 0.59,-1.42l0 -41.96c0,-0.56 -0.23,-1.06 -0.59,-1.42 -0.36,-0.36 -0.87,-0.59 -1.42,-0.59zm-42.66 -1.79l42.66 0c1.05,0 2,0.43 2.69,1.11 0.69,0.69 1.11,1.64 1.11,2.69l0 41.96c0,1.05 -0.43,2 -1.11,2.69 -0.69,0.69 -1.64,1.11 -2.69,1.11l-42.66 0c-1.05,0 -2,-0.43 -2.69,-1.11 -0.69,-0.69 -1.11,-1.64 -1.11,-2.69l0 -41.96c0,-1.05 0.43,-2 1.11,-2.69 0.69,-0.69 1.64,-1.11 2.69,-1.11z"/>
   <path class="fil1" d="M0.92 10.4c15.49,0.39 48.35,0 48.44,0l0.01 1.78c-0.09,0 -33,0.39 -48.5,0l0.04 -1.78z"/>
   <path class="fil1" d="M5.74 7.05l0.97 0c0.54,0 0.97,-0.43 0.97,-0.97 0,-0.54 -0.43,-0.97 -0.97,-0.97l-0.97 0c-0.54,0 -0.97,0.43 -0.97,0.97 0,0.54 0.43,0.97 0.97,0.97l0 0z"/>
   <path class="fil1" d="M10.59 7.05l0.97 0c0.54,0 0.97,-0.43 0.97,-0.97 0,-0.54 -0.43,-0.97 -0.97,-0.97l-0.97 0c-0.54,0 -0.97,0.43 -0.97,0.97 0,0.54 0.43,0.97 0.97,0.97l0 0z"/>
   <path class="fil1" d="M15.44 7.05l0.97 0c0.54,0 0.97,-0.43 0.97,-0.97 0,-0.54 -0.43,-0.97 -0.97,-0.97l-0.97 0c-0.54,0 -0.97,0.43 -0.97,0.97 0,0.54 0.43,0.97 0.97,0.97l0 0z"/>
   <path class="fil2" d="M32.89 7.05l11.63 0c0.54,0 0.97,-0.43 0.97,-0.97 0,-0.54 -0.43,-0.97 -0.97,-0.97l-11.63 0c-0.54,0 -0.97,0.43 -0.97,0.97 0,0.54 0.43,0.97 0.97,0.97l0 0z"/>
   <polygon class="fil3" points="4.22,36.69 10.36,36.69 10.36,44.42 4.22,44.42 "/>
   <path class="fil4" d="M4.22 35.8l6.14 0c0.49,0 0.9,0.4 0.9,0.9l0 7.73c0,0.49 -0.4,0.9 -0.9,0.9l-6.14 0c-0.49,0 -0.9,-0.4 -0.9,-0.9l0 -7.73c0,-0.49 0.4,-0.9 0.9,-0.9zm5.25 1.79l-4.35 0 0 5.94 4.35 0 0 -5.94z"/>
   <polygon class="fil5" points="22.85,39.43 28.99,39.43 28.99,44.42 22.85,44.42 "/>
   <path class="fil4" d="M22.85 38.54l6.14 0c0.49,0 0.9,0.4 0.9,0.9l0 4.99c0,0.49 -0.4,0.9 -0.9,0.9l-6.14 0c-0.49,0 -0.9,-0.4 -0.9,-0.9l0 -4.99c0,-0.49 0.4,-0.9 0.9,-0.9zm5.25 1.79l-4.35 0 0 3.2 4.35 0 0 -3.2z"/>
   <polygon class="fil6" points="13.53,28.08 19.68,28.08 19.68,44.42 13.53,44.42 "/>
   <path class="fil4" d="M13.53 27.19l6.14 0c0.49,0 0.9,0.4 0.9,0.9l0 16.34c0,0.49 -0.4,0.9 -0.9,0.9l-6.14 0c-0.49,0 -0.9,-0.4 -0.9,-0.9l0 -16.34c0,-0.49 0.4,-0.9 0.9,-0.9zm5.25 1.79l-4.35 0 0 14.55 4.35 0 0 -14.55z"/>
   <g>
    <path class="fil2" d="M7.05 16.5l1.89 0c0.52,0 0.94,-0.38 0.94,-0.85 0,-0.47 -0.42,-0.85 -0.94,-0.85l-1.89 -0c-1.56,0 -2.83,1.14 -2.83,2.55 0,1.41 1.27,2.55 2.83,2.55 0.52,0 0.94,0.38 0.94,0.85 0,0.47 -0.42,0.85 -0.94,0.85l-1.89 -0c-0.52,0 -0.94,0.38 -0.94,0.85 0,0.47 0.42,0.85 0.94,0.85l1.89 0c1.56,0 2.83,-1.14 2.83,-2.55 0,-1.41 -1.27,-2.55 -2.83,-2.55 -0.52,-0 -0.94,-0.38 -0.94,-0.85 0,-0.47 0.42,-0.85 0.94,-0.85l-0 -0z"/>
    <path class="fil2" d="M16.48 16.5c0.52,0 0.94,-0.38 0.94,-0.85 0,-0.47 -0.42,-0.85 -0.94,-0.85l-3.77 -0c-0.52,0 -0.94,0.38 -0.94,0.85l0 6.81c0,0.47 0.42,0.85 0.94,0.85l3.77 0c0.52,0 0.94,-0.38 0.94,-0.85 0,-0.47 -0.42,-0.85 -0.94,-0.85l-2.83 -0 0 -1.7 1.89 0c0.52,0 0.94,-0.38 0.94,-0.85 0,-0.47 -0.42,-0.85 -0.94,-0.85l-1.89 -0 0 -1.7 2.83 0z"/>
    <path class="fil2" d="M22.14 14.8c-1.56,0 -2.83,1.14 -2.83,2.55l0 3.4c0,1.41 1.27,2.55 2.83,2.55 1.56,0 2.83,-1.14 2.83,-2.55l0 -3.4c0,-1.41 -1.27,-2.55 -2.83,-2.55l-0 -0zm0.94 5.95c0,0.47 -0.42,0.85 -0.94,0.85 -0.52,0 -0.94,-0.38 -0.94,-0.85l0 -3.4c0,-0.47 0.42,-0.85 0.94,-0.85 0.52,0 0.94,0.38 0.94,0.85l-0 3.4z"/>
   </g>
   <g>
    <path class="fil2" d="M28.27 14.8l16.79 0c0.66,0 1.2,0.54 1.2,1.2l0 16.79c0,0.66 -0.54,1.2 -1.2,1.2l-16.79 0c-0.66,-0 -1.2,-0.54 -1.2,-1.2l-0 -16.79c0,-0.66 0.54,-1.2 1.2,-1.2z"/>
    <g>
     <path class="fil7" d="M43.86 20.2l-14.39 0c-0.33,0 -0.6,-0.27 -0.6,-0.6 0,-0.33 0.27,-0.6 0.6,-0.6l14.39 0c0.33,0 0.6,0.27 0.6,0.6 0,0.33 -0.27,0.6 -0.6,0.6l0 0z"/>
     <path class="fil7" d="M43.86 22.59l-14.39 0c-0.33,0 -0.6,-0.27 -0.6,-0.6 0,-0.33 0.27,-0.6 0.6,-0.6l14.39 -0c0.33,0 0.6,0.27 0.6,0.6 0,0.33 -0.27,0.6 -0.6,0.6l0 -0z"/>
     <path class="fil7" d="M43.86 24.99l-14.39 0c-0.33,0 -0.6,-0.27 -0.6,-0.6 0,-0.33 0.27,-0.6 0.6,-0.6l14.39 0c0.33,0 0.6,0.27 0.6,0.6 0,0.33 -0.27,0.6 -0.6,0.6l0 0z"/>
     <path class="fil7" d="M43.86 27.39l-14.39 0c-0.33,0 -0.6,-0.27 -0.6,-0.6 0,-0.33 0.27,-0.6 0.6,-0.6l14.39 -0c0.33,0 0.6,0.27 0.6,0.6 0,0.33 -0.27,0.6 -0.6,0.6l0 -0z"/>
     <path class="fil7" d="M43.86 29.79l-14.39 0c-0.33,0 -0.6,-0.27 -0.6,-0.6 0,-0.33 0.27,-0.6 0.6,-0.6l14.39 -0c0.33,0 0.6,0.27 0.6,0.6 0,0.33 -0.27,0.6 -0.6,0.6l0 0z"/>
     <path class="fil7" d="M43.86 32.19l-14.39 0c-0.33,-0 -0.6,-0.27 -0.6,-0.6 0,-0.33 0.27,-0.6 0.6,-0.6l14.39 -0c0.33,0 0.6,0.27 0.6,0.6 0,0.33 -0.27,0.6 -0.6,0.6l0 0z"/>
    </g>
    <path class="fil7" d="M36.67 17.8l-7.19 0c-0.33,0 -0.6,-0.27 -0.6,-0.6 0,-0.33 0.27,-0.6 0.6,-0.6l7.19 0c0.33,0 0.6,0.27 0.6,0.6 0,0.33 -0.27,0.6 -0.6,0.6l0 0z"/>
   </g>
   <path class="fil4" d="M53.18 42.38c0,-5.9 -4.78,-10.68 -10.68,-10.68 -5.9,0 -10.68,4.78 -10.68,10.68 0,5.9 4.78,10.68 10.68,10.68 2.41,0 4.64,-0.8 6.43,-2.15l3.11 3.26c0.58,0.6 1.53,0.61 2.12,0.03 0.6,-0.58 0.61,-1.53 0.03,-2.12l-3.14 -3.3c1.34,-1.78 2.13,-4 2.13,-6.4z"/>
   <circle class="fil7" cx="42.5" cy="42.38" r="8.54"/>
   <path class="fil8" d="M48.37 41.24c0,0.04 0.01,0.07 0.01,0.11 0,0.47 -0.35,0.86 -0.82,0.92 -0.04,0 -0.07,0.01 -0.11,0.01 -0.47,-0 -0.86,-0.35 -0.92,-0.82l-0.01 -0.07 -2.35 2.78c-0.18,0.21 -0.43,0.33 -0.71,0.33 -0.14,0 -0.28,-0.03 -0.41,-0.09l-2.3 -1.13 -2.5 3.06c-0.18,0.21 -0.44,0.34 -0.72,0.34 -0.51,0 -0.92,-0.41 -0.92,-0.92 0,-0.21 0.07,-0.42 0.21,-0.59l2.97 -3.63c0.18,-0.21 0.44,-0.34 0.72,-0.34 0.14,0 0.28,0.03 0.41,0.09l2.32 1.13 1.9 -2.25 -0.2 0.02c-0.04,0 -0.07,0.01 -0.11,0.01 -0.51,0 -0.92,-0.41 -0.92,-0.92 0,-0.47 0.35,-0.86 0.82,-0.92l2.35 -0.28c0.04,-0 0.07,-0.01 0.11,-0.01 0.47,0 0.86,0.35 0.92,0.82l0.28 2.35 -0 0z"/>
  </g>
  <rect class="fil9" y="0" width="55.51" height="55.51"/>
 </g>
</svg>
