<?xml version="1.0" encoding="UTF-8"?>
<!DOCTYPE svg PUBLIC "-//W3C//DTD SVG 1.1//EN" "http://www.w3.org/Graphics/SVG/1.1/DTD/svg11.dtd">
<!-- Creator: CorelDRAW -->
<svg xmlns="http://www.w3.org/2000/svg" xml:space="preserve" width="4.3057mm" height="4.064mm" version="1.1" style="shape-rendering:geometricPrecision; text-rendering:geometricPrecision; image-rendering:optimizeQuality; fill-rule:evenodd; clip-rule:evenodd"
viewBox="0 0 36.47 34.43"
 xmlns:xlink="http://www.w3.org/1999/xlink"
 xmlns:xodm="http://www.corel.com/coreldraw/odm/2003">
 <defs>
  <style type="text/css">
   <![CDATA[
    .fil0 {fill:#FEFEFE;fill-rule:nonzero}
    .fil1 {fill:#EBECEC;fill-rule:nonzero}
   ]]>
  </style>
 </defs>
 <g id="Layer_x0020_1">
  <metadata id="CorelCorpID_0Corel-Layer"/>
  <g id="_1987801229184">
   <path class="fil0" d="M31.87 1.11l-29.32 0c-0.4,0 -0.76,0.16 -1.02,0.42 -0.26,0.26 -0.42,0.62 -0.42,1.02l0 29.32c0,0.4 0.16,0.76 0.42,1.02 0.26,0.26 0.62,0.42 1.02,0.42l29.32 0c0.4,0 0.76,-0.16 1.02,-0.42 0.26,-0.26 0.42,-0.62 0.42,-1.02l0 -29.32c0,-0.4 -0.16,-0.76 -0.42,-1.02 -0.26,-0.26 -0.62,-0.42 -1.02,-0.42zm-29.32 -1.11l29.32 0c0.71,0 1.34,0.29 1.81,0.75 0.46,0.46 0.75,1.1 0.75,1.81l0 29.32c0,0.7 -0.29,1.34 -0.75,1.81 -0.46,0.46 -1.1,0.75 -1.81,0.75l-29.32 0c-0.7,0 -1.34,-0.29 -1.81,-0.75 -0.46,-0.46 -0.75,-1.1 -0.75,-1.81l0 -29.32c0,-0.7 0.29,-1.34 0.75,-1.81 0.46,-0.46 1.1,-0.75 1.81,-0.75z"/>
   <path class="fil0" d="M0.57 7.63c10.64,0.27 33.23,0 33.3,0l0.01 1.11c-0.07,0 -22.68,0.27 -33.34,0l0.03 -1.11z"/>
   <path class="fil0" d="M3.74 4.89l0.67 0c0.37,0 0.67,-0.3 0.67,-0.67 0,-0.37 -0.3,-0.67 -0.67,-0.67l-0.67 0c-0.37,0 -0.67,0.3 -0.67,0.67 0,0.37 0.3,0.67 0.67,0.67l0 0z"/>
   <path class="fil0" d="M7.07 4.89l0.67 0c0.37,0 0.67,-0.3 0.67,-0.67 0,-0.37 -0.3,-0.67 -0.67,-0.67l-0.67 0c-0.37,0 -0.67,0.3 -0.67,0.67 0,0.37 0.3,0.67 0.67,0.67l0 0z"/>
   <path class="fil0" d="M10.4 4.89l0.67 0c0.37,0 0.67,-0.3 0.67,-0.67 0,-0.37 -0.3,-0.67 -0.67,-0.67l-0.67 0c-0.37,0 -0.67,0.3 -0.67,0.67 0,0.37 0.3,0.67 0.67,0.67l0 0z"/>
   <path class="fil0" d="M22.4 4.89l8 0c0.37,0 0.67,-0.3 0.67,-0.67 0,-0.37 -0.3,-0.67 -0.67,-0.67l-8 0c-0.37,0 -0.67,0.3 -0.67,0.67 0,0.37 0.3,0.67 0.67,0.67l0 0z"/>
   <path class="fil0" d="M28.74 19.77l-7.33 0c-0.37,0 -0.67,0.3 -0.67,0.67 0,0.37 0.3,0.67 0.67,0.67l7.33 0c0.37,0 0.67,-0.3 0.67,-0.67 0,-0.37 -0.3,-0.67 -0.67,-0.67z"/>
   <path class="fil0" d="M28.74 23.77l-14.24 0c-0.37,0 -0.67,0.3 -0.67,0.67 0,0.37 0.3,0.67 0.67,0.67l14.24 0c0.37,0 0.67,-0.3 0.67,-0.67 0,-0.37 -0.3,-0.67 -0.67,-0.67z"/>
   <path class="fil0" d="M4.41 25.1l7.33 0c0.37,0 0.67,-0.3 0.67,-0.67 0,-0.37 -0.3,-0.67 -0.67,-0.67l-7.33 0c-0.37,0 -0.67,0.3 -0.67,0.67 0,0.37 0.3,0.67 0.67,0.67l0 0z"/>
   <path class="fil0" d="M28.74 27.76l-7.33 0c-0.37,0 -0.67,0.3 -0.67,0.67 0,0.37 0.3,0.67 0.67,0.67l7.33 0c0.37,0 0.67,-0.3 0.67,-0.67 0,-0.37 -0.3,-0.67 -0.67,-0.67l0 0z"/>
   <path class="fil0" d="M19.73 27.76l-15.33 0c-0.37,0 -0.67,0.3 -0.67,0.67 0,0.37 0.3,0.67 0.67,0.67l15.33 0c0.37,0 0.67,-0.3 0.67,-0.67 0,-0.37 -0.3,-0.67 -0.67,-0.67l0 0z"/>
   <g>
    <path class="fil0" d="M12.88 18.32c0.19,0.19 0.51,0.19 0.71,-0l2.1 -2.12c0.19,-0.2 0.19,-0.51 0,-0.71l-2.1 -2.12c-0.19,-0.2 -0.51,-0.2 -0.71,-0 -0.2,0.19 -0.2,0.51 -0,0.71l1.75 1.76 -1.75 1.76c-0.19,0.2 -0.19,0.51 0,0.71l0 0z"/>
    <path class="fil0" d="M6.69 13.37c-0.2,-0.2 -0.52,-0.19 -0.71,0l-2.1 2.12c-0.19,0.2 -0.19,0.51 0,0.71l2.1 2.12c0.19,0.2 0.51,0.2 0.71,0 0.2,-0.19 0.2,-0.51 0,-0.71l-1.75 -1.76 1.75 -1.76c0.19,-0.2 0.19,-0.51 -0,-0.71l0 0z"/>
    <path class="fil0" d="M10.59 11.95l-2.94 7.41c-0.1,0.26 0.02,0.55 0.28,0.65 0.26,0.1 0.55,-0.02 0.65,-0.28l2.94 -7.41c0.1,-0.26 -0.02,-0.55 -0.28,-0.65 -0.26,-0.1 -0.55,0.02 -0.65,0.28z"/>
   </g>
   <g>
    <path class="fil0" d="M31.45 7.46l0 14.15 2.4 6.5 2.4 -6.5 0 -14.15c0,-0.97 -0.61,-1.76 -1.35,-1.76l-2.09 0c-0.75,0 -1.35,0.79 -1.35,1.76z"/>
    <path id="_1" class="fil0" d="M31.22 21.61l0 -14.15 0.46 0 0 14.15 -0.44 0.13 -0.02 -0.13zm0.46 0c0,0.17 -0.1,0.3 -0.23,0.3 -0.13,0 -0.23,-0.13 -0.23,-0.3l0.46 0zm1.96 6.63l-2.4 -6.5 0.42 -0.26 2.4 6.5 0 0.26 -0.42 0zm0.42 -0.26c0.06,0.15 0.01,0.33 -0.11,0.4 -0.11,0.07 -0.25,0.01 -0.31,-0.14l0.42 -0.26zm2.4 -6.23l-2.4 6.5 -0.42 -0.26 2.4 -6.5 0.44 0.13 -0.02 0.13zm-0.42 -0.26c0.06,-0.15 0.19,-0.21 0.31,-0.14 0.11,0.07 0.16,0.25 0.11,0.4l-0.42 -0.26zm0.44 -14.02l0 14.15 -0.46 0 0 -14.15 0 0 0.46 0zm-0.46 0c0,-0.17 0.1,-0.3 0.23,-0.3 0.13,0 0.23,0.13 0.23,0.3l-0.46 0zm-1.12 -1.46l0 -0.6 0 0 0.08 0 0.08 0.01 0.08 0.01 0.08 0.02 0.08 0.02 0.07 0.03 0.07 0.03 0.07 0.04 0.07 0.04 0.07 0.05 0.07 0.05 0.07 0.05 0.06 0.06 0.06 0.06 0.06 0.07 0.05 0.07 0.05 0.07 0.05 0.07 0.05 0.08 0.04 0.08 0.04 0.08 0.04 0.09 0.03 0.09 0.03 0.09 0.03 0.09 0.02 0.1 0.02 0.1 0.02 0.1 0.01 0.1 0.01 0.1 0.01 0.11 0 0.11 -0.46 0 -0 -0.08 -0 -0.07 -0.01 -0.07 -0.01 -0.07 -0.01 -0.07 -0.02 -0.07 -0.02 -0.07 -0.02 -0.07 -0.02 -0.07 -0.02 -0.06 -0.03 -0.06 -0.03 -0.06 -0.03 -0.06 -0.03 -0.06 -0.04 -0.05 -0.04 -0.05 -0.04 -0.05 -0.04 -0.04 -0.04 -0.04 -0.04 -0.04 -0.04 -0.04 -0.05 -0.04 -0.05 -0.03 -0.05 -0.03 -0.05 -0.03 -0.05 -0.02 -0.05 -0.02 -0.05 -0.02 -0.06 -0.01 -0.06 -0.01 -0.06 -0.01 -0.06 -0 0 0zm0 0c-0.13,0 -0.23,-0.13 -0.23,-0.3 0,-0.17 0.1,-0.3 0.23,-0.3l0 0.6zm-2.09 -0.6l2.09 0 0 0.6 -2.09 0 0 0 0 -0.6zm0 0.6c-0.13,0 -0.23,-0.13 -0.23,-0.3 0,-0.17 0.1,-0.3 0.23,-0.3l0 0.6zm-1.12 1.46l-0.46 0 0 0 0 -0.11 0.01 -0.11 0.01 -0.1 0.01 -0.1 0.02 -0.1 0.02 -0.1 0.02 -0.1 0.03 -0.09 0.03 -0.09 0.03 -0.09 0.04 -0.09 0.04 -0.08 0.04 -0.08 0.05 -0.08 0.05 -0.08 0.05 -0.07 0.06 -0.07 0.06 -0.06 0.06 -0.06 0.06 -0.06 0.06 -0.05 0.07 -0.05 0.07 -0.05 0.07 -0.04 0.07 -0.04 0.07 -0.03 0.07 -0.03 0.08 -0.02 0.08 -0.02 0.08 -0.01 0.08 -0.01 0.08 -0 0 0.6 -0.06 0 -0.06 0.01 -0.06 0.01 -0.06 0.01 -0.05 0.02 -0.05 0.02 -0.05 0.02 -0.05 0.03 -0.05 0.03 -0.05 0.03 -0.05 0.04 -0.05 0.04 -0.04 0.04 -0.04 0.04 -0.04 0.05 -0.04 0.05 -0.04 0.05 -0.03 0.05 -0.03 0.06 -0.03 0.06 -0.03 0.06 -0.03 0.06 -0.02 0.06 -0.02 0.07 -0.02 0.07 -0.02 0.07 -0.02 0.07 -0.01 0.07 -0.01 0.07 -0.01 0.07 -0 0.07 -0 0.08 0 0zm0 0c0,0.17 -0.1,0.3 -0.23,0.3 -0.13,0 -0.23,-0.13 -0.23,-0.3l0.46 0z"/>
   </g>
   <g>
    <g>
     <path class="fil0" d="M36.38 21.37c0.1,0.1 0.12,0.29 0.05,0.42 -0.08,0.13 -0.22,0.16 -0.32,0.06l0.27 -0.48zm-1.2 -1.15l1.2 1.15 -0.27 0.48 -1.2 -1.15 0 -0.48 0.27 0zm-0.27 0.48c-0.1,-0.1 -0.12,-0.29 -0.05,-0.42 0.08,-0.13 0.22,-0.16 0.32,-0.06l-0.27 0.48zm-1.2 0.66l1.2 -1.15 0.27 0.48 -1.2 1.15 -0.27 0 0 -0.48zm0.27 0.48c-0.1,0.1 -0.25,0.07 -0.32,-0.06 -0.08,-0.13 -0.05,-0.32 0.05,-0.42l0.27 0.48zm-1.2 -1.63l1.2 1.15 -0.27 0.48 -1.2 -1.15 0 -0.48 0.27 0zm-0.27 0.48c-0.1,-0.1 -0.12,-0.29 -0.05,-0.42 0.08,-0.13 0.22,-0.16 0.32,-0.06l-0.27 0.48zm-1.2 0.66l1.2 -1.15 0.27 0.48 -1.2 1.15 -0.27 -0.48zm0.27 0.48c-0.1,0.1 -0.25,0.07 -0.32,-0.06 -0.08,-0.13 -0.05,-0.32 0.05,-0.42l0.27 0.48z"/>
    </g>
    <path class="fil1" d="M31.45 7.46l0 0.78 4.79 0 0 -0.78c0,-0.97 -0.61,-1.76 -1.35,-1.76l-2.09 0c-0.75,0 -1.35,0.79 -1.35,1.76z"/>
    <path class="fil1" d="M31.68 7.46l0 0.48 4.34 0 0 -0.48c0,-0.4 -0.13,-0.77 -0.33,-1.03 -0.2,-0.27 -0.49,-0.43 -0.8,-0.43l0 0 -2.09 0c-0.31,0 -0.59,0.16 -0.8,0.43 -0.2,0.26 -0.33,0.63 -0.33,1.03zm-0.46 0.78l0 -0.78c0,-0.57 0.18,-1.08 0.47,-1.46 0.29,-0.37 0.68,-0.6 1.12,-0.6l2.09 0 0 0c0.44,0 0.83,0.23 1.12,0.6 0.29,0.37 0.47,0.89 0.47,1.46l0 0.78c0,0.17 -0.1,0.3 -0.23,0.3l-4.79 0c-0.13,0 -0.23,-0.13 -0.23,-0.3z"/>
    <path class="fil1" d="M31.84 21.98l2.01 5.44 2.01 -5.44 -0.81 -0.77 -0.93 0.89 -0.02 0.02c-0.08,0.07 -0.17,0.1 -0.26,0.1 -0.1,-0 -0.19,-0.04 -0.27,-0.12l-0.92 -0.88 -0.81 0.77z"/>
   </g>
   <path class="fil1" d="M33.78 22.36c0.03,-4.42 0,-13.79 0,-13.81l0.1 -0.01c0,0.03 0.02,9.41 0,13.83l-0.1 -0.01z"/>
   <path class="fil1" d="M34.98 22.36c0.02,-4.42 0,-13.79 0,-13.81l0.1 -0.01c0,0.03 0.03,9.41 0,13.83l-0.1 -0.01z"/>
   <path class="fil1" d="M32.6 22.36c0.03,-4.42 0,-13.79 0,-13.81l0.1 -0.01c0,0.03 0.03,9.41 0,13.83l-0.1 -0.01z"/>
  </g>
 </g>
</svg>
