<?xml version="1.0" encoding="UTF-8"?>
<!DOCTYPE svg PUBLIC "-//W3C//DTD SVG 1.1//EN" "http://www.w3.org/Graphics/SVG/1.1/DTD/svg11.dtd">
<!-- Creator: CorelDRAW (Evaluation Version) -->
<svg xmlns="http://www.w3.org/2000/svg" xml:space="preserve" width="2.54mm" height="2.54mm" version="1.1" style="shape-rendering:geometricPrecision; text-rendering:geometricPrecision; image-rendering:optimizeQuality; fill-rule:evenodd; clip-rule:evenodd"
viewBox="0 0 2.57 2.57"
 xmlns:xlink="http://www.w3.org/1999/xlink"
 xmlns:xodm="http://www.corel.com/coreldraw/odm/2003">
 <defs>
  <style type="text/css">
   <![CDATA[
    .fil1 {fill:#FEFEFE;fill-rule:nonzero}
    .fil0 {fill:#273155;fill-rule:nonzero}
   ]]>
  </style>
 </defs>
 <g id="Layer_x0020_1">
  <metadata id="CorelCorpID_0Corel-Layer"/>
  <g id="_1730331409408">
   <path class="fil0" d="M2.57 1.29c0,0.71 -0.58,1.29 -1.29,1.29l0 0c-0.71,0 -1.29,-0.58 -1.29,-1.29l0 0c0,-0.71 0.58,-1.29 1.29,-1.29l0 0c0.71,0 1.29,0.58 1.29,1.29l0 0z"/>
   <path class="fil1" d="M1.54 1.62l0 -0.64c0,0 0.07,0.12 0.33,0.13 0.01,0 0.03,-0.01 0.03,-0.02l0 -0.18c0,-0.01 -0.01,-0.02 -0.02,-0.02 -0.2,-0.01 -0.3,-0.17 -0.31,-0.31 -0,-0.01 -0.01,-0.02 -0.03,-0.02l-0.21 0c-0.01,0 -0.02,0.01 -0.02,0.02l0 1.01c0,0.11 -0.08,0.21 -0.19,0.21 -0.13,0.01 -0.23,-0.1 -0.21,-0.23 0.01,-0.09 0.08,-0.16 0.17,-0.18 0.02,-0 0.04,-0 0.05,-0 0.01,0 0.03,-0.01 0.03,-0.02l0 -0.18c0,-0.01 -0.01,-0.02 -0.02,-0.02 -0.03,-0 -0.05,-0 -0.08,0 -0.2,0.02 -0.36,0.18 -0.38,0.38 -0.03,0.26 0.18,0.48 0.43,0.48 0.24,0 0.43,-0.19 0.43,-0.43l0 0.03z"/>
  </g>
 </g>
</svg>
