<?xml version="1.0" encoding="UTF-8"?>
<!DOCTYPE svg PUBLIC "-//W3C//DTD SVG 1.1//EN" "http://www.w3.org/Graphics/SVG/1.1/DTD/svg11.dtd">
<!-- Creator: CorelDRAW -->
<svg xmlns="http://www.w3.org/2000/svg" xml:space="preserve" width="5.4187mm" height="4.8972mm" version="1.1" style="shape-rendering:geometricPrecision; text-rendering:geometricPrecision; image-rendering:optimizeQuality; fill-rule:evenodd; clip-rule:evenodd"
viewBox="0 0 20.22 18.27"
 xmlns:xlink="http://www.w3.org/1999/xlink"
 xmlns:xodm="http://www.corel.com/coreldraw/odm/2003">
 <defs>
  <style type="text/css">
   <![CDATA[
    .fil5 {fill:black;fill-rule:nonzero}
    .fil4 {fill:#273155;fill-rule:nonzero}
    .fil3 {fill:#4DCDC3;fill-rule:nonzero}
    .fil1 {fill:#A2D6D8;fill-rule:nonzero}
    .fil0 {fill:#E95050;fill-rule:nonzero}
    .fil2 {fill:#FEFEFE;fill-rule:nonzero}
   ]]>
  </style>
 </defs>
 <g id="Layer_x0020_1">
  <metadata id="CorelCorpID_0Corel-Layer"/>
  <g id="_2023472337856">
   <g>
    <path class="fil0" d="M18.08 16.11l-0.93 0.93c-0.23,0.23 -0.61,0.23 -0.84,0l-4.13 -4.13 1.77 -1.77 4.13 4.13c0.23,0.23 0.23,0.61 0,0.84z"/>
   </g>
   <g>
    <path class="fil0" d="M18.08 15.28l-4.13 -4.13 -0.73 0.73 3.44 3.44c0.21,0.21 0.21,0.55 0,0.76l-0.65 0.65 0.32 0.32c0.23,0.23 0.61,0.23 0.84,0l0.93 -0.93c0.23,-0.23 0.23,-0.61 0,-0.84l0 0z"/>
   </g>
   <g>
    <circle class="fil1" cx="10.2" cy="9.16" r="5.74"/>
   </g>
   <g>
    <path class="fil1" d="M14.26 5.1c-0.4,-0.4 -0.84,-0.72 -1.31,-0.98 1.19,2.18 0.86,4.97 -0.98,6.81 -1.84,1.84 -4.63,2.17 -6.81,0.98 0.26,0.47 0.58,0.91 0.98,1.31 2.24,2.24 5.88,2.24 8.12,0 2.24,-2.24 2.24,-5.88 0,-8.12z"/>
   </g>
   <g>
    <path class="fil2" d="M13.93 8.73c0.27,0.25 0.27,0.68 0,0.93 -0.69,0.65 -2.1,1.76 -3.73,1.76 -1.63,0 -3.04,-1.11 -3.73,-1.76 -0.27,-0.25 -0.27,-0.68 0,-0.93 0.69,-0.65 2.1,-1.76 3.73,-1.76 1.63,0 3.04,1.11 3.73,1.76z"/>
   </g>
   <g>
    <path class="fil2" d="M13.93 8.73c-0.21,-0.2 -0.5,-0.45 -0.83,-0.69 0.05,0.21 -0.01,0.44 -0.18,0.6 -0.69,0.65 -2.1,1.76 -3.73,1.76 -1.12,0 -2.14,-0.53 -2.89,-1.07 0.03,0.12 0.09,0.23 0.18,0.32 0.69,0.65 2.1,1.76 3.73,1.76 1.63,0 3.04,-1.11 3.73,-1.76 0.27,-0.25 0.27,-0.68 0,-0.93l0 0z"/>
   </g>
   <g>
    <circle class="fil3" cx="10.21" cy="9.19" r="1.16"/>
   </g>
   <g>
    <path class="fil3" d="M10.59 8.1c0.04,0.12 0.06,0.25 0.06,0.38 0,0.64 -0.52,1.16 -1.16,1.16 -0.13,0 -0.26,-0.02 -0.38,-0.06 0.16,0.45 0.59,0.78 1.09,0.78 0.64,0 1.16,-0.52 1.16,-1.16 0,-0.51 -0.33,-0.94 -0.78,-1.09l0 0z"/>
   </g>
   <g>
    <path class="fil4" d="M17.32 14.09c-0.12,-0.12 -0.3,-0.12 -0.42,0 -0.12,0.12 -0.12,0.3 0,0.42l0.97 0.97c0.08,0.09 0.13,0.27 0,0.42l-0.93 0.93c-0.12,0.12 -0.3,0.12 -0.42,0l-2.78 -2.78c0.26,-0.19 0.5,-0.39 0.73,-0.62 0.23,-0.23 0.44,-0.47 0.62,-0.73l0.86 0.86c0.06,0.06 0.13,0.09 0.21,0.09 0.08,0 0.15,-0.03 0.21,-0.09 0.12,-0.12 0.12,-0.3 0,-0.42l-0.95 -0.95c1.34,-2.31 1.03,-5.33 -0.95,-7.3 -2.35,-2.35 -6.18,-2.35 -8.54,0 -1.12,1.12 -1.75,2.6 -1.77,4.18 -0.02,1.58 0.56,3.08 1.64,4.22 0.11,0.12 0.3,0.12 0.42,0.01 0.12,-0.11 0.13,-0.3 0.01,-0.42 -2.03,-2.16 -1.98,-5.49 0.12,-7.58 2.12,-2.12 5.58,-2.12 7.7,0 2.12,2.12 2.12,5.58 0,7.7 -1.79,1.79 -4.63,2.1 -6.76,0.75 -0.14,-0.09 -0.32,-0.05 -0.41,0.09 -0.09,0.14 -0.05,0.32 0.09,0.41 0.96,0.61 2.09,0.93 3.23,0.93 0.21,0 0.42,-0.01 0.63,-0.03 0.85,-0.09 1.67,-0.36 2.4,-0.79l2.87 2.87c0.17,0.17 0.4,0.26 0.63,0.26 0.23,0 0.46,-0.09 0.63,-0.26l0.93 -0.93c0.35,-0.35 0.35,-0.91 0,-1.26l-0.97 -0.97z"/>
    <path class="fil4" d="M12.19 7.47c0.07,-0.15 -0,-0.32 -0.15,-0.39 -0.62,-0.27 -1.24,-0.41 -1.83,-0.41 -1.73,0 -3.2,1.16 -3.93,1.85 -0.19,0.18 -0.29,0.42 -0.29,0.68 0,0.26 0.11,0.5 0.29,0.68 0.73,0.69 2.2,1.85 3.93,1.85 1.73,0 3.2,-1.16 3.93,-1.85 0.19,-0.18 0.29,-0.42 0.29,-0.68 0,-0.26 -0.11,-0.5 -0.29,-0.68 -0.26,-0.25 -0.53,-0.48 -0.82,-0.68 -0.13,-0.1 -0.32,-0.07 -0.41,0.06 -0.1,0.13 -0.07,0.32 0.06,0.41 0.26,0.19 0.52,0.41 0.76,0.64 0.07,0.07 0.11,0.15 0.11,0.25 0,0.1 -0.04,0.18 -0.11,0.25 -0.66,0.63 -2,1.68 -3.52,1.68 -1.52,0 -2.86,-1.05 -3.52,-1.68 -0.07,-0.07 -0.11,-0.15 -0.11,-0.25 0,-0.1 0.04,-0.18 0.11,-0.25 0.66,-0.63 2,-1.68 3.52,-1.68 0.51,0 1.05,0.12 1.59,0.36 0.15,0.07 0.32,-0 0.39,-0.15z"/>
    <path class="fil5" d="M8.75 9.19c0,0.8 0.65,1.45 1.45,1.45 0.8,0 1.45,-0.65 1.45,-1.45 0,-0.8 -0.65,-1.45 -1.45,-1.45 -0.8,0 -1.45,0.65 -1.45,1.45zm2.32 0c0,0.47 -0.39,0.86 -0.86,0.86 -0.48,0 -0.86,-0.39 -0.86,-0.86 0,-0.48 0.39,-0.86 0.86,-0.86 0.48,0 0.86,0.39 0.86,0.86z"/>
    <path class="fil4" d="M15.33 3.86c0.08,0 0.15,-0.03 0.21,-0.09l1.29 -1.29 0.56 0.56c0.17,0.17 0.45,0.17 0.62,0l1.57 -1.57 0 0.4c0,0.16 0.13,0.3 0.3,0.3 0.16,0 0.3,-0.13 0.3,-0.3l0 -1.1c0,-0.16 -0.13,-0.3 -0.3,-0.3l-1.1 0c-0.16,0 -0.3,0.13 -0.3,0.3 0,0.16 0.13,0.3 0.3,0.3l0.37 0 -1.45 1.45 -0.56 -0.56c-0.17,-0.17 -0.45,-0.17 -0.62,0l-1.4 1.4c-0.12,0.12 -0.12,0.3 0,0.42 0.06,0.06 0.13,0.09 0.21,0.09l0 0z"/>
    <path class="fil4" d="M1.56 3.05c0.84,0 1.53,-0.68 1.53,-1.53 0,-0.84 -0.68,-1.53 -1.53,-1.53 -0.84,0 -1.53,0.68 -1.53,1.53 0,0.84 0.68,1.53 1.53,1.53zm0 -2.46c0.51,0 0.93,0.42 0.93,0.93 0,0.51 -0.42,0.93 -0.93,0.93 -0.51,0 -0.93,-0.42 -0.93,-0.93 0,-0.51 0.42,-0.93 0.93,-0.93z"/>
    <path class="fil4" d="M1.61 4.07c-0.84,0 -1.53,0.68 -1.53,1.53 0,0.84 0.68,1.53 1.53,1.53 0.84,0 1.53,-0.68 1.53,-1.53 0,-0.84 -0.68,-1.53 -1.53,-1.53zm0 2.46c-0.51,0 -0.93,-0.42 -0.93,-0.93 0,-0.51 0.42,-0.93 0.93,-0.93 0.51,0 0.93,0.42 0.93,0.93 0,0.51 -0.42,0.93 -0.93,0.93z"/>
    <path class="fil4" d="M1.61 8.09c-0.84,0 -1.53,0.68 -1.53,1.53 0,0.84 0.68,1.53 1.53,1.53 0.84,0 1.53,-0.68 1.53,-1.53 0,-0.84 -0.68,-1.53 -1.53,-1.53zm0 2.46c-0.51,0 -0.93,-0.42 -0.93,-0.93 0,-0.51 0.42,-0.93 0.93,-0.93 0.51,0 0.93,0.42 0.93,0.93 0,0.51 -0.42,0.93 -0.93,0.93z"/>
    <path class="fil4" d="M4.29 1.07l2.62 0c0.16,0 0.3,-0.13 0.3,-0.3 0,-0.16 -0.13,-0.3 -0.3,-0.3l-2.62 0c-0.16,0 -0.3,0.13 -0.3,0.3 0,0.16 0.13,0.3 0.3,0.3z"/>
    <path class="fil4" d="M4.29 2.33l1.31 0c0.16,0 0.3,-0.13 0.3,-0.3 0,-0.16 -0.13,-0.3 -0.3,-0.3l-1.31 0c-0.16,0 -0.3,0.13 -0.3,0.3 0,0.16 0.13,0.3 0.3,0.3z"/>
    <path class="fil4" d="M19.92 4.67l-1.45 0c-0.16,0 -0.3,0.13 -0.3,0.3 0,0.16 0.13,0.3 0.3,0.3l1.45 0c0.16,0 0.3,-0.13 0.3,-0.3 0,-0.16 -0.13,-0.3 -0.3,-0.3z"/>
    <circle class="fil4" cx="17.38" cy="4.97" r="0.33"/>
    <path class="fil4" d="M19.92 5.87l-1.45 0c-0.16,0 -0.3,0.13 -0.3,0.3 0,0.16 0.13,0.3 0.3,0.3l1.45 0c0.16,0 0.3,-0.13 0.3,-0.3 0,-0.16 -0.13,-0.3 -0.3,-0.3z"/>
    <circle class="fil4" cx="17.38" cy="6.18" r="0.33"/>
    <path class="fil4" d="M12.09 16.43l-1.45 0c-0.16,0 -0.3,0.13 -0.3,0.3 0,0.16 0.13,0.3 0.3,0.3l1.45 0c0.16,0 0.3,-0.13 0.3,-0.3 0,-0.16 -0.13,-0.3 -0.3,-0.3z"/>
    <path class="fil4" d="M9.55 16.41c-0.18,0 -0.33,0.15 -0.33,0.33 0,0.18 0.15,0.33 0.33,0.33 0.18,0 0.33,-0.15 0.33,-0.33 0,-0.18 -0.15,-0.33 -0.33,-0.33z"/>
    <path class="fil4" d="M12.09 17.64l-1.45 0c-0.16,0 -0.3,0.13 -0.3,0.3 0,0.16 0.13,0.3 0.3,0.3l1.45 0c0.16,0 0.3,-0.13 0.3,-0.3 0,-0.16 -0.13,-0.3 -0.3,-0.3z"/>
    <circle class="fil4" cx="9.55" cy="17.94" r="0.33"/>
    <path class="fil4" d="M19.92 7.08l-1.45 0c-0.16,0 -0.3,0.13 -0.3,0.3 0,0.16 0.13,0.3 0.3,0.3l1.45 0c0.16,0 0.3,-0.13 0.3,-0.3 0,-0.16 -0.13,-0.3 -0.3,-0.3z"/>
    <path class="fil4" d="M19.92 8.29l-1.45 0c-0.16,0 -0.3,0.13 -0.3,0.3 0,0.16 0.13,0.3 0.3,0.3l1.45 0c0.16,0 0.3,-0.13 0.3,-0.3 0,-0.16 -0.13,-0.3 -0.3,-0.3z"/>
    <circle class="fil4" cx="17.38" cy="8.6" r="0.33"/>
    <path class="fil4" d="M19.92 9.5l-1.45 0c-0.16,0 -0.3,0.13 -0.3,0.3 0,0.16 0.13,0.3 0.3,0.3l1.45 0c0.16,0 0.3,-0.13 0.3,-0.3 0,-0.16 -0.13,-0.3 -0.3,-0.3z"/>
    <path class="fil4" d="M19.92 10.71l-1.45 0c-0.16,0 -0.3,0.13 -0.3,0.3 0,0.16 0.13,0.3 0.3,0.3l1.45 0c0.16,0 0.3,-0.13 0.3,-0.3 0,-0.16 -0.13,-0.3 -0.3,-0.3z"/>
    <path class="fil4" d="M17.38 10.68c-0.18,0 -0.33,0.15 -0.33,0.33 0,0.18 0.15,0.33 0.33,0.33 0.18,0 0.33,-0.15 0.33,-0.33 0,-0.18 -0.15,-0.33 -0.33,-0.33z"/>
    <path class="fil4" d="M8 17.64l-1.11 0 0 -1.69c0,-0.25 -0.2,-0.45 -0.45,-0.45l-1.07 0c-0.25,0 -0.45,0.2 -0.45,0.45l0 1.69 -0.42 0 0 -2.75c0,-0.25 -0.2,-0.45 -0.45,-0.45l-1.07 0c-0.25,0 -0.45,0.2 -0.45,0.45l0 2.75 -0.36 0 0 -0.94c0,-0.25 -0.2,-0.45 -0.45,-0.45l-1.07 0c-0.25,0 -0.45,0.2 -0.45,0.45l0 0.98c-0.09,0.05 -0.15,0.15 -0.15,0.26 0,0.16 0.13,0.3 0.3,0.3l7.7 0c0.16,0 0.3,-0.13 0.3,-0.3 0,-0.16 -0.13,-0.3 -0.3,-0.3zm-2.5 -1.56l0.8 0 0 1.56 -0.8 0 0 -1.56zm-2.41 -1.06l0.8 0 0 2.62 -0.8 0 0 -2.62zm-2.35 1.82l0.8 0 0 0.8 -0.8 0 0 -0.8z"/>
   </g>
  </g>
 </g>
</svg>
