<?xml version="1.0" encoding="UTF-8"?>
<!DOCTYPE svg PUBLIC "-//W3C//DTD SVG 1.1//EN" "http://www.w3.org/Graphics/SVG/1.1/DTD/svg11.dtd">
<!-- Creator: CorelDRAW -->
<svg xmlns="http://www.w3.org/2000/svg" xml:space="preserve" width="5.248mm" height="5.6305mm" version="1.1" style="shape-rendering:geometricPrecision; text-rendering:geometricPrecision; image-rendering:optimizeQuality; fill-rule:evenodd; clip-rule:evenodd"
viewBox="0 0 13.89 14.9"
 xmlns:xlink="http://www.w3.org/1999/xlink"
 xmlns:xodm="http://www.corel.com/coreldraw/odm/2003">
 <defs>
  <style type="text/css">
   <![CDATA[
    .str0 {stroke:#263155;stroke-width:0.56;stroke-miterlimit:22.9256}
    .fil0 {fill:#4DCDC3}
    .fil1 {fill:white;fill-rule:nonzero}
   ]]>
  </style>
 </defs>
 <g id="Layer_x0020_1">
  <metadata id="CorelCorpID_0Corel-Layer"/>
  <g id="_2023175887168">
   <path class="fil0 str0" d="M6.8 14.59c0.05,0.02 0.1,0.03 0.15,0.03 0.05,0 0.1,-0.01 0.15,-0.03 2.18,-0.88 3.76,-2.48 4.81,-4.57 0.58,-1.15 0.97,-2.4 1.23,-3.66 0.31,-1.49 0.45,-3.03 0.48,-4.55 0,-0 0,-0 0,-0.01 0,-0.16 -0.09,-0.3 -0.23,-0.36l-2.49 -1.13c-0.05,-0.02 -0.11,-0.03 -0.16,-0.03 -0.07,0 -0.14,0.02 -0.2,0.05 -1.06,0.62 -2.35,0.91 -3.58,0.91 -1.23,0 -2.51,-0.29 -3.58,-0.91 -0.06,-0.04 -0.13,-0.05 -0.2,-0.05 -0.06,0 -0.11,0.01 -0.16,0.03l-2.49 1.13c-0.14,0.06 -0.23,0.21 -0.23,0.36 0,0 0,0.01 0,0.01 0.03,1.52 0.17,3.06 0.48,4.55 0.26,1.26 0.65,2.51 1.23,3.66 1.05,2.1 2.63,3.69 4.81,4.57l0 0z"/>
   <path class="fil1" d="M11.25 5.16l-4.13 4.42c-0.14,0.15 -0.34,0.24 -0.55,0.25 -0.01,0 -0.02,0 -0.02,0 -0.2,0 -0.39,-0.08 -0.54,-0.22l-1.89 -1.8c-0.32,-0.3 -0.33,-0.8 -0.03,-1.11 0.3,-0.32 0.8,-0.33 1.12,-0.03l1.32 1.25 3.59 -3.84c0.3,-0.32 0.8,-0.34 1.12,-0.04 0.32,0.3 0.34,0.8 0.04,1.11l0 0z"/>
  </g>
 </g>
</svg>
