<?xml version="1.0" encoding="UTF-8"?>
<!DOCTYPE svg PUBLIC "-//W3C//DTD SVG 1.1//EN" "http://www.w3.org/Graphics/SVG/1.1/DTD/svg11.dtd">
<!-- Creator: CorelDRAW -->
<svg xmlns="http://www.w3.org/2000/svg" xml:space="preserve" width="62mm" height="62.0001mm" version="1.1" style="shape-rendering:geometricPrecision; text-rendering:geometricPrecision; image-rendering:optimizeQuality; fill-rule:evenodd; clip-rule:evenodd"
viewBox="0 0 77.92 77.92"
 xmlns:xlink="http://www.w3.org/1999/xlink"
 xmlns:xodm="http://www.corel.com/coreldraw/odm/2003">
 <defs>
  <style type="text/css">
   <![CDATA[
    .fil6 {fill:none}
    .fil0 {fill:#FEFEFE;fill-rule:nonzero}
    .fil4 {fill:#F08421;fill-rule:nonzero}
    .fil3 {fill:#FEDA3F;fill-rule:nonzero}
    .fil5 {fill:#129598;fill-rule:nonzero}
    .fil2 {fill:#195390;fill-rule:nonzero}
    .fil1 {fill:#263155;fill-rule:nonzero}
   ]]>
  </style>
 </defs>
 <g id="Layer_x0020_1">
  <metadata id="CorelCorpID_0Corel-Layer"/>
  <g id="_1820022211872">
   <path class="fil0" d="M72.14 1.26l-66.36 0c-2.5,0 -4.52,2.03 -4.52,4.52l0 66.36c0,2.5 2.03,4.52 4.52,4.52l66.36 0c2.5,0 4.52,-2.03 4.52,-4.52l0 -66.36c0,-2.5 -2.03,-4.52 -4.52,-4.52z"/>
   <path class="fil1" d="M72.14 2.51l-66.36 0c-0.9,0 -1.72,0.37 -2.31,0.96 -0.59,0.59 -0.96,1.41 -0.96,2.31l0 66.36c0,0.9 0.37,1.72 0.96,2.31 0.59,0.59 1.41,0.96 2.31,0.96l66.36 0c0.9,0 1.72,-0.37 2.31,-0.96 0.59,-0.59 0.96,-1.41 0.96,-2.31l0 -66.36c0,-0.9 -0.37,-1.72 -0.96,-2.31 -0.59,-0.59 -1.41,-0.96 -2.31,-0.96zm-66.36 -2.51l66.36 0c1.6,0 3.04,0.65 4.09,1.69 1.05,1.05 1.69,2.49 1.69,4.09l0 66.36c0,1.6 -0.65,3.04 -1.69,4.09 -1.05,1.05 -2.49,1.69 -4.09,1.69l-66.36 0c-1.6,0 -3.04,-0.65 -4.09,-1.69 -1.05,-1.05 -1.69,-2.49 -1.69,-4.09l0 -66.36c0,-1.6 0.65,-3.04 1.69,-4.09 1.05,-1.05 2.49,-1.69 4.09,-1.69z"/>
   <path class="fil1" d="M1.29 17.27c24.09,0.61 75.22,0 75.36,0l0.03 2.5c-0.15,0 -51.33,0.61 -75.45,0l0.06 -2.5z"/>
  </g>
  <path class="fil1" d="M8.8 11.06l1.51 0c0.83,0 1.51,-0.68 1.51,-1.51 0,-0.83 -0.68,-1.51 -1.51,-1.51l-1.51 0c-0.83,0 -1.51,0.68 -1.51,1.51 0,0.83 0.68,1.51 1.51,1.51l-0 0z"/>
  <path class="fil1" d="M16.34 11.06l1.51 0c0.83,0 1.51,-0.68 1.51,-1.51 0,-0.83 -0.68,-1.51 -1.51,-1.51l-1.51 0c-0.83,0 -1.51,0.68 -1.51,1.51 0,0.83 0.68,1.51 1.51,1.51l0 0z"/>
  <path class="fil1" d="M23.88 11.06l1.51 0c0.83,0 1.51,-0.68 1.51,-1.51 0,-0.83 -0.68,-1.51 -1.51,-1.51l-1.51 0c-0.83,0 -1.51,0.68 -1.51,1.51 0,0.83 0.68,1.51 1.51,1.51l0 0z"/>
  <path class="fil2" d="M51.03 11.06l18.1 0c0.83,0 1.51,-0.68 1.51,-1.51 0,-0.83 -0.68,-1.51 -1.51,-1.51l-18.1 0c-0.83,0 -1.51,0.68 -1.51,1.51 0,0.83 0.68,1.51 1.51,1.51l0 0z"/>
  <path class="fil2" d="M67.62 44.74l-16.59 0c-0.83,0 -1.51,0.68 -1.51,1.51 0,0.83 0.68,1.51 1.51,1.51l16.59 -0c0.83,0 1.51,-0.68 1.51,-1.51 0,-0.83 -0.68,-1.51 -1.51,-1.51z"/>
  <path class="fil3" d="M67.62 53.79l-34.69 0c-0.83,0 -1.51,0.68 -1.51,1.51 0,0.83 0.68,1.51 1.51,1.51l34.69 -0c0.83,0 1.51,-0.68 1.51,-1.51 0,-0.83 -0.68,-1.51 -1.51,-1.51z"/>
  <path class="fil1" d="M10.31 56.81l16.59 0c0.83,0 1.51,-0.68 1.51,-1.51 0,-0.83 -0.68,-1.51 -1.51,-1.51l-16.59 0c-0.83,0 -1.51,0.68 -1.51,1.51 0,0.83 0.68,1.51 1.51,1.51l0 -0z"/>
  <path class="fil4" d="M67.62 62.84l-16.59 0c-0.83,0 -1.51,0.68 -1.51,1.51 0,0.83 0.68,1.51 1.51,1.51l16.59 0c0.83,0 1.51,-0.68 1.51,-1.51 0,-0.83 -0.68,-1.51 -1.51,-1.51l0 0z"/>
  <path class="fil5" d="M44.99 62.84l-34.69 0c-0.83,0 -1.51,0.68 -1.51,1.51 0,0.83 0.68,1.51 1.51,1.51l34.69 0c0.83,0 1.51,-0.68 1.51,-1.51 0,-0.83 -0.68,-1.51 -1.51,-1.51l0 0z"/>
  <g id="_1820022202224">
   <path class="fil1" d="M29.49 41.46c0.44,0.44 1.16,0.44 1.61,-0.01l4.74 -4.79c0.44,-0.44 0.44,-1.16 0,-1.6l-4.74 -4.79c-0.44,-0.45 -1.16,-0.45 -1.61,-0.01 -0.45,0.44 -0.45,1.16 -0.01,1.61l3.95 3.99 -3.95 3.99c-0.44,0.44 -0.44,1.16 0.01,1.6l0 0z"/>
   <path class="fil1" d="M15.48 30.27c-0.44,-0.44 -1.16,-0.44 -1.6,0.01l-4.74 4.79c-0.44,0.44 -0.44,1.16 0,1.6l4.74 4.79c0.44,0.45 1.16,0.45 1.6,0.01 0.45,-0.44 0.45,-1.16 0.01,-1.6l-3.95 -3.99 3.95 -3.99c0.44,-0.44 0.44,-1.16 -0.01,-1.61l0 -0z"/>
   <path class="fil2" d="M24.31 27.06l-6.66 16.77c-0.23,0.58 0.05,1.24 0.64,1.47 0.58,0.23 1.24,-0.05 1.47,-0.64l6.66 -16.77c0.23,-0.58 -0.05,-1.24 -0.64,-1.47 -0.58,-0.23 -1.24,0.05 -1.47,0.64z"/>
  </g>
  <rect class="fil6" y="0" width="77.92" height="77.92"/>
 </g>
</svg>
