<?xml version="1.0" encoding="UTF-8"?>
<!DOCTYPE svg PUBLIC "-//W3C//DTD SVG 1.1//EN" "http://www.w3.org/Graphics/SVG/1.1/DTD/svg11.dtd">
<!-- Creator: CorelDRAW -->
<svg xmlns="http://www.w3.org/2000/svg" xml:space="preserve" width="5.6304mm" height="5.6303mm" version="1.1" style="shape-rendering:geometricPrecision; text-rendering:geometricPrecision; image-rendering:optimizeQuality; fill-rule:evenodd; clip-rule:evenodd"
viewBox="0 0 14.05 14.05"
 xmlns:xlink="http://www.w3.org/1999/xlink"
 xmlns:xodm="http://www.corel.com/coreldraw/odm/2003">
 <defs>
  <style type="text/css">
   <![CDATA[
    .str0 {stroke:#263155;stroke-width:0.53;stroke-miterlimit:22.9256}
    .str1 {stroke:#E95050;stroke-width:0.21;stroke-miterlimit:22.9256}
    .fil0 {fill:#4DCDC3;fill-rule:nonzero}
    .fil2 {fill:#E95050;fill-rule:nonzero}
    .fil1 {fill:#FEFEFE;fill-rule:nonzero}
   ]]>
  </style>
 </defs>
 <g id="Layer_x0020_1">
  <metadata id="CorelCorpID_0Corel-Layer"/>
  <g id="_2023559205664">
   <path class="fil0 str0" d="M1.04 8.6c0.39,0.44 0.6,0.94 0.63,1.53l0.03 0.48c0.06,0.94 0.78,1.66 1.72,1.72l0.48 0.03c0.58,0.04 1.09,0.25 1.53,0.63l0.36 0.32c0.7,0.62 1.73,0.62 2.43,0l0.36 -0.32c0.45,-0.39 0.95,-0.6 1.53,-0.63l0.48 -0.03c0.93,-0.06 1.66,-0.79 1.72,-1.72l0.03 -0.48c0.04,-0.59 0.25,-1.09 0.64,-1.53l0.32 -0.36c0.62,-0.71 0.62,-1.73 0,-2.43l-0.32 -0.36c-0.39,-0.44 -0.6,-0.94 -0.63,-1.53l-0.03 -0.48c-0.06,-0.93 -0.79,-1.66 -1.72,-1.72l-0.48 -0.03c-0.59,-0.04 -1.09,-0.25 -1.53,-0.63l-0.36 -0.32c-0.35,-0.31 -0.78,-0.46 -1.22,-0.46 -0.43,0 -0.86,0.15 -1.22,0.46l-0.36 0.32c-0.44,0.39 -0.94,0.59 -1.53,0.63l-0.48 0.03c-0.93,0.06 -1.66,0.79 -1.72,1.72l-0.03 0.48c-0.04,0.58 -0.25,1.09 -0.63,1.53l-0.32 0.36c-0.62,0.7 -0.62,1.73 0,2.43l0.32 0.36z"/>
   <path class="fil1 str0" d="M7.02 2.99c2.22,0 4.03,1.81 4.03,4.03 0,2.22 -1.81,4.03 -4.03,4.03 -2.22,0 -4.03,-1.81 -4.03,-4.03 0,-2.22 1.81,-4.03 4.03,-4.03z"/>
   <path id="Shape" class="fil2 str1" d="M9.33 5.45c-0.29,-0.31 -0.69,-0.48 -1.11,-0.5 -0.42,-0.01 -0.83,0.14 -1.13,0.43l-0.07 0.07c-0.6,-0.64 -1.6,-0.67 -2.24,-0.07 -0.64,0.6 -0.67,1.6 -0.07,2.24l0.16 0.17c-0.07,0.15 -0.04,0.33 0.06,0.46 0.1,0.13 0.26,0.2 0.43,0.18 -0.03,0.15 0.02,0.29 0.12,0.4 0.1,0.11 0.25,0.16 0.39,0.14 -0.03,0.15 0.02,0.29 0.12,0.4 0.1,0.11 0.25,0.16 0.39,0.14 -0.04,0.2 0.06,0.39 0.23,0.49 0.18,0.1 0.39,0.07 0.54,-0.07 0.52,-0.49 0.5,-0.47 0.55,-0.55 0.15,0.07 0.33,0.06 0.47,-0.04 0.14,-0.1 0.21,-0.27 0.19,-0.43 0.15,0.03 0.29,-0.02 0.4,-0.12 0.11,-0.1 0.16,-0.25 0.14,-0.39 0.2,0.04 0.4,-0.06 0.49,-0.24 0.1,-0.18 0.06,-0.4 -0.08,-0.54 0.58,-0.61 0.58,-1.56 0,-2.17l0 0zm-4.23 2.71c-0.11,-0.11 -0.1,-0.29 0.01,-0.4l0.47 -0.45c0.11,-0.1 0.29,-0.1 0.4,0.01 0.11,0.11 0.1,0.29 -0.01,0.4l-0.47 0.45c-0.11,0.11 -0.29,0.1 -0.4,-0.01zm0.51 0.54c-0.11,-0.11 -0.1,-0.29 0.01,-0.4l0.47 -0.45c0.11,-0.11 0.29,-0.1 0.4,0.01 0.11,0.11 0.1,0.29 -0.01,0.4l-0.47 0.45c-0.11,0.11 -0.29,0.1 -0.4,-0.01l0 0zm0.51 0.54c-0.11,-0.11 -0.1,-0.29 0.01,-0.4l0.47 -0.45c0.11,-0.1 0.29,-0.09 0.39,0.02 0.1,0.11 0.1,0.28 -0,0.39l-0.47 0.45c-0.11,0.11 -0.29,0.1 -0.4,-0.01l0 0zm0.91 0.55c-0.07,0.07 -0.18,0.09 -0.27,0.06 -0.1,-0.03 -0.17,-0.11 -0.19,-0.2 -0.02,-0.1 0.01,-0.2 0.08,-0.27l0.47 -0.45c0.11,-0.1 0.29,-0.1 0.4,0.01 0.11,0.11 0.1,0.29 -0.01,0.4l-0.47 0.45zm2.16 -1.65c-0.05,0.05 -0.13,0.08 -0.2,0.08 -0.07,-0 -0.15,-0.03 -0.2,-0.09l-1.22 -1.29c-0.03,-0.04 -0.09,-0.04 -0.13,-0 -0.04,0.03 -0.04,0.09 -0,0.13l1.22 1.29c0.07,0.07 0.09,0.18 0.07,0.27 -0.03,0.1 -0.11,0.17 -0.2,0.19 -0.1,0.02 -0.2,-0.01 -0.27,-0.08l-1.22 -1.29c-0.02,-0.02 -0.06,-0.03 -0.09,-0.03 -0.03,0.01 -0.06,0.03 -0.07,0.06 -0.01,0.03 -0,0.07 0.02,0.09l1.22 1.29c0.1,0.1 0.1,0.26 0.02,0.37 -0.09,0.11 -0.24,0.14 -0.36,0.07 0.02,-0.13 -0.02,-0.26 -0.1,-0.36 -0.08,-0.1 -0.21,-0.16 -0.34,-0.16 -0.1,-0 -0.06,0.04 -0.06,-0.07 0,-0.12 -0.04,-0.24 -0.13,-0.33 -0.08,-0.09 -0.2,-0.14 -0.32,-0.15 -0.1,-0 -0.06,0.04 -0.06,-0.06 0,-0.12 -0.04,-0.24 -0.13,-0.33 -0.08,-0.09 -0.2,-0.14 -0.32,-0.15 -0.1,-0 -0.06,0.04 -0.06,-0.06 0,-0.19 -0.1,-0.36 -0.27,-0.44 -0.17,-0.08 -0.37,-0.04 -0.51,0.09 -0.65,0.62 -0.43,0.4 -0.48,0.45l-0.13 -0.14c-0.53,-0.56 -0.5,-1.45 0.06,-1.98 0.56,-0.53 1.45,-0.5 1.98,0.06l-0.75 0.71c-0.07,0.07 -0.11,0.16 -0.12,0.26 -0.01,0.37 0.55,0.61 0.89,0.29l0.68 -0.64c0.02,-0.02 0.04,-0.03 0.07,-0.02 0.02,0 0.05,0.01 0.06,0.03 0.18,0.19 1.3,1.38 1.47,1.56 0.05,0.05 0.08,0.13 0.08,0.2 -0,0.07 -0.03,0.15 -0.09,0.2l0 0zm0.02 -0.66l-1.35 -1.43c-0.05,-0.05 -0.12,-0.08 -0.19,-0.09 -0.07,-0 -0.14,0.02 -0.2,0.07l-0.68 0.64c-0.07,0.07 -0.17,0.11 -0.27,0.1 -0.1,-0 -0.19,-0.05 -0.26,-0.12 -0.03,-0.04 -0.05,-0.08 -0.05,-0.13 0,-0.05 0.02,-0.1 0.06,-0.13l0.95 -0.9c0.55,-0.52 1.41,-0.51 1.95,0.02 0.54,0.53 0.55,1.4 0.04,1.95l0 0z"/>
  </g>
 </g>
</svg>
