<?xml version="1.0" encoding="UTF-8"?>
<!DOCTYPE svg PUBLIC "-//W3C//DTD SVG 1.1//EN" "http://www.w3.org/Graphics/SVG/1.1/DTD/svg11.dtd">
<!-- Creator: CorelDRAW -->
<svg xmlns="http://www.w3.org/2000/svg" xml:space="preserve" width="5.5497mm" height="5.5497mm" version="1.1" style="shape-rendering:geometricPrecision; text-rendering:geometricPrecision; image-rendering:optimizeQuality; fill-rule:evenodd; clip-rule:evenodd"
viewBox="0 0 73.88 73.88"
 xmlns:xlink="http://www.w3.org/1999/xlink"
 xmlns:xodm="http://www.corel.com/coreldraw/odm/2003">
 <defs>
  <style type="text/css">
   <![CDATA[
    .str0 {stroke:#263155;stroke-width:1.92;stroke-miterlimit:22.9256}
    .str1 {stroke:#FA8825;stroke-width:1.92;stroke-miterlimit:22.9256}
    .str3 {stroke:#FA8825;stroke-width:1.58;stroke-miterlimit:22.9256}
    .str2 {stroke:#FA8825;stroke-width:1.69;stroke-miterlimit:22.9256}
    .fil0 {fill:#263155;fill-rule:nonzero}
    .fil1 {fill:black;fill-rule:nonzero}
    .fil2 {fill:#FA8825;fill-rule:nonzero}
   ]]>
  </style>
 </defs>
 <g id="Layer_x0020_1">
  <metadata id="CorelCorpID_0Corel-Layer"/>
  <g id="_2023029818208">
   <path class="fil0 str0" d="M43.7 9.79c0.59,0.18 1.2,-0.17 1.34,-0.76 0.13,-0.54 -0.18,-1.09 -0.71,-1.26l-0.11 -0.03 -0.2 -0.06 -0.2 -0.06 -0.2 -0.06 -0.2 -0.06 -0.2 -0.05 -0.2 -0.05 -0.2 -0.05 -0.2 -0.05 -0.2 -0.05 -0.2 -0.05 -0.2 -0.05 -0.2 -0.05 -0.2 -0.05 -0.2 -0.05 -0.2 -0.04 -0.2 -0.04 -0.2 -0.04 -0.2 -0.04 -0.21 -0.04 -0.21 -0.04 -0.21 -0.04 -0.21 -0.03 -0.21 -0.03 -0.21 -0.03 -0.21 -0.03 -0.21 -0.03 -0.21 -0.03 -0.21 -0.03 -0.21 -0.03 -0.21 -0.03 -0.21 -0.02 -0.21 -0.02 -0.21 -0.02 -0.21 -0.02 -0.21 -0.02 -0.21 -0.02 -0.21 -0.01 -0.21 -0.01 -0.21 -0.01 -0.21 -0.01 -0.21 -0.01 -0.21 -0.01 -0.21 -0.01 -0.21 -0.01 -0.21 -0 -0.22 -0 -0.21 -0 -0.22 -0c-0.5,0 -1,0.01 -1.5,0.03 -0.57,0.03 -1.13,0.07 -1.7,0.12 -0.56,0.05 -1.11,0.12 -1.67,0.2 -0.55,0.08 -1.1,0.18 -1.65,0.28 -0.54,0.11 -1.08,0.23 -1.62,0.36 -0.6,0.15 -1.19,0.32 -1.78,0.5 -0.52,0.17 -1.04,0.34 -1.55,0.52 -0.51,0.19 -1.01,0.39 -1.52,0.6 -0.5,0.21 -0.99,0.43 -1.48,0.67 -0.55,0.27 -1.08,0.54 -1.61,0.83 -0.47,0.26 -0.93,0.53 -1.39,0.81 -0.51,0.32 -1.01,0.65 -1.51,0.99 -0.38,0.27 -0.76,0.54 -1.14,0.82 -0.53,0.41 -1.05,0.82 -1.56,1.26 -0.46,0.39 -0.9,0.79 -1.34,1.21 -0.43,0.42 -0.85,0.84 -1.27,1.28 -0.41,0.44 -0.81,0.88 -1.2,1.34 -0.34,0.41 -0.68,0.82 -1,1.25 -0.33,0.43 -0.64,0.85 -0.95,1.3 -0.34,0.5 -0.67,1 -0.99,1.51 -0.28,0.46 -0.55,0.92 -0.81,1.39 -0.26,0.47 -0.51,0.95 -0.75,1.43 -0.21,0.43 -0.4,0.85 -0.6,1.29 -0.24,0.56 -0.47,1.12 -0.69,1.7 -0.19,0.51 -0.37,1.03 -0.53,1.55 -0.17,0.52 -0.32,1.05 -0.46,1.58 -0.14,0.54 -0.26,1.07 -0.38,1.61 -0.11,0.55 -0.21,1.09 -0.3,1.64 -0.08,0.48 -0.14,0.97 -0.2,1.46 -0.06,0.56 -0.11,1.12 -0.15,1.69 -0.02,0.28 -0.03,0.57 -0.04,0.85 -0.01,0.43 -0.02,0.86 -0.02,1.29 0,0.5 0.01,1 0.03,1.5 0.03,0.57 0.07,1.13 0.12,1.7 0.05,0.49 0.11,0.98 0.17,1.46 0.08,0.55 0.17,1.1 0.27,1.65 0.11,0.54 0.22,1.08 0.35,1.62 0.13,0.54 0.27,1.06 0.43,1.59 0.14,0.46 0.28,0.91 0.44,1.37 0.18,0.52 0.37,1.02 0.57,1.53 0.2,0.5 0.42,1 0.64,1.49 0.26,0.55 0.52,1.09 0.8,1.63 0.28,0.54 0.58,1.06 0.89,1.58 0.31,0.52 0.63,1.02 0.97,1.52 0.3,0.44 0.61,0.88 0.93,1.31 0.36,0.48 0.73,0.95 1.12,1.41 0.33,0.4 0.67,0.78 1.02,1.16 0.32,0.35 0.83,0.44 1.25,0.23 0.63,-0.32 0.78,-1.14 0.3,-1.66 -0.5,-0.54 -0.97,-1.1 -1.43,-1.67 -0.43,-0.54 -0.84,-1.09 -1.23,-1.66 -0.36,-0.52 -0.7,-1.04 -1.03,-1.58 -0.29,-0.49 -0.57,-0.97 -0.84,-1.47 -0.27,-0.5 -0.52,-1.01 -0.76,-1.52 -0.24,-0.52 -0.47,-1.04 -0.68,-1.57 -0.21,-0.53 -0.41,-1.07 -0.6,-1.61 -0.18,-0.55 -0.35,-1.1 -0.51,-1.65 -0.12,-0.44 -0.23,-0.87 -0.33,-1.31 -0.15,-0.64 -0.27,-1.27 -0.38,-1.91 -0.09,-0.58 -0.17,-1.16 -0.24,-1.75 -0.06,-0.53 -0.1,-1.05 -0.13,-1.58 -0.01,-0.27 -0.03,-0.53 -0.04,-0.8 -0.01,-0.34 -0.01,-0.67 -0.02,-1.01 0,-0.47 0.01,-0.94 0.03,-1.41 0.03,-0.6 0.07,-1.19 0.13,-1.79 0.05,-0.52 0.12,-1.04 0.2,-1.56 0.09,-0.58 0.19,-1.15 0.31,-1.73 0.12,-0.57 0.26,-1.13 0.41,-1.69 0.15,-0.56 0.32,-1.11 0.5,-1.66 0.16,-0.48 0.33,-0.96 0.52,-1.44 0.23,-0.59 0.48,-1.17 0.74,-1.75 0.21,-0.46 0.43,-0.91 0.67,-1.36 0.29,-0.56 0.6,-1.1 0.92,-1.65 0.29,-0.48 0.59,-0.96 0.91,-1.43 0.32,-0.47 0.64,-0.92 0.98,-1.37 0.34,-0.45 0.69,-0.89 1.05,-1.32 0.37,-0.43 0.74,-0.85 1.12,-1.26 0.39,-0.41 0.78,-0.81 1.19,-1.2 0.41,-0.39 0.82,-0.76 1.25,-1.13 0.43,-0.37 0.86,-0.72 1.31,-1.06 0.45,-0.34 0.9,-0.67 1.37,-0.99 0.42,-0.28 0.83,-0.56 1.26,-0.82 0.54,-0.33 1.08,-0.64 1.63,-0.94 0.39,-0.21 0.78,-0.41 1.18,-0.6 0.63,-0.3 1.26,-0.58 1.91,-0.84 0.53,-0.21 1.07,-0.41 1.61,-0.6 0.55,-0.18 1.1,-0.35 1.65,-0.51 0.5,-0.14 1,-0.26 1.5,-0.38 0.51,-0.11 1.01,-0.21 1.53,-0.3 0.52,-0.09 1.03,-0.16 1.55,-0.23 0.53,-0.06 1.05,-0.11 1.58,-0.15 0.27,-0.02 0.53,-0.03 0.8,-0.05 0.47,-0.02 0.94,-0.03 1.41,-0.03l0.2 0 0.2 0 0.2 0 0.2 0 0.2 0.01 0.2 0.01 0.2 0.01 0.2 0.01 0.2 0.01 0.2 0.01 0.2 0.01 0.2 0.01 0.2 0.02 0.2 0.02 0.2 0.02 0.2 0.02 0.2 0.02 0.2 0.02 0.2 0.02 0.19 0.02 0.2 0.03 0.19 0.03 0.19 0.03 0.19 0.03 0.19 0.03 0.19 0.03 0.19 0.03 0.19 0.03 0.19 0.03 0.19 0.04 0.19 0.04 0.19 0.04 0.19 0.04 0.19 0.04 0.19 0.04 0.19 0.04 0.19 0.05 0.19 0.05 0.19 0.05 0.19 0.05 0.19 0.05 0.19 0.05 0.19 0.05 0.19 0.05 0.19 0.05 0.18 0.05 0.19 0.06 0.18 0.06 0.11 0.03zm-28.95 54.14c-0.3,-0.24 -0.71,-0.3 -1.07,-0.15 -0.74,0.31 -0.88,1.3 -0.25,1.8 0.51,0.41 1.03,0.8 1.56,1.18 0.49,0.35 0.99,0.68 1.5,1.01 0.46,0.29 0.91,0.56 1.38,0.83 0.47,0.26 0.94,0.52 1.42,0.76 0.48,0.24 0.97,0.47 1.46,0.69 0.5,0.22 0.99,0.43 1.5,0.62 0.51,0.2 1.02,0.38 1.54,0.55 0.52,0.17 1.04,0.33 1.57,0.48 0.53,0.15 1.06,0.28 1.6,0.4 0.54,0.12 1.08,0.23 1.63,0.32 0.48,0.08 0.96,0.15 1.45,0.22 0.63,0.08 1.26,0.14 1.89,0.19 0.43,0.03 0.85,0.05 1.28,0.06 0.36,0.01 0.71,0.02 1.07,0.02 0.5,-0 1,-0.01 1.5,-0.03 0.57,-0.03 1.13,-0.07 1.7,-0.12 0.49,-0.05 0.97,-0.11 1.46,-0.17 0.55,-0.08 1.1,-0.17 1.65,-0.27 0.54,-0.11 1.08,-0.22 1.62,-0.35 0.54,-0.13 1.06,-0.27 1.59,-0.43 0.52,-0.16 1.04,-0.33 1.56,-0.51 0.51,-0.18 1.02,-0.38 1.52,-0.58 0.5,-0.21 0.99,-0.42 1.49,-0.65 0.49,-0.23 0.97,-0.47 1.45,-0.72 0.42,-0.22 0.83,-0.45 1.23,-0.68 0.52,-0.31 1.03,-0.62 1.54,-0.95 0.5,-0.33 0.99,-0.68 1.48,-1.03 0.48,-0.36 0.95,-0.73 1.42,-1.11 0.46,-0.38 0.91,-0.78 1.36,-1.18 0.44,-0.41 0.87,-0.82 1.29,-1.25 0.33,-0.34 0.64,-0.67 0.96,-1.02 0.45,-0.5 0.87,-1 1.29,-1.53 0.33,-0.42 0.65,-0.84 0.97,-1.28 0.31,-0.44 0.61,-0.87 0.91,-1.32 0.29,-0.45 0.57,-0.91 0.84,-1.37 0.27,-0.47 0.53,-0.93 0.78,-1.41 0.25,-0.48 0.48,-0.96 0.71,-1.45 0.22,-0.49 0.44,-0.99 0.64,-1.49 0.2,-0.51 0.39,-1.01 0.57,-1.53 0.18,-0.52 0.34,-1.04 0.5,-1.56 0.13,-0.46 0.26,-0.93 0.37,-1.39 0.15,-0.61 0.28,-1.21 0.39,-1.83 0.09,-0.48 0.17,-0.96 0.23,-1.44 0.08,-0.56 0.14,-1.11 0.19,-1.68 0.05,-0.57 0.08,-1.13 0.11,-1.7 0.02,-0.43 0.02,-0.86 0.03,-1.29 -0.01,-0.78 -0.82,-1.29 -1.53,-0.95 -0.36,0.18 -0.58,0.54 -0.59,0.95 -0,0.47 -0.01,0.94 -0.03,1.41 -0.03,0.6 -0.07,1.19 -0.13,1.79 -0.05,0.46 -0.1,0.91 -0.17,1.37 -0.1,0.65 -0.21,1.28 -0.34,1.92 -0.12,0.57 -0.26,1.13 -0.41,1.69 -0.15,0.56 -0.32,1.11 -0.5,1.66 -0.16,0.48 -0.33,0.96 -0.52,1.44 -0.23,0.59 -0.48,1.17 -0.74,1.75 -0.21,0.46 -0.43,0.91 -0.67,1.36 -0.26,0.5 -0.54,0.99 -0.82,1.48 -0.26,0.43 -0.52,0.86 -0.8,1.28 -0.35,0.52 -0.7,1.03 -1.08,1.54 -0.3,0.4 -0.61,0.79 -0.93,1.18 -0.4,0.48 -0.81,0.95 -1.24,1.41 -0.43,0.46 -0.86,0.9 -1.32,1.33 -0.46,0.43 -0.92,0.85 -1.39,1.25 -0.43,0.36 -0.87,0.71 -1.32,1.05 -0.5,0.38 -1.01,0.74 -1.53,1.09 -0.42,0.28 -0.84,0.55 -1.27,0.81 -0.54,0.32 -1.09,0.63 -1.65,0.92 -0.39,0.2 -0.79,0.4 -1.19,0.59 -0.58,0.27 -1.15,0.52 -1.75,0.75 -0.48,0.19 -0.95,0.36 -1.44,0.52 -0.61,0.21 -1.22,0.39 -1.84,0.56 -0.56,0.15 -1.12,0.28 -1.69,0.41 -0.58,0.12 -1.15,0.22 -1.73,0.31 -0.46,0.07 -0.91,0.13 -1.37,0.18 -0.6,0.06 -1.18,0.11 -1.78,0.14 -0.54,0.03 -1.07,0.04 -1.61,0.04 -0.47,-0 -0.94,-0.01 -1.41,-0.03 -0.6,-0.03 -1.19,-0.07 -1.79,-0.13 -0.52,-0.05 -1.04,-0.12 -1.56,-0.2 -0.58,-0.09 -1.15,-0.19 -1.73,-0.31 -0.51,-0.11 -1.01,-0.23 -1.51,-0.36 -0.56,-0.15 -1.11,-0.31 -1.66,-0.49 -0.55,-0.18 -1.08,-0.37 -1.62,-0.58 -0.53,-0.21 -1.06,-0.43 -1.58,-0.66 -0.46,-0.21 -0.91,-0.43 -1.37,-0.66 -0.56,-0.29 -1.11,-0.59 -1.65,-0.91 -0.49,-0.29 -0.96,-0.59 -1.44,-0.9 -0.47,-0.31 -0.93,-0.64 -1.38,-0.97 -0.29,-0.22 -0.58,-0.44 -0.87,-0.67z"/>
   <path class="fil0 str0" d="M57.22 31.65c-0.25,-0.73 -1.16,-0.94 -1.72,-0.41 -0.29,0.29 -0.4,0.71 -0.26,1.1 0.31,0.88 0.55,1.77 0.75,2.68 0.12,0.58 0.22,1.16 0.3,1.75 0.07,0.6 0.13,1.18 0.16,1.78 0.02,0.56 0.03,1.11 0.01,1.67 -0.02,0.57 -0.06,1.12 -0.11,1.69 -0.02,0.19 -0.04,0.38 -0.07,0.57 -0.08,0.57 -0.17,1.12 -0.28,1.68 -0.12,0.55 -0.25,1.09 -0.41,1.63 -0.14,0.49 -0.3,0.97 -0.47,1.44 -0.21,0.56 -0.43,1.1 -0.68,1.64 -0.21,0.45 -0.43,0.89 -0.67,1.33 -0.3,0.56 -0.63,1.09 -0.97,1.61 -0.15,0.22 -0.3,0.44 -0.46,0.66 -0.55,0.77 -1.14,1.48 -1.78,2.17 -0.43,0.46 -0.86,0.89 -1.32,1.31 -0.43,0.39 -0.87,0.76 -1.32,1.11 -0.5,0.38 -0.99,0.74 -1.52,1.08 -0.52,0.34 -1.05,0.65 -1.6,0.95 -0.47,0.25 -0.95,0.49 -1.44,0.71 -0.58,0.26 -1.15,0.48 -1.74,0.69 -0.55,0.19 -1.1,0.36 -1.67,0.51 -0.57,0.15 -1.14,0.27 -1.72,0.38 -0.5,0.09 -0.99,0.16 -1.49,0.21 -0.64,0.07 -1.28,0.11 -1.93,0.13 -0.56,0.01 -1.12,0 -1.68,-0.03 -0.57,-0.03 -1.13,-0.09 -1.7,-0.16 -0.57,-0.08 -1.12,-0.17 -1.68,-0.28 -0.55,-0.12 -1.09,-0.25 -1.63,-0.41 -0.58,-0.17 -1.14,-0.36 -1.7,-0.57 -0.51,-0.2 -1.01,-0.41 -1.51,-0.64 -0.53,-0.25 -1.05,-0.52 -1.56,-0.81 -0.51,-0.29 -1,-0.6 -1.48,-0.93 -0.48,-0.33 -0.94,-0.67 -1.4,-1.04 -0.49,-0.39 -0.95,-0.8 -1.41,-1.23 -0.42,-0.4 -0.82,-0.81 -1.21,-1.24 -0.45,-0.5 -0.86,-1.01 -1.27,-1.54 -0.37,-0.5 -0.72,-1.01 -1.05,-1.54 -0.33,-0.53 -0.64,-1.07 -0.92,-1.62 -0.29,-0.56 -0.55,-1.12 -0.79,-1.7 -0.24,-0.58 -0.45,-1.16 -0.64,-1.77 -0.18,-0.56 -0.33,-1.12 -0.46,-1.69 -0.13,-0.58 -0.24,-1.15 -0.33,-1.74 -0.08,-0.55 -0.14,-1.08 -0.18,-1.63 -0.04,-0.56 -0.06,-1.11 -0.06,-1.66 0,-0.47 0.02,-0.93 0.05,-1.4 0.03,-0.48 0.08,-0.94 0.14,-1.42l0.02 -0.13c0.11,-0.8 -0.7,-1.42 -1.45,-1.11 -0.34,0.15 -0.58,0.45 -0.63,0.82l-0.02 0.14c-0.07,0.52 -0.12,1.03 -0.15,1.55 -0.04,0.57 -0.05,1.12 -0.05,1.69 0,0.51 0.02,1.01 0.05,1.52 0.04,0.6 0.1,1.2 0.19,1.79 0.09,0.59 0.19,1.17 0.32,1.76 0.12,0.53 0.25,1.05 0.4,1.58 0.14,0.47 0.29,0.94 0.45,1.4 0.23,0.65 0.49,1.27 0.77,1.9 0.19,0.4 0.38,0.79 0.58,1.18 0.3,0.56 0.61,1.1 0.94,1.64 0.31,0.5 0.64,0.97 0.98,1.45 0.38,0.51 0.76,1 1.17,1.48 0.29,0.33 0.58,0.65 0.88,0.97 0.54,0.56 1.1,1.09 1.69,1.61 0.45,0.38 0.9,0.75 1.37,1.1 0.47,0.35 0.95,0.68 1.45,1 0.38,0.24 0.75,0.46 1.14,0.68 0.61,0.34 1.22,0.65 1.85,0.94 0.55,0.25 1.1,0.47 1.66,0.68 0.57,0.21 1.14,0.39 1.73,0.56 0.49,0.14 0.99,0.26 1.49,0.37 0.56,0.12 1.11,0.22 1.68,0.3l0.31 0.04c0.52,0.07 1.03,0.12 1.55,0.15 0.57,0.04 1.12,0.05 1.69,0.05 0.51,-0 1.01,-0.02 1.52,-0.05 0.55,-0.04 1.1,-0.09 1.65,-0.17 0.54,-0.08 1.08,-0.17 1.62,-0.28 0.58,-0.12 1.15,-0.26 1.73,-0.42 0.52,-0.15 1.03,-0.31 1.54,-0.49 0.6,-0.22 1.18,-0.45 1.77,-0.71 0.54,-0.24 1.05,-0.5 1.57,-0.77 0.52,-0.28 1.01,-0.57 1.51,-0.88 0.45,-0.29 0.89,-0.59 1.32,-0.9 0.51,-0.38 1,-0.76 1.48,-1.17 0.44,-0.38 0.87,-0.77 1.28,-1.18 0.42,-0.41 0.81,-0.83 1.2,-1.28 0.39,-0.44 0.75,-0.89 1.11,-1.36 0.35,-0.47 0.69,-0.95 1.01,-1.44 0.29,-0.46 0.57,-0.92 0.83,-1.39 0.29,-0.52 0.56,-1.05 0.81,-1.59 0.25,-0.55 0.48,-1.09 0.69,-1.66 0.21,-0.57 0.4,-1.14 0.57,-1.72 0.16,-0.54 0.29,-1.08 0.41,-1.63 0.12,-0.56 0.22,-1.11 0.3,-1.68l0.04 -0.31c0.07,-0.52 0.12,-1.03 0.15,-1.55 0.04,-0.57 0.05,-1.12 0.05,-1.69 -0,-0.56 -0.02,-1.11 -0.06,-1.67 -0.04,-0.55 -0.1,-1.09 -0.18,-1.64 -0.07,-0.5 -0.16,-0.98 -0.25,-1.47 -0.13,-0.63 -0.28,-1.25 -0.46,-1.87 -0.12,-0.4 -0.24,-0.8 -0.38,-1.2zm-45.73 -0.32c-0.13,0.35 -0.06,0.73 0.17,1.03 0.52,0.63 1.51,0.46 1.79,-0.3 0.26,-0.72 0.56,-1.42 0.89,-2.12 0.26,-0.53 0.53,-1.04 0.83,-1.55 0.3,-0.5 0.61,-0.99 0.95,-1.47 0.34,-0.48 0.68,-0.93 1.05,-1.38 0.37,-0.45 0.75,-0.88 1.15,-1.3 0.47,-0.48 0.94,-0.93 1.45,-1.37 0.47,-0.41 0.95,-0.79 1.46,-1.16 0.51,-0.37 1.02,-0.71 1.55,-1.04 0.54,-0.32 1.07,-0.62 1.63,-0.9 0.56,-0.28 1.12,-0.53 1.71,-0.77 0.54,-0.22 1.09,-0.41 1.64,-0.58 0.56,-0.17 1.12,-0.32 1.69,-0.45 0.62,-0.14 1.24,-0.25 1.87,-0.34 0.55,-0.07 1.09,-0.13 1.64,-0.16 0.61,-0.03 1.2,-0.05 1.81,-0.03 0.52,0.01 1.03,0.04 1.55,0.09 0.28,0.03 0.57,0.06 0.85,0.1 0.77,0.1 1.38,-0.64 1.13,-1.38 -0.13,-0.38 -0.46,-0.64 -0.85,-0.7 -0.52,-0.07 -1.03,-0.12 -1.55,-0.15 -0.57,-0.04 -1.12,-0.05 -1.69,-0.05 -0.56,0 -1.11,0.02 -1.67,0.06 -0.6,0.05 -1.19,0.11 -1.79,0.2 -0.44,0.07 -0.88,0.14 -1.32,0.23 -0.73,0.15 -1.44,0.33 -2.15,0.55 -0.56,0.17 -1.12,0.36 -1.67,0.57 -0.55,0.21 -1.08,0.44 -1.61,0.69 -0.53,0.25 -1.04,0.52 -1.56,0.8 -0.55,0.31 -1.08,0.64 -1.61,0.99 -0.49,0.33 -0.95,0.66 -1.42,1.02 -0.5,0.39 -0.98,0.79 -1.45,1.22 -0.47,0.43 -0.91,0.87 -1.35,1.33 -0.44,0.46 -0.85,0.94 -1.25,1.43 -0.37,0.46 -0.71,0.93 -1.05,1.41 -0.34,0.49 -0.65,0.98 -0.95,1.49 -0.22,0.38 -0.44,0.77 -0.64,1.17 -0.3,0.58 -0.56,1.16 -0.82,1.76 -0.15,0.36 -0.29,0.72 -0.42,1.08z"/>
   <path class="fil0 str0" d="M34.3 55.18c-4.3,0 -8.2,-1.75 -11.02,-4.57 -2.82,-2.82 -4.57,-6.72 -4.57,-11.02 0,-4.3 1.75,-8.2 4.57,-11.02 2.82,-2.82 6.72,-4.57 11.02,-4.57 4.3,0 8.2,1.75 11.02,4.57 2.82,2.82 4.57,6.72 4.57,11.02 0,4.3 -1.75,8.2 -4.57,11.02 -2.82,2.82 -6.72,4.57 -11.02,4.57zm-9.53 -6.07c2.44,2.44 5.81,3.95 9.53,3.95 3.72,0 7.09,-1.51 9.53,-3.95 2.44,-2.44 3.95,-5.81 3.95,-9.53 0,-3.72 -1.51,-7.09 -3.95,-9.53 -2.44,-2.44 -5.81,-3.95 -9.53,-3.95 -3.72,0 -7.09,1.51 -9.53,3.95 -2.44,2.44 -3.95,5.81 -3.95,9.53 0,3.72 1.51,7.09 3.95,9.53z"/>
   <path class="fil1" d="M31.05 42.84c0.83,0.83 1.98,1.35 3.25,1.35 1.27,0 2.42,-0.52 3.25,-1.35 0.83,-0.83 1.35,-1.98 1.35,-3.25 0,-1.27 -0.52,-2.42 -1.35,-3.25 -0.83,-0.83 -1.98,-1.35 -3.25,-1.35 -1.27,0 -2.42,0.52 -3.25,1.35 -0.83,0.83 -1.35,1.98 -1.35,3.25 0,1.27 0.52,2.42 1.35,3.25z"/>
   <path class="fil2 str1" d="M34.3 44.26c-1.29,0 -2.46,-0.52 -3.3,-1.37 -0.85,-0.85 -1.37,-2.02 -1.37,-3.3 0,-1.29 0.52,-2.46 1.37,-3.3 0.85,-0.85 2.02,-1.37 3.3,-1.37 1.29,0 2.46,0.52 3.3,1.37 0.85,0.85 1.37,2.02 1.37,3.3 0,1.29 -0.52,2.46 -1.37,3.3 -0.85,0.85 -2.02,1.37 -3.3,1.37z"/>
   <path class="fil2 str2" d="M35.05 40.33c-0.41,0.41 -1.08,0.41 -1.49,0 -0.41,-0.41 -0.41,-1.08 0,-1.49l35.28 -35.28c0.41,-0.41 1.08,-0.41 1.49,0 0.41,0.41 0.41,1.08 0,1.49l-35.28 35.28z"/>
   <path class="fil2 str3" d="M64.11 3.61l-6.21 6.21c-0.05,0.05 -0.08,0.1 -0.1,0.15 -0.02,0.06 -0.03,0.12 -0.03,0.19l0.26 4.2 6.36 -6.36 -0.28 -4.4zm-7.71 4.72l7.08 -7.08c0.29,-0.29 0.64,-0.43 1,-0.45l0 0c0.22,-0.01 0.44,0.02 0.64,0.1 0.21,0.08 0.4,0.2 0.56,0.35 0.25,0.25 0.42,0.6 0.45,1l0.38 6.04c0.04,0.31 -0.06,0.64 -0.3,0.88l-8.34 8.34 -0 -0c-0.17,0.18 -0.41,0.29 -0.68,0.31 -0.58,0.04 -1.08,-0.4 -1.12,-0.99l-0.41 -6.54c-0.02,-0.36 0.03,-0.73 0.16,-1.06 0.13,-0.34 0.33,-0.65 0.58,-0.91z"/>
   <path class="fil2 str3" d="M65.56 17.48c-0.26,0.26 -0.57,0.45 -0.91,0.58 -0.33,0.13 -0.69,0.18 -1.06,0.16l-6.54 -0.41c-0.58,-0.04 -1.02,-0.54 -0.99,-1.12 0.02,-0.27 0.13,-0.5 0.31,-0.68l-0 -0 8.34 -8.34c0.24,-0.24 0.57,-0.34 0.88,-0.3l6.04 0.38c0.4,0.03 0.75,0.2 1,0.45 0.16,0.16 0.28,0.35 0.36,0.56 0.08,0.21 0.11,0.42 0.1,0.65 -0.09,1.41 -6.49,7.04 -7.54,8.09zm-1.49 -1.49l6.21 -6.21 -4.4 -0.28 -6.36 6.36 4.2 0.26c0.07,0 0.13,-0.01 0.19,-0.03 0.05,-0.02 0.11,-0.05 0.15,-0.1z"/>
  </g>
 </g>
</svg>
