<?xml version="1.0" encoding="UTF-8"?>
<!DOCTYPE svg PUBLIC "-//W3C//DTD SVG 1.1//EN" "http://www.w3.org/Graphics/SVG/1.1/DTD/svg11.dtd">
<!-- Creator: CorelDRAW -->
<svg xmlns="http://www.w3.org/2000/svg" xml:space="preserve" width="5.4188mm" height="4.8119mm" version="1.1" style="shape-rendering:geometricPrecision; text-rendering:geometricPrecision; image-rendering:optimizeQuality; fill-rule:evenodd; clip-rule:evenodd"
viewBox="0 0 16.65 14.79"
 xmlns:xlink="http://www.w3.org/1999/xlink"
 xmlns:xodm="http://www.corel.com/coreldraw/odm/2003">
 <defs>
  <style type="text/css">
   <![CDATA[
    .fil3 {fill:black;fill-rule:nonzero}
    .fil0 {fill:#4DCDC3;fill-rule:nonzero}
    .fil1 {fill:#A2D6D8;fill-rule:nonzero}
    .fil2 {fill:#E95050;fill-rule:nonzero}
    .fil5 {fill:#FEDA3F;fill-rule:nonzero}
    .fil4 {fill:#FEFEFE;fill-rule:nonzero}
   ]]>
  </style>
 </defs>
 <g id="Layer_x0020_1">
  <metadata id="CorelCorpID_0Corel-Layer"/>
  <g id="_2023556623552">
   <path class="fil0" d="M8.86 0.66l0.96 1.95 2.15 0.31c0.49,0.07 0.69,0.68 0.33,1.03l-1.56 1.52 0.37 2.14c0.08,0.49 -0.43,0.87 -0.87,0.63l-1.92 -1.01 -1.92 1.01c-0.44,0.23 -0.96,-0.14 -0.87,-0.63l0.37 -2.14 -1.56 -1.52c-0.36,-0.35 -0.16,-0.95 0.33,-1.03l2.15 -0.31 0.96 -1.95c0.22,-0.45 0.86,-0.45 1.08,0l0 0z"/>
   <path class="fil1" d="M15.24 5.53l0.1 0.95 0.85 0.46c0.19,0.1 0.18,0.39 -0.02,0.48l-0.88 0.39 -0.17 0.94c-0.04,0.22 -0.31,0.29 -0.46,0.13l-0.65 -0.71 -0.95 0.13c-0.22,0.03 -0.38,-0.2 -0.27,-0.39l0.48 -0.83 -0.42 -0.87c-0.1,-0.2 0.08,-0.42 0.29,-0.37l0.94 0.2 0.69 -0.66c0.16,-0.15 0.42,-0.06 0.45,0.16z"/>
   <path class="fil2" d="M1.41 5.53l-0.1 0.95 -0.85 0.46c-0.19,0.1 -0.18,0.39 0.02,0.48l0.88 0.39 0.17 0.94c0.04,0.22 0.31,0.29 0.46,0.13l0.65 -0.71 0.95 0.13c0.22,0.03 0.38,-0.2 0.27,-0.39l-0.48 -0.83 0.42 -0.87c0.1,-0.2 -0.08,-0.42 -0.29,-0.37l-0.94 0.2 -0.69 -0.66c-0.16,-0.15 -0.42,-0.06 -0.45,0.16l0 0z"/>
   <path class="fil3" d="M5.55 5.58l-0.34 1.97c-0.06,0.35 0.08,0.7 0.37,0.91 0.16,0.12 0.35,0.18 0.54,0.18 0.15,0 0.3,-0.04 0.43,-0.11l1.77 -0.93 1.77 0.93c0.31,0.17 0.69,0.14 0.98,-0.07 0.29,-0.21 0.43,-0.56 0.37,-0.91l-0.34 -1.97 1.43 -1.4c0.25,-0.25 0.34,-0.61 0.23,-0.95 -0.11,-0.34 -0.4,-0.58 -0.75,-0.63l-0.7 -0.1c-0.18,-0.03 -0.34,0.1 -0.37,0.28 -0.03,0.18 0.1,0.34 0.28,0.37l0.7 0.1c0.15,0.02 0.21,0.14 0.22,0.19 0.02,0.05 0.04,0.17 -0.07,0.28l-1.56 1.52c-0.08,0.07 -0.11,0.18 -0.09,0.29l0.37 2.14c0.03,0.15 -0.07,0.24 -0.11,0.27 -0.04,0.03 -0.15,0.09 -0.29,0.02l-1.92 -1.01c-0.09,-0.05 -0.21,-0.05 -0.3,0l-1.92 1.01c-0.14,0.07 -0.25,0.01 -0.29,-0.02 -0.04,-0.03 -0.14,-0.12 -0.11,-0.27l0.37 -2.14c0.02,-0.11 -0.02,-0.21 -0.09,-0.29l-1.56 -1.52c-0.11,-0.11 -0.09,-0.23 -0.07,-0.28 0.02,-0.05 0.07,-0.17 0.22,-0.19l2.15 -0.31c0.11,-0.02 0.2,-0.08 0.24,-0.18l0.96 -1.95c0.07,-0.14 0.2,-0.15 0.25,-0.15 0.05,0 0.18,0.02 0.25,0.15l0.31 0.64c0.08,0.16 0.27,0.23 0.44,0.15 0.16,-0.08 0.23,-0.27 0.15,-0.44l-0.31 -0.64c-0.16,-0.32 -0.48,-0.52 -0.83,-0.52 -0.36,0 -0.67,0.2 -0.83,0.52l-0.89 1.8 -1.98 0.29c-0.35,0.05 -0.64,0.29 -0.75,0.63 -0.11,0.34 -0.02,0.7 0.23,0.95l1.43 1.4z"/>
   <path class="fil3" d="M15.02 9.27c0.22,-0.06 0.38,-0.24 0.42,-0.46l0.14 -0.78 0.72 -0.32c0.21,-0.09 0.34,-0.29 0.35,-0.52 0.01,-0.23 -0.11,-0.43 -0.31,-0.54l-0.69 -0.37 -0.09 -0.78c-0.02,-0.23 -0.17,-0.41 -0.38,-0.49 -0.21,-0.08 -0.45,-0.03 -0.61,0.13l-0.57 0.55 -0.77 -0.16c-0.22,-0.05 -0.45,0.04 -0.59,0.21 -0.14,0.18 -0.17,0.42 -0.07,0.62l0.34 0.71 -0.39 0.68c-0.11,0.2 -0.1,0.44 0.02,0.62 0.13,0.19 0.34,0.29 0.57,0.26l0.78 -0.11 0.53 0.58c0.11,0.13 0.27,0.19 0.44,0.19 0.05,0 0.11,-0.01 0.16,-0.02l0 0zm-0.76 -1.32c-0.06,-0.07 -0.15,-0.11 -0.24,-0.11 -0.01,0 -0.03,0 -0.04,0l-0.83 0.11 0.42 -0.73c0.05,-0.09 0.06,-0.21 0.01,-0.3l-0.36 -0.76 0.82 0.17c0.1,0.02 0.21,-0.01 0.29,-0.08l0.61 -0.58 0.09 0.83c0.01,0.11 0.07,0.2 0.17,0.25l0.74 0.4 -0.77 0.34c-0.1,0.04 -0.17,0.13 -0.19,0.24l-0.15 0.83 -0.56 -0.62z"/>
   <path class="fil3" d="M4.11 8.37c0.13,-0.19 0.14,-0.43 0.02,-0.62l-0.39 -0.69 0.34 -0.71c0.1,-0.2 0.07,-0.44 -0.07,-0.62 -0.14,-0.18 -0.36,-0.26 -0.59,-0.21l-0.77 0.16 -0.57 -0.55c-0.16,-0.16 -0.4,-0.21 -0.61,-0.13 -0.21,0.08 -0.36,0.27 -0.38,0.49l-0.09 0.78 -0.7 0.37c-0.2,0.11 -0.32,0.31 -0.31,0.54 0.01,0.23 0.14,0.42 0.35,0.52l0.72 0.32 0.14 0.78c0.04,0.22 0.2,0.4 0.42,0.46 0.05,0.02 0.11,0.02 0.16,0.02 0.16,0 0.32,-0.07 0.44,-0.19l0.53 -0.58 0.78 0.11c0.22,0.03 0.44,-0.07 0.57,-0.26l0 0zm-1.43 -0.52c-0.11,-0.01 -0.21,0.02 -0.28,0.1l-0.56 0.62 -0.15 -0.83c-0.02,-0.11 -0.09,-0.19 -0.19,-0.24l-0.77 -0.34 0.74 -0.4c0.09,-0.05 0.16,-0.14 0.17,-0.25l0.09 -0.83 0.61 0.58c0.08,0.07 0.19,0.11 0.29,0.08l0.82 -0.17 -0.36 0.76c-0.05,0.1 -0.04,0.21 0.01,0.3l0.42 0.73 -0.83 -0.11z"/>
   <circle class="fil3" cx="9.83" cy="2.61" r="0.33"/>
   <g>
    <path class="fil4" d="M4.79 11.02l-0.1 0.95 -0.85 0.46c-0.19,0.1 -0.18,0.39 0.02,0.48l0.88 0.39 0.17 0.94c0.04,0.22 0.31,0.29 0.46,0.13l0.65 -0.71 0.95 0.13c0.22,0.03 0.38,-0.2 0.27,-0.39l-0.48 -0.83 0.42 -0.87c0.1,-0.2 -0.08,-0.42 -0.29,-0.37l-0.94 0.2 -0.69 -0.66c-0.16,-0.15 -0.42,-0.06 -0.45,0.16l0 0z"/>
    <path class="fil3" d="M7.49 13.86c0.13,-0.19 0.14,-0.43 0.02,-0.62l-0.39 -0.69 0.34 -0.71c0.1,-0.2 0.07,-0.44 -0.07,-0.62 -0.14,-0.18 -0.36,-0.26 -0.59,-0.21l-0.77 0.16 -0.57 -0.55c-0.16,-0.16 -0.4,-0.21 -0.61,-0.13 -0.21,0.08 -0.36,0.27 -0.38,0.49l-0.09 0.78 -0.7 0.37c-0.2,0.11 -0.32,0.31 -0.31,0.54 0.01,0.23 0.14,0.42 0.35,0.52l0.72 0.32 0.14 0.78c0.04,0.22 0.2,0.4 0.42,0.46 0.05,0.02 0.11,0.02 0.16,0.02 0.16,0 0.32,-0.07 0.44,-0.19l0.53 -0.58 0.78 0.11c0.22,0.03 0.44,-0.07 0.57,-0.26l0 0zm-1.43 -0.52c-0.11,-0.01 -0.21,0.02 -0.28,0.1l-0.56 0.62 -0.15 -0.83c-0.02,-0.11 -0.09,-0.19 -0.19,-0.24l-0.77 -0.34 0.74 -0.4c0.09,-0.05 0.16,-0.14 0.17,-0.25l0.09 -0.83 0.61 0.58c0.08,0.07 0.19,0.11 0.29,0.08l0.82 -0.17 -0.36 0.76c-0.05,0.1 -0.04,0.21 0.01,0.3l0.42 0.73 -0.83 -0.11z"/>
   </g>
   <g>
    <path class="fil5" d="M11.86 11.02l0.1 0.95 0.85 0.46c0.19,0.1 0.18,0.39 -0.02,0.48l-0.88 0.39 -0.17 0.94c-0.04,0.22 -0.31,0.29 -0.46,0.13l-0.65 -0.71 -0.95 0.13c-0.22,0.03 -0.38,-0.2 -0.27,-0.39l0.48 -0.83 -0.42 -0.87c-0.1,-0.2 0.08,-0.42 0.29,-0.37l0.94 0.2 0.69 -0.66c0.16,-0.15 0.42,-0.06 0.45,0.16z"/>
    <path class="fil3" d="M11.64 14.76c0.22,-0.06 0.38,-0.24 0.42,-0.46l0.14 -0.78 0.72 -0.32c0.21,-0.09 0.34,-0.29 0.35,-0.52 0.01,-0.23 -0.11,-0.43 -0.31,-0.54l-0.69 -0.37 -0.09 -0.78c-0.02,-0.23 -0.17,-0.41 -0.38,-0.49 -0.21,-0.08 -0.45,-0.03 -0.61,0.13l-0.57 0.55 -0.77 -0.16c-0.22,-0.05 -0.45,0.04 -0.59,0.21 -0.14,0.18 -0.17,0.42 -0.07,0.62l0.34 0.71 -0.39 0.68c-0.11,0.2 -0.1,0.44 0.02,0.62 0.13,0.19 0.34,0.29 0.57,0.26l0.78 -0.11 0.53 0.58c0.11,0.13 0.27,0.19 0.44,0.19 0.05,0 0.11,-0.01 0.16,-0.02l0 0zm-0.76 -1.32c-0.06,-0.07 -0.15,-0.11 -0.24,-0.11 -0.01,0 -0.03,0 -0.04,0l-0.83 0.11 0.42 -0.73c0.05,-0.09 0.06,-0.21 0.01,-0.3l-0.36 -0.76 0.82 0.17c0.1,0.02 0.21,-0.01 0.29,-0.08l0.61 -0.58 0.09 0.83c0.01,0.11 0.07,0.2 0.17,0.25l0.74 0.4 -0.77 0.34c-0.1,0.04 -0.17,0.13 -0.19,0.24l-0.15 0.83 -0.56 -0.62z"/>
   </g>
  </g>
 </g>
</svg>
