<?xml version="1.0" encoding="UTF-8"?>
<!DOCTYPE svg PUBLIC "-//W3C//DTD SVG 1.1//EN" "http://www.w3.org/Graphics/SVG/1.1/DTD/svg11.dtd">
<!-- Creator: CorelDRAW -->
<svg xmlns="http://www.w3.org/2000/svg" xml:space="preserve" width="4.7954mm" height="5.4187mm" version="1.1" style="shape-rendering:geometricPrecision; text-rendering:geometricPrecision; image-rendering:optimizeQuality; fill-rule:evenodd; clip-rule:evenodd"
viewBox="0 0 59.64 67.39"
 xmlns:xlink="http://www.w3.org/1999/xlink"
 xmlns:xodm="http://www.corel.com/coreldraw/odm/2003">
 <defs>
  <style type="text/css">
   <![CDATA[
    .fil0 {fill:#263155}
    .fil2 {fill:#FA8825}
    .fil1 {fill:#263155;fill-rule:nonzero}
    .fil3 {fill:#FA8825;fill-rule:nonzero}
   ]]>
  </style>
 </defs>
 <g id="Layer_x0020_1">
  <metadata id="CorelCorpID_0Corel-Layer"/>
  <g id="_1987912125760">
   <path class="fil0" d="M41.54 21.41c-6.04,-7.96 -17.76,-8.16 -24.04,-0.4 -4.52,5.59 -4.71,13.6 -0.46,19.41l5.58 7.61c0.28,0.39 0.73,0.62 1.21,0.62l6.28 0.04 5.61 0.03c0.5,0 0.97,-0.25 1.26,-0.67l5.71 -8.41c3.57,-5.25 3.39,-12.25 -0.44,-17.31l-0.7 -0.93zm-26.38 -2.37c7.53,-9.29 21.56,-9.06 28.79,0.48l0.7 0.93c4.64,6.12 4.86,14.61 0.53,20.97l-5.71 8.41c-0.86,1.26 -2.27,2.01 -3.77,2l-5.61 -0.03 -6.28 -0.04c-1.43,-0.01 -2.77,-0.7 -3.62,-1.86l-5.58 -7.61c-5.09,-6.95 -4.86,-16.55 0.55,-23.24l0 0z"/>
   <path class="fil1" d="M41.35 21.55c-0.77,-1.02 -1.65,-1.91 -2.58,-2.67 -2.67,-2.16 -5.91,-3.27 -9.16,-3.33 -3.25,-0.05 -6.53,0.95 -9.26,3.03 -0.96,0.73 -1.86,1.59 -2.66,2.58 -2.23,2.75 -3.39,6.1 -3.47,9.48 -0.08,3.38 0.92,6.78 3.01,9.64l5.58 7.61c0.12,0.16 0.28,0.3 0.45,0.39 0.17,0.09 0.37,0.14 0.57,0.14l11.89 0.07c0.21,0 0.41,-0.05 0.6,-0.15 0.18,-0.1 0.34,-0.24 0.46,-0.41l5.71 -8.41c1.76,-2.58 2.59,-5.6 2.51,-8.59 -0.08,-2.99 -1.06,-5.95 -2.95,-8.44l-0.7 -0.93zm-2.28 -3.04c0.97,0.79 1.87,1.71 2.66,2.76l0.7 0.93c1.95,2.57 2.96,5.63 3.04,8.72 0.08,3.09 -0.78,6.2 -2.59,8.87l-5.71 8.41c-0.17,0.24 -0.38,0.44 -0.63,0.57 -0.25,0.13 -0.53,0.2 -0.82,0.2l-11.89 -0.07c-0.28,-0 -0.54,-0.07 -0.78,-0.19 -0.24,-0.12 -0.45,-0.3 -0.62,-0.53l-5.58 -7.61c-2.16,-2.94 -3.19,-6.45 -3.11,-9.93 0.08,-3.48 1.28,-6.93 3.58,-9.77 0.83,-1.02 1.75,-1.91 2.74,-2.66 2.82,-2.14 6.2,-3.18 9.56,-3.12 3.36,0.05 6.7,1.2 9.45,3.43zm-24.1 0.38c0.99,-1.22 2.1,-2.29 3.28,-3.18 3.37,-2.55 7.4,-3.79 11.41,-3.72 4.01,0.07 8,1.44 11.29,4.1 1.16,0.94 2.23,2.04 3.18,3.29l0.7 0.93c2.35,3.1 3.58,6.8 3.68,10.53 0.1,3.73 -0.95,7.49 -3.13,10.71l-5.71 8.41c-0.45,0.66 -1.05,1.19 -1.73,1.55 -0.68,0.36 -1.45,0.56 -2.24,0.55l-11.89 -0.07c-0.75,-0 -1.48,-0.19 -2.13,-0.52 -0.65,-0.34 -1.23,-0.82 -1.68,-1.44l-5.58 -7.61c-2.58,-3.52 -3.81,-7.71 -3.71,-11.86 0.1,-4 1.42,-7.97 3.96,-11.28l-0.01 0 0.31 -0.39zm3.57 -2.8c-1.12,0.85 -2.16,1.84 -3.1,2.98l-0.1 0.12c-2.67,3.3 -4.07,7.32 -4.16,11.38 -0.1,4.05 1.1,8.14 3.62,11.57l5.58 7.61c0.41,0.55 0.93,0.99 1.51,1.3 0.59,0.3 1.24,0.47 1.92,0.47l11.89 0.07c0.71,0 1.4,-0.17 2.02,-0.5 0.61,-0.33 1.15,-0.8 1.56,-1.4l5.71 -8.41c2.13,-3.14 3.15,-6.8 3.05,-10.43 -0.09,-3.63 -1.29,-7.23 -3.58,-10.26l-0.7 -0.93c-0.93,-1.23 -1.97,-2.3 -3.1,-3.21 -3.2,-2.59 -7.09,-3.93 -11,-3.99 -3.91,-0.06 -7.83,1.14 -11.12,3.63z"/>
   <path class="fil0" d="M22.8 60.82c0,-0.88 0.66,-1.59 1.48,-1.59l11.14 0c0.82,0 1.48,0.71 1.48,1.59 0,0.88 -0.66,1.59 -1.48,1.59l-11.14 0c-0.82,0 -1.48,-0.71 -1.48,-1.59z"/>
   <path class="fil1" d="M22.56 60.82c0,-0.5 0.19,-0.96 0.5,-1.29 0.31,-0.33 0.74,-0.54 1.22,-0.54l11.14 0c0.48,0 0.91,0.21 1.22,0.54 0.31,0.33 0.5,0.79 0.5,1.29 0,0.5 -0.19,0.96 -0.5,1.29 -0.31,0.34 -0.74,0.54 -1.22,0.54l-11.14 0c-0.48,0 -0.91,-0.21 -1.22,-0.54 -0.31,-0.33 -0.5,-0.79 -0.5,-1.29zm0.85 -0.97c-0.23,0.25 -0.37,0.59 -0.37,0.97 0,0.38 0.14,0.72 0.37,0.97 0.22,0.24 0.53,0.39 0.87,0.39l11.14 0c0.34,0 0.65,-0.15 0.87,-0.39 0.23,-0.25 0.37,-0.59 0.37,-0.97 0,-0.38 -0.14,-0.72 -0.37,-0.97 -0.22,-0.24 -0.53,-0.39 -0.87,-0.39l-11.14 0c-0.34,0 -0.65,0.15 -0.87,0.39z"/>
   <path class="fil0" d="M21.49 49.01c0.82,0 1.48,0.71 1.48,1.59l0 1.59c0,0.88 0.66,1.59 1.48,1.59l10.35 0c0.82,0 1.48,-0.71 1.48,-1.59l0 -1.59c0,-0.88 0.66,-1.59 1.48,-1.59 0.82,0 1.48,0.71 1.48,1.59l0 1.59c0,2.64 -1.99,4.78 -4.44,4.78l-10.35 0c-2.45,0 -4.44,-2.14 -4.44,-4.78l0 -1.59c0,-0.88 0.66,-1.59 1.48,-1.59l0 0z"/>
   <path class="fil1" d="M21.49 48.78c0.48,0 0.91,0.21 1.22,0.54 0.31,0.33 0.5,0.79 0.5,1.29l0 1.59c0,0.38 0.14,0.72 0.37,0.97 0.22,0.24 0.53,0.39 0.87,0.39l10.35 0c0.34,0 0.65,-0.15 0.87,-0.39 0.23,-0.25 0.37,-0.59 0.37,-0.97l0 -1.59c0,-0.5 0.19,-0.96 0.5,-1.29 0.31,-0.34 0.74,-0.54 1.22,-0.54 0.48,0 0.91,0.21 1.22,0.54 0.31,0.33 0.5,0.79 0.5,1.29l0 1.59c0,1.38 -0.52,2.64 -1.36,3.54 -0.85,0.91 -2.02,1.48 -3.31,1.48l-10.35 0c-1.29,0 -2.47,-0.56 -3.31,-1.48 -0.84,-0.91 -1.36,-2.16 -1.36,-3.54l0 -1.59c0,-0.5 0.19,-0.96 0.5,-1.29 0.31,-0.34 0.74,-0.54 1.22,-0.54zm0.87 0.87c-0.22,-0.24 -0.53,-0.39 -0.87,-0.39 -0.34,0 -0.65,0.15 -0.87,0.39 -0.23,0.25 -0.37,0.59 -0.37,0.97l0 1.59c0,1.26 0.47,2.4 1.24,3.22 0.76,0.82 1.81,1.32 2.96,1.32l10.35 0c1.16,0 2.2,-0.51 2.96,-1.32 0.76,-0.82 1.24,-1.96 1.24,-3.22l0 -1.59c0,-0.38 -0.14,-0.72 -0.37,-0.97 -0.22,-0.24 -0.53,-0.39 -0.87,-0.39 -0.34,0 -0.65,0.15 -0.87,0.39 -0.23,0.25 -0.37,0.59 -0.37,0.97l0 1.59c0,0.5 -0.19,0.96 -0.5,1.29 -0.31,0.33 -0.74,0.54 -1.22,0.54l-10.35 0c-0.48,0 -0.91,-0.21 -1.22,-0.54 -0.31,-0.33 -0.5,-0.79 -0.5,-1.29l0 -1.59c0,-0.38 -0.14,-0.72 -0.37,-0.97z"/>
   <path class="fil2" d="M50.53 31.34c0,-0.88 0.66,-1.59 1.48,-1.59l5.92 0c0.82,0 1.48,0.71 1.48,1.59 0,0.88 -0.66,1.59 -1.48,1.59l-5.92 -0c-0.82,0 -1.48,-0.71 -1.48,-1.59l0 0z"/>
   <path class="fil3" d="M50.29 31.34c0,-0.5 0.19,-0.96 0.5,-1.29 0.31,-0.34 0.74,-0.54 1.22,-0.54l5.92 0c0.48,0 0.91,0.21 1.22,0.54 0.31,0.33 0.5,0.79 0.5,1.29 0,0.5 -0.19,0.96 -0.5,1.29 -0.31,0.34 -0.74,0.54 -1.22,0.54l-5.92 -0c-0.48,0 -0.91,-0.21 -1.22,-0.54 -0.31,-0.33 -0.5,-0.79 -0.5,-1.29zm0.85 -0.97c-0.23,0.25 -0.37,0.59 -0.37,0.97 0,0.38 0.14,0.72 0.37,0.96 0.22,0.24 0.53,0.39 0.87,0.39l5.92 0c0.34,-0 0.65,-0.15 0.87,-0.39 0.23,-0.25 0.37,-0.59 0.37,-0.97 0,-0.38 -0.14,-0.72 -0.37,-0.97 -0.22,-0.24 -0.53,-0.39 -0.87,-0.39l-5.92 0c-0.34,0 -0.65,0.15 -0.87,0.39z"/>
   <path class="fil2" d="M47.76 49.2c0.42,-0.76 1.33,-1.02 2.04,-0.59l5.12 3.11c0.71,0.43 0.95,1.4 0.53,2.15 -0.42,0.76 -1.33,1.02 -2.04,0.59l-5.12 -3.11c-0.71,-0.43 -0.95,-1.4 -0.54,-2.15z"/>
   <path class="fil3" d="M47.56 49.08l0.04 -0.07c0.24,-0.4 0.61,-0.67 1.02,-0.78 0.41,-0.12 0.86,-0.08 1.25,0.14 1.73,1.04 3.46,2.1 5.19,3.14 0.41,0.25 0.69,0.65 0.8,1.1 0.11,0.44 0.06,0.94 -0.18,1.37l-0.04 0.07c-0.24,0.4 -0.61,0.67 -1.02,0.78 -0.41,0.12 -0.86,0.08 -1.25,-0.14 -1.73,-1.04 -3.46,-2.1 -5.19,-3.14 -0.41,-0.25 -0.69,-0.65 -0.8,-1.1 -0.11,-0.45 -0.06,-0.94 0.18,-1.37l0 -0zm0.44 0.18l-0.03 0.05c-0.18,0.32 -0.22,0.69 -0.13,1.03 0.08,0.33 0.28,0.63 0.58,0.81l5.17 3.13c0.28,0.16 0.6,0.18 0.89,0.1 0.29,-0.08 0.56,-0.28 0.74,-0.57l0.03 -0.05c0.18,-0.32 0.22,-0.69 0.13,-1.03 -0.08,-0.33 -0.28,-0.63 -0.58,-0.81l-5.17 -3.13c-0.28,-0.16 -0.6,-0.18 -0.9,-0.1 -0.29,0.08 -0.56,0.28 -0.74,0.57z"/>
   <path class="fil2" d="M0.24 31.34c0,-0.88 0.66,-1.59 1.48,-1.59l5.92 0c0.82,0 1.48,0.71 1.48,1.59 0,0.88 -0.66,1.59 -1.48,1.59l-5.92 -0c-0.82,0 -1.48,-0.71 -1.48,-1.59l0 0z"/>
   <path class="fil3" d="M-0 31.34c0,-0.5 0.19,-0.96 0.5,-1.29 0.31,-0.34 0.74,-0.54 1.22,-0.54l5.92 0c0.48,0 0.91,0.21 1.22,0.54 0.31,0.33 0.5,0.79 0.5,1.29 0,0.5 -0.19,0.96 -0.5,1.29 -0.31,0.34 -0.74,0.54 -1.22,0.54l-5.92 -0c-0.48,0 -0.91,-0.21 -1.22,-0.54 -0.31,-0.33 -0.5,-0.79 -0.5,-1.29zm0.85 -0.97c-0.23,0.25 -0.37,0.59 -0.37,0.97 0,0.38 0.14,0.72 0.37,0.96 0.22,0.24 0.53,0.39 0.87,0.39l5.92 0c0.34,-0 0.65,-0.15 0.87,-0.39 0.23,-0.25 0.37,-0.59 0.37,-0.97 0,-0.38 -0.14,-0.72 -0.37,-0.97 -0.22,-0.24 -0.53,-0.39 -0.87,-0.39l-5.92 0c-0.34,0 -0.65,0.15 -0.87,0.39z"/>
   <path class="fil2" d="M5.5 7.91c0.57,-0.63 1.52,-0.65 2.12,-0.05l4.27 4.3c0.6,0.6 0.62,1.6 0.04,2.22 -0.57,0.63 -1.52,0.65 -2.12,0.05l-4.27 -4.3c-0.6,-0.6 -0.62,-1.6 -0.05,-2.23z"/>
   <path class="fil3" d="M5.33 7.74l0.06 -0.06c0.32,-0.32 0.74,-0.49 1.16,-0.5 0.42,-0.01 0.84,0.14 1.18,0.45 1.45,1.45 2.89,2.9 4.34,4.36 0.34,0.34 0.52,0.8 0.53,1.26 0.01,0.46 -0.15,0.93 -0.48,1.29l-0.06 0.06c-0.32,0.32 -0.74,0.49 -1.16,0.5 -0.42,0.01 -0.84,-0.14 -1.18,-0.45l-4.34 -4.36c-0.34,-0.34 -0.52,-0.8 -0.53,-1.26 -0.01,-0.46 0.15,-0.93 0.48,-1.29l0 -0zm0.4 0.27l-0.05 0.05c-0.24,0.27 -0.36,0.61 -0.35,0.96 0.01,0.34 0.14,0.68 0.39,0.94l4.32 4.34c0.24,0.22 0.55,0.33 0.85,0.32 0.3,-0.01 0.6,-0.13 0.83,-0.36l0.05 -0.05c0.24,-0.27 0.36,-0.61 0.35,-0.96 -0.01,-0.34 -0.14,-0.68 -0.39,-0.94l-4.32 -4.34c-0.24,-0.22 -0.55,-0.33 -0.85,-0.32 -0.3,0.01 -0.6,0.13 -0.83,0.36z"/>
   <path class="fil2" d="M52.29 8.46l-4.27 4.3c-0.6,0.6 -0.62,1.6 -0.04,2.23 0.57,0.63 1.52,0.65 2.12,0.05l4.27 -4.3c1.43,-1.44 -0.64,-3.72 -2.07,-2.27z"/>
   <path class="fil3" d="M53.35 8.26c-0.3,-0.01 -0.61,0.1 -0.85,0.32l-4.32 4.34c-0.25,0.25 -0.39,0.6 -0.39,0.94 -0.01,0.34 0.11,0.69 0.35,0.96l0.04 0.05c0.23,0.23 0.53,0.35 0.83,0.36 0.3,0.01 0.6,-0.1 0.85,-0.32l4.32 -4.34c0.25,-0.25 0.39,-0.59 0.39,-0.94 0.01,-0.7 -0.51,-1.35 -1.23,-1.37zm1.18 0.03c0.42,0.43 0.55,0.63 0.53,1.35 -0.01,0.46 -0.19,0.92 -0.53,1.26 -1.42,1.43 -2.88,2.99 -4.34,4.36 -0.34,0.31 -0.76,0.45 -1.18,0.45 -0.42,-0.01 -0.84,-0.18 -1.16,-0.5l-0.06 -0.06c-0.33,-0.36 -0.49,-0.83 -0.48,-1.29 0.01,-0.46 0.19,-0.92 0.53,-1.26 1.45,-1.45 2.89,-2.91 4.34,-4.35 0.34,-0.31 0.76,-0.46 1.18,-0.45 0.42,0.01 0.84,0.18 1.16,0.5l0 0z"/>
   <path class="fil2" d="M4.87 53.87c-0.42,-0.76 -0.18,-1.72 0.54,-2.15l5.12 -3.11c0.71,-0.43 1.63,-0.17 2.04,0.59 0.42,0.76 0.18,1.72 -0.54,2.15l-5.12 3.11c-0.71,0.43 -1.63,0.17 -2.04,-0.59z"/>
   <path class="fil3" d="M4.66 53.99c-0.24,-0.43 -0.29,-0.93 -0.18,-1.37 0.11,-0.45 0.39,-0.85 0.8,-1.1 1.5,-0.91 3.86,-2.15 5.19,-3.14 0.4,-0.22 0.85,-0.26 1.26,-0.14 0.41,0.12 0.77,0.39 1.02,0.79 0.01,0.02 0.03,0.05 0.04,0.07 0.24,0.43 0.29,0.93 0.18,1.37 -0.11,0.45 -0.39,0.85 -0.8,1.1 -1.73,1.05 -3.45,2.1 -5.19,3.14 -0.4,0.22 -0.85,0.26 -1.26,0.14 -0.41,-0.12 -0.77,-0.39 -1.02,-0.79 -0.01,-0.02 -0.03,-0.05 -0.04,-0.07zm0.28 -1.26c-0.08,0.33 -0.04,0.7 0.13,1.03l0.03 0.05c0.18,0.29 0.45,0.49 0.74,0.58 0.29,0.08 0.61,0.06 0.9,-0.1l5.17 -3.13c0.3,-0.18 0.5,-0.48 0.58,-0.81 0.08,-0.33 0.04,-0.7 -0.13,-1.03l-0.03 -0.05c-0.18,-0.29 -0.45,-0.49 -0.74,-0.57 -0.29,-0.08 -0.61,-0.06 -0.9,0.1l-5.17 3.13c-0.3,0.18 -0.5,0.48 -0.58,0.81z"/>
   <path class="fil2" d="M29.82 0.24c0.82,0 1.48,0.71 1.48,1.59l0 6.21c0,0.88 -0.66,1.59 -1.48,1.59 -0.82,0 -1.48,-0.71 -1.48,-1.59l0 -6.21c0,-0.88 0.66,-1.59 1.48,-1.59z"/>
   <path class="fil3" d="M29.82 0c0.48,0 0.91,0.21 1.22,0.54 0.31,0.33 0.5,0.79 0.5,1.29l0 6.21c0,0.5 -0.19,0.96 -0.5,1.29 -0.31,0.34 -0.74,0.54 -1.22,0.54 -0.48,0 -0.91,-0.21 -1.22,-0.54 -0.31,-0.33 -0.5,-0.79 -0.5,-1.29l0 -6.21c0,-0.5 0.19,-0.96 0.5,-1.29 0.31,-0.33 0.74,-0.54 1.22,-0.54zm0.87 0.87c-0.22,-0.24 -0.53,-0.39 -0.87,-0.39 -0.34,0 -0.65,0.15 -0.87,0.39 -0.23,0.25 -0.37,0.59 -0.37,0.97l0 6.21c0,0.38 0.14,0.72 0.37,0.97 0.22,0.24 0.53,0.39 0.87,0.39 0.34,0 0.65,-0.15 0.87,-0.39 0.23,-0.25 0.37,-0.59 0.37,-0.97l0 -6.21c0,-0.38 -0.14,-0.72 -0.37,-0.97z"/>
   <path class="fil0" d="M30.93 19.09c0.26,-0.83 1.1,-1.29 1.87,-1.01 0.75,0.27 1.53,0.65 2.29,1.14 0.7,0.45 0.94,1.42 0.52,2.18 -0.42,0.76 -1.32,1.01 -2.03,0.56 -0.6,-0.38 -1.18,-0.67 -1.72,-0.86 -0.77,-0.28 -1.19,-1.18 -0.94,-2.02l0 0zm6.3 4.13c0.59,-0.6 1.53,-0.58 2.09,0.06 1.52,1.73 2.54,3.66 2.86,6.08 0.32,2.37 -0.06,5.06 -1.05,8.27 -0.26,0.84 -1.1,1.29 -1.87,1.01 -0.77,-0.28 -1.19,-1.18 -0.94,-2.02 0.92,-2.97 1.16,-5.12 0.93,-6.81 -0.22,-1.64 -0.89,-2.99 -2.08,-4.35 -0.56,-0.64 -0.53,-1.65 0.06,-2.25l0 -0z"/>
   <path class="fil1" d="M31.17 19.09l-0.03 0.09c-0.1,0.35 -0.06,0.71 0.08,1.02 0.14,0.31 0.4,0.56 0.72,0.68 0.29,0.1 0.58,0.23 0.88,0.38 0.29,0.15 0.59,0.31 0.88,0.5l0.07 0.04c0.27,0.15 0.58,0.18 0.86,0.1 0.28,-0.08 0.54,-0.26 0.71,-0.54l0.05 -0.08c0.18,-0.33 0.22,-0.7 0.14,-1.04 -0.08,-0.34 -0.28,-0.64 -0.58,-0.83 -0.37,-0.24 -0.75,-0.45 -1.12,-0.64 -0.38,-0.19 -0.75,-0.35 -1.12,-0.48l-0.05 -0.02c-0.3,-0.09 -0.62,-0.05 -0.88,0.09 -0.27,0.14 -0.49,0.39 -0.61,0.72zm-0.42 -0.24c0.17,-0.4 0.45,-0.71 0.8,-0.89 0.37,-0.2 0.82,-0.26 1.25,-0.12l0.07 0.02c0.39,0.14 0.78,0.31 1.17,0.5 0.39,0.19 0.78,0.42 1.17,0.66 0.41,0.26 0.68,0.67 0.78,1.12 0.11,0.45 0.05,0.95 -0.18,1.38l-0.06 0.1c-0.24,0.38 -0.6,0.64 -0.99,0.75 -0.39,0.11 -0.83,0.07 -1.21,-0.14l-0.09 -0.06c-0.29,-0.18 -0.57,-0.34 -0.84,-0.48 -0.29,-0.14 -0.57,-0.26 -0.83,-0.36 -0.45,-0.16 -0.8,-0.5 -0.99,-0.92 -0.19,-0.42 -0.24,-0.91 -0.09,-1.39l0.05 -0.17 0.01 0zm6.3 4.2l0.1 -0.09c0.33,-0.29 0.74,-0.43 1.14,-0.42 0.4,0.01 0.8,0.17 1.11,0.48l0.09 0.1c0.77,0.88 1.42,1.81 1.91,2.84 0.5,1.02 0.84,2.14 1,3.37 0.16,1.21 0.15,2.49 -0.04,3.88 -0.18,1.38 -0.53,2.87 -1.03,4.49l-0.03 0.08c-0.16,0.44 -0.46,0.78 -0.83,0.98 -0.37,0.2 -0.82,0.26 -1.25,0.12l-0.07 -0.02c-0.45,-0.16 -0.8,-0.5 -0.99,-0.92 -0.19,-0.42 -0.24,-0.91 -0.09,-1.39 0.46,-1.47 0.74,-2.74 0.89,-3.85 0.14,-1.1 0.15,-2.04 0.04,-2.86 -0.11,-0.79 -0.32,-1.52 -0.66,-2.21 -0.34,-0.69 -0.79,-1.35 -1.37,-2.01 -0.32,-0.37 -0.47,-0.84 -0.46,-1.3 0.01,-0.43 0.17,-0.86 0.46,-1.2l0 -0 0.07 -0.07zm0.41 0.27l-0.07 0.07c-0.25,0.26 -0.39,0.6 -0.39,0.95 -0.01,0.35 0.11,0.71 0.34,0.98 0.61,0.7 1.09,1.39 1.44,2.12 0.36,0.74 0.59,1.51 0.7,2.35 0.11,0.86 0.11,1.84 -0.04,2.98 -0.15,1.13 -0.44,2.43 -0.9,3.93 -0.11,0.36 -0.08,0.73 0.07,1.05 0.14,0.31 0.39,0.56 0.72,0.68l0.05 0.02c0.3,0.09 0.62,0.05 0.88,-0.09 0.27,-0.14 0.49,-0.39 0.61,-0.72l0.02 -0.06c0.49,-1.59 0.83,-3.06 1.01,-4.41 0.18,-1.35 0.19,-2.59 0.04,-3.76 -0.16,-1.18 -0.49,-2.25 -0.96,-3.23 -0.48,-0.98 -1.1,-1.88 -1.84,-2.73l-0.07 -0.07c-0.23,-0.22 -0.51,-0.34 -0.79,-0.35 -0.28,-0.01 -0.57,0.09 -0.81,0.3z"/>
   <path class="fil0" d="M24.54 65.56c0,-0.88 0.66,-1.59 1.48,-1.59l7.64 0c0.82,0 1.48,0.71 1.48,1.59 0,0.88 -0.66,1.59 -1.48,1.59l-7.64 0c-0.82,0 -1.48,-0.71 -1.48,-1.59z"/>
   <path class="fil1" d="M24.3 65.56c0,-0.5 0.19,-0.96 0.5,-1.29 0.31,-0.34 0.74,-0.54 1.22,-0.54l7.64 0c0.48,0 0.91,0.21 1.22,0.54 0.31,0.33 0.5,0.79 0.5,1.29 0,0.5 -0.19,0.96 -0.5,1.29 -0.31,0.34 -0.74,0.54 -1.22,0.54l-7.64 0c-0.48,0 -0.91,-0.21 -1.22,-0.54 -0.31,-0.33 -0.5,-0.79 -0.5,-1.29zm0.85 -0.97c-0.23,0.25 -0.37,0.59 -0.37,0.97 0,0.38 0.14,0.72 0.37,0.97 0.22,0.24 0.53,0.39 0.87,0.39l7.64 0c0.34,0 0.65,-0.15 0.87,-0.39 0.23,-0.25 0.37,-0.59 0.37,-0.97 0,-0.38 -0.14,-0.72 -0.37,-0.97 -0.22,-0.24 -0.53,-0.39 -0.87,-0.39l-7.64 0c-0.34,0 -0.65,0.15 -0.87,0.39z"/>
  </g>
 </g>
</svg>
