<?xml version="1.0" encoding="UTF-8"?>
<!DOCTYPE svg PUBLIC "-//W3C//DTD SVG 1.1//EN" "http://www.w3.org/Graphics/SVG/1.1/DTD/svg11.dtd">
<!-- Creator: CorelDRAW -->
<svg xmlns="http://www.w3.org/2000/svg" xml:space="preserve" width="4.064mm" height="4.064mm" version="1.1" style="shape-rendering:geometricPrecision; text-rendering:geometricPrecision; image-rendering:optimizeQuality; fill-rule:evenodd; clip-rule:evenodd"
viewBox="0 0 32.8 32.8"
 xmlns:xlink="http://www.w3.org/1999/xlink"
 xmlns:xodm="http://www.corel.com/coreldraw/odm/2003">
 <defs>
  <style type="text/css">
   <![CDATA[
    .fil0 {fill:#FEFEFE;fill-rule:nonzero}
    .fil1 {fill:#273155;fill-rule:nonzero}
   ]]>
  </style>
 </defs>
 <g id="Layer_x0020_1">
  <metadata id="CorelCorpID_0Corel-Layer"/>
  <g id="_1987920211424">
   <path class="fil0" d="M30.36 1.06l-27.93 0c-0.38,0 -0.72,0.15 -0.97,0.4 -0.25,0.25 -0.4,0.59 -0.4,0.97l0 27.93c0,0.38 0.15,0.72 0.4,0.97 0.25,0.25 0.59,0.4 0.97,0.4l27.93 0c0.38,0 0.72,-0.15 0.97,-0.4 0.25,-0.25 0.4,-0.59 0.4,-0.97l0 -27.93c0,-0.38 -0.15,-0.72 -0.4,-0.97 -0.25,-0.25 -0.59,-0.4 -0.97,-0.4zm-27.93 -1.06l27.93 0c0.67,0 1.28,0.27 1.72,0.71 0.44,0.44 0.71,1.05 0.71,1.72l0 27.93c0,0.67 -0.27,1.28 -0.71,1.72 -0.44,0.44 -1.05,0.71 -1.72,0.71l-27.93 0c-0.67,0 -1.28,-0.27 -1.72,-0.71 -0.44,-0.44 -0.71,-1.05 -0.71,-1.72l0 -27.93c0,-0.67 0.27,-1.28 0.71,-1.72 0.44,-0.44 1.05,-0.71 1.72,-0.71z"/>
   <path class="fil0" d="M0.54 7.27c10.14,0.26 31.66,0 31.72,0l0.01 1.05c-0.06,0 -21.6,0.26 -31.76,0l0.03 -1.05z"/>
   <path class="fil0" d="M3.7 4.65l0.64 0c0.35,0 0.64,-0.28 0.64,-0.63 0,-0.35 -0.28,-0.64 -0.64,-0.64l-0.64 0c-0.35,0 -0.63,0.28 -0.63,0.64 0,0.35 0.28,0.63 0.63,0.63l0 0z"/>
   <path class="fil0" d="M6.88 4.65l0.64 0c0.35,0 0.64,-0.28 0.64,-0.63 0,-0.35 -0.28,-0.64 -0.64,-0.64l-0.64 0c-0.35,0 -0.63,0.28 -0.63,0.64 0,0.35 0.28,0.63 0.63,0.63l0 0z"/>
   <path class="fil0" d="M10.05 4.65l0.64 0c0.35,0 0.63,-0.28 0.63,-0.63 0,-0.35 -0.28,-0.64 -0.63,-0.64l-0.64 0c-0.35,0 -0.63,0.28 -0.63,0.64 0,0.35 0.28,0.63 0.63,0.63l0 0z"/>
   <path class="fil0" d="M21.48 4.65l7.62 0c0.35,0 0.63,-0.28 0.63,-0.63 0,-0.35 -0.28,-0.64 -0.63,-0.64l-7.62 0c-0.35,0 -0.64,0.28 -0.64,0.64 0,0.35 0.28,0.63 0.64,0.63l0 0z"/>
   <g>
    <path class="fil0" d="M9.99 27.13l-7.51 0c-0.3,0 -0.54,0.17 -0.54,0.38 0,0.21 0.24,0.38 0.54,0.38l7.51 0c0.3,0 0.54,-0.17 0.54,-0.38 0,-0.21 -0.24,-0.38 -0.54,-0.38l0 0z"/>
    <path class="fil0" d="M2.48 26.37l7.51 0c0.3,0 0.54,-0.17 0.54,-0.38 0,-0.21 -0.24,-0.38 -0.54,-0.38l-7.51 0c-0.3,0 -0.54,0.17 -0.54,0.38 0,0.21 0.24,0.38 0.54,0.38l0 0z"/>
    <path class="fil0" d="M2.48 24.84l7.51 0c0.3,0 0.54,-0.17 0.54,-0.38 0,-0.21 -0.24,-0.38 -0.54,-0.38l-7.51 0c-0.3,0 -0.54,0.17 -0.54,0.38 0,0.21 0.24,0.38 0.54,0.38l0 0z"/>
    <path class="fil0" d="M2.48 23.31l7.51 0c0.3,0 0.54,-0.17 0.54,-0.38 0,-0.21 -0.24,-0.38 -0.54,-0.38l-7.51 0c-0.3,0 -0.54,0.17 -0.54,0.38 0,0.21 0.24,0.38 0.54,0.38z"/>
   </g>
   <g>
    <path class="fil0" d="M9.21 18.51c0.14,0.14 0.38,0.14 0.52,-0l1.53 -1.55c0.14,-0.14 0.14,-0.37 0,-0.52l-1.53 -1.55c-0.14,-0.14 -0.38,-0.14 -0.52,-0 -0.14,0.14 -0.15,0.38 -0,0.52l1.28 1.29 -1.28 1.29c-0.14,0.14 -0.14,0.38 0,0.52l0 0z"/>
    <path class="fil0" d="M4.68 14.89c-0.14,-0.14 -0.38,-0.14 -0.52,0l-1.53 1.55c-0.14,0.14 -0.14,0.37 0,0.52l1.53 1.55c0.14,0.14 0.37,0.15 0.52,0 0.14,-0.14 0.15,-0.37 0,-0.52l-1.28 -1.29 1.28 -1.29c0.14,-0.14 0.14,-0.38 -0,-0.52l0 0z"/>
    <path class="fil0" d="M7.54 13.85l-2.15 5.42c-0.08,0.19 0.02,0.4 0.2,0.48 0.19,0.08 0.4,-0.02 0.48,-0.21l2.15 -5.42c0.08,-0.19 -0.02,-0.4 -0.21,-0.48 -0.19,-0.08 -0.4,0.02 -0.48,0.2z"/>
   </g>
   <path class="fil0" d="M21.6 25.34c-2.79,0 -5.06,-2.27 -5.06,-5.06 0,-2.79 2.27,-5.06 5.06,-5.06 2.79,0 5.06,2.26 5.06,5.06 0,2.79 -2.26,5.06 -5.06,5.06zm7.57 -6.36l-0.94 -0.16c-0.17,-0.79 -0.49,-1.53 -0.91,-2.2l0.55 -0.78c0.16,-0.23 0.14,-0.55 -0.06,-0.75l-1.02 -1.02c-0.2,-0.2 -0.52,-0.23 -0.75,-0.06l-0.78 0.55c-0.66,-0.42 -1.4,-0.74 -2.2,-0.91l-0.16 -0.94c-0.05,-0.28 -0.29,-0.49 -0.58,-0.49l-1.44 0c-0.28,0 -0.53,0.2 -0.58,0.49l-0.16 0.94c-0.79,0.17 -1.53,0.49 -2.2,0.91l-0.78 -0.55c-0.23,-0.16 -0.55,-0.14 -0.75,0.06l-1.02 1.02c-0.2,0.2 -0.23,0.52 -0.06,0.75l0.55 0.78c-0.42,0.66 -0.74,1.4 -0.91,2.2l-0.94 0.16c-0.28,0.05 -0.49,0.29 -0.49,0.58l0 1.44c0,0.28 0.21,0.53 0.49,0.58l0.94 0.16c0.17,0.79 0.49,1.53 0.91,2.2l-0.55 0.78c-0.16,0.23 -0.14,0.55 0.06,0.75l1.02 1.02c0.2,0.2 0.52,0.23 0.75,0.06l0.78 -0.55c0.66,0.42 1.4,0.74 2.2,0.91l0.16 0.94c0.05,0.28 0.29,0.49 0.58,0.49l1.44 0c0.28,0 0.53,-0.21 0.58,-0.49l0.16 -0.94c0.79,-0.17 1.53,-0.49 2.2,-0.91l0.78 0.55c0.23,0.16 0.55,0.14 0.75,-0.06l1.02 -1.02c0.2,-0.2 0.23,-0.52 0.06,-0.75l-0.55 -0.78c0.42,-0.66 0.74,-1.4 0.91,-2.2l0.94 -0.16c0.28,-0.05 0.49,-0.29 0.49,-0.58l0 -1.44c0,-0.28 -0.2,-0.53 -0.49,-0.58z"/>
   <path class="fil0" d="M24.64 18.24c0,0 0,1.26 0,1.5 0,3.41 -3.04,4.09 -3.04,4.09 0,0 -3.04,-0.68 -3.04,-4.09 0,-0.24 0,-1.5 0,-1.5 1.56,-0.52 3.04,-1.5 3.04,-1.5 0,0 1.48,0.97 3.04,1.5zm-2.71 2.38l0.05 0.75c0.01,0.22 -0.16,0.4 -0.37,0.4 -0.22,0 -0.39,-0.18 -0.37,-0.4l0.05 -0.75c-0.31,-0.13 -0.54,-0.43 -0.54,-0.79 0,-0.47 0.38,-0.86 0.86,-0.86 0.47,0 0.86,0.38 0.86,0.86 0,0.36 -0.22,0.67 -0.54,0.79z"/>
   <path class="fil1" d="M21.92 20.61l0.05 0.75c0.01,0.22 -0.16,0.4 -0.37,0.4 -0.22,0 -0.39,-0.18 -0.37,-0.4l0.05 -0.75c-0.31,-0.13 -0.54,-0.43 -0.54,-0.79 0,-0.47 0.38,-0.86 0.86,-0.86 0.47,0 0.86,0.38 0.86,0.86 0,0.36 -0.22,0.67 -0.54,0.79z"/>
  </g>
 </g>
</svg>
