<?xml version="1.0" encoding="UTF-8"?>
<!DOCTYPE svg PUBLIC "-//W3C//DTD SVG 1.1//EN" "http://www.w3.org/Graphics/SVG/1.1/DTD/svg11.dtd">
<!-- Creator: CorelDRAW -->
<svg xmlns="http://www.w3.org/2000/svg" xml:space="preserve" width="4.5879mm" height="4.4874mm" version="1.1" style="shape-rendering:geometricPrecision; text-rendering:geometricPrecision; image-rendering:optimizeQuality; fill-rule:evenodd; clip-rule:evenodd"
viewBox="0 0 160.58 157.06"
 xmlns:xlink="http://www.w3.org/1999/xlink"
 xmlns:xodm="http://www.corel.com/coreldraw/odm/2003">
 <defs>
  <style type="text/css">
   <![CDATA[
    .fil1 {fill:#FEFEFE}
    .fil2 {fill:#137173}
    .fil0 {fill:#FEFEFE;fill-rule:nonzero}
   ]]>
  </style>
 </defs>
 <g id="Layer_x0020_1">
  <metadata id="CorelCorpID_0Corel-Layer"/>
  <g id="_1987920236512">
   <path class="fil0" d="M133.13 4.64l-122.47 0c-1.67,0 -3.17,0.68 -4.26,1.76 -1.09,1.09 -1.77,2.6 -1.77,4.27l0 122.47c0,1.67 0.68,3.17 1.77,4.26 1.09,1.09 2.6,1.77 4.26,1.77l122.47 0c1.67,0 3.17,-0.68 4.26,-1.77 1.09,-1.09 1.77,-2.6 1.77,-4.26l0 -122.47c0,-1.67 -0.68,-3.17 -1.77,-4.27 -1.09,-1.09 -2.6,-1.76 -4.26,-1.76zm-122.47 -4.64l122.47 0c2.95,0 5.61,1.2 7.54,3.13 1.93,1.93 3.13,4.6 3.13,7.55l0 122.47c0,2.94 -1.19,5.61 -3.13,7.54 -1.93,1.93 -4.6,3.13 -7.54,3.13l-122.47 0c-2.95,0 -5.61,-1.19 -7.54,-3.13 -1.93,-1.93 -3.13,-4.6 -3.13,-7.54l0 -122.47c0,-2.95 1.19,-5.61 3.13,-7.55 1.93,-1.93 4.6,-3.13 7.54,-3.13z"/>
   <path class="fil0" d="M2.37 31.87c44.46,1.13 138.81,0 139.08,0l0.05 4.62c-0.27,0 -94.73,1.13 -139.25,0l0.11 -4.62z"/>
   <path class="fil0" d="M16.23 20.41l2.79 0c1.54,0 2.78,-1.25 2.78,-2.78 0,-1.54 -1.25,-2.79 -2.78,-2.79l-2.79 0c-1.54,0 -2.78,1.25 -2.78,2.79 0,1.54 1.25,2.78 2.78,2.78l0 0z"/>
   <path class="fil0" d="M30.15 20.41l2.79 0c1.54,0 2.78,-1.25 2.78,-2.78 0,-1.54 -1.25,-2.79 -2.78,-2.79l-2.79 0c-1.54,0 -2.78,1.25 -2.78,2.79 0,1.54 1.25,2.78 2.78,2.78l0 0z"/>
   <path class="fil0" d="M44.07 20.41l2.79 0c1.54,0 2.78,-1.25 2.78,-2.78 0,-1.54 -1.25,-2.79 -2.78,-2.79l-2.79 0c-1.54,0 -2.78,1.25 -2.78,2.79 0,1.54 1.25,2.78 2.78,2.78l0 0z"/>
   <path class="fil0" d="M94.17 20.41l33.4 0c1.54,0 2.78,-1.25 2.78,-2.78 0,-1.54 -1.25,-2.79 -2.78,-2.79l-33.4 0c-1.54,0 -2.78,1.25 -2.78,2.79 0,1.54 1.25,2.78 2.78,2.78l0 0z"/>
   <path class="fil0" d="M44.29 98.69l19.45 0c1.28,0 2.32,1.04 2.32,2.32l0 24.48c0,1.28 -1.04,2.32 -2.32,2.32l-19.45 0c-1.28,0 -2.32,-1.04 -2.32,-2.32l0 -24.48c0,-1.28 1.04,-2.32 2.32,-2.32zm17.13 4.64l-14.82 0 0 19.84 14.82 0 0 -19.84z"/>
   <path class="fil0" d="M16.28 107.36l19.45 0c1.28,0 2.32,1.04 2.32,2.32l0 15.8c0,1.28 -1.04,2.32 -2.32,2.32l-19.45 0c-1.28,0 -2.32,-1.04 -2.32,-2.32l0 -15.8c0,-1.28 1.04,-2.32 2.32,-2.32zm17.13 4.64l-14.82 0 0 11.17 14.82 0 0 -11.17z"/>
   <path class="fil0" d="M72.3 71.41l19.45 0c1.28,0 2.32,1.04 2.32,2.32l0 51.75c0,1.28 -1.04,2.32 -2.32,2.32l-19.45 0c-1.28,0 -2.32,-1.04 -2.32,-2.32l0 -51.75c0,-1.28 1.04,-2.32 2.32,-2.32zm17.13 4.64l-14.82 0 0 47.12 14.82 0 0 -47.12z"/>
   <path class="fil1" d="M103.12 64.29l7.33 0 0 4.99 -7.33 0 0 -4.99zm-1.15 7.29l9.63 0c0.64,0 1.15,-0.52 1.15,-1.16l0 -7.29c0,-0.63 -0.51,-1.15 -1.15,-1.15l-9.63 0c-0.64,0 -1.15,0.52 -1.15,1.15l0 7.29c0,0.64 0.51,1.16 1.15,1.16l0 0zm13.87 -2.37c0,-0.64 0.52,-1.15 1.15,-1.15l6.32 0c0.63,0 1.15,0.51 1.15,1.15 0,0.64 -0.52,1.15 -1.15,1.15l-6.32 0c-0.63,0 -1.15,-0.51 -1.15,-1.15zm0 -4.87c0,-0.64 0.52,-1.15 1.15,-1.15l14.52 0c0.64,0 1.15,0.51 1.15,1.15 0,0.64 -0.51,1.15 -1.15,1.15l-14.52 0c-0.63,0 -1.15,-0.51 -1.15,-1.15zm-12.72 -13.01l7.33 0 0 4.99 -7.33 0 0 -4.99zm-1.15 7.29l9.63 0c0.64,0 1.15,-0.52 1.15,-1.16l0 -7.29c0,-0.63 -0.51,-1.15 -1.15,-1.15l-9.63 0c-0.64,0 -1.15,0.52 -1.15,1.15l0 7.29c0,0.64 0.51,1.16 1.15,1.16zm13.87 -2.37c0,-0.64 0.52,-1.16 1.15,-1.16l6.32 0c0.63,0 1.15,0.52 1.15,1.16 0,0.63 -0.52,1.15 -1.15,1.15l-6.32 0c-0.63,0 -1.15,-0.52 -1.15,-1.15zm0 -4.87c0,-0.64 0.52,-1.15 1.15,-1.15l14.52 0c0.64,0 1.15,0.52 1.15,1.15 0,0.64 -0.51,1.15 -1.15,1.15l-14.52 0c-0.63,0 -1.15,-0.51 -1.15,-1.15z"/>
   <path class="fil1" d="M103.12 78.05l7.33 0 0 4.99 -7.33 0 0 -4.99zm-1.15 7.29l9.63 0c0.64,0 1.15,-0.52 1.15,-1.15l0 -7.29c0,-0.64 -0.51,-1.15 -1.15,-1.15l-9.63 0c-0.64,0 -1.15,0.51 -1.15,1.15l0 7.29c0,0.63 0.51,1.15 1.15,1.15zm13.87 -2.37c0,-0.64 0.52,-1.15 1.15,-1.15l6.32 0c0.63,0 1.15,0.51 1.15,1.15 0,0.64 -0.52,1.15 -1.15,1.15l-6.32 0c-0.63,0 -1.15,-0.51 -1.15,-1.15zm0 -4.87c0,-0.64 0.52,-1.16 1.15,-1.16l14.52 0c0.64,0 1.15,0.52 1.15,1.16 0,0.63 -0.51,1.15 -1.15,1.15l-14.52 0c-0.63,0 -1.15,-0.51 -1.15,-1.15z"/>
   <g>
    <path class="fil1" d="M36.41 48.1l0 18.91c0,0.34 0.11,0.67 0.3,0.93l-0 0 11.06 15.34c-2.86,1.72 -6.2,2.71 -9.77,2.71 -10.47,0 -18.98,-8.51 -18.98,-18.98 0,-9.93 7.67,-18.1 17.39,-18.91l0 0zm3.18 -0l0 17.32 17.33 0c-0.77,-9.2 -8.12,-16.56 -17.33,-17.32l0 0zm10.75 33.31c3.68,-3.16 6.14,-7.7 6.57,-12.81l-15.8 0 9.24 12.81zm-12.34 7.76c12.22,0 22.16,-9.94 22.16,-22.16 0,-12.22 -9.94,-22.16 -22.16,-22.16 -12.22,0 -22.16,9.94 -22.16,22.16 0,12.22 9.94,22.16 22.16,22.16z"/>
   </g>
   <g>
    <path class="fil0" d="M146.6 147.69l9.65 8.7c1.06,0.96 2.71,0.88 3.67,-0.19 0.96,-1.07 0.88,-2.71 -0.19,-3.67l-9.43 -8.51c3.66,-4.46 5.86,-10.16 5.86,-16.38 0,-14.26 -11.56,-25.83 -25.83,-25.83 -14.26,0 -25.83,11.56 -25.83,25.83 0,14.27 11.56,25.83 25.83,25.83 6.17,0 11.84,-2.17 16.28,-5.78zm-16.28 -40.71c11.41,0 20.66,9.25 20.66,20.66 0,11.41 -9.25,20.66 -20.66,20.66 -11.41,0 -20.66,-9.25 -20.66,-20.66 0,-11.41 9.25,-20.66 20.66,-20.66z"/>
    <circle class="fil2" cx="130.32" cy="127.64" r="20.66"/>
    <path class="fil1" d="M144.07 124.67c0.01,0.09 0.01,0.18 0.01,0.26 0,1.13 -0.85,2.09 -1.97,2.22 -0.09,0.01 -0.18,0.02 -0.26,0.02 -1.13,-0 -2.09,-0.85 -2.22,-1.98l-0.03 -0.17 -5.68 6.71c-0.42,0.5 -1.05,0.79 -1.71,0.79 -0.34,0 -0.68,-0.08 -0.98,-0.23l-5.58 -2.72 -6.06 7.4c-0.42,0.52 -1.06,0.82 -1.73,0.82 -1.23,0 -2.24,-1 -2.24,-2.24 0,-0.52 0.18,-1.02 0.51,-1.42l7.17 -8.77c0.43,-0.52 1.06,-0.82 1.74,-0.82 0.34,0 0.67,0.08 0.98,0.23l5.61 2.73 4.6 -5.44 -0.48 0.06c-0.09,0.01 -0.18,0.02 -0.27,0.02 -1.24,0 -2.24,-1 -2.24,-2.24 0,-1.13 0.85,-2.09 1.97,-2.22l5.69 -0.67c0.08,-0.01 0.17,-0.01 0.26,-0.01 1.14,0 2.09,0.85 2.23,1.97l0.67 5.69 0 0z"/>
   </g>
  </g>
 </g>
</svg>
