<?xml version="1.0" encoding="UTF-8"?>
<!DOCTYPE svg PUBLIC "-//W3C//DTD SVG 1.1//EN" "http://www.w3.org/Graphics/SVG/1.1/DTD/svg11.dtd">
<!-- Creator: CorelDRAW -->
<svg xmlns="http://www.w3.org/2000/svg" xml:space="preserve" width="5.42mm" height="5.4188mm" version="1.1" style="shape-rendering:geometricPrecision; text-rendering:geometricPrecision; image-rendering:optimizeQuality; fill-rule:evenodd; clip-rule:evenodd"
viewBox="0 0 1936.22 1935.8"
 xmlns:xlink="http://www.w3.org/1999/xlink"
 xmlns:xodm="http://www.corel.com/coreldraw/odm/2003">
 <defs>
  <style type="text/css">
   <![CDATA[
    .fil0 {fill:#273155}
    .fil2 {fill:#149497;fill-rule:nonzero}
    .fil3 {fill:#FEDA3F;fill-rule:nonzero}
    .fil1 {fill:white;fill-rule:nonzero}
   ]]>
  </style>
 </defs>
 <g id="Layer_x0020_1">
  <metadata id="CorelCorpID_0Corel-Layer"/>
  <g id="_2023558243376">
   <path class="fil0" d="M968.08 1935.8c533.25,0 968.11,-434.44 968.11,-967.68 0,-533.21 -434.86,-968.08 -968.11,-968.08 -533.21,0 -968.11,434.86 -968.11,968.08 0,533.21 434.9,967.68 968.11,967.68z"/>
   <path class="fil1" d="M676.93 940.89c0,-103.88 -84.45,-188.34 -188.26,-188.34 -103.81,0 -188.26,84.45 -188.26,188.34 0,103.85 84.45,188.26 188.26,188.26 103.81,0 188.26,-84.45 188.26,-188.26z"/>
   <path class="fil1" d="M843.79 1306.42l100.67 241.99 -233.99 0 0 -106.64c0,-9.25 -7.54,-16.79 -16.83,-16.79 -9.25,0 -16.79,7.54 -16.79,16.79l0 106.64 -159.9 0 0 -192.23c0,-135.96 107.71,-247.28 242.28,-253.07l84.09 202.2c0.14,0.36 0.29,0.75 0.46,1.11l0 0z"/>
   <path class="fil1" d="M1419.23 1356.18l0 192.23 -159.86 0 0 -106.64c0,-9.25 -7.5,-16.79 -16.75,-16.79 -9.29,0 -16.83,7.54 -16.83,16.79l0 106.64 -230.95 0 100.6 -241.74c0.04,-0.04 0.07,-0.11 0.07,-0.18l0.57 -1.39 83.99 -201.84c133.11,7.36 239.17,118 239.17,252.92z"/>
   <polygon class="fil1" points="1062.07,1299.41 969.65,1521.51 877.2,1299.38 912.74,1214.57 1026.59,1214.57 "/>
   <polygon class="fil1" points="888.31,1102.86 1050.99,1102.86 1025.56,1180.95 913.74,1180.95 "/>
   <path class="fil1" d="M697.18 765.24c17.61,20.11 27.01,42.8 28.72,69.38l1.5 21.76c2.79,42.4 35.58,75.2 77.95,77.95l21.86 1.54c26.47,1.71 49.16,11.11 69.34,28.69l16.47 14.43c31.9,27.9 78.27,27.9 110.14,0l16.47 -14.43c20.26,-17.61 42.98,-26.97 69.48,-28.69l21.76 -1.5c42.33,-2.79 75.13,-35.58 77.98,-77.95l1.43 -21.83c1.79,-26.69 11.25,-49.37 28.79,-69.38l14.33 -16.4c27.97,-32.01 27.97,-78.34 0,-110.24l-14.36 -16.47c-17.54,-20.04 -26.97,-42.8 -28.76,-69.41l-1.43 -21.86c-2.86,-42.26 -35.65,-75.06 -77.95,-77.88l-21.79 -1.43c-26.61,-1.82 -49.33,-11.22 -69.45,-28.72l-16.5 -14.47c-15.93,-13.97 -35.51,-20.93 -55.05,-20.93 -19.58,0 -39.12,6.97 -55.09,20.97l-16.47 14.4c-20.08,17.54 -42.76,26.94 -69.34,28.76l-21.9 1.43c-42.3,2.86 -75.13,35.62 -77.91,77.88l-1.5 21.86c-1.71,26.47 -11.11,49.23 -28.69,69.41l-14.47 16.47c-27.9,31.9 -27.86,78.23 0.04,110.24l14.4 16.43zm270.89 -254.35c100.81,0 182.8,81.99 182.8,182.76 0,100.81 -81.99,182.76 -182.8,182.76 -100.78,0 -182.76,-81.95 -182.76,-182.76 0,-100.78 81.99,-182.76 182.76,-182.76z"/>
   <path class="fil1" d="M1632.5 905.67c-1.14,-5.86 -5.25,-10.68 -10.9,-12.72l-30.33 -10.79c-0.21,-0.5 -0.39,-1 -0.61,-1.5l13.83 -29.04c2.61,-5.39 2.11,-11.75 -1.25,-16.68 -13.54,-19.76 -30.26,-36.51 -49.8,-49.76 -4.93,-3.36 -11.29,-3.82 -16.65,-1.25l-29.08 13.83c-0.5,-0.21 -0.96,-0.43 -1.46,-0.61l-10.79 -30.37c-2.04,-5.61 -6.86,-9.75 -12.75,-10.86 -23.51,-4.47 -47.05,-4.43 -70.34,0 -5.86,1.14 -10.72,5.25 -12.68,10.86l-10.79 30.37c-0.5,0.18 -1,0.39 -1.5,0.61l-29.04 -13.83c-5.39,-2.57 -11.72,-2.11 -16.68,1.25 -19.68,13.36 -36.44,30.12 -49.83,49.8 -3.32,4.93 -3.82,11.29 -1.25,16.65l13.86 29.04 -0.64 1.5 -30.37 10.79c-5.61,2.04 -9.72,6.86 -10.86,12.72 -2.21,11.68 -3.32,23.51 -3.32,35.15 0,11.65 1.11,23.47 3.32,35.19 1.14,5.89 5.25,10.72 10.86,12.72l30.37 10.82c0.21,0.46 0.43,0.96 0.64,1.43l-13.86 29.08c-2.57,5.36 -2.07,11.72 1.25,16.68 13.4,19.68 30.15,36.44 49.83,49.8 4.97,3.36 11.29,3.86 16.68,1.25l29.04 -13.83c0.5,0.21 1,0.39 1.5,0.61l10.79 30.37c1.96,5.61 6.82,9.75 12.68,10.86 11.4,2.18 23.26,3.29 35.15,3.29 11.86,0 23.68,-1.11 35.19,-3.29 5.89,-1.11 10.72,-5.25 12.75,-10.86l10.79 -30.37c0.46,-0.18 0.96,-0.39 1.46,-0.61l29.04 13.83c5.39,2.61 11.75,2.11 16.68,-1.25 19.68,-13.36 36.44,-30.12 49.8,-49.8 3.36,-4.97 3.82,-11.32 1.25,-16.68l-13.86 -29.08c0.21,-0.46 0.43,-0.96 0.64,-1.46l30.33 -10.79c5.61,-2 9.79,-6.82 10.86,-12.68 2.21,-11.5 3.32,-23.36 3.32,-35.22 0,-11.9 -1.11,-23.72 -3.29,-35.15zm-184.98 137.89c-56.62,0 -102.63,-46.08 -102.63,-102.74 0,-56.62 46.01,-102.67 102.63,-102.67 56.66,0 102.74,46.05 102.74,102.67 0,56.66 -46.08,102.74 -102.74,102.74z"/>
   <path class="fil2" d="M563.54 902.31l-88.02 94.17c-3.07,3.29 -7.29,5.18 -11.79,5.32 -0.14,0 -0.32,0 -0.5,0 -4.29,0 -8.4,-1.64 -11.54,-4.61l-40.33 -38.3c-6.72,-6.36 -7,-17 -0.64,-23.72 6.39,-6.72 17.04,-7 23.76,-0.61l28.08 26.61 76.45 -81.81c6.36,-6.79 16.97,-7.14 23.76,-0.82 6.75,6.36 7.14,17 0.79,23.76l0 0z"/>
   <g>
    <path class="fil3" d="M982.19 584.37l25.04 50.83 56.09 8.15c12.82,1.89 17.97,17.68 8.65,26.76l-40.58 39.51 9.57 55.87c2.18,12.79 -11.25,22.54 -22.76,16.5l-50.12 -26.4 -50.19 26.36c-11.47,6.04 -24.9,-3.72 -22.72,-16.54l9.61 -55.84 -40.58 -39.58c-9.29,-9.04 -4.14,-24.83 8.72,-26.69l56.09 -8.15 25.08 -50.8c5.75,-11.65 22.36,-11.65 28.11,0z"/>
   </g>
  </g>
 </g>
</svg>
