<?xml version="1.0" encoding="UTF-8"?>
<!DOCTYPE svg PUBLIC "-//W3C//DTD SVG 1.1//EN" "http://www.w3.org/Graphics/SVG/1.1/DTD/svg11.dtd">
<!-- Creator: CorelDRAW -->
<svg xmlns="http://www.w3.org/2000/svg" xml:space="preserve" width="5.0391mm" height="5.4187mm" version="1.1" style="shape-rendering:geometricPrecision; text-rendering:geometricPrecision; image-rendering:optimizeQuality; fill-rule:evenodd; clip-rule:evenodd"
viewBox="0 0 6266.67 6738.74"
 xmlns:xlink="http://www.w3.org/1999/xlink"
 xmlns:xodm="http://www.corel.com/coreldraw/odm/2003">
 <defs>
  <style type="text/css">
   <![CDATA[
    .fil1 {fill:#273155}
    .fil0 {fill:#9BDCDE}
    .fil2 {fill:#273155;fill-rule:nonzero}
   ]]>
  </style>
 </defs>
 <g id="Layer_x0020_1">
  <metadata id="CorelCorpID_0Corel-Layer"/>
  <g id="_2023163322784">
   <g>
    <path class="fil0" d="M3064 6698.82c22.01,8.95 45.52,13.56 69.27,13.56 23.75,0 47.26,-4.6 69.27,-13.56 1016.15,-411.88 1752.24,-1155.44 2241.85,-2132.04 268.99,-536.74 450.93,-1118.13 573.05,-1704.86 144.76,-695.43 208.8,-1411.12 222.85,-2120.6 0,-1.12 0,-2.24 0,-3.36 0,-72.38 -42.53,-138.16 -108.44,-168.01l-1162.28 -527.29c-23.88,-10.7 -49.74,-16.29 -75.98,-16.29 -32.71,0 -64.92,8.71 -93.15,25.12 -495.95,290.13 -1095.37,426.56 -1667.18,426.56 -571.81,0 -1171.23,-136.55 -1667.18,-426.56 -28.23,-16.42 -60.44,-25.12 -93.15,-25.12 -26.24,0 -52.23,5.6 -76.11,16.29l-1162.4 527.29c-65.79,29.85 -108.19,95.51 -108.19,167.89 0,1.12 0,2.36 0,3.48 13.93,709.48 77.97,1425.17 222.73,2120.6 122.25,586.73 304.19,1168.12 573.18,1704.86 489.61,976.73 1225.58,1720.16 2241.85,2132.04l0 0z"/>
    <path class="fil1" d="M1362.87 446.33c517.59,279.31 1127.08,426.43 1770.4,426.43 643.32,0 1252.81,-147.12 1770.28,-426.43l938.3 425.56c-82.95,2864.53 -993.89,4689.65 -2708.7,5427.98 -1714.69,-738.33 -2625.63,-2563.45 -2708.7,-5427.98l938.43 -425.56 0 0zm1691.31 6276.99c25.12,10.07 51.98,15.42 79.09,15.42 27.11,0 53.97,-5.35 79.09,-15.42 983.07,-398.58 1741.92,-1120.12 2255.53,-2144.73 499.68,-996.88 768.3,-2287.74 798.65,-3836.78 0,-1.37 0.12,-2.74 0.12,-4.1 0,-82.7 -48.5,-157.81 -123.86,-191.76l-1162.28 -527.17c-27.24,-12.44 -56.96,-18.78 -86.93,-18.78 -37.43,0 -74.12,9.95 -106.45,28.73 -466.1,272.72 -1053.58,422.95 -1653.87,422.95 -600.17,0 -1187.77,-150.23 -1653.87,-422.95 -32.21,-18.78 -69.02,-28.73 -106.33,-28.73 -30.1,0 -59.69,6.34 -87.05,18.78l-1162.4 527.17c-75.24,34.2 -123.61,109.19 -123.61,191.89 0,1.37 0,2.74 0,3.98 30.22,1549.04 298.96,2839.9 798.65,3836.78 513.49,1024.61 1272.34,1746.15 2255.53,2144.73l0 0z"/>
   </g>
   <path class="fil2" d="M4624.98 1567.44l-991.9 294.11c-63.42,19.52 -107.32,73.62 -114.16,140.9 -4.85,49.62 17.29,101.6 59.57,139.04l129.83 115.16c10.7,9.45 16.91,22.76 17.41,37.06 0.37,14.18 -5.1,27.98 -15.17,38.05l-540.72 540.85c-20.27,20.15 -52.98,20.15 -73.12,0l-540.72 -540.85c-10.2,-10.07 -15.55,-23.88 -15.17,-38.05 0.5,-14.3 6.72,-27.61 17.41,-37.18l129.96 -115.03c42.16,-37.43 64.42,-89.42 59.32,-139.04 -6.72,-67.28 -50.61,-121.38 -114.54,-141.03l-991.53 -293.99c-54.1,-15.79 -111.68,-2.49 -154.21,35.94 -40.17,36.31 -58.2,97.25 -47.38,159.06l176.72 1006.2c10.45,58.08 49.99,104.34 105.83,123.61 52.23,18.78 115.28,7.59 159.8,-31.84l198.11 -176.22c9.82,-8.83 22.14,-13.18 34.45,-13.18 13.18,0 26.36,5.1 36.44,15.17l698.91 697.91c9.7,9.7 15.17,22.88 15.17,36.56l0 1665.44c0,50.49 41.04,91.65 91.65,91.65l352.81 0c50.49,0 91.65,-41.16 91.65,-91.65l0 -1665.44c0,-13.68 5.35,-26.86 15.05,-36.56l698.78 -697.91c19.52,-19.4 50.61,-20.27 70.89,-1.99l198.36 176.22c44.4,39.42 108.32,50.24 159.18,32.09 56.34,-19.52 96.01,-65.79 106.33,-123.99l176.72 -1006.08c10.82,-61.93 -7.34,-122.74 -47.26,-159.06 -42.66,-38.43 -100.36,-51.86 -154.46,-35.94l0 0z"/>
  </g>
 </g>
</svg>
