<?xml version="1.0" encoding="UTF-8"?>
<!DOCTYPE svg PUBLIC "-//W3C//DTD SVG 1.1//EN" "http://www.w3.org/Graphics/SVG/1.1/DTD/svg11.dtd">
<!-- Creator: CorelDRAW -->
<svg xmlns="http://www.w3.org/2000/svg" xml:space="preserve" width="5.4187mm" height="5.2404mm" version="1.1" style="shape-rendering:geometricPrecision; text-rendering:geometricPrecision; image-rendering:optimizeQuality; fill-rule:evenodd; clip-rule:evenodd"
viewBox="0 0 57.51 55.62"
 xmlns:xlink="http://www.w3.org/1999/xlink"
 xmlns:xodm="http://www.corel.com/coreldraw/odm/2003">
 <defs>
  <style type="text/css">
   <![CDATA[
    .fil1 {fill:black;fill-rule:nonzero}
    .fil0 {fill:#149497;fill-rule:nonzero}
   ]]>
  </style>
 </defs>
 <g id="Layer_x0020_1">
  <metadata id="CorelCorpID_0Corel-Layer"/>
  <g id="_1987894747344">
   <path class="fil0" d="M46.1 40.41c-2.12,0 -3.85,1.72 -3.85,3.85 0,2.12 1.72,3.85 3.85,3.85 2.12,0 3.85,-1.72 3.85,-3.85 0,-2.12 -1.72,-3.85 -3.85,-3.85l0 0zm0 5.4c-0.87,0 -1.58,-0.71 -1.58,-1.58 0,-0.87 0.71,-1.58 1.58,-1.58 0.87,0 1.58,0.71 1.58,1.58 0,0 0,0 0,0.01 -0,0.87 -0.71,1.58 -1.58,1.58 0,0 0,0 0,0l0 0z"/>
   <path class="fil1" d="M46.1 32.82c-3.44,0.01 -6.7,1.58 -8.86,4.26l0 -24.67 2.9 0c0,0 0.01,0 0.01,0 0.43,0 0.83,-0.25 1.01,-0.64 0.06,-0.14 0.1,-0.3 0.1,-0.46 0,-0.28 -0.1,-0.54 -0.28,-0.75l-7.05 -7.84c-0.22,-0.23 -0.52,-0.36 -0.83,-0.36 -0.32,0 -0.62,0.13 -0.83,0.36l-7.02 7.82c-0.18,0.21 -0.28,0.47 -0.28,0.75 0,0.16 0.04,0.32 0.1,0.47 0.18,0.39 0.58,0.64 1.01,0.64 0,0 0.01,0 0.01,0l2.9 0 0 25.8 -4.25 0 0 -20.39c-0,-0.62 -0.5,-1.12 -1.12,-1.12l-5.99 0c-0.62,0 -1.12,0.5 -1.12,1.12l0 20.39 -3.63 0 0 -14.21c0,-0.62 -0.5,-1.12 -1.12,-1.12l-5.98 0c-0.62,0 -1.12,0.5 -1.12,1.12l0 14.46c-0.04,0.03 -0.08,0.06 -0.12,0.1l-4.24 4.4c-0.2,0.21 -0.32,0.49 -0.32,0.78 0,0.27 0.1,0.53 0.28,0.74l4.03 4.64c0.21,0.25 0.52,0.39 0.84,0.39 0,0 0,0 0,0l5.64 0c0.62,0 1.12,-0.5 1.12,-1.12l0 -1.78 4.01 0 0 2.86c0,0.62 0.5,1.12 1.12,1.12l6.26 0c0.62,-0.01 1.11,-0.51 1.12,-1.12l0 -2.86 3.5 0 0 2.56c0,0.62 0.5,1.12 1.12,1.12l7.38 0c2.08,3.33 5.74,5.36 9.67,5.36 6.3,0 11.41,-5.11 11.41,-11.41 0,-6.3 -5.11,-11.41 -11.4,-11.41l0 0.02zm-16.02 -22.65l-1.49 0 4.48 -5.04 4.49 5.04 -1.47 0c-0.62,0 -1.12,0.5 -1.12,1.12l0 26.92 -3.74 0 0 -26.92c0,-0.62 -0.5,-1.12 -1.12,-1.12l-0.03 -0zm-11.32 8.75l3.74 0 0 19.28 -3.74 0 0 -19.28zm-8.11 6.18l0 13.09 -3.74 0 0 -13.09 3.74 0zm35.45 28.3c0,0 -0,0 -0,0 -3.35,0 -6.44,-1.83 -8.05,-4.78 -0.2,-0.36 -0.57,-0.59 -0.99,-0.59l-6.88 0 0 -2.56c0,-0.62 -0.5,-1.12 -1.12,-1.12l-5.77 0c-0.62,0 -1.12,0.5 -1.12,1.12l0 2.84 -4.01 0 0 -2.86c0,-0.62 -0.5,-1.12 -1.12,-1.12l-6.25 0c-0.62,0 -1.11,0.5 -1.11,1.12 0,0 0,0 0,0l0 1.78 -4.02 0 -3.03 -3.48 3.21 -3.31 31.23 0c0.41,-0 0.78,-0.22 0.98,-0.58 1.6,-2.95 4.69,-4.78 8.05,-4.78 5.06,0 9.16,4.1 9.16,9.16 0,5.06 -4.1,9.16 -9.16,9.16l0 0z"/>
   <path class="fil0" d="M2.1 20.36c0.14,0 0.27,-0.03 0.4,-0.08 0.64,-0.24 15.13,-5.94 23.77,-18.53 0.13,-0.19 0.2,-0.41 0.2,-0.64 0,-0.62 -0.5,-1.12 -1.12,-1.12 -0.08,0 -0.15,0.01 -0.23,0.02l-6.33 1.28c-0.54,0.09 -0.93,0.56 -0.93,1.1 0,0.62 0.5,1.12 1.12,1.12 0.08,0 0.17,-0.01 0.25,-0.03l3.47 -0.7c-8.37,10.39 -20.88,15.31 -21.01,15.36 -0.49,0.13 -0.83,0.58 -0.83,1.08 0,0.62 0.5,1.12 1.12,1.12 0.04,0 0.07,-0 0.11,-0.01l0 0z"/>
  </g>
 </g>
</svg>
