<?xml version="1.0" encoding="UTF-8"?>
<!DOCTYPE svg PUBLIC "-//W3C//DTD SVG 1.1//EN" "http://www.w3.org/Graphics/SVG/1.1/DTD/svg11.dtd">
<!-- Creator: CorelDRAW -->
<svg xmlns="http://www.w3.org/2000/svg" xml:space="preserve" width="5.4187mm" height="5.4187mm" version="1.1" style="shape-rendering:geometricPrecision; text-rendering:geometricPrecision; image-rendering:optimizeQuality; fill-rule:evenodd; clip-rule:evenodd"
viewBox="0 0 10607.77 10607.77"
 xmlns:xlink="http://www.w3.org/1999/xlink"
 xmlns:xodm="http://www.corel.com/coreldraw/odm/2003">
 <defs>
  <style type="text/css">
   <![CDATA[
    .fil0 {fill:none}
    .fil1 {fill:#FEFEFE;fill-rule:nonzero}
    .fil5 {fill:#F08421;fill-rule:nonzero}
    .fil6 {fill:#FEDA3F;fill-rule:nonzero}
    .fil4 {fill:#129598;fill-rule:nonzero}
    .fil3 {fill:#195390;fill-rule:nonzero}
    .fil2 {fill:#263155;fill-rule:nonzero}
   ]]>
  </style>
 </defs>
 <g id="Layer_x0020_1">
  <metadata id="CorelCorpID_0Corel-Layer"/>
  <g id="_2023039730688">
   <polygon class="fil0" points="-0,0 10607.77,0 10607.77,10607.77 -0,10607.77 "/>
   <g>
    <path class="fil1" d="M8962.98 171.1l-8230.63 0c-309.89,0 -561.25,251.55 -561.25,561.25l0 8230.63c0,309.89 251.36,561.25 561.25,561.25l8230.63 0c309.89,0 561.25,-251.36 561.25,-561.25l0 -8230.63c0,-309.89 -251.36,-561.25 -561.25,-561.25z"/>
    <path class="fil2" d="M8962.98 342.19l-8230.63 0c-107.67,0 -205.35,43.85 -275.83,114.33 -70.67,70.67 -114.33,168.16 -114.33,275.83l0 8230.63c0,107.87 43.65,205.35 114.33,275.83 70.47,70.67 168.16,114.33 275.83,114.33l8230.63 0c107.67,0 205.35,-43.65 275.83,-114.33 70.67,-70.47 114.33,-167.96 114.33,-275.83l0 -8230.63c0,-107.67 -43.65,-205.16 -114.33,-275.83 -70.47,-70.47 -168.16,-114.33 -275.83,-114.33zm-8230.63 -342.19l8230.63 0c202.22,0 385.26,82.02 517.79,214.56 132.53,132.53 214.56,315.57 214.56,517.79l0 8230.63c0,202.22 -82.02,385.26 -214.56,517.79 -132.53,132.53 -315.57,214.56 -517.79,214.56l-8230.63 0c-202.22,0 -385.26,-82.02 -517.79,-214.56 -132.53,-132.53 -214.56,-315.57 -214.56,-517.79l0 -8230.63c0,-202.03 82.02,-385.06 214.56,-517.79 132.53,-132.34 315.57,-214.56 517.79,-214.56z"/>
    <path class="fil2" d="M175.21 2142.03c2987.92,75.76 9328.66,0.2 9346.87,0l4.11 340.82c-18.4,0.2 -6367.17,75.96 -9359,0l8.03 -340.82z"/>
   </g>
   <path class="fil2" d="M1106.45 1387.17l186.95 0c103.36,0 187.15,-83.79 187.15,-187.15 0,-103.36 -83.79,-186.95 -187.15,-186.95l-186.95 0c-103.36,0 -187.15,83.59 -187.15,186.95 0,103.36 83.79,187.15 187.15,187.15l0 0z"/>
   <path class="fil2" d="M2041.8 1387.17l186.95 0c103.36,0 187.15,-83.79 187.15,-187.15 0,-103.36 -83.79,-186.95 -187.15,-186.95l-186.95 0c-103.36,0 -187.15,83.59 -187.15,186.95 0,103.36 83.79,187.15 187.15,187.15l0 0z"/>
   <path class="fil2" d="M2976.96 1387.17l187.15 0c103.36,0 187.15,-83.79 187.15,-187.15 0,-103.36 -83.79,-186.95 -187.15,-186.95l-187.15 0c-103.17,0 -186.95,83.59 -186.95,186.95 0,103.36 83.79,187.15 186.95,187.15l0 0z"/>
   <path class="fil3" d="M6344.07 1387.17l2244.81 0c103.36,0 187.15,-83.79 187.15,-187.15 0,-103.36 -83.79,-186.95 -187.15,-186.95l-2244.81 0c-103.17,0 -186.95,83.59 -186.95,186.95 0,103.36 83.79,187.15 186.95,187.15l0 0z"/>
   <path class="fil1" d="M8025.08 5613.48c-1331.77,0 -2411.6,1080.02 -2411.6,2411.6 0,1331.77 1079.82,2411.79 2411.6,2411.79 1331.58,0 2411.6,-1080.02 2411.6,-2411.79 0,-1331.58 -1080.02,-2411.6 -2411.6,-2411.6z"/>
   <path class="fil2" d="M8025.08 5784.58c-618.61,0 -1178.88,250.97 -1584.3,656.39 -405.42,405.42 -656.2,965.5 -656.2,1584.11 0,618.61 250.77,1178.88 656.2,1584.3 405.42,405.42 965.7,656.39 1584.3,656.39 618.61,0 1178.68,-250.97 1584.11,-656.39 405.42,-405.42 656.39,-965.7 656.39,-1584.3 0,-618.61 -250.97,-1178.68 -656.39,-1584.11 -405.42,-405.42 -965.5,-656.39 -1584.11,-656.39zm-1826.27 414.43c467.48,-467.48 1113.1,-756.62 1826.27,-756.62 712.97,0 1358.59,289.34 1826.07,756.62 467.48,467.48 756.62,1113.1 756.62,1826.07 0,713.16 -289.14,1358.79 -756.62,1826.27 -467.48,467.28 -1113.1,756.43 -1826.07,756.43 -713.16,0 -1358.79,-289.14 -1826.27,-756.43 -467.28,-467.48 -756.43,-1113.1 -756.43,-1826.27 0,-712.97 289.14,-1358.59 756.43,-1826.07z"/>
   <path class="fil4" d="M9057.14 7779.01c-60.29,60.88 -142.51,95.14 -228.26,95.14 -85.74,0 -167.96,-34.26 -228.26,-95.14l-254.1 -257.23 0 1783.59c0,177.56 -143.89,321.44 -321.44,321.44 -177.56,0 -321.64,-143.89 -321.64,-321.44l0 -1783.59 -253.9 257.23c-60.49,60.88 -142.71,95.14 -228.45,95.14 -85.74,0 -167.96,-34.26 -228.26,-95.14 -60.88,-60.29 -95.14,-142.51 -95.14,-228.26 0,-85.74 34.26,-167.96 95.14,-228.26l803.8 -803.8c60.49,-60.88 142.71,-95.14 228.45,-95.14 85.74,0 167.96,34.26 228.26,95.14l803.8 803.8c60.88,60.29 95.14,142.51 95.14,228.26 0,85.74 -34.26,167.96 -95.14,228.26l0 0z"/>
   <path class="fil4" d="M2553.13 4342.99l1392.85 0c76.93,0 139.19,-62.25 139.19,-139.19 0,-76.93 -62.25,-139.38 -139.19,-139.38l-1392.85 0c-76.74,0 -139.19,62.45 -139.19,139.38 0,76.93 62.45,139.19 139.19,139.19l0 0z"/>
   <path class="fil3" d="M3806.6 4621.56l-835.51 0c-76.93,0 -139.38,62.45 -139.38,139.38 0,76.74 62.45,139.19 139.38,139.19l835.51 0c76.93,0 139.38,-62.45 139.38,-139.19 0,-76.93 -62.45,-139.38 -139.38,-139.38l0 0z"/>
   <path class="fil5" d="M4363.74 4900.13l1253.47 0c76.93,0 139.38,-62.45 139.38,-139.19 0,-76.93 -62.45,-139.38 -139.38,-139.38l-1253.47 0c-76.93,0 -139.19,62.45 -139.19,139.38 0,76.74 62.25,139.19 139.19,139.19l0 0z"/>
   <path class="fil3" d="M2971.08 6014.4l835.51 0c76.93,0 139.38,-62.45 139.38,-139.38 0,-76.93 -62.45,-139.19 -139.38,-139.19l-835.51 0c-76.93,0 -139.38,62.25 -139.38,139.19 0,76.93 62.45,139.38 139.38,139.38l0 0z"/>
   <path class="fil5" d="M3806.6 5317.88c0,-76.93 -62.25,-139.19 -139.19,-139.19l-835.71 0c-76.93,0 -139.19,62.25 -139.19,139.19 0,76.93 62.25,139.38 139.19,139.38l835.71 0c76.93,0 139.19,-62.45 139.19,-139.38l0 0z"/>
   <path class="fil3" d="M5617.2 5317.88c0,-76.93 -62.25,-139.19 -139.19,-139.19l-1253.47 0c-76.93,0 -139.38,62.25 -139.38,139.19 0,76.93 62.45,139.38 139.38,139.38l1253.47 0c76.93,0 139.19,-62.45 139.19,-139.38l0 0z"/>
   <path class="fil4" d="M5976.62 5457.27l557.14 0c76.93,0 139.19,-62.45 139.19,-139.38 0,-76.93 -62.25,-139.19 -139.19,-139.19l-557.14 0c-76.93,0 -139.38,62.25 -139.38,139.19 0,76.93 62.45,139.38 139.38,139.38l0 0z"/>
   <path class="fil5" d="M2553.13 3785.85l1114.28 0c76.93,0 139.19,-62.25 139.19,-139.19 0,-76.93 -62.25,-139.38 -139.19,-139.38l-1114.28 0c-76.74,0 -139.19,62.45 -139.19,139.38 0,76.93 62.45,139.19 139.19,139.19l0 0z"/>
   <path class="fil4" d="M3945.98 6849.92l-1392.85 0c-76.74,0 -139.19,62.45 -139.19,139.38 0,76.93 62.45,139.19 139.19,139.19l1392.85 0c76.93,0 139.19,-62.25 139.19,-139.19 0,-76.93 -62.25,-139.38 -139.19,-139.38l0 0z"/>
   <path class="fil5" d="M3806.6 7407.06l-835.51 0c-76.93,0 -139.38,62.45 -139.38,139.38 0,76.74 62.45,139.19 139.38,139.19l835.51 0c76.93,0 139.38,-62.45 139.38,-139.19 0,-76.93 -62.45,-139.38 -139.38,-139.38l0 0z"/>
   <path class="fil5" d="M3806.6 8521.34l-835.51 0c-76.93,0 -139.38,62.25 -139.38,139.19 0,76.93 62.45,139.38 139.38,139.38l835.51 0c76.93,0 139.38,-62.45 139.38,-139.38 0,-76.93 -62.45,-139.19 -139.38,-139.19l0 0z"/>
   <path class="fil3" d="M3667.41 8242.77c76.93,0 139.19,-62.45 139.19,-139.38 0,-76.74 -62.25,-139.19 -139.19,-139.19l-835.71 0c-76.93,0 -139.19,62.45 -139.19,139.19 0,76.93 62.25,139.38 139.19,139.38l835.71 0z"/>
   <path class="fil6" d="M2553.13 6571.35l1114.28 0c76.93,0 139.19,-62.25 139.19,-139.19 0,-76.93 -62.25,-139.38 -139.19,-139.38l-1114.28 0c-76.74,0 -139.19,62.45 -139.19,139.38 0,76.93 62.45,139.19 139.19,139.19l0 0z"/>
   <path class="fil2" d="M1995.99 3368.09c-76.74,0 -139.19,62.45 -139.19,139.19l0 5292.63c0,76.93 62.45,139.19 139.38,139.19 76.74,0 139.19,-62.25 139.19,-139.19l0 -5292.63c0,-76.74 -62.45,-139.19 -139.19,-139.19l-0.2 0z"/>
   <path class="fil3" d="M1439.05 4064.42l-278.57 0c-76.93,0 -139.38,62.45 -139.38,139.38 0,76.93 62.45,139.19 139.38,139.19l278.57 0c76.93,0 139.19,-62.25 139.19,-139.19 0,-76.93 -62.25,-139.38 -139.19,-139.38l0 0z"/>
   <path class="fil3" d="M1439.05 3507.28l-278.57 0c-76.93,0 -139.38,62.45 -139.38,139.38 0,76.93 62.45,139.19 139.38,139.19l278.57 0c76.93,0 139.19,-62.25 139.19,-139.19 0,-76.93 -62.25,-139.38 -139.19,-139.38l0 0z"/>
   <path class="fil4" d="M1439.05 4621.56l-278.57 0c-76.93,0 -139.38,62.45 -139.38,139.38 0,76.74 62.45,139.19 139.38,139.19l278.57 0c76.93,0 139.19,-62.45 139.19,-139.19 0,-76.93 -62.25,-139.38 -139.19,-139.38l0 0z"/>
   <path class="fil5" d="M1439.05 5178.7l-278.57 0c-76.93,0 -139.38,62.25 -139.38,139.19 0,76.93 62.45,139.38 139.38,139.38l278.57 0c76.93,0 139.19,-62.45 139.19,-139.38 0,-76.93 -62.25,-139.19 -139.19,-139.19l0 0z"/>
   <path class="fil6" d="M1439.05 5735.83l-278.57 0c-76.93,0 -139.38,62.25 -139.38,139.19 0,76.93 62.45,139.38 139.38,139.38l278.57 0c76.93,0 139.19,-62.45 139.19,-139.38 0,-76.93 -62.25,-139.19 -139.19,-139.19l0 0z"/>
   <path class="fil5" d="M1439.05 6292.78l-278.57 0c-76.93,0 -139.38,62.45 -139.38,139.38 0,76.93 62.45,139.19 139.38,139.19l278.57 0c76.93,0 139.19,-62.25 139.19,-139.19 0,-76.93 -62.25,-139.38 -139.19,-139.38l0 0z"/>
   <path class="fil4" d="M1439.05 6849.92l-278.57 0c-76.93,0 -139.38,62.45 -139.38,139.38 0,76.93 62.45,139.19 139.38,139.19l278.57 0c76.93,0 139.19,-62.25 139.19,-139.19 0,-76.93 -62.25,-139.38 -139.19,-139.38l0 0z"/>
   <path class="fil4" d="M1439.05 7407.06l-278.57 0c-76.93,0 -139.38,62.45 -139.38,139.38 0,76.74 62.45,139.19 139.38,139.19l278.57 0c76.93,0 139.19,-62.45 139.19,-139.19 0,-76.93 -62.25,-139.38 -139.19,-139.38l0 0z"/>
   <path class="fil5" d="M1439.05 7964.2l-278.57 0c-76.93,0 -139.38,62.45 -139.38,139.19 0,76.93 62.45,139.38 139.38,139.38l278.57 0c76.93,0 139.19,-62.45 139.19,-139.38 0,-76.74 -62.25,-139.19 -139.19,-139.19l0 0z"/>
   <path class="fil3" d="M1439.05 8521.34l-278.57 0c-76.93,0 -139.38,62.25 -139.38,139.19 0,76.93 62.45,139.38 139.38,139.38l278.57 0c76.93,0 139.19,-62.45 139.19,-139.38 0,-76.93 -62.25,-139.19 -139.19,-139.19l0 0z"/>
   <path class="fil3" d="M4236.88 6571.35l1114.08 0c76.93,0 139.38,-62.25 139.38,-139.19 0,-76.93 -62.45,-139.38 -139.38,-139.38l-1114.08 0c-76.93,0 -139.38,62.45 -139.38,139.38 0,76.93 62.45,139.19 139.38,139.19l0 0z"/>
   <path class="fil3" d="M4973.73 7964.2l-835.71 0c-76.93,0 -139.19,62.45 -139.19,139.19 0,76.93 62.25,139.38 139.19,139.38l835.71 0c76.93,0 139.19,-62.45 139.19,-139.38 0,-76.74 -62.25,-139.19 -139.19,-139.19l0 0z"/>
   <path class="fil5" d="M4449.29 5964.49l557.14 0c76.93,0 139.19,-62.45 139.19,-139.38 0,-76.93 -62.25,-139.19 -139.19,-139.19l-557.14 0c-76.93,0 -139.38,62.25 -139.38,139.19 0,76.93 62.45,139.38 139.38,139.38l0 0z"/>
   <path class="fil5" d="M4353.56 8799.91l557.14 0c76.93,0 139.38,-62.45 139.38,-139.38 0,-76.93 -62.45,-139.19 -139.38,-139.19l-557.14 0c-76.93,0 -139.19,62.25 -139.19,139.19 0,76.93 62.25,139.38 139.19,139.38l0 0z"/>
   <path class="fil5" d="M5295.57 6849.92l-835.71 0c-76.93,0 -139.19,62.45 -139.19,139.38 0,76.93 62.25,139.19 139.19,139.19l835.71 0c76.93,0 139.19,-62.25 139.19,-139.19 0,-76.93 -62.25,-139.38 -139.19,-139.38l0 0z"/>
   <path class="fil5" d="M4802.24 4342.99l2370.49 0c76.93,0 139.19,-62.25 139.19,-139.19 0,-76.93 -62.25,-139.38 -139.19,-139.38l-2370.49 0c-76.93,0 -139.38,62.45 -139.38,139.38 0,76.93 62.45,139.19 139.38,139.19l0 0z"/>
   <path class="fil6" d="M4186.96 3785.85l4358.45 0c76.93,0 139.19,-62.25 139.19,-139.19 0,-76.93 -62.25,-139.38 -139.19,-139.38l-4358.45 0c-76.93,0 -139.38,62.45 -139.38,139.38 0,76.93 62.45,139.19 139.38,139.19l0 0z"/>
  </g>
 </g>
</svg>
