<?xml version="1.0" encoding="UTF-8"?>
<!DOCTYPE svg PUBLIC "-//W3C//DTD SVG 1.1//EN" "http://www.w3.org/Graphics/SVG/1.1/DTD/svg11.dtd">
<!-- Creator: CorelDRAW -->
<svg xmlns="http://www.w3.org/2000/svg" xml:space="preserve" width="5.4187mm" height="5.4187mm" version="1.1" style="shape-rendering:geometricPrecision; text-rendering:geometricPrecision; image-rendering:optimizeQuality; fill-rule:evenodd; clip-rule:evenodd"
viewBox="0 0 48.66 48.66"
 xmlns:xlink="http://www.w3.org/1999/xlink"
 xmlns:xodm="http://www.corel.com/coreldraw/odm/2003">
 <defs>
  <style type="text/css">
   <![CDATA[
    .fil6 {fill:none}
    .fil0 {fill:#FEFEFE;fill-rule:nonzero}
    .fil5 {fill:#E95050;fill-rule:nonzero}
    .fil3 {fill:#FEDA3F;fill-rule:nonzero}
    .fil2 {fill:#A2D6D8;fill-rule:nonzero}
    .fil1 {fill:#263155;fill-rule:nonzero}
    .fil4 {fill:white;fill-rule:nonzero}
   ]]>
  </style>
 </defs>
 <g id="Layer_x0020_1">
  <metadata id="CorelCorpID_0Corel-Layer"/>
  <g id="_2023087132624">
   <path class="fil0" d="M18.01 40.37l-3.03 0c-1.01,0 -1.84,-0.83 -1.84,-1.84l0 -1.94c-0.95,-0.27 -1.86,-0.64 -2.71,-1.13l-1.37 1.37c-0.35,0.35 -0.81,0.54 -1.3,0.54 0,0 0,0 0,0 -0.49,0 -0.95,-0.19 -1.3,-0.54l-2.15 -2.15c-0.72,-0.72 -0.72,-1.89 0,-2.6l1.37 -1.37c-0.48,-0.86 -0.86,-1.77 -1.12,-2.71l-1.93 0c-0.49,0 -0.95,-0.19 -1.3,-0.54 -0.35,-0.35 -0.54,-0.81 -0.54,-1.3l0 -3.04c0,-1.02 0.83,-1.84 1.84,-1.84l1.93 0c0.27,-0.94 0.64,-1.85 1.12,-2.71l-1.36 -1.37c-0.35,-0.35 -0.54,-0.81 -0.54,-1.3 0,-0.49 0.19,-0.95 0.54,-1.3l2.15 -2.15c0.72,-0.72 1.88,-0.72 2.6,0l1.37 1.37c0.85,-0.48 1.76,-0.86 2.7,-1.12l0 -1.94c0,-1.02 0.83,-1.84 1.84,-1.84l3.03 0c1.01,0 1.84,0.83 1.84,1.84l0 1.94c0.94,0.26 1.85,0.64 2.7,1.12l1.37 -1.37c0.72,-0.72 1.88,-0.72 2.6,-0l2.15 2.15c0.35,0.35 0.54,0.81 0.54,1.3 0,0.49 -0.19,0.96 -0.54,1.3l-1.37 1.37c0.48,0.86 0.86,1.76 1.12,2.71l1.94 0c1.01,0 1.84,0.83 1.84,1.84l0 3.04c0,0.49 -0.19,0.95 -0.54,1.3 -0.35,0.35 -0.81,0.54 -1.3,0.54l-1.93 0c-0.26,0.95 -0.64,1.86 -1.12,2.71l1.37 1.37c0.72,0.72 0.72,1.89 0,2.6l-2.15 2.15c-0.35,0.35 -0.81,0.54 -1.3,0.54 0,0 0,0 0,0 -0.49,0 -0.95,-0.19 -1.3,-0.54l-1.36 -1.37c-0.86,0.48 -1.77,0.86 -2.71,1.13l0 1.94c-0,1.02 -0.83,1.84 -1.84,1.84z"/>
   <path class="fil1" d="M18.01 41.16l-3.03 0c-0.72,0 -1.38,-0.3 -1.86,-0.77 -0.48,-0.48 -0.77,-1.13 -0.77,-1.85l0 -1.36c-0.31,-0.1 -0.61,-0.21 -0.91,-0.34 -0.29,-0.12 -0.59,-0.26 -0.88,-0.4l-0.95 0.95c-0.25,0.25 -0.54,0.44 -0.85,0.57 -0.32,0.13 -0.66,0.2 -1.01,0.2 -0.35,0 -0.69,-0.07 -1.01,-0.2 -0.31,-0.13 -0.6,-0.32 -0.85,-0.57l-2.15 -2.15c-0.51,-0.51 -0.76,-1.18 -0.76,-1.86 0,-0.67 0.26,-1.34 0.77,-1.85l0.96 -0.96c-0.14,-0.29 -0.28,-0.58 -0.4,-0.88 -0.12,-0.3 -0.23,-0.6 -0.33,-0.9l-1.35 0c-0.35,0 -0.69,-0.07 -1.01,-0.2 -0.31,-0.13 -0.6,-0.32 -0.85,-0.57l-0 0c-0.25,-0.25 -0.44,-0.54 -0.57,-0.85 -0.13,-0.31 -0.2,-0.65 -0.2,-1l0 -3.04 -0 0c0,-0.72 0.29,-1.38 0.77,-1.85 0.48,-0.48 1.13,-0.77 1.86,-0.77l1.36 0c0.1,-0.31 0.21,-0.61 0.34,-0.9 0.12,-0.3 0.26,-0.59 0.4,-0.88l-0.95 -0.96 -0 0c-0.24,-0.25 -0.44,-0.54 -0.57,-0.85 -0.13,-0.32 -0.2,-0.66 -0.2,-1 0,-0.35 0.07,-0.69 0.2,-1.01 0.13,-0.32 0.32,-0.61 0.57,-0.85l0 0 2.15 -2.15 0 -0 0 -0 0 0c0.51,-0.51 1.18,-0.76 1.85,-0.76 0.67,0 1.34,0.26 1.85,0.76l0 0 0 0 0 0 0.95 0.96c0.29,-0.14 0.58,-0.28 0.88,-0.4 0.3,-0.12 0.6,-0.23 0.9,-0.33l0 -1.36c0,-0.72 0.29,-1.38 0.77,-1.85 0.48,-0.48 1.13,-0.77 1.86,-0.77l3.03 0c0.72,0 1.38,0.3 1.86,0.77 0.48,0.48 0.77,1.13 0.77,1.85l0 1.36c0.3,0.1 0.61,0.21 0.9,0.34 0.3,0.12 0.59,0.26 0.87,0.4l0.95 -0.96 0 -0c0.51,-0.51 1.18,-0.77 1.86,-0.77 0.67,0 1.34,0.26 1.85,0.76 0,0 0,0 0,0l2.14 2.15 0 -0c0.25,0.25 0.44,0.54 0.57,0.85 0.13,0.32 0.2,0.66 0.2,1.01 0,0.35 -0.07,0.69 -0.2,1 -0.13,0.32 -0.32,0.61 -0.57,0.85l-0 -0 -0.96 0.96c0.15,0.29 0.28,0.58 0.4,0.88 0.12,0.3 0.23,0.6 0.33,0.9l1.36 0c0.72,0 1.38,0.3 1.85,0.77 0.47,0.47 0.77,1.13 0.77,1.85l0 3.04 0 0c0,0.35 -0.07,0.69 -0.2,1 -0.13,0.32 -0.32,0.61 -0.57,0.85 -0.25,0.25 -0.54,0.44 -0.85,0.57l-0 0c-0.32,0.13 -0.66,0.2 -1,0.2l-1.35 0c-0.1,0.3 -0.21,0.61 -0.33,0.9 -0.12,0.3 -0.26,0.6 -0.4,0.88l0.96 0.96c0.51,0.51 0.77,1.18 0.77,1.85 0,0.67 -0.26,1.34 -0.77,1.85l-2.15 2.15c-0.25,0.25 -0.54,0.44 -0.85,0.57 -0.32,0.13 -0.66,0.2 -1.01,0.2 -0.35,0 -0.69,-0.07 -1.01,-0.2 -0.31,-0.13 -0.6,-0.32 -0.85,-0.57l-0.95 -0.95c-0.29,0.14 -0.58,0.28 -0.88,0.4 -0.3,0.12 -0.6,0.24 -0.91,0.34l0 1.36 -0 0c-0,0.72 -0.29,1.38 -0.77,1.85 -0.48,0.48 -1.13,0.77 -1.86,0.77zm-3.03 -1.57l3.03 0c0.29,0 0.56,-0.12 0.75,-0.31 0.19,-0.19 0.31,-0.46 0.31,-0.75l-0 0 0 -2.53 0.57 -0.16c0.44,-0.12 0.88,-0.27 1.3,-0.45 0.42,-0.18 0.84,-0.38 1.24,-0.6l0.52 -0.29 1.79 1.79c0.1,0.1 0.21,0.18 0.34,0.23 0.12,0.05 0.26,0.08 0.4,0.08 0.14,0 0.28,-0.03 0.4,-0.08 0.13,-0.05 0.24,-0.13 0.34,-0.23l2.15 -2.15c0.21,-0.21 0.31,-0.48 0.31,-0.75 0,-0.27 -0.1,-0.55 -0.31,-0.75l-1.79 -1.79 0.29 -0.52c0.23,-0.41 0.43,-0.82 0.6,-1.24 0.18,-0.42 0.33,-0.86 0.45,-1.3l0.16 -0.58 2.53 0c0.15,0 0.28,-0.03 0.41,-0.08l-0 -0c0.13,-0.05 0.24,-0.13 0.34,-0.23 0.1,-0.1 0.18,-0.22 0.23,-0.34 0.05,-0.12 0.08,-0.26 0.08,-0.41l0 0 -0 -3.04c0,-0.29 -0.12,-0.56 -0.31,-0.75 -0.19,-0.19 -0.45,-0.31 -0.75,-0.31l-2.53 0 -0.16 -0.57c-0.12,-0.44 -0.27,-0.87 -0.45,-1.3 -0.18,-0.42 -0.38,-0.84 -0.6,-1.24l-0.29 -0.52 1.78 -1.79 0 -0c0.1,-0.1 0.18,-0.22 0.23,-0.34 0.05,-0.12 0.08,-0.26 0.08,-0.41 0,-0.14 -0.03,-0.28 -0.08,-0.4 -0.05,-0.12 -0.13,-0.24 -0.23,-0.34l0 -0c-0.18,-0.18 -2.14,-2.15 -2.15,-2.15l-0 -0 0 -0c-0.21,-0.21 -0.48,-0.31 -0.75,-0.31 -0.27,0 -0.54,0.1 -0.75,0.31l-0 0 -0 -0 -1.79 1.79 -0.52 -0.29c-0.4,-0.23 -0.81,-0.43 -1.23,-0.6 -0.42,-0.18 -0.86,-0.33 -1.3,-0.45l-0.57 -0.16 0 -2.53c0,-0.29 -0.12,-0.56 -0.31,-0.75 -0.19,-0.19 -0.45,-0.31 -0.75,-0.31l-3.03 0c-0.29,0 -0.56,0.12 -0.75,0.31 -0.19,0.19 -0.31,0.46 -0.31,0.75l0 2.53 -0.57 0.16c-0.44,0.12 -0.87,0.27 -1.3,0.45 -0.42,0.17 -0.83,0.38 -1.24,0.6l-0.52 0.29 -1.79 -1.79 -0 0 -0 -0 0 -0c-0.21,-0.21 -0.48,-0.31 -0.75,-0.31 -0.27,0 -0.54,0.1 -0.75,0.31l0 0 -0 0 -0 -0 -2.15 2.15 0 0c-0.1,0.1 -0.18,0.22 -0.23,0.34 -0.05,0.12 -0.08,0.26 -0.08,0.4 0,0.15 0.03,0.28 0.08,0.41 0.05,0.12 0.13,0.24 0.23,0.34l0 0 1.78 1.79 -0.29 0.52c-0.23,0.4 -0.43,0.82 -0.6,1.24 -0.18,0.42 -0.33,0.86 -0.45,1.3l-0.16 0.57 -2.53 0c-0.29,0 -0.56,0.12 -0.75,0.31 -0.19,0.19 -0.31,0.46 -0.31,0.75l-0 0 -0 3.04c-0,0.14 0.03,0.28 0.08,0.41 0.05,0.12 0.13,0.24 0.23,0.34l0 0c0.1,0.1 0.21,0.18 0.34,0.23 0.12,0.05 0.26,0.08 0.4,0.08l2.53 0 0.16 0.58c0.12,0.44 0.27,0.88 0.45,1.3 0.17,0.42 0.37,0.83 0.6,1.24l0.29 0.52 -1.78 1.79c-0.21,0.21 -0.31,0.48 -0.31,0.75 0,0.27 0.1,0.54 0.31,0.75l2.15 2.15c0.1,0.1 0.21,0.18 0.34,0.23 0.12,0.05 0.26,0.08 0.4,0.08 0.14,0 0.28,-0.03 0.4,-0.08 0.13,-0.05 0.24,-0.13 0.34,-0.23l1.79 -1.79 0.52 0.29c0.39,0.22 0.8,0.42 1.24,0.6 0.42,0.18 0.86,0.33 1.3,0.45l0.57 0.16 0 2.53c0,0.29 0.12,0.56 0.31,0.75 0.19,0.19 0.45,0.31 0.75,0.31z"/>
   <path class="fil2" d="M27.96 27.39l2.41 0c0.68,0 1.23,-0.55 1.23,-1.23l-0 -3.04c0,-0.68 -0.55,-1.23 -1.23,-1.23l-2.41 0c-0.29,-1.23 -0.78,-2.38 -1.42,-3.42l1.7 -1.7c0.48,-0.48 0.48,-1.26 -0,-1.74l-2.15 -2.15c-0.48,-0.48 -1.26,-0.48 -1.73,0l-1.7 1.7c-1.04,-0.64 -2.19,-1.12 -3.42,-1.42l0 -2.41c0,-0.68 -0.55,-1.23 -1.23,-1.23l-3.03 0c-0.68,0 -1.23,0.55 -1.23,1.23l0 2.41c-1.22,0.29 -2.37,0.77 -3.42,1.42l-1.7 -1.7c-0.48,-0.48 -1.26,-0.48 -1.73,-0l-2.15 2.15c-0.48,0.48 -0.48,1.26 0,1.74l1.7 1.7c-0.64,1.04 -1.13,2.19 -1.42,3.42l-2.41 0c-0.68,0 -1.23,0.55 -1.23,1.23l-0 3.04c-0,0.68 0.55,1.23 1.23,1.23l2.41 -0c0.29,1.23 0.77,2.38 1.42,3.43l-1.7 1.7c-0.48,0.48 -0.48,1.26 -0,1.74l2.15 2.15c0.48,0.48 1.26,0.48 1.73,0l1.7 -1.7c1.05,0.64 2.2,1.13 3.43,1.42l0 2.41c0,0.68 0.55,1.23 1.23,1.23l3.03 0c0.68,0 1.23,-0.55 1.23,-1.23l0 -2.41c1.23,-0.29 2.38,-0.78 3.42,-1.42l1.7 1.7c0.48,0.48 1.26,0.48 1.73,0l2.15 -2.15c0.48,-0.48 0.48,-1.26 -0,-1.74l-1.7 -1.7c0.64,-1.05 1.13,-2.2 1.42,-3.43z"/>
   <g>
    <circle class="fil3" cx="16.5" cy="24.65" r="7.61"/>
    <circle class="fil4" cx="16.5" cy="24.65" r="4.91"/>
    <path class="fil1" d="M16.5 32.87c-2.2,0 -4.26,-0.86 -5.81,-2.41 -1.55,-1.55 -2.41,-3.62 -2.41,-5.82 0,-2.2 0.85,-4.26 2.41,-5.82 2.46,-2.46 6.22,-3.11 9.35,-1.61 0.31,0.15 0.44,0.51 0.29,0.82 -0.15,0.31 -0.51,0.44 -0.82,0.29 -2.67,-1.27 -5.86,-0.72 -7.96,1.37 -1.32,1.32 -2.05,3.08 -2.05,4.95 0,1.87 0.73,3.63 2.05,4.95 1.32,1.32 3.08,2.05 4.95,2.05 1.87,0 3.62,-0.73 4.94,-2.05 2.17,-2.17 2.68,-5.46 1.26,-8.18 -0.16,-0.3 -0.04,-0.67 0.26,-0.83 0.3,-0.16 0.67,-0.04 0.83,0.26 0.8,1.54 1.09,3.27 0.84,5 -0.26,1.76 -1.06,3.36 -2.32,4.62 -1.55,1.55 -3.62,2.41 -5.81,2.41z"/>
    <path class="fil1" d="M21.9 19.9c-0.16,0 -0.32,-0.06 -0.44,-0.18l-0.02 -0.02c-0.24,-0.24 -0.24,-0.63 0,-0.87 0.24,-0.24 0.63,-0.24 0.87,0l0.03 0.03c0.24,0.24 0.24,0.63 -0,0.87 -0.12,0.12 -0.28,0.18 -0.43,0.18z"/>
    <path class="fil1" d="M16.51 30.18c-0.59,0 -1.19,-0.1 -1.77,-0.29 -0.32,-0.11 -0.49,-0.46 -0.39,-0.78 0.11,-0.32 0.46,-0.49 0.78,-0.39 1.56,0.52 3.25,0.13 4.41,-1.04 0.81,-0.81 1.26,-1.89 1.26,-3.04 0,-1.15 -0.45,-2.23 -1.26,-3.04 -0.81,-0.81 -1.89,-1.26 -3.04,-1.26 -1.15,0 -2.23,0.45 -3.04,1.26 -1.15,1.15 -1.55,2.83 -1.05,4.38 0.11,0.32 -0.07,0.67 -0.39,0.77 -0.32,0.11 -0.67,-0.07 -0.77,-0.39 -0.65,-1.99 -0.13,-4.15 1.34,-5.63 1.04,-1.04 2.43,-1.62 3.9,-1.62 1.47,0 2.86,0.57 3.9,1.62 1.04,1.04 1.62,2.43 1.62,3.91 0,1.48 -0.57,2.86 -1.62,3.91 -1.06,1.06 -2.46,1.62 -3.89,1.62z"/>
    <path class="fil1" d="M13.04 28.75c-0.16,0 -0.31,-0.06 -0.43,-0.18l-0.02 -0.02c-0.24,-0.24 -0.24,-0.63 0,-0.87 0.24,-0.24 0.63,-0.24 0.87,0l0.02 0.02c0.24,0.24 0.24,0.63 0,0.87 -0.12,0.12 -0.28,0.18 -0.44,0.18z"/>
   </g>
   <path class="fil1" d="M35.38 24.64l0 0.03c0,0.42 0.34,0.77 0.77,0.77 0.42,0 0.77,-0.34 0.77,-0.77l0 -0.03c0,-0.42 -0.34,-0.77 -0.77,-0.77 -0.42,0 -0.77,0.34 -0.77,0.77z"/>
   <path class="fil1" d="M32.59 30.87c-0.14,0.14 -0.22,0.34 -0.22,0.54 0,0.2 0.08,0.4 0.22,0.54 0.14,0.14 0.34,0.22 0.54,0.22 0.2,0 0.4,-0.08 0.54,-0.22 0.14,-0.14 0.22,-0.34 0.22,-0.54 0,-0.2 -0.08,-0.4 -0.22,-0.54 -0.14,-0.14 -0.34,-0.23 -0.54,-0.23 -0.2,0 -0.4,0.08 -0.54,0.23z"/>
   <path class="fil1" d="M45.27 32.84c-0.44,0 -0.86,0.11 -1.22,0.3l-2.27 -2.27c-0.14,-0.14 -0.34,-0.22 -0.54,-0.22l-5.59 0c-0.42,0 -0.77,0.34 -0.77,0.77 0,0.42 0.34,0.77 0.77,0.77l5.27 0 2.04 2.05c-0.19,0.36 -0.3,0.78 -0.3,1.22 0,1.44 1.17,2.61 2.61,2.61 1.44,0 2.61,-1.17 2.61,-2.61 0,-1.44 -1.17,-2.61 -2.6,-2.61z"/>
   <path class="fil1" d="M37.1 10.41c0.28,0 0.54,-0.15 0.67,-0.4l2.33 -4.22c0.32,0.14 0.66,0.21 1.03,0.21 1.44,0 2.61,-1.17 2.61,-2.61 0,-1.44 -1.17,-2.61 -2.61,-2.61 -1.44,0 -2.61,1.17 -2.61,2.61 0,0.5 0.14,0.97 0.39,1.37l-2.27 4.11c-3.05,0 -6.01,0 -8.97,0 -0.42,0 -0.77,0.34 -0.77,0.77 0,0.42 0.34,0.77 0.77,0.77 3.12,0 6.21,0 9.42,0z"/>
   <path class="fil1" d="M41.24 18.68c0.2,0 0.4,-0.08 0.54,-0.22l2.27 -2.27c0.36,0.19 0.78,0.3 1.22,0.3 1.44,0 2.61,-1.17 2.61,-2.61 0,-1.44 -1.17,-2.61 -2.61,-2.61 -1.44,0 -2.61,1.17 -2.61,2.61 0,0.44 0.11,0.85 0.3,1.22l-2.04 2.05c-3.29,0 -4.69,0 -7.81,0 -0.42,0 -0.77,0.34 -0.77,0.77 0,0.42 0.34,0.77 0.77,0.77 3.3,0 4.82,0 8.12,0z"/>
   <path class="fil1" d="M45.27 22.07c-1.17,0 -2.16,0.78 -2.49,1.84l-2.26 0c-0.42,0 -0.77,0.34 -0.77,0.77 0,0.42 0.34,0.77 0.77,0.77l2.26 0c0.33,1.06 1.32,1.84 2.49,1.84 1.44,0 2.61,-1.17 2.61,-2.61 0,-1.44 -1.17,-2.61 -2.6,-2.61z"/>
   <circle class="fil3" cx="45.27" cy="24.68" r="1.44"/>
   <circle class="fil2" cx="45.27" cy="13.88" r="1.44"/>
   <circle class="fil5" cx="41.13" cy="3.39" r="1.44"/>
   <circle class="fil2" cx="45.27" cy="35.45" r="1.44"/>
   <g>
    <path class="fil1" d="M37.24 38.25c0.28,0 0.54,0.15 0.67,0.4l2.33 4.22c0.32,-0.14 0.66,-0.21 1.03,-0.21 1.44,0 2.61,1.17 2.61,2.61 0,1.44 -1.17,2.61 -2.61,2.61 -1.44,0 -2.61,-1.17 -2.61,-2.61 0,-0.5 0.14,-0.97 0.39,-1.37l-2.27 -4.11c-3.05,0 -5.37,0 -8.33,0 -0.42,0 -0.77,-0.34 -0.77,-0.77 0,-0.42 0.34,-0.77 0.77,-0.77 3.12,0 5.57,0 8.79,0z"/>
    <circle class="fil5" cx="41.27" cy="45.26" r="1.44"/>
   </g>
   <rect class="fil6" x="0" y="0" width="48.66" height="48.66"/>
  </g>
 </g>
</svg>
