<?xml version="1.0" encoding="UTF-8"?>
<!DOCTYPE svg PUBLIC "-//W3C//DTD SVG 1.1//EN" "http://www.w3.org/Graphics/SVG/1.1/DTD/svg11.dtd">
<!-- Creator: CorelDRAW -->
<svg xmlns="http://www.w3.org/2000/svg" xml:space="preserve" width="5.4187mm" height="5.4307mm" version="1.1" style="shape-rendering:geometricPrecision; text-rendering:geometricPrecision; image-rendering:optimizeQuality; fill-rule:evenodd; clip-rule:evenodd"
viewBox="0 0 47.85 47.96"
 xmlns:xlink="http://www.w3.org/1999/xlink"
 xmlns:xodm="http://www.corel.com/coreldraw/odm/2003">
 <defs>
  <style type="text/css">
   <![CDATA[
    .fil2 {fill:#E95050;fill-rule:nonzero}
    .fil0 {fill:#273155;fill-rule:nonzero}
    .fil3 {fill:#FFDA4B;fill-rule:nonzero}
    .fil1 {fill:white;fill-rule:nonzero}
   ]]>
  </style>
 </defs>
 <g id="Layer_x0020_1">
  <metadata id="CorelCorpID_0Corel-Layer"/>
  <g id="_352C_Pause2C_stop2C_watch2C_fast_working">
   <g id="XMLID_982_">
    <g id="XMLID_983_">
     <path id="XMLID_136_" class="fil0" d="M27.12 9.15c-9.06,0 -16.67,6.3 -18.64,14.78l-6.61 0c-0.73,0 -1.33,0.6 -1.33,1.33 0,0.73 0.6,1.33 1.33,1.33l6.19 0c-0.1,1.08 -0.1,2.14 -0.02,3.19l-3.51 0c-0.73,0 -1.33,0.6 -1.33,1.33 0,0.73 0.6,1.33 1.33,1.33l3.91 0c0.24,1.1 0.58,2.17 1.01,3.19l-2.26 0c-0.73,0 -1.33,0.6 -1.33,1.33 0,0.73 0.6,1.33 1.33,1.33l3.61 0c0.7,1.15 1.53,2.22 2.45,3.19l-9.79 0c-0.73,0 -1.33,0.6 -1.33,1.33 0,0.73 0.6,1.33 1.33,1.33l12.92 0c3.06,2.08 6.76,3.3 10.74,3.3 10.57,0 19.14,-8.57 19.14,-19.14 0,-10.54 -8.54,-19.14 -19.14,-19.14z"/>
     <path id="XMLID_1754_" class="fil1" d="M27.12 13.4c8.22,0 14.89,6.66 14.89,14.89 0,8.22 -6.67,14.89 -14.89,14.89 -4.11,0 -7.83,-1.67 -10.53,-4.36 -2.69,-2.69 -4.36,-6.42 -4.36,-10.53 0,-8.22 6.67,-14.89 14.89,-14.89z"/>
     <circle id="XMLID_134_" class="fil2" cx="27.01" cy="28.18" r="2.13"/>
     <path id="XMLID_133_" class="fil3" d="M44.66 2.66c1.47,0 2.66,1.19 2.66,2.66 0,1.47 -1.19,2.66 -2.66,2.66 -1.47,0 -2.66,-1.19 -2.66,-2.66 0,-1.47 1.19,-2.66 2.66,-2.66z"/>
     <circle id="XMLID_132_" class="fil3" cx="5.32" cy="12.23" r="3.72"/>
     <path id="XMLID_131_" class="fil0" d="M30.84 0.53c1.18,0 2.13,0.95 2.13,2.13 0,0.59 -0.24,1.12 -0.62,1.5 -0.39,0.38 -0.92,0.62 -1.5,0.62l-1.59 0 -4.25 0 -1.59 0c-1.18,0 -2.13,-0.95 -2.13,-2.13 0,-0.59 0.24,-1.12 0.62,-1.5 0.39,-0.39 0.92,-0.62 1.5,-0.62l7.44 0z"/>
     <path id="XMLID_130_" class="fil0" d="M29.24 4.79l0 4.48c-0.7,-0.08 -1.41,-0.12 -2.13,-0.12 -0.72,0 -1.43,0.04 -2.13,0.12l0 -4.48 4.25 0z"/>
     <g id="XMLID_984_">
      <path id="XMLID_129_" class="fil0" d="M45.77 13.23c0.41,-0.17 0.6,-0.64 0.43,-1.04 -0.17,-0.41 -0.64,-0.6 -1.04,-0.43 -0.41,0.17 -0.6,0.64 -0.43,1.04 0.17,0.41 0.64,0.6 1.04,0.43z"/>
      <path id="XMLID_128_" class="fil0" d="M44.62 43.66c-0.41,0.17 -0.6,0.64 -0.43,1.04 0.17,0.41 0.64,0.6 1.04,0.43 0.41,-0.17 0.6,-0.64 0.43,-1.04 -0.17,-0.41 -0.64,-0.6 -1.04,-0.43z"/>
      <path id="XMLID_127_" class="fil0" d="M15.46 3.13c0.41,-0.17 0.6,-0.64 0.43,-1.04 -0.17,-0.41 -0.64,-0.6 -1.04,-0.43 -0.41,0.17 -0.6,0.64 -0.43,1.04 0.17,0.41 0.64,0.6 1.04,0.43z"/>
      <path id="XMLID_126_" class="fil0" d="M3.23 4.19c0.41,-0.17 0.6,-0.64 0.43,-1.04 -0.17,-0.41 -0.64,-0.6 -1.04,-0.43 -0.41,0.17 -0.6,0.64 -0.43,1.04 0.17,0.41 0.64,0.6 1.04,0.43z"/>
      <path id="XMLID_125_" class="fil0" d="M2.62 19.2c-0.41,0.17 -0.6,0.64 -0.43,1.04 0.17,0.41 0.64,0.6 1.04,0.43 0.41,-0.17 0.6,-0.64 0.43,-1.04 -0.17,-0.41 -0.64,-0.6 -1.04,-0.43z"/>
      <path id="XMLID_124_" class="fil0" d="M3.23 37.69c0.41,-0.17 0.6,-0.64 0.43,-1.04 -0.17,-0.41 -0.64,-0.6 -1.04,-0.43 -0.41,0.17 -0.6,0.64 -0.43,1.04 0.17,0.41 0.64,0.6 1.04,0.43z"/>
      <path id="XMLID_1740_" class="fil0" d="M27.12 12.87c-4.12,0 -7.99,1.6 -10.9,4.52 0,0 0,0 0,0 -0,0 -0,0 -0,0 -2.91,2.91 -4.52,6.79 -4.52,10.9 0,4.12 1.6,7.99 4.52,10.9 2.91,2.91 0,0 0,0 2.91,2.91 6.78,4.52 10.9,4.52 4.12,0 7.99,-1.6 10.9,-4.52 2.91,-2.91 4.52,-6.79 4.52,-10.9 0,-4.12 -1.6,-7.99 -4.52,-10.9 -2.91,-2.91 -6.78,-4.52 -10.9,-4.52l0 0zm11.54 10.62c0.11,0.27 0.42,0.4 0.7,0.29l1.22 -0.51c0.53,1.42 0.83,2.94 0.89,4.49l-2.25 0c-0.29,0 -0.53,0.24 -0.53,0.53 0,0.29 0.24,0.53 0.53,0.53l2.25 0c-0.06,1.54 -0.35,3.04 -0.87,4.45l-1.23 -0.51c-0.27,-0.11 -0.58,0.02 -0.69,0.29 -0.11,0.27 0.02,0.58 0.29,0.69l1.23 0.51c-0.63,1.38 -1.49,2.67 -2.55,3.81l-1.59 -1.59c-0.21,-0.21 -0.54,-0.21 -0.75,0 -0.21,0.21 -0.21,0.54 0,0.75l1.59 1.59c-1.13,1.05 -2.4,1.9 -3.76,2.53l-0.51 -1.22c-0.11,-0.27 -0.42,-0.4 -0.69,-0.29 -0.27,0.11 -0.4,0.42 -0.29,0.69l0.51 1.22c-1.42,0.53 -2.94,0.83 -4.49,0.89l0 -2.25c0,-0.29 -0.24,-0.53 -0.53,-0.53 -0.29,0 -0.53,0.24 -0.53,0.53l0 2.25c-1.54,-0.06 -3.04,-0.35 -4.45,-0.87l0.51 -1.23c0.11,-0.27 -0.02,-0.58 -0.29,-0.69 -0.27,-0.11 -0.58,0.02 -0.69,0.29l-0.51 1.23c-1.38,-0.63 -2.67,-1.49 -3.8,-2.55l1.59 -1.59c0.21,-0.21 0.21,-0.54 0,-0.75 -0.21,-0.21 -0.54,-0.21 -0.75,0l-1.59 1.59c-1.05,-1.13 -1.9,-2.4 -2.53,-3.76l1.22 -0.51c0.27,-0.11 0.4,-0.42 0.29,-0.69 -0.11,-0.27 -0.42,-0.4 -0.69,-0.29l-1.22 0.51c-0.53,-1.42 -0.83,-2.94 -0.89,-4.49l2.25 0c0.29,0 0.53,-0.24 0.53,-0.53 0,-0.29 -0.24,-0.53 -0.53,-0.53l-2.25 0c0.06,-1.54 0.35,-3.04 0.87,-4.45l1.23 0.51c0.27,0.11 0.58,-0.02 0.69,-0.29 0.11,-0.27 -0.02,-0.58 -0.29,-0.69l-1.23 -0.51c0.63,-1.38 1.49,-2.67 2.55,-3.81l1.59 1.59c0.21,0.21 0.54,0.21 0.75,0 0.21,-0.21 0.21,-0.54 0,-0.75l-1.59 -1.59c1.13,-1.05 2.4,-1.9 3.76,-2.53l0.51 1.22c0.11,0.27 0.42,0.4 0.69,0.29 0.27,-0.11 0.4,-0.42 0.29,-0.69l-0.51 -1.22c1.42,-0.53 2.94,-0.83 4.49,-0.89l0 2.25c0,0.29 0.24,0.53 0.53,0.53 0.29,0 0.53,-0.24 0.53,-0.53l0 -2.25c1.54,0.06 3.04,0.35 4.45,0.87l-0.51 1.23c-0.11,0.27 0.02,0.58 0.29,0.69 0.27,0.11 0.58,-0.02 0.69,-0.29l0.51 -1.23c1.38,0.63 2.67,1.49 3.81,2.55l-1.59 1.59c-0.21,0.21 -0.21,0.54 0,0.75 0.21,0.21 0.54,0.21 0.75,0l1.59 -1.59c1.05,1.13 1.9,2.4 2.53,3.76l-1.22 0.51c-0.27,0.11 -0.4,0.42 -0.29,0.69l0 0z"/>
      <path id="XMLID_996_" class="fil0" d="M31.15 23.29l-2.67 2.67c-1.02,-0.68 -2.43,-0.58 -3.35,0.34 -0.92,0.92 -1.02,2.32 -0.34,3.35l-1.03 1.03c-0.21,0.21 -0.21,0.54 0,0.75 0.21,0.21 0.54,0.21 0.75,0l1.03 -1.03c1.02,0.68 2.43,0.58 3.35,-0.34 0.92,-0.92 1.02,-2.32 0.34,-3.35l2.67 -2.67c0.21,-0.21 0.21,-0.54 0,-0.75 -0.21,-0.21 -0.54,-0.21 -0.75,0l0 0zm-4.14 6.48c-0.43,0 -0.83,-0.17 -1.13,-0.47 -0.62,-0.62 -0.62,-1.63 0,-2.26 0.62,-0.62 1.63,-0.62 2.26,0 0.3,0.3 0.47,0.7 0.47,1.13 0,0.88 -0.71,1.59 -1.59,1.59l0 0z"/>
      <path id="XMLID_991_" class="fil0" d="M29.77 8.79l0 -3.47 1.06 0c1.47,0 2.66,-1.19 2.66,-2.66 0,-1.47 -1.19,-2.66 -2.66,-2.66l-7.44 0c-1.47,0 -2.66,1.19 -2.66,2.66 0,1.47 1.19,2.66 2.66,2.66l1.06 0 0 3.48c-7.91,1.07 -14.42,6.86 -16.4,14.6l-6.2 0c-1.03,0 -1.86,0.83 -1.86,1.86 0,1.03 0.84,1.86 1.86,1.86l5.62 0c-0.04,0.71 -0.05,1.41 -0.01,2.13l-2.95 0c-1.03,0 -1.86,0.83 -1.86,1.86 0,1.03 0.83,1.86 1.86,1.86l3.49 0c0.18,0.72 0.39,1.43 0.65,2.13l-1.48 0c-1.03,0 -1.86,0.84 -1.86,1.86 0,1.03 0.84,1.86 1.86,1.86l3.32 0c0.47,0.74 0.99,1.45 1.56,2.13l-8.6 0c-1.03,0 -1.86,0.83 -1.86,1.86 0,1.03 0.83,1.86 1.86,1.86l12.76 0c3.23,2.16 7,3.3 10.9,3.3 10.85,0 19.67,-8.82 19.67,-19.67 0,-9.91 -7.35,-18.19 -17.01,-19.49l0 0zm-4.25 -3.47l3.19 0 0 3.36c-1.06,-0.08 -2.14,-0.08 -3.19,0l0 -3.36zm-3.72 -2.66c0,-0.88 0.71,-1.59 1.59,-1.59l7.44 0c0.88,0 1.59,0.72 1.59,1.59 0,0.88 -0.71,1.59 -1.59,1.59 -0.94,0 -6.5,0 -7.44,0 -0.88,0 -1.59,-0.72 -1.59,-1.59l0 0zm5.32 44.24c-3.74,0 -7.36,-1.11 -10.44,-3.2 -0.09,-0.06 -0.19,-0.09 -0.3,-0.09l-12.92 0c-0.44,0 -0.8,-0.36 -0.8,-0.8 0,-0.44 0.36,-0.8 0.8,-0.8l9.79 0c0.21,0 0.4,-0.13 0.49,-0.32 0.08,-0.2 0.04,-0.42 -0.1,-0.58 -0.9,-0.95 -1.7,-1.99 -2.38,-3.1 -0.1,-0.16 -0.27,-0.25 -0.45,-0.25l-3.61 0c-0.44,0 -0.8,-0.36 -0.8,-0.8 0,-0.44 0.36,-0.8 0.8,-0.8l2.26 0c0.18,0 0.34,-0.09 0.44,-0.24 0.1,-0.15 0.12,-0.34 0.05,-0.5 -0.41,-1 -0.74,-2.04 -0.98,-3.1 -0.05,-0.24 -0.27,-0.42 -0.52,-0.42l-3.91 0c-0.44,0 -0.8,-0.36 -0.8,-0.8 0,-0.44 0.36,-0.8 0.8,-0.8l3.51 0c0.31,0 0.55,-0.26 0.53,-0.57 -0.08,-1.06 -0.07,-2.09 0.02,-3.1 0.03,-0.31 -0.22,-0.58 -0.53,-0.58l-6.19 0c-0.44,0 -0.8,-0.36 -0.8,-0.8 0,-0.44 0.36,-0.8 0.8,-0.8l6.61 0c0.25,0 0.46,-0.17 0.52,-0.41 2.11,-9.07 10.71,-15.31 20.19,-14.26 9.43,1.04 16.54,8.99 16.54,18.5 0,10.26 -8.35,18.61 -18.61,18.61z"/>
      <path id="XMLID_988_" class="fil0" d="M44.66 2.13c-1.76,0 -3.19,1.43 -3.19,3.19 0,1.76 1.43,3.19 3.19,3.19 1.76,0 3.19,-1.43 3.19,-3.19 0,-1.76 -1.43,-3.19 -3.19,-3.19zm0 5.32c-1.17,0 -2.13,-0.95 -2.13,-2.13 0,-1.17 0.95,-2.13 2.13,-2.13 1.17,0 2.13,0.95 2.13,2.13 0,1.17 -0.95,2.13 -2.13,2.13z"/>
      <path id="XMLID_985_" class="fil0" d="M5.32 16.48c2.35,0 4.25,-1.91 4.25,-4.25 0,-2.35 -1.91,-4.25 -4.25,-4.25 -2.35,0 -4.25,1.91 -4.25,4.25 0,2.35 1.91,4.25 4.25,4.25zm0 -7.44c1.76,0 3.19,1.43 3.19,3.19 0,1.76 -1.43,3.19 -3.19,3.19 -1.76,0 -3.19,-1.43 -3.19,-3.19 0,-1.76 1.43,-3.19 3.19,-3.19z"/>
     </g>
    </g>
   </g>
  </g>
 </g>
</svg>
