<?xml version="1.0" encoding="UTF-8"?>
<!DOCTYPE svg PUBLIC "-//W3C//DTD SVG 1.1//EN" "http://www.w3.org/Graphics/SVG/1.1/DTD/svg11.dtd">
<!-- Creator: CorelDRAW -->
<svg xmlns="http://www.w3.org/2000/svg" xml:space="preserve" width="2.7106mm" height="2.43mm" version="1.1" style="shape-rendering:geometricPrecision; text-rendering:geometricPrecision; image-rendering:optimizeQuality; fill-rule:evenodd; clip-rule:evenodd"
viewBox="0 0 9.62 8.62"
 xmlns:xlink="http://www.w3.org/1999/xlink"
 xmlns:xodm="http://www.corel.com/coreldraw/odm/2003">
 <defs>
  <style type="text/css">
   <![CDATA[
    .fil4 {fill:#149497;fill-rule:nonzero}
    .fil1 {fill:#1D538F;fill-rule:nonzero}
    .fil0 {fill:#9BDCDE;fill-rule:nonzero}
    .fil3 {fill:#FA5456;fill-rule:nonzero}
    .fil2 {fill:#FA8825;fill-rule:nonzero}
    .fil5 {fill:#FED942;fill-rule:nonzero}
   ]]>
  </style>
 </defs>
 <g id="Layer_x0020_1">
  <metadata id="CorelCorpID_0Corel-Layer"/>
  <g id="_1987787494672">
   <g>
    <path class="fil0" d="M9.62 0.96c0,-0.53 -0.43,-0.96 -0.96,-0.96 -0.53,0 -0.96,0.43 -0.96,0.96 0,0.53 0.43,0.96 0.96,0.96 0.53,0 0.96,-0.43 0.96,-0.96z"/>
    <path class="fil1" d="M6.09 0l-5.6 0c-0.27,0 -0.49,0.22 -0.49,0.49l0 0.94c0,0.27 0.22,0.49 0.49,0.49l5.6 0c0.39,0 0.71,-0.32 0.71,-0.71l0 -0.5c0,-0.39 -0.32,-0.71 -0.71,-0.71z"/>
   </g>
   <path class="fil2" d="M9.08 6.71l-5.17 0c-0.39,0 -0.71,0.32 -0.71,0.71l0 0.5c0,0.39 0.32,0.71 0.71,0.71l5.17 0c0.26,0 0.48,-0.21 0.48,-0.48l0 -0.96c0,-0.26 -0.21,-0.48 -0.48,-0.48z"/>
   <g>
    <path class="fil3" d="M4.57 2.35l-4.12 0c-0.25,0 -0.46,0.2 -0.46,0.46l0 0.86c0,0.25 0.2,0.46 0.46,0.46l4.12 0c0.37,0 0.67,-0.3 0.67,-0.67l0 -0.43c0,-0.37 -0.3,-0.67 -0.67,-0.67z"/>
    <path class="fil4" d="M9.07 2.35l-2.1 0c-0.42,0 -0.77,0.34 -0.77,0.77l0 0.24c0,0.42 0.34,0.77 0.77,0.77l2.1 0c0.3,0 0.55,-0.25 0.55,-0.55l0 -0.67c0,-0.3 -0.25,-0.55 -0.55,-0.55z"/>
   </g>
   <path class="fil5" d="M0.62 4.55l8.38 0 0.19 0c0.24,0 0.43,0.19 0.43,0.43l0 0.87c0,0.24 -0.19,0.43 -0.43,0.43l-0.19 0 -8.38 0 -0.19 0c-0.24,0 -0.43,-0.19 -0.43,-0.43l0 -0.87c0,-0.24 0.19,-0.43 0.43,-0.43l0.19 0z"/>
   <path class="fil0" d="M1.92 7.66c0,-0.53 -0.43,-0.96 -0.96,-0.96 -0.53,0 -0.96,0.43 -0.96,0.96 0,0.53 0.43,0.96 0.96,0.96 0.53,0 0.96,-0.43 0.96,-0.96z"/>
  </g>
 </g>
</svg>
