<?xml version="1.0" encoding="UTF-8"?>
<!DOCTYPE svg PUBLIC "-//W3C//DTD SVG 1.1//EN" "http://www.w3.org/Graphics/SVG/1.1/DTD/svg11.dtd">
<!-- Creator: CorelDRAW (Evaluation Version) -->
<svg xmlns="http://www.w3.org/2000/svg" xml:space="preserve" width="2.54mm" height="2.54mm" version="1.1" style="shape-rendering:geometricPrecision; text-rendering:geometricPrecision; image-rendering:optimizeQuality; fill-rule:evenodd; clip-rule:evenodd"
viewBox="0 0 2.31 2.31"
 xmlns:xlink="http://www.w3.org/1999/xlink"
 xmlns:xodm="http://www.corel.com/coreldraw/odm/2003">
 <defs>
  <style type="text/css">
   <![CDATA[
    .fil1 {fill:#FEFEFE;fill-rule:nonzero}
    .fil0 {fill:#273155;fill-rule:nonzero}
   ]]>
  </style>
 </defs>
 <g id="Layer_x0020_1">
  <metadata id="CorelCorpID_0Corel-Layer"/>
  <g id="_1732583241088">
   <path class="fil0" d="M2.31 1.16c0,0.64 -0.52,1.16 -1.16,1.16l0 0c-0.64,0 -1.16,-0.52 -1.16,-1.16l0 0c0,-0.64 0.52,-1.16 1.16,-1.16l0 0c0.64,0 1.16,0.52 1.16,1.16l0 0z"/>
   <path class="fil1" d="M1.5 1.07l-0.02 0.15c-0,0.03 -0.03,0.05 -0.05,0.05l-0.25 0 0 0.65c-0.03,0 -0.05,0 -0.08,0 -0.06,0 -0.12,-0.01 -0.18,-0.02l0 -0.63 -0.19 0c-0.02,0 -0.03,-0.01 -0.03,-0.03l0 -0.19c0,-0.02 0.01,-0.03 0.03,-0.03l0.19 0 0 -0.29c0,-0.18 0.14,-0.32 0.32,-0.32l0.22 0c0.02,0 0.03,0.01 0.03,0.03l0 0.19c0,0.02 -0.01,0.03 -0.03,0.03l-0.16 0c-0.07,0 -0.13,0.06 -0.13,0.13l0 0.23 0.27 0c0.03,0 0.05,0.03 0.05,0.06z"/>
  </g>
 </g>
</svg>
