<?xml version="1.0" encoding="UTF-8"?>
<!DOCTYPE svg PUBLIC "-//W3C//DTD SVG 1.1//EN" "http://www.w3.org/Graphics/SVG/1.1/DTD/svg11.dtd">
<!-- Creator: CorelDRAW (Evaluation Version) -->
<svg xmlns="http://www.w3.org/2000/svg" xml:space="preserve" width="2.54mm" height="2.54mm" version="1.1" style="shape-rendering:geometricPrecision; text-rendering:geometricPrecision; image-rendering:optimizeQuality; fill-rule:evenodd; clip-rule:evenodd"
viewBox="0 0 2.44 2.44"
 xmlns:xlink="http://www.w3.org/1999/xlink"
 xmlns:xodm="http://www.corel.com/coreldraw/odm/2003">
 <defs>
  <style type="text/css">
   <![CDATA[
    .fil1 {fill:#FEFEFE;fill-rule:nonzero}
    .fil0 {fill:#273155;fill-rule:nonzero}
   ]]>
  </style>
 </defs>
 <g id="Layer_x0020_1">
  <metadata id="CorelCorpID_0Corel-Layer"/>
  <g id="_1732583227072">
   <path class="fil0" d="M2.44 1.22c0,0.67 -0.55,1.22 -1.22,1.22l0 0c-0.67,0 -1.22,-0.55 -1.22,-1.22l0 0c0,-0.67 0.55,-1.22 1.22,-1.22l0 0c0.67,0 1.22,0.55 1.22,1.22l0 0z"/>
   <path class="fil1" d="M1.75 1.53c0,0.12 -0.1,0.22 -0.22,0.22l-0.62 0c-0.12,0 -0.22,-0.1 -0.22,-0.22l0 -0.62c0,-0.12 0.1,-0.22 0.22,-0.22l0.62 0c0.12,0 0.22,0.1 0.22,0.22l0 0.62zm-0.2 -0.95l-0.66 0c-0.17,0 -0.31,0.14 -0.31,0.31l0 0.66c0,0.17 0.14,0.31 0.31,0.31l0.66 0c0.17,0 0.31,-0.14 0.31,-0.31l0 -0.66c0,-0.17 -0.14,-0.31 -0.31,-0.31z"/>
   <path class="fil1" d="M1.22 1.44c-0.12,0 -0.22,-0.1 -0.22,-0.22 0,-0.12 0.1,-0.22 0.22,-0.22 0.12,0 0.22,0.1 0.22,0.22 0,0.12 -0.1,0.22 -0.22,0.22zm0 -0.55c-0.18,0 -0.33,0.15 -0.33,0.33 0,0.18 0.15,0.33 0.33,0.33 0.18,0 0.33,-0.15 0.33,-0.33 0,-0.18 -0.15,-0.33 -0.33,-0.33z"/>
   <path class="fil1" d="M1.57 0.93c-0.04,0 -0.07,-0.03 -0.07,-0.07 0,-0.04 0.03,-0.07 0.07,-0.07 0.04,0 0.07,0.03 0.07,0.07 0,0.04 -0.03,0.07 -0.07,0.07z"/>
  </g>
 </g>
</svg>
