<?xml version="1.0" encoding="UTF-8"?>
<!DOCTYPE svg PUBLIC "-//W3C//DTD SVG 1.1//EN" "http://www.w3.org/Graphics/SVG/1.1/DTD/svg11.dtd">
<!-- Creator: CorelDRAW (Evaluation Version) -->
<svg xmlns="http://www.w3.org/2000/svg" xml:space="preserve" width="2.54mm" height="2.54mm" version="1.1" style="shape-rendering:geometricPrecision; text-rendering:geometricPrecision; image-rendering:optimizeQuality; fill-rule:evenodd; clip-rule:evenodd"
viewBox="0 0 2.37 2.37"
 xmlns:xlink="http://www.w3.org/1999/xlink"
 xmlns:xodm="http://www.corel.com/coreldraw/odm/2003">
 <defs>
  <style type="text/css">
   <![CDATA[
    .fil1 {fill:#FEFEFE;fill-rule:nonzero}
    .fil0 {fill:#273155;fill-rule:nonzero}
   ]]>
  </style>
 </defs>
 <g id="Layer_x0020_1">
  <metadata id="CorelCorpID_0Corel-Layer"/>
  <g id="_1732595222208">
   <path class="fil0" d="M2.37 1.19c0,0.66 -0.53,1.19 -1.19,1.19l0 0c-0.66,0 -1.19,-0.53 -1.19,-1.19l0 0c0,-0.66 0.53,-1.19 1.19,-1.19l0 0c0.66,0 1.19,0.53 1.19,1.19l0 0z"/>
   <path class="fil1" d="M0.92 0.72c0,0.08 -0.07,0.15 -0.15,0.15 -0.08,0 -0.15,-0.07 -0.15,-0.15 0,-0.08 0.07,-0.15 0.15,-0.15 0.08,0 0.15,0.07 0.15,0.15z"/>
   <path class="fil1" d="M0.88 1.74l-0.23 0c-0.01,0 -0.01,-0.01 -0.01,-0.01l0 -0.74c0,-0.01 0.01,-0.01 0.01,-0.01l0.23 0c0.01,0 0.01,0.01 0.01,0.01l0 0.74c0,0.01 -0.01,0.01 -0.01,0.01z"/>
   <path class="fil1" d="M1.76 1.25l0 0.43c0,0.03 -0.02,0.05 -0.05,0.05l-0.15 0c-0.03,0 -0.05,-0.02 -0.05,-0.05l0 -0.36c0,-0.07 -0.06,-0.13 -0.13,-0.13 -0.07,0 -0.13,0.06 -0.13,0.13l0 0.36c0,0.03 -0.02,0.05 -0.05,0.05l-0.15 0c-0.03,0 -0.05,-0.02 -0.05,-0.05l0 -0.66c0,-0.03 0.02,-0.05 0.05,-0.05l0.15 0c0.03,0 0.05,0.02 0.05,0.05l0 0.03c0.05,-0.07 0.14,-0.11 0.23,-0.11 0.14,0 0.28,0.1 0.28,0.31z"/>
  </g>
 </g>
</svg>
