<?xml version="1.0" encoding="UTF-8"?>
<!DOCTYPE svg PUBLIC "-//W3C//DTD SVG 1.1//EN" "http://www.w3.org/Graphics/SVG/1.1/DTD/svg11.dtd">
<!-- Creator: CorelDRAW -->
<svg xmlns="http://www.w3.org/2000/svg" xml:space="preserve" width="4.0217mm" height="5.4187mm" version="1.1" style="shape-rendering:geometricPrecision; text-rendering:geometricPrecision; image-rendering:optimizeQuality; fill-rule:evenodd; clip-rule:evenodd"
viewBox="0 0 28.27 38.09"
 xmlns:xlink="http://www.w3.org/1999/xlink"
 xmlns:xodm="http://www.corel.com/coreldraw/odm/2003">
 <defs>
  <style type="text/css">
   <![CDATA[
    .fil0 {fill:#020202;fill-rule:nonzero}
    .fil1 {fill:#E95050;fill-rule:nonzero}
    .fil2 {fill:#FFED00;fill-rule:nonzero}
   ]]>
  </style>
 </defs>
 <g id="Layer_x0020_1">
  <metadata id="CorelCorpID_0Corel-Layer"/>
  <g id="_2023560226752">
   <path class="fil0" d="M2.98 14.14c0,6.15 5.01,11.16 11.16,11.16 6.15,0 11.16,-5.01 11.16,-11.16 0,-6.15 -5.01,-11.16 -11.16,-11.16 -6.15,0 -11.16,5.01 -11.16,11.16zm11.16 -9.67c5.33,0 9.67,4.34 9.67,9.67 0,5.33 -4.34,9.67 -9.67,9.67 -5.33,0 -9.67,-4.34 -9.67,-9.67 0,-5.33 4.34,-9.67 9.67,-9.67zm0 0z"/>
   <path class="fil1" d="M7.25 12.81l2.88 2.84 -0.66 3.99c-0.05,0.28 0.07,0.56 0.3,0.72 0.23,0.17 0.53,0.19 0.78,0.06l3.59 -1.87 3.59 1.87c0.25,0.13 0.55,0.11 0.78,-0.06 0.23,-0.17 0.34,-0.45 0.3,-0.72l-0.66 -3.99 2.88 -2.84c0.2,-0.2 0.27,-0.49 0.19,-0.76 -0.09,-0.27 -0.32,-0.46 -0.6,-0.51l-4 -0.6 -1.81 -3.62c-0.13,-0.25 -0.38,-0.41 -0.67,-0.41 -0.28,0 -0.54,0.16 -0.67,0.41l-1.81 3.62 -4 0.6c-0.28,0.04 -0.51,0.24 -0.6,0.51 -0.09,0.27 -0.01,0.56 0.19,0.76z"/>
   <path class="fil0" d="M14.88 0.74c0,0.41 -0.33,0.74 -0.74,0.74 -0.41,0 -0.74,-0.33 -0.74,-0.74 0,-0.41 0.33,-0.74 0.74,-0.74 0.41,0 0.74,0.33 0.74,0.74zm0 0z"/>
   <path class="fil0" d="M10.63 0.44c-6.26,1.6 -10.63,7.23 -10.63,13.7 0,4.02 1.69,7.8 4.65,10.48l-4.48 7.9c-0.14,0.25 -0.13,0.57 0.05,0.81 0.17,0.24 0.47,0.35 0.75,0.29l5.09 -1.06 1.79 5.04c0.1,0.27 0.35,0.47 0.64,0.49 0.29,0.03 0.57,-0.12 0.71,-0.37l4.94 -8.68 4.94 8.68c0.13,0.23 0.38,0.38 0.65,0.38 0.02,0 0.04,-0 0.07,-0 0.29,-0.03 0.54,-0.22 0.64,-0.49l1.79 -5.04 5.09 1.06c0.29,0.06 0.58,-0.05 0.75,-0.29 0.17,-0.24 0.19,-0.55 0.05,-0.81l-4.48 -7.9c2.96,-2.68 4.65,-6.47 4.65,-10.48 0,-6.47 -4.37,-12.1 -10.63,-13.7 -0.4,-0.1 -0.8,0.14 -0.9,0.54 -0.1,0.4 0.14,0.8 0.54,0.9 5.6,1.43 9.51,6.47 9.51,12.26 0,7.04 -5.72,12.65 -12.65,12.65 -6.93,0 -12.65,-5.61 -12.65,-12.65 0,-5.79 3.91,-10.83 9.51,-12.26 0.4,-0.1 0.64,-0.51 0.54,-0.9 -0.1,-0.4 -0.51,-0.64 -0.91,-0.54zm-1.92 35.13l-1.46 -4.12c-0.12,-0.35 -0.49,-0.56 -0.85,-0.48l-4.12 0.85 3.55 -6.25c2.07,1.5 4.52,2.42 7.06,2.65l-4.18 7.35zm13.17 -4.6c-0.36,-0.08 -0.73,0.13 -0.85,0.48l-1.46 4.12 -4.18 -7.35c2.55,-0.23 5,-1.14 7.06,-2.65l3.55 6.25 -4.12 -0.85zm0 0z"/>
   <path class="fil2" d="M12.26 12.36c0.24,-0.04 0.45,-0.19 0.55,-0.4l1.32 -2.64 1.32 2.64c0.11,0.22 0.32,0.37 0.55,0.4l2.91 0.44 -2.1 2.07c-0.17,0.17 -0.25,0.41 -0.21,0.65l0.48 2.91 -2.61 -1.36c-0.11,-0.06 -0.22,-0.08 -0.34,-0.08 -0.12,0 -0.24,0.03 -0.34,0.08l-2.61 1.36 0.48 -2.91c0.04,-0.24 -0.04,-0.48 -0.21,-0.65l-2.1 -2.07 2.91 -0.44z"/>
  </g>
 </g>
</svg>
