<?xml version="1.0" encoding="UTF-8"?>
<!DOCTYPE svg PUBLIC "-//W3C//DTD SVG 1.1//EN" "http://www.w3.org/Graphics/SVG/1.1/DTD/svg11.dtd">
<!-- Creator: CorelDRAW -->
<svg xmlns="http://www.w3.org/2000/svg" xml:space="preserve" width="5.4187mm" height="5.4181mm" version="1.1" style="shape-rendering:geometricPrecision; text-rendering:geometricPrecision; image-rendering:optimizeQuality; fill-rule:evenodd; clip-rule:evenodd"
viewBox="0 0 52.77 52.77"
 xmlns:xlink="http://www.w3.org/1999/xlink"
 xmlns:xodm="http://www.corel.com/coreldraw/odm/2003">
 <defs>
  <style type="text/css">
   <![CDATA[
    .fil2 {fill:#F08421;fill-rule:nonzero}
    .fil3 {fill:#FEDA3F;fill-rule:nonzero}
    .fil1 {fill:#A2D6D8;fill-rule:nonzero}
    .fil0 {fill:#129598;fill-rule:nonzero}
    .fil4 {fill:black;fill-rule:nonzero}
   ]]>
  </style>
 </defs>
 <g id="Layer_x0020_1">
  <metadata id="CorelCorpID_0Corel-Layer"/>
  <g id="_2023304165072">
   <path class="fil0" d="M48.97 37.26l-5.37 0 0 -5.37c0,-1.75 -1.42,-3.17 -3.17,-3.17 -1.75,0 -3.17,1.42 -3.17,3.17 0,0 0,0 0,0l0 5.37 -5.37 0c-1.75,0 -3.17,1.42 -3.17,3.17 0,0 0,0 0,0 0,1.75 1.42,3.17 3.17,3.17l5.37 0 0 5.37c0,0 0,0 0,0 0,1.75 1.42,3.17 3.17,3.17 1.75,0 3.17,-1.42 3.17,-3.17l0 -5.37 5.37 0c0,0 0,0 0,0 1.75,0 3.17,-1.42 3.17,-3.17 0,0 0,0 0,0 0,0 0,0 0,0 0,-1.75 -1.42,-3.17 -3.17,-3.17 0,0 0,0 0,0l0 0z"/>
   <path class="fil1" d="M6.2 0.63l12.27 0c3.08,0 5.57,2.5 5.57,5.57l0 12.27c0,3.08 -2.5,5.57 -5.57,5.57l-12.27 0c-3.08,0 -5.57,-2.49 -5.57,-5.57l0 -12.27c0,-3.08 2.5,-5.57 5.57,-5.57z"/>
   <path class="fil2" d="M6.2 28.72l12.27 0c3.08,0 5.57,2.49 5.57,5.57l0 12.27c0,3.08 -2.5,5.57 -5.57,5.57l-12.27 0c-3.08,0 -5.57,-2.5 -5.57,-5.57l0 -12.27c0,-3.08 2.5,-5.57 5.57,-5.57z"/>
   <path class="fil3" d="M34.29 0.63l12.27 0c3.08,0 5.57,2.5 5.57,5.57l0 12.27c0,3.08 -2.49,5.57 -5.57,5.57l-12.27 0c-3.08,0 -5.57,-2.49 -5.57,-5.57l0 -12.27c0,-3.08 2.49,-5.57 5.57,-5.57z"/>
   <path class="fil4" d="M40.43 52.77c-2.1,-0 -3.8,-1.7 -3.8,-3.8l0 -4.74 -4.74 0c-2.1,-0 -3.79,-1.7 -3.79,-3.8 0,-2.1 1.7,-3.8 3.79,-3.8l4.74 0 0 -4.74c0,-0 0,-0 0,-0.01 0,-2.1 1.7,-3.8 3.8,-3.8 2.1,0 3.8,1.7 3.8,3.8 0,0 0,0 0,0.01l0 4.74 4.74 0c0,0 0,0 0.01,0 2.1,0 3.8,1.7 3.8,3.8 0,2.1 -1.7,3.8 -3.8,3.8 -0,0 -0,0 -0.01,0l-4.74 0 0 4.74c-0,2.1 -1.7,3.8 -3.8,3.8l0 0zm-8.54 -14.88c-1.4,0 -2.53,1.14 -2.53,2.54 0,1.4 1.13,2.54 2.53,2.54l5.37 0c0.35,0 0.63,0.28 0.63,0.63l0 5.37c0,0 0,0 0,0.01 0,1.4 1.14,2.54 2.54,2.54 1.4,0 2.54,-1.14 2.54,-2.54 0,-0 0,-0 0,-0.01l0 -5.37c0,-0.35 0.28,-0.63 0.63,-0.63l5.37 0c0,0 0,0 0,0 1.4,0 2.54,-1.14 2.54,-2.54 0,-1.4 -1.14,-2.54 -2.54,-2.54 -0,0 -0,0 -0,0l-5.37 0c-0.35,0 -0.63,-0.28 -0.63,-0.63l0 -5.37c0,-0 0,-0 0,-0.01 0,-1.4 -1.14,-2.54 -2.54,-2.54 -1.4,0 -2.54,1.14 -2.54,2.54 0,0 0,0 0,0.01l0 5.37c0,0.35 -0.28,0.63 -0.63,0.63l-5.37 0z"/>
   <path class="fil4" d="M18.47 24.67l-12.27 0c-3.42,-0 -6.2,-2.78 -6.2,-6.2l0 -3.67c0,-0.35 0.28,-0.63 0.63,-0.63 0.35,0 0.63,0.28 0.63,0.63l0 3.67c0,2.73 2.21,4.94 4.94,4.94l12.27 0c2.73,-0 4.94,-2.21 4.94,-4.94l0 -12.27c-0,-2.73 -2.21,-4.94 -4.94,-4.94l-12.27 0c-2.73,0 -4.94,2.21 -4.94,4.94l0 3.68c0,0.35 -0.28,0.63 -0.63,0.63 -0.35,0 -0.63,-0.28 -0.63,-0.63l0 -3.68c0,-3.42 2.78,-6.2 6.2,-6.2l12.27 0c3.42,0 6.2,2.78 6.2,6.2l0 12.27c-0,3.42 -2.78,6.2 -6.2,6.2l0 0z"/>
   <path class="fil4" d="M0.63 13.44c-0.35,0 -0.63,-0.28 -0.63,-0.63l0 -0.95c0,-0.35 0.28,-0.63 0.63,-0.63 0.35,0 0.63,0.28 0.63,0.63l0 0.95c0,0.35 -0.28,0.63 -0.63,0.63l0 0z"/>
   <path class="fil4" d="M18.47 52.77l-12.27 0c-3.42,-0 -6.2,-2.78 -6.2,-6.2l0 -12.27c0,-3.42 2.78,-6.2 6.2,-6.2l12.27 0c3.42,0 6.2,2.78 6.2,6.2l0 12.27c-0,3.42 -2.78,6.2 -6.2,6.2l0 0zm-12.27 -23.41c-2.73,0 -4.94,2.21 -4.94,4.94l0 12.27c0,2.73 2.21,4.94 4.94,4.94l12.27 0c2.73,-0 4.94,-2.21 4.94,-4.94l0 -12.27c-0,-2.73 -2.21,-4.94 -4.94,-4.94l-12.27 0z"/>
   <path class="fil4" d="M46.56 24.67l-12.27 0c-3.42,-0 -6.2,-2.78 -6.2,-6.2l0 -12.27c0,-3.42 2.78,-6.2 6.2,-6.2l12.27 0c3.42,0 6.2,2.78 6.2,6.2l0 12.27c-0,3.42 -2.78,6.2 -6.2,6.2l0 0zm-12.27 -23.41c-2.73,0 -4.94,2.21 -4.94,4.94l0 12.27c0,2.73 2.21,4.94 4.94,4.94l12.27 0c2.73,-0 4.94,-2.21 4.94,-4.94l0 -12.27c-0,-2.73 -2.21,-4.94 -4.94,-4.94l-12.27 0z"/>
  </g>
 </g>
</svg>
