<?xml version="1.0" encoding="UTF-8"?>
<!DOCTYPE svg PUBLIC "-//W3C//DTD SVG 1.1//EN" "http://www.w3.org/Graphics/SVG/1.1/DTD/svg11.dtd">
<!-- Creator: CorelDRAW -->
<svg xmlns="http://www.w3.org/2000/svg" xml:space="preserve" width="5.4187mm" height="5.4184mm" version="1.1" style="shape-rendering:geometricPrecision; text-rendering:geometricPrecision; image-rendering:optimizeQuality; fill-rule:evenodd; clip-rule:evenodd"
viewBox="0 0 55.75 55.75"
 xmlns:xlink="http://www.w3.org/1999/xlink"
 xmlns:xodm="http://www.corel.com/coreldraw/odm/2003">
 <defs>
  <style type="text/css">
   <![CDATA[
    .fil2 {fill:#FEFEFE}
    .fil0 {fill:#273155}
    .fil1 {fill:#FFDA4B}
   ]]>
  </style>
 </defs>
 <g id="Layer_x0020_1">
  <metadata id="CorelCorpID_0Corel-Layer"/>
  <path class="fil0" d="M27.87 0c15.39,0 27.88,12.48 27.88,27.87 0,15.39 -12.48,27.88 -27.88,27.88 -15.39,0 -27.87,-12.48 -27.87,-27.88 0,-15.39 12.48,-27.87 27.87,-27.87z"/>
  <path class="fil1" d="M13.13 29.45l0 5.85c0,1.07 0.75,1.99 1.8,2.22l0.65 0.13 0 -10.55 -0.65 0.13c-1.05,0.22 -1.8,1.14 -1.8,2.22l0 0z"/>
  <polygon class="fil1" points="19.19,27.19 17.32,27.19 17.32,37.57 19.19,37.57 "/>
  <path class="fil1" d="M42.62 29.45c-0,-1.07 -0.75,-1.99 -1.8,-2.21l-0.65 -0.13 0 10.55 0.65 -0.13c1.05,-0.22 1.8,-1.14 1.8,-2.21l0 -5.85 0 0z"/>
  <polygon class="fil1" points="36.56,37.57 38.43,37.57 38.43,27.19 36.56,27.19 "/>
  <path class="fil2" d="M40.17 39.33c0,0 -0.58,-0.01 -1.74,-0.02l0 1.69c-0,0.96 -0.78,1.74 -1.74,1.74l-6.46 0c-0,0 -0.01,0 -0.01,0 -0.48,0 -0.87,0.39 -0.87,0.87 0,0.48 0.39,0.87 0.87,0.87 0,0 0.01,0 0.01,0l6.46 0c1.92,-0 3.48,-1.56 3.48,-3.48l0 -1.67 0 0z"/>
  <path class="fil2" d="M17.32 25.45l0 -1.89c0.02,-5.82 4.74,-10.52 10.56,-10.52 5.82,0 10.54,4.71 10.56,10.52l0 1.89c1.16,-0.02 1.74,-0.02 1.74,-0.02l0 -1.87c-0.02,-6.78 -5.52,-12.26 -12.3,-12.26 -6.78,0 -12.28,5.49 -12.3,12.26l0 1.87c1.16,0.01 1.74,0.02 1.74,0.02l0 0z"/>
 </g>
</svg>
