<?xml version="1.0" encoding="UTF-8"?>
<!DOCTYPE svg PUBLIC "-//W3C//DTD SVG 1.1//EN" "http://www.w3.org/Graphics/SVG/1.1/DTD/svg11.dtd">
<!-- Creator: CorelDRAW -->
<svg xmlns="http://www.w3.org/2000/svg" xml:space="preserve" width="5.4187mm" height="5.4188mm" version="1.1" style="shape-rendering:geometricPrecision; text-rendering:geometricPrecision; image-rendering:optimizeQuality; fill-rule:evenodd; clip-rule:evenodd"
viewBox="0 0 48.66 48.66"
 xmlns:xlink="http://www.w3.org/1999/xlink"
 xmlns:xodm="http://www.corel.com/coreldraw/odm/2003">
 <defs>
  <style type="text/css">
   <![CDATA[
    .fil5 {fill:none}
    .fil0 {fill:#FEFEFE;fill-rule:nonzero}
    .fil3 {fill:#FEDA3F;fill-rule:nonzero}
    .fil2 {fill:#A2D6D8;fill-rule:nonzero}
    .fil1 {fill:#263155;fill-rule:nonzero}
    .fil4 {fill:white;fill-rule:nonzero}
   ]]>
  </style>
 </defs>
 <g id="Layer_x0020_1">
  <metadata id="CorelCorpID_0Corel-Layer"/>
  <g id="_1987599451808">
   <g>
    <path class="fil0" d="M24.14 34.06l-3.21 0c-1.07,0 -1.95,-0.87 -1.95,-1.95l0 -2.05c-1,-0.28 -1.97,-0.68 -2.87,-1.19l-1.44 1.45c-0.37,0.37 -0.86,0.57 -1.38,0.57 0,0 0,0 0,0 -0.52,0 -1.01,-0.2 -1.38,-0.57l-2.27 -2.27c-0.76,-0.76 -0.76,-2 0,-2.75l1.45 -1.45c-0.51,-0.91 -0.91,-1.87 -1.19,-2.87l-2.05 0c-0.52,0 -1.01,-0.2 -1.38,-0.57 -0.37,-0.37 -0.57,-0.86 -0.57,-1.38l0 -3.21c0,-1.07 0.87,-1.95 1.95,-1.95l2.05 0c0.28,-1 0.68,-1.96 1.19,-2.87l-1.45 -1.44c-0.37,-0.37 -0.57,-0.86 -0.57,-1.38 0,-0.52 0.2,-1.01 0.57,-1.38l2.27 -2.27c0.76,-0.76 2,-0.76 2.75,0l1.45 1.45c0.91,-0.51 1.87,-0.91 2.86,-1.19l0 -2.05c0,-1.07 0.87,-1.95 1.95,-1.95l3.21 0c1.07,0 1.95,0.87 1.95,1.95l0 2.05c1,0.28 1.96,0.68 2.86,1.19l1.45 -1.45c0.76,-0.76 2,-0.76 2.75,0l2.27 2.27c0.37,0.37 0.57,0.86 0.57,1.38 0,0.52 -0.2,1.01 -0.57,1.38l-1.45 1.45c0.51,0.91 0.91,1.87 1.19,2.86l2.05 0c1.07,0 1.95,0.87 1.95,1.95l0 3.21c0,0.52 -0.2,1.01 -0.57,1.38 -0.37,0.37 -0.86,0.57 -1.38,0.57l-2.04 0c-0.28,1 -0.68,1.96 -1.19,2.87l1.45 1.45c0.76,0.76 0.76,2 0,2.75l-2.27 2.27c-0.37,0.37 -0.86,0.57 -1.38,0.57 0,0 0,0 0,0 -0.52,0 -1.01,-0.2 -1.38,-0.57l-1.45 -1.45c-0.91,0.51 -1.87,0.91 -2.87,1.19l0 2.05c0,1.07 -0.87,1.95 -1.95,1.95z"/>
    <path class="fil1" d="M24.14 34.84l-3.21 0c-0.75,0 -1.44,-0.31 -1.93,-0.8 -0.49,-0.49 -0.8,-1.18 -0.8,-1.93l0 -1.47c-0.33,-0.11 -0.66,-0.23 -0.99,-0.37 -0.33,-0.14 -0.65,-0.28 -0.96,-0.44l-1.03 1.03 0 0c-0.26,0.26 -0.56,0.45 -0.89,0.59 -0.33,0.14 -0.68,0.21 -1.04,0.21 -0.36,0 -0.72,-0.07 -1.05,-0.21l0 -0c-0.33,-0.14 -0.63,-0.34 -0.89,-0.59l0 -0 -2.27 -2.27 -0 0 -0 -0c-0.53,-0.53 -0.8,-1.23 -0.8,-1.93 0,-0.7 0.27,-1.4 0.8,-1.93l1.04 -1.04c-0.16,-0.31 -0.3,-0.63 -0.44,-0.96 -0.13,-0.32 -0.26,-0.65 -0.36,-0.99l-1.47 0c-0.36,0 -0.72,-0.07 -1.05,-0.21l0 -0c-0.33,-0.14 -0.63,-0.34 -0.89,-0.59l0 -0c-0.26,-0.26 -0.46,-0.56 -0.59,-0.89 -0.14,-0.33 -0.21,-0.68 -0.21,-1.04l0 0 0 -3.21 -0 0c0,-0.75 0.31,-1.43 0.8,-1.93 0.49,-0.49 1.18,-0.8 1.93,-0.8l1.47 0c0.11,-0.33 0.23,-0.66 0.36,-0.98 0.13,-0.32 0.28,-0.64 0.44,-0.95l-1.04 -1.04c-0.25,-0.25 -0.45,-0.55 -0.59,-0.89l-0 0c-0.14,-0.33 -0.21,-0.68 -0.21,-1.05 0,-0.36 0.07,-0.72 0.21,-1.05l0 0c0.14,-0.33 0.34,-0.63 0.59,-0.89l0 0 2.27 -2.27c0.53,-0.53 1.23,-0.8 1.93,-0.8 0.7,0 1.4,0.27 1.93,0.8l1.04 1.04c0.31,-0.16 0.63,-0.3 0.95,-0.44 0.32,-0.13 0.65,-0.26 0.98,-0.36l0 -1.47c0,-0.75 0.31,-1.44 0.8,-1.93 0.49,-0.49 1.18,-0.8 1.93,-0.8l3.21 0c0.75,0 1.44,0.31 1.93,0.8 0.49,0.49 0.8,1.18 0.8,1.93l0 1.47c0.33,0.11 0.66,0.23 0.98,0.36 0.33,0.13 0.64,0.28 0.95,0.44l1.04 -1.04c0.53,-0.53 1.23,-0.8 1.93,-0.8 0.7,0 1.4,0.27 1.93,0.8l2.27 2.27 0 0c0.26,0.26 0.46,0.56 0.59,0.89 0.14,0.33 0.21,0.68 0.21,1.05 0,0.36 -0.07,0.72 -0.21,1.05l-0 0c-0.14,0.33 -0.34,0.63 -0.59,0.89l-1.04 1.04c0.16,0.31 0.3,0.63 0.44,0.95 0.13,0.32 0.26,0.65 0.36,0.98l1.47 0c0.75,0 1.43,0.31 1.93,0.8 0.5,0.5 0.8,1.18 0.8,1.93l-0 0 0 3.21c0,0.36 -0.07,0.72 -0.21,1.04 -0.14,0.33 -0.34,0.64 -0.59,0.89l-0 -0c-0.26,0.26 -0.56,0.46 -0.88,0.6 -0.33,0.14 -0.69,0.21 -1.05,0.21l-1.47 0c-0.11,0.33 -0.23,0.66 -0.36,0.98 -0.14,0.33 -0.28,0.65 -0.44,0.96l1.04 1.04c0.53,0.53 0.8,1.23 0.8,1.93 0,0.7 -0.27,1.4 -0.8,1.93l-0 -0 -2.27 2.27c-0.26,0.26 -0.56,0.46 -0.89,0.59 -0.33,0.14 -0.68,0.21 -1.04,0.21 -0.36,0 -0.71,-0.07 -1.04,-0.21 -0.33,-0.14 -0.63,-0.34 -0.89,-0.59l-0 0 -1.04 -1.04c-0.31,0.16 -0.63,0.31 -0.96,0.44 -0.32,0.13 -0.65,0.26 -0.99,0.37l0 1.47c0,0.75 -0.31,1.44 -0.8,1.93 -0.49,0.49 -1.18,0.8 -1.93,0.8zm-3.21 -1.57l3.21 0c0.32,0 0.61,-0.13 0.82,-0.34 0.21,-0.21 0.34,-0.5 0.34,-0.82l0 -2.64 0.57 -0.16c0.47,-0.13 0.93,-0.29 1.38,-0.48 0.45,-0.19 0.89,-0.4 1.32,-0.64l0.52 -0.29 1.87 1.87 0 0c0.11,0.11 0.24,0.19 0.37,0.25 0.14,0.06 0.29,0.09 0.45,0.09 0.16,0 0.31,-0.03 0.45,-0.09 0.14,-0.06 0.26,-0.14 0.38,-0.25l2.27 -2.27 0 -0c0.23,-0.23 0.34,-0.52 0.34,-0.82 0,-0.3 -0.11,-0.6 -0.34,-0.82l-1.87 -1.87 0.29 -0.52c0.24,-0.43 0.46,-0.87 0.64,-1.32 0.19,-0.45 0.35,-0.91 0.48,-1.38l0.16 -0.58 2.64 0c0.16,0 0.31,-0.03 0.45,-0.09 0.14,-0.06 0.27,-0.14 0.38,-0.25l0 -0c0.11,-0.11 0.2,-0.24 0.26,-0.37 0.06,-0.14 0.09,-0.29 0.09,-0.45l-0 -3.21 -0 0c0,-0.32 -0.13,-0.61 -0.34,-0.82 -0.21,-0.21 -0.5,-0.34 -0.83,-0.34l-2.64 0 -0.16 -0.57c-0.13,-0.47 -0.29,-0.93 -0.48,-1.38 -0.19,-0.45 -0.4,-0.89 -0.64,-1.32l-0.29 -0.52 1.87 -1.87c0.11,-0.11 0.2,-0.24 0.26,-0.38l0 -0c0.06,-0.14 0.09,-0.29 0.09,-0.45 0,-0.16 -0.03,-0.31 -0.09,-0.44 -0.06,-0.14 -0.14,-0.27 -0.26,-0.38l0 -0 -2.27 -2.27c-0.23,-0.23 -0.53,-0.34 -0.83,-0.34 -0.3,0 -0.59,0.11 -0.82,0.34l-1.87 1.87 -0.52 -0.29c-0.43,-0.24 -0.87,-0.46 -1.31,-0.64 -0.45,-0.18 -0.91,-0.34 -1.38,-0.48l-0.57 -0.16 0 -2.64c0,-0.32 -0.13,-0.61 -0.34,-0.82 -0.21,-0.21 -0.5,-0.34 -0.82,-0.34l-3.21 0c-0.32,0 -0.61,0.13 -0.82,0.34 -0.21,0.21 -0.34,0.5 -0.34,0.82l0 2.64 -0.57 0.16c-0.48,0.13 -0.94,0.29 -1.38,0.48 -0.44,0.18 -0.88,0.4 -1.31,0.64l-0.52 0.29 -1.87 -1.87c-0.23,-0.23 -0.53,-0.34 -0.82,-0.34 -0.3,0 -0.6,0.11 -0.83,0.34l-2.27 2.27 0 0c-0.11,0.11 -0.2,0.24 -0.26,0.37l0 0c-0.06,0.14 -0.09,0.29 -0.09,0.44 0,0.16 0.03,0.31 0.09,0.45l0 0c0.06,0.13 0.14,0.26 0.26,0.38l1.87 1.87 -0.29 0.52c-0.24,0.43 -0.45,0.87 -0.64,1.32 -0.19,0.45 -0.35,0.91 -0.48,1.38l-0.16 0.57 -2.64 0c-0.32,0 -0.61,0.13 -0.83,0.34 -0.21,0.21 -0.34,0.5 -0.34,0.82l-0 0 -0 3.21 0 0c0,0.16 0.03,0.31 0.09,0.45 0.06,0.14 0.14,0.26 0.25,0.37l0 0c0.11,0.11 0.24,0.2 0.37,0.26l0 0c0.14,0.06 0.29,0.09 0.45,0.09l2.64 0 0.16 0.58c0.13,0.47 0.29,0.93 0.48,1.38 0.18,0.44 0.4,0.88 0.64,1.31l0.29 0.52 -1.87 1.87c-0.23,0.23 -0.34,0.52 -0.34,0.82 0,0.3 0.11,0.6 0.34,0.82l0 -0 0 0 2.27 2.27 0 -0c0.11,0.11 0.24,0.2 0.37,0.26l0 0c0.14,0.06 0.29,0.09 0.45,0.09 0.16,0 0.31,-0.03 0.45,-0.09 0.13,-0.06 0.26,-0.14 0.37,-0.26l0 0 1.87 -1.87 0.52 0.29c0.43,0.24 0.87,0.46 1.32,0.64 0.45,0.19 0.91,0.35 1.38,0.48l0.57 0.16 0 2.64c0,0.32 0.13,0.61 0.34,0.82 0.21,0.21 0.5,0.34 0.82,0.34z"/>
    <path class="fil2" d="M34.67 20.32l2.55 0c0.72,0 1.3,-0.58 1.3,-1.3l-0 -3.21c-0,-0.72 -0.58,-1.3 -1.3,-1.3l-2.55 0c-0.31,-1.3 -0.82,-2.51 -1.5,-3.62l1.8 -1.8c0.51,-0.51 0.51,-1.33 -0,-1.84l-2.27 -2.27c-0.51,-0.51 -1.33,-0.51 -1.84,0l-1.8 1.8c-1.1,-0.68 -2.32,-1.19 -3.62,-1.5l0 -2.55c0,-0.72 -0.58,-1.3 -1.3,-1.3l-3.21 0c-0.72,0 -1.3,0.58 -1.3,1.3l0 2.55c-1.3,0.31 -2.51,0.82 -3.62,1.5l-1.8 -1.8c-0.51,-0.51 -1.33,-0.51 -1.84,0l-2.27 2.27c-0.51,0.51 -0.51,1.33 -0,1.84l1.8 1.8c-0.68,1.1 -1.19,2.32 -1.5,3.62l-2.55 0c-0.72,0 -1.3,0.58 -1.3,1.3l-0 3.21c0,0.72 0.58,1.3 1.3,1.3l2.55 0c0.31,1.3 0.82,2.52 1.5,3.62l-1.8 1.8c-0.51,0.51 -0.51,1.33 -0,1.84l2.27 2.27c0.51,0.51 1.33,0.51 1.84,0l1.8 -1.8c1.11,0.68 2.33,1.19 3.63,1.5l0 2.55c0,0.72 0.58,1.3 1.3,1.3l3.21 0c0.72,0 1.3,-0.58 1.3,-1.3l0 -2.55c1.3,-0.31 2.52,-0.82 3.63,-1.5l1.8 1.8c0.51,0.51 1.33,0.51 1.84,-0l2.27 -2.27c0.51,-0.51 0.51,-1.33 0,-1.84l-1.8 -1.8c0.68,-1.11 1.19,-2.33 1.5,-3.62z"/>
    <g>
     <circle class="fil3" cx="22.53" cy="17.42" r="8.05"/>
     <circle class="fil4" cx="22.53" cy="17.42" r="5.2"/>
     <path class="fil1" d="M22.53 26.12c-2.32,0 -4.51,-0.91 -6.15,-2.55 -1.64,-1.64 -2.55,-3.83 -2.55,-6.15 0,-2.32 0.91,-4.51 2.55,-6.15 2.6,-2.6 6.58,-3.29 9.9,-1.7 0.32,0.15 0.46,0.54 0.31,0.87 -0.15,0.32 -0.54,0.46 -0.87,0.31 -2.82,-1.35 -6.21,-0.77 -8.42,1.45 -1.4,1.4 -2.17,3.26 -2.17,5.24 0,1.98 0.77,3.84 2.17,5.24 1.4,1.4 3.26,2.17 5.24,2.17 1.98,0 3.84,-0.77 5.24,-2.17 2.3,-2.3 2.83,-5.78 1.33,-8.66 -0.17,-0.32 -0.04,-0.71 0.28,-0.88 0.32,-0.17 0.71,-0.04 0.88,0.28 0.85,1.63 1.16,3.46 0.89,5.29 -0.27,1.86 -1.12,3.55 -2.46,4.89 -1.64,1.64 -3.83,2.55 -6.15,2.55z"/>
     <path class="fil1" d="M28.25 12.4c-0.17,0 -0.33,-0.06 -0.46,-0.19l-0.02 -0.02c-0.25,-0.25 -0.25,-0.67 0,-0.92 0.25,-0.25 0.66,-0.25 0.92,0l0.03 0.03c0.25,0.26 0.25,0.67 -0,0.92 -0.13,0.13 -0.29,0.19 -0.46,0.19z"/>
     <path class="fil1" d="M22.54 23.27c-0.63,0 -1.26,-0.1 -1.88,-0.31 -0.34,-0.11 -0.52,-0.48 -0.41,-0.82 0.11,-0.34 0.48,-0.52 0.82,-0.41 1.65,0.55 3.44,0.13 4.67,-1.09 0.86,-0.86 1.33,-2 1.33,-3.22 0,-1.21 -0.47,-2.36 -1.33,-3.21 -0.86,-0.86 -2,-1.33 -3.21,-1.33 -1.21,0 -2.36,0.47 -3.21,1.33 -1.22,1.22 -1.64,2.99 -1.11,4.63 0.11,0.34 -0.07,0.71 -0.42,0.82 -0.34,0.11 -0.71,-0.07 -0.82,-0.42 -0.69,-2.11 -0.14,-4.39 1.42,-5.95 1.1,-1.1 2.57,-1.71 4.13,-1.71 1.56,0 3.03,0.61 4.13,1.71 1.1,1.1 1.71,2.57 1.71,4.13 0,1.56 -0.61,3.03 -1.71,4.13 -1.12,1.12 -2.6,1.72 -4.12,1.72z"/>
     <path class="fil1" d="M18.88 21.76c-0.17,0 -0.33,-0.06 -0.46,-0.19l-0.02 -0.02c-0.25,-0.25 -0.25,-0.67 0,-0.92 0.25,-0.25 0.66,-0.25 0.92,0l0.02 0.02c0.26,0.25 0.26,0.66 0,0.92 -0.13,0.13 -0.29,0.19 -0.46,0.19z"/>
    </g>
    <path class="fil0" d="M44.31 30.59l-13.19 0 -3.97 -3.76c-0.5,-0.48 -1.36,-0.11 -1.36,0.58l0 3.27c-1.84,0.43 -2.71,1.58 -2.71,3.42 0,3.52 0,6.05 0,10.25 0,1.94 1.58,3.52 3.51,3.52l17.71 0c1.94,0 3.51,-1.58 3.51,-3.52l0 -10.25c0,-1.94 -1.58,-3.51 -3.51,-3.51z"/>
    <path class="fil1" d="M44.31 31.38l-13.51 -0 -4.19 -3.97c-0.01,0 -0.01,0 -0.02,0l-0.02 0.01 0 0 0 3.89 -0.61 0.14c-0.74,0.17 -1.27,0.47 -1.61,0.9 -0.34,0.43 -0.5,1.02 -0.5,1.76l0 0 0 10.25c0,0.75 0.31,1.43 0.8,1.93 0.49,0.49 1.18,0.8 1.93,0.8l17.71 0c0.75,0 1.43,-0.31 1.93,-0.8 0.49,-0.49 0.8,-1.18 0.8,-1.93l0 -10.25c0,-0.75 -0.31,-1.44 -0.8,-1.93 -0.49,-0.49 -1.18,-0.8 -1.93,-0.8l0 -0zm-12.88 -1.56l12.88 0 0 -0c1.19,0 2.26,0.48 3.04,1.26 0.78,0.78 1.26,1.85 1.26,3.04l0 10.25c0,1.19 -0.48,2.26 -1.26,3.04 -0.78,0.78 -1.85,1.26 -3.04,1.26l-17.71 0c-1.19,0 -2.26,-0.48 -3.04,-1.26 -0.78,-0.78 -1.26,-1.85 -1.26,-3.04l0 -10.25 0 0c0,-1.1 0.27,-2.01 0.83,-2.72 0.45,-0.58 1.08,-1.01 1.88,-1.29l0 -2.68c0,-0.43 0.17,-0.8 0.43,-1.08 0.15,-0.16 0.34,-0.29 0.53,-0.37 0.2,-0.09 0.42,-0.13 0.64,-0.13 0.38,0 0.76,0.13 1.08,0.43l3.74 3.54zm-4.85 -2.39l-0 0c-0,0 0,-0 0,-0z"/>
    <g>
     <path class="fil1" d="M39.29 42.64c0.24,0.24 0.64,0.24 0.88,-0l2.6 -2.62c0.24,-0.24 0.24,-0.63 0,-0.87l-2.6 -2.62c-0.24,-0.24 -0.63,-0.25 -0.88,-0 -0.24,0.24 -0.25,0.64 -0,0.88l2.16 2.18 -2.16 2.18c-0.24,0.24 -0.24,0.64 0,0.88l0 0z"/>
     <path class="fil1" d="M31.62 36.51c-0.24,-0.24 -0.64,-0.24 -0.88,0l-2.6 2.62c-0.24,0.24 -0.24,0.63 0,0.87l2.6 2.62c0.24,0.24 0.63,0.25 0.88,0 0.24,-0.24 0.25,-0.64 0,-0.88l-2.16 -2.18 2.16 -2.18c0.24,-0.24 0.24,-0.64 -0,-0.88l0 0z"/>
     <path class="fil1" d="M36.46 34.76l-3.65 9.18c-0.13,0.32 0.03,0.68 0.35,0.81 0.32,0.13 0.68,-0.03 0.81,-0.35l3.65 -9.18c0.13,-0.32 -0.03,-0.68 -0.35,-0.81 -0.32,-0.13 -0.68,0.03 -0.81,0.35z"/>
    </g>
    <path class="fil1" d="M42.81 8.28c0.24,-0.22 0.61,-0.21 0.83,0.03 0.93,0.99 1.65,2.12 2.16,3.34 0.86,2.07 1.09,4.37 0.62,6.59l0.5 -0.42c0.25,-0.21 0.62,-0.18 0.82,0.07 0.04,0.05 0.07,0.1 0.09,0.15 0.1,0.23 0.04,0.5 -0.16,0.67l-2.02 1.7c-0.15,0.13 -0.35,0.17 -0.54,0.11 -0.19,-0.05 -0.34,-0.19 -0.4,-0.38l-0.82 -2.51c-0.1,-0.31 0.07,-0.64 0.37,-0.74 0.31,-0.1 0.64,0.07 0.74,0.37l0.26 0.78c0.69,-3.18 -0.22,-6.55 -2.47,-8.95 -0.22,-0.24 -0.21,-0.61 0.03,-0.83l0 0z"/>
    <path class="fil1" d="M10.57 36.73c-0.08,0.31 -0.39,0.5 -0.71,0.43 -1.32,-0.32 -2.54,-0.88 -3.63,-1.63 -1.85,-1.26 -3.29,-3.07 -4.11,-5.19l-0.19 0.62c-0.09,0.31 -0.42,0.48 -0.73,0.39 -0.06,-0.02 -0.11,-0.04 -0.16,-0.08 -0.2,-0.14 -0.31,-0.4 -0.23,-0.65l0.77 -2.53c0.06,-0.19 0.2,-0.33 0.39,-0.39 0.19,-0.06 0.39,-0.02 0.54,0.1l2.06 1.65c0.25,0.2 0.29,0.57 0.09,0.82 -0.2,0.25 -0.57,0.29 -0.82,0.09l-0.64 -0.51c1.15,3.04 3.75,5.37 6.95,6.16 0.31,0.08 0.51,0.39 0.43,0.71l0 0z"/>
   </g>
   <rect class="fil5" x="0" y="0" width="48.66" height="48.66"/>
  </g>
 </g>
</svg>
