<?xml version="1.0" encoding="UTF-8"?>
<!DOCTYPE svg PUBLIC "-//W3C//DTD SVG 1.1//EN" "http://www.w3.org/Graphics/SVG/1.1/DTD/svg11.dtd">
<!-- Creator: CorelDRAW -->
<svg xmlns="http://www.w3.org/2000/svg" xml:space="preserve" width="5.4187mm" height="5.4187mm" version="1.1" style="shape-rendering:geometricPrecision; text-rendering:geometricPrecision; image-rendering:optimizeQuality; fill-rule:evenodd; clip-rule:evenodd"
viewBox="0 0 52.77 52.77"
 xmlns:xlink="http://www.w3.org/1999/xlink"
 xmlns:xodm="http://www.corel.com/coreldraw/odm/2003">
 <defs>
  <style type="text/css">
   <![CDATA[
    .fil3 {fill:none}
    .fil1 {fill:#E95050;fill-rule:nonzero}
    .fil2 {fill:#129598;fill-rule:nonzero}
    .fil0 {fill:#263155;fill-rule:nonzero}
   ]]>
  </style>
 </defs>
 <g id="Layer_x0020_1">
  <metadata id="CorelCorpID_0Corel-Layer"/>
  <g id="_2023092352224">
   <path class="fil0" d="M28.03 32.15l-4.94 0c-0.45,-0 -0.82,0.37 -0.82,0.82 0,0.45 0.37,0.82 0.82,0.82l4.94 0c0.45,0 0.82,-0.37 0.82,-0.82 0,-0.45 -0.37,-0.82 -0.82,-0.82l0 0z"/>
   <path class="fil0" d="M50.27 23.11l0 -18.14c-0,-2.27 -1.84,-4.12 -4.12,-4.12l-35.42 0c-0.45,0 -0.82,0.37 -0.82,0.82 0,0.45 0.37,0.82 0.82,0.82l35.42 0c1.36,0 2.47,1.11 2.47,2.47l0 17.38c-0.27,-0.06 -0.55,-0.08 -0.82,-0.08 0,0 0,0 0,0l-9.88 0c-2.27,0 -4.12,1.84 -4.12,4.12l0 2.47 -31.3 0 0 -23.89c0,-1.36 1.11,-2.47 2.47,-2.47l2.47 0c0.45,0 0.82,-0.37 0.82,-0.82 0,-0.45 -0.37,-0.82 -0.82,-0.82l-2.47 0c-2.27,0 -4.12,1.85 -4.12,4.12l-0 28.01c0,2.27 1.85,4.12 4.12,4.12l14 0 0 0.33c0,1.63 -0.45,3.22 -1.28,4.62l-0.36 0c-1.82,0 -3.29,1.48 -3.29,3.29l0 0.82c0,0.45 0.37,0.82 0.82,0.82l18.95 0 0 0.82c0,2.27 1.85,4.12 4.12,4.12l9.88 0c2.27,-0 4.12,-1.85 4.12,-4.12l0 -21.42c-0,-1.29 -0.62,-2.5 -1.65,-3.27l0 0zm-12.36 0.8l9.88 0c1.36,0 2.47,1.11 2.47,2.47l0 0.82 -14.83 0 0 -0.82c0,-1.36 1.11,-2.47 2.47,-2.47l0 0zm-4.48 18.12c-0.84,-1.39 -1.28,-2.99 -1.28,-4.62l0 -0.33 1.65 0 0 4.94 -0.36 0zm-30.94 -9.06l0 -2.47 31.3 0 0 4.94 -28.83 0c-1.36,-0 -2.47,-1.11 -2.47,-2.47l0 0zm18.12 4.44l0 -0.33 9.88 0 0 0.33c0,0 0,0 0,0 0,1.6 0.36,3.18 1.06,4.61l-12 0c0.69,-1.44 1.06,-3.02 1.06,-4.61 0,0 0,-0 0,-0l0 -0zm-4.94 7.91c0,-0.91 0.74,-1.65 1.65,-1.65l16.47 0 0 1.65 -18.12 0zm32.12 4.94l-9.88 0c-1.36,-0 -2.47,-1.11 -2.47,-2.47l0 -2.47 9.88 0c0.45,0 0.82,-0.37 0.82,-0.82 0,-0.45 -0.37,-0.82 -0.82,-0.82l-9.88 0 0 -14.83 14.83 0 0 14.83 -1.65 0c-0.45,0 -0.82,0.37 -0.82,0.82 0,0.45 0.37,0.82 0.82,0.82l1.65 0 0 2.47c-0,1.36 -1.11,2.47 -2.47,2.47l0 0z"/>
   <path class="fil0" d="M44.51 46.98l-3.29 0c-0.45,0 -0.82,0.37 -0.82,0.82 0,0.46 0.37,0.82 0.82,0.82l3.29 0c0.45,0 0.82,-0.37 0.82,-0.82 0,-0.45 -0.37,-0.82 -0.82,-0.82l0 0z"/>
   <g>
    <path class="fil1" d="M29.97 22.05c0.43,0.43 1.14,0.43 1.57,-0.01l4.64 -4.69c0.43,-0.43 0.43,-1.13 0,-1.56l-4.64 -4.69c-0.43,-0.44 -1.14,-0.44 -1.57,-0.01 -0.44,0.43 -0.44,1.14 -0.01,1.57l3.87 3.91 -3.87 3.91c-0.43,0.44 -0.43,1.14 0.01,1.57l0 0z"/>
    <path class="fil1" d="M16.26 11.1c-0.44,-0.43 -1.14,-0.43 -1.57,0.01l-4.64 4.69c-0.43,0.43 -0.43,1.13 0,1.56l4.64 4.69c0.43,0.44 1.13,0.44 1.57,0.01 0.44,-0.43 0.44,-1.14 0.01,-1.57l-3.87 -3.91 3.87 -3.91c0.43,-0.44 0.43,-1.14 -0.01,-1.57l0 -0z"/>
    <path class="fil1" d="M24.91 7.96l-6.52 16.41c-0.23,0.57 0.05,1.22 0.62,1.44 0.57,0.23 1.22,-0.05 1.44,-0.62l6.52 -16.41c0.23,-0.57 -0.05,-1.22 -0.62,-1.44 -0.57,-0.23 -1.22,0.05 -1.44,0.62z"/>
   </g>
   <g>
    <path class="fil2" d="M45.88 39.01c0.18,0.18 0.46,0.18 0.64,-0l1.89 -1.91c0.17,-0.18 0.17,-0.46 0,-0.64l-1.89 -1.91c-0.18,-0.18 -0.46,-0.18 -0.64,-0 -0.18,0.18 -0.18,0.46 -0,0.64l1.58 1.59 -1.58 1.59c-0.18,0.18 -0.17,0.46 0,0.64l0 0z"/>
    <path class="fil2" d="M40.29 34.55c-0.18,-0.18 -0.46,-0.18 -0.64,0l-1.89 1.91c-0.17,0.18 -0.17,0.46 0,0.64l1.89 1.91c0.18,0.18 0.46,0.18 0.64,0 0.18,-0.18 0.18,-0.46 0,-0.64l-1.58 -1.59 1.58 -1.59c0.18,-0.18 0.17,-0.46 -0,-0.64l0 0z"/>
    <path class="fil2" d="M43.82 33.27l-2.66 6.69c-0.09,0.23 0.02,0.5 0.25,0.59 0.23,0.09 0.49,-0.02 0.59,-0.25l2.66 -6.69c0.09,-0.23 -0.02,-0.5 -0.25,-0.59 -0.23,-0.09 -0.5,0.02 -0.59,0.25z"/>
   </g>
   <rect class="fil3" x="-0" y="0" width="52.77" height="52.77"/>
  </g>
 </g>
</svg>
